<svg xmlns="http://www.w3.org/2000/svg" xmlns:xlink="http://www.w3.org/1999/xlink" viewBox="0 0 251.69 262.18"><defs><style>.cls-1{fill:#2d2d2d;}.cls-2{fill:url(#linear-gradient);}.cls-3{fill:url(#linear-gradient-2);}.cls-4{fill:#f89623;}.cls-5{fill:url(#linear-gradient-3);}.cls-6{fill:url(#linear-gradient-4);}.cls-7{fill:#1fad90;}</style><linearGradient id="linear-gradient" x1="86.06" y1="22.34" x2="115.85" y2="49.84" gradientUnits="userSpaceOnUse"><stop offset="0" stop-color="#cc6517"/><stop offset="1" stop-color="#f89623"/></linearGradient><linearGradient id="linear-gradient-2" x1="76.53" y1="100.42" x2="143.93" y2="100.42" xlink:href="#linear-gradient"/><linearGradient id="linear-gradient-3" x1="-3128.12" y1="-323.66" x2="-3098.33" y2="-296.17" gradientTransform="translate(-2957.97 -212.4) rotate(180)" gradientUnits="userSpaceOnUse"><stop offset="0" stop-color="#178e72"/><stop offset="1" stop-color="#1fad90"/></linearGradient><linearGradient id="linear-gradient-4" x1="180.23" y1="0" x2="114.07" y2="64.09" gradientTransform="matrix(1, 0, 0, 1, 0, 0)" xlink:href="#linear-gradient-3"/></defs><g id="Layer_2" data-name="Layer 2"><g id="Layer_1-2" data-name="Layer 1"><path class="cls-1" d="M128.79,159.87l-20.14,59.75H102l-17.5-51-17.58,51H60.34L40.2,159.87h6.48l17.24,51.38,17.84-51.38h5.89l17.58,51.64,17.5-51.64Z"/><path class="cls-1" d="M190.24,159.87v59.75H184V192.05H146.63v27.57h-6.32V159.87h6.32V186.5H184V159.87Z"/><path class="cls-1" d="M209.7,159.87H216v59.75H209.7Z"/><path class="cls-2" d="M105.23,47.32a6.85,6.85,0,0,1-4.81-2L85.5,30.8a6.89,6.89,0,1,1,9.62-9.86L110,35.5a6.89,6.89,0,0,1-4.81,11.82Z"/><path class="cls-3" d="M83.22,133.59a6.88,6.88,0,0,1-4.62-11.8l53.61-52.57a6.89,6.89,0,1,1,9.65,9.83L88.25,131.63A6.89,6.89,0,0,1,83.22,133.59Z"/><path class="cls-4" d="M97.61,119.6a7.27,7.27,0,0,0,4.88-1.87L88.3,131.58a7,7,0,0,1-2.9,1.73l-.25.07-.21.05-.22,0-.25,0-.34.05c-.23,0-.47,0-.7,0s-.46,0-.68,0l-.27,0-.1,0-.3,0-.38-.08-.32-.1a4.57,4.57,0,0,1-.65-.24l-.29-.12A6.61,6.61,0,0,1,79,132a.88.88,0,0,1-.2-.18,1.7,1.7,0,0,1-.24-.22c-.17-.16-.31-.32-.46-.49a8.34,8.34,0,0,1-.74-1.09,7.26,7.26,0,0,1-.65-1.74c0-.09,0-.18,0-.26a.93.93,0,0,1,0-.24c0-.12,0-.23,0-.35s0-.46,0-.7V19.33c0-.24,0-.47,0-.7s0-.23,0-.35a1,1,0,0,1,0-.25c0-.08,0-.16,0-.25A7.26,7.26,0,0,1,77.36,16,8.34,8.34,0,0,1,78.1,15a5.33,5.33,0,0,1,.46-.49,1.7,1.7,0,0,1,.24-.22.91.91,0,0,1,.2-.19,7,7,0,0,1,1.44-.93,2.52,2.52,0,0,1,.29-.12,4.6,4.6,0,0,1,.65-.25l.32-.09.38-.09.3,0,.1,0,.27,0c.22,0,.45,0,.68,0s.47,0,.7,0l.34,0,.25,0,.22,0,.21.05.25.07a6.92,6.92,0,0,1,2.9,1.73l14.19,13.85a7.3,7.3,0,0,0-12.18,5.42v78.58a7.31,7.31,0,0,0,7.3,7.29Z"/><path class="cls-5" d="M151,86.28a6.86,6.86,0,0,1,4.81,2l14.91,14.56a6.89,6.89,0,1,1-9.62,9.86L146.17,98.1A6.89,6.89,0,0,1,151,86.28Z"/><path class="cls-6" d="M173,0a6.88,6.88,0,0,1,4.61,11.8L124,64.38a6.89,6.89,0,1,1-9.65-9.83L168,2A6.86,6.86,0,0,1,173,0Z"/><path class="cls-7" d="M179.67,6.9V114.27c0,.24,0,.47,0,.7s0,.23-.05.35a2.17,2.17,0,0,1,0,.25c0,.07,0,.17-.06.25a6.5,6.5,0,0,1-.65,1.74,8,8,0,0,1-.74,1.09c-.15.17-.29.33-.45.49l-.24.23a1.2,1.2,0,0,1-.21.17,6.61,6.61,0,0,1-1.44.94l-.28.13c-.22.09-.43.17-.66.24l-.31.09c-.13,0-.25,0-.39.08l-.3,0-.09,0-.28,0a4.92,4.92,0,0,1-.67,0,5.74,5.74,0,0,1-.71,0l-.34-.05a1,1,0,0,1-.24,0l-.23,0-.2,0-.25-.07a7,7,0,0,1-2.9-1.73l-14.2-13.85a7.3,7.3,0,0,0,12.18-5.42V21.29a7.29,7.29,0,0,0-12.18-5.41L167.92,2A6.67,6.67,0,0,1,170.82.3l.25-.08.2,0,.23-.05.24,0,.34,0c.24,0,.48,0,.71,0s.45,0,.67,0l.28,0h.09l.3,0,.39.09a2.81,2.81,0,0,1,.31.1,4,4,0,0,1,.66.24,2.36,2.36,0,0,1,.28.12,7,7,0,0,1,1.44.93,2,2,0,0,1,.21.19l.24.23c.16.15.3.31.45.48a8,8,0,0,1,.74,1.09,6.63,6.63,0,0,1,.65,1.74l.06.26a1.64,1.64,0,0,1,0,.25c0,.11,0,.22.05.34S179.67,6.65,179.67,6.9Z"/><path class="cls-1" d="M3,258.9,0,248H1.34l2.28,8.88h.11L6.05,248H7.54l2.32,8.88H10L12.25,248h1.34l-3,10.91H9.25l-2.41-8.7H6.75l-2.4,8.7Z"/><path class="cls-1" d="M19.18,258.9V248h6.58v1.17H20.5v3.69h4.92V254H20.5v3.71h5.35v1.17Z"/><path class="cls-1" d="M32.09,258.9V248h3.82a4,4,0,0,1,1.88.39,2.6,2.6,0,0,1,1.1,1.05,3,3,0,0,1,.36,1.46,2.49,2.49,0,0,1-.24,1.16,2.06,2.06,0,0,1-.65.72,3.05,3.05,0,0,1-.88.4v.1a2.15,2.15,0,0,1,1,.35,2.61,2.61,0,0,1,.85.92,2.89,2.89,0,0,1,.34,1.46,3,3,0,0,1-.37,1.48,2.64,2.64,0,0,1-1.18,1,5,5,0,0,1-2.09.38Zm1.33-6.12h2.45a2.5,2.5,0,0,0,1.07-.23,1.91,1.91,0,0,0,.77-.66,1.78,1.78,0,0,0,.29-1,1.71,1.71,0,0,0-.5-1.23,2.21,2.21,0,0,0-1.59-.5H33.42Zm0,5H36a2.68,2.68,0,0,0,1.84-.51,1.59,1.59,0,0,0,.54-1.22,1.91,1.91,0,0,0-.28-1,2.09,2.09,0,0,0-.8-.76,2.55,2.55,0,0,0-1.24-.29H33.42Z"/><path class="cls-1" d="M57.33,258.9H54V248h3.52a5.36,5.36,0,0,1,2.71.65,4.29,4.29,0,0,1,1.73,1.87,6.38,6.38,0,0,1,.61,2.91,6.57,6.57,0,0,1-.61,2.93,4.38,4.38,0,0,1-1.77,1.89A5.6,5.6,0,0,1,57.33,258.9Zm-2-1.17h2a4.34,4.34,0,0,0,2.24-.53,3.14,3.14,0,0,0,1.33-1.48,6.22,6.22,0,0,0,0-4.57,3.2,3.2,0,0,0-1.29-1.47,4,4,0,0,0-2.14-.52H55.28Z"/><path class="cls-1" d="M68.69,258.9V248h6.58v1.17H70v3.69h4.92V254H70v3.71h5.35v1.17Z"/><path class="cls-1" d="M90.21,258.9H88.83l4-10.91H94.2l4,10.91H96.82l-3.26-9.18h-.09Zm.52-4.26h5.58v1.17H90.73Z"/><path class="cls-1" d="M103.85,258.9V248h1.32v9.74h5.08v1.17Z"/><path class="cls-1" d="M114.19,249.16V248h8.18v1.17h-3.43v9.74h-1.32v-9.74Z"/><path class="cls-1" d="M127.53,258.9h-1.38l4-10.91h1.37l4,10.91h-1.38l-3.26-9.18h-.09Zm.51-4.26h5.58v1.17H128Z"/><path class="cls-1" d="M150.66,248V258.9h-1.33V248Z"/><path class="cls-1" d="M165.89,248V258.9h-1.27l-6-8.57h-.11v8.57h-1.32V248h1.28l6,8.59h.1V248Z"/><path class="cls-1" d="M181.68,253.44a6.63,6.63,0,0,1-.62,3,4.63,4.63,0,0,1-8.38,0,7.39,7.39,0,0,1,0-6,4.63,4.63,0,0,1,8.38,0A6.58,6.58,0,0,1,181.68,253.44Zm-1.27,0a5.39,5.39,0,0,0-.48-2.39,3.35,3.35,0,0,0-1.27-1.47,3.45,3.45,0,0,0-3.58,0,3.43,3.43,0,0,0-1.28,1.47,6.34,6.34,0,0,0,0,4.79,3.43,3.43,0,0,0,1.28,1.47,3.35,3.35,0,0,0,4.85-1.47A5.4,5.4,0,0,0,180.41,253.44Z"/><path class="cls-1" d="M187.78,248l3.24,9.18h.13l3.24-9.18h1.38l-4,10.91H190.4l-4-10.91Z"/><path class="cls-1" d="M200.93,258.9h-1.38l4-10.91h1.37l4,10.91h-1.38l-3.26-9.18h-.09Zm.51-4.26H207v1.17h-5.59Z"/><path class="cls-1" d="M222.84,251.4h-1.32a2.81,2.81,0,0,0-.41-1,2.86,2.86,0,0,0-.7-.73,2.79,2.79,0,0,0-.92-.44,3.58,3.58,0,0,0-1-.15,3.24,3.24,0,0,0-1.79.5,3.43,3.43,0,0,0-1.28,1.47,6.34,6.34,0,0,0,0,4.79,3.43,3.43,0,0,0,1.28,1.47,3.33,3.33,0,0,0,1.79.5,3.58,3.58,0,0,0,1-.15,3.26,3.26,0,0,0,.92-.44,2.8,2.8,0,0,0,1.11-1.73h1.32a4.27,4.27,0,0,1-.55,1.5,3.9,3.9,0,0,1-1,1.12,4.34,4.34,0,0,1-1.31.7,4.89,4.89,0,0,1-1.55.24,4.5,4.5,0,0,1-4.19-2.62,7.39,7.39,0,0,1,0-6,4.5,4.5,0,0,1,4.19-2.62,4.89,4.89,0,0,1,1.55.24,4.13,4.13,0,0,1,1.31.7,3.9,3.9,0,0,1,1,1.12A4.27,4.27,0,0,1,222.84,251.4Zm-5,7.54h1.05l-.09.43a1.59,1.59,0,0,1,.77.35,1.1,1.1,0,0,1,.34.9,1.36,1.36,0,0,1-.57,1.13,2.69,2.69,0,0,1-1.67.43l0-.83a1.79,1.79,0,0,0,.82-.16.53.53,0,0,0,.33-.52.49.49,0,0,0-.27-.5,2.7,2.7,0,0,0-.88-.19Z"/><path class="cls-1" d="M229.36,258.9H228L232,248h1.37l4,10.91H236l-3.26-9.18h-.09Zm.51-4.26h5.59v1.17h-5.59ZM231,246.9l-1,0a1.91,1.91,0,0,1,.47-1.33,1.47,1.47,0,0,1,1.15-.52,1.3,1.3,0,0,1,.54.1,3.21,3.21,0,0,1,.45.24,2.64,2.64,0,0,0,.44.23,1.19,1.19,0,0,0,.51.11.69.69,0,0,0,.52-.24.84.84,0,0,0,.21-.57l.95.08a1.81,1.81,0,0,1-.46,1.32,1.68,1.68,0,0,1-1.76.39,2.52,2.52,0,0,1-.43-.24,3.64,3.64,0,0,0-.39-.23,1.13,1.13,0,0,0-.51-.11.64.64,0,0,0-.51.24A.88.88,0,0,0,231,246.9Z"/><path class="cls-1" d="M251.69,253.44a6.63,6.63,0,0,1-.62,3,4.7,4.7,0,0,1-1.71,1.94,4.63,4.63,0,0,1-6.67-1.94,7.39,7.39,0,0,1,0-6,4.72,4.72,0,0,1,6.67-1.94,4.7,4.7,0,0,1,1.71,1.94A6.58,6.58,0,0,1,251.69,253.44Zm-1.27,0a5.39,5.39,0,0,0-.48-2.39,3.35,3.35,0,0,0-1.27-1.47,3.45,3.45,0,0,0-3.58,0,3.43,3.43,0,0,0-1.28,1.47,6.34,6.34,0,0,0,0,4.79,3.43,3.43,0,0,0,1.28,1.47,3.35,3.35,0,0,0,4.85-1.47A5.4,5.4,0,0,0,250.42,253.44Z"/></g></g></svg>