<svg width="36" height="36" viewBox="0 0 36 36" fill="none" xmlns="http://www.w3.org/2000/svg">
<path d="M32.4 3.6H28.8V0H25.2V3.6H10.8V0H7.2V3.6H3.6C1.6119 3.6 0 5.2119 0 7.2V32.4C0 34.3881 1.6119 36 3.6 36H32.4C34.3881 36 36 34.3881 36 32.4V7.2C36 5.2119 34.3881 3.6 32.4 3.6ZM32.4 32.4H3.6V14.4H32.4V32.4ZM32.4 10.8H3.6V7.2H32.4V10.8Z" fill="white"/>
<path d="M21.6 18H18V21.6H21.6V18Z" fill="white"/>
<path d="M28.8 18H25.2V21.6H28.8V18Z" fill="white"/>
<path d="M21.6 25.2H18V28.8H21.6V25.2Z" fill="white"/>
<path d="M14.4 25.2H10.8V28.8H14.4V25.2Z" fill="white"/>
</svg>
