<svg width="42" height="42" viewBox="0 0 42 42" fill="none" xmlns="http://www.w3.org/2000/svg">
<path d="M40 24.1667L27.3333 24.1667C25.5844 24.1667 24.1667 25.5844 24.1667 27.3333L24.1667 36.8333C24.1667 38.5822 25.5844 40 27.3333 40L36.8333 40C38.5822 40 40 38.5822 40 36.8333L40 24.1667ZM40 24.1667L40 13.0833C40 6.96217 35.0378 2 28.9167 2M17.8333 24.1667L5.16666 24.1667C3.41771 24.1667 2 25.5844 2 27.3333L2 36.8333C2 38.5822 3.41771 40 5.16666 40L14.6667 40C16.4156 40 17.8333 38.5822 17.8333 36.8333L17.8333 24.1667ZM17.8333 24.1667L17.8333 13.0833C17.8333 6.96217 12.8712 2 6.75 2" stroke="#F18318" stroke-width="4"/>
</svg>
