<svg width="54" height="54" viewBox="0 0 54 54" fill="none" xmlns="http://www.w3.org/2000/svg">
<path d="M2 22.8333H18.6667C20.9678 22.8333 22.8333 20.9678 22.8333 18.6667V6.16667C22.8333 3.8655 20.9678 2 18.6667 2H6.16667C3.8655 2 2 3.8655 2 6.16667V22.8333ZM2 22.8333V37.4167C2 45.4708 8.52917 52 16.5833 52M31.1667 22.8333H47.8333C50.1346 22.8333 52 20.9678 52 18.6667V6.16667C52 3.8655 50.1346 2 47.8333 2H35.3333C33.0322 2 31.1667 3.8655 31.1667 6.16667V22.8333ZM31.1667 22.8333V37.4167C31.1667 45.4708 37.6958 52 45.75 52" stroke="#F18318" stroke-width="4"/>
</svg>
