<svg width="127" height="57" viewBox="0 0 127 57" fill="none" xmlns="http://www.w3.org/2000/svg">
<path d="M13.1046 55.1272C12.8192 55.1272 12.5636 55.0851 12.3368 55.001C12.1105 54.9175 11.9221 54.8043 11.7724 54.6618C11.6221 54.5216 11.4982 54.3517 11.3993 54.1526C11.3005 53.9541 11.2298 53.7439 11.1859 53.5267C11.1421 53.31 11.1198 53.0765 11.1198 52.8301V50.5015H11.8491V52.8301C11.8491 53.0052 11.8619 53.1693 11.8853 53.3246C11.911 53.4794 11.9549 53.6289 12.0169 53.7713C12.0795 53.9156 12.1578 54.0376 12.2507 54.138C12.3425 54.2385 12.4631 54.3208 12.6075 54.3809C12.7537 54.4428 12.9198 54.4738 13.1046 54.4738C13.2929 54.4738 13.4589 54.4428 13.6051 54.3809C13.753 54.3173 13.8717 54.2349 13.9653 54.1328C14.0583 54.0288 14.1349 53.9045 14.1952 53.7626C14.2577 53.6201 14.2998 53.4706 14.3232 53.3188C14.3489 53.1658 14.3601 53.0035 14.3601 52.8301V50.5015H15.0945V52.8301C15.0945 53.153 15.0559 53.4484 14.9811 53.7205C14.9045 53.9903 14.7893 54.2332 14.6337 54.4463C14.4788 54.66 14.2723 54.8282 14.0109 54.9467C13.7513 55.067 13.4478 55.1272 13.1046 55.1272Z" fill="black"/>
<path d="M18.0811 51.8479V55.0956H17.3571V50.5015H17.9512L20.5587 53.8221V50.5085H21.2897V55.0956H20.6541L18.0811 51.8479Z" fill="black"/>
<path d="M24.3427 50.5029H23.6188V55.0959H24.3427V50.5029Z" fill="black"/>
<path d="M29.0865 53.3108L28.3462 51.2981L27.5842 53.3108H29.0865ZM27.9187 49.6433C27.8509 49.6433 27.7941 49.6579 27.7485 49.6847C27.7012 49.7139 27.6684 49.749 27.6497 49.7893C27.6298 49.8307 27.6187 49.864 27.6117 49.8914C27.6058 49.9166 27.6023 49.937 27.6023 49.9533H27.2006C27.2006 49.9206 27.2058 49.8786 27.2204 49.8237C27.2315 49.7688 27.255 49.7052 27.29 49.6322C27.3245 49.5592 27.3684 49.4915 27.4175 49.4296C27.4672 49.3677 27.5328 49.3145 27.617 49.2708C27.6994 49.2287 27.7924 49.2071 27.8929 49.2071C28.0005 49.2071 28.1029 49.2305 28.2 49.2783C28.297 49.3256 28.39 49.3729 28.4777 49.4202C28.5672 49.4681 28.6549 49.4915 28.7409 49.4915C28.8011 49.4915 28.8526 49.4804 28.8982 49.4588C28.9438 49.4389 28.9783 49.415 29.0023 49.3875C29.0257 49.3601 29.0462 49.3291 29.0608 49.2964C29.0754 49.2637 29.0842 49.2381 29.0883 49.22C29.0918 49.1995 29.0918 49.1849 29.0918 49.1738H29.5011C29.5011 49.203 29.4935 49.2416 29.4812 49.2947C29.4666 49.3472 29.4408 49.4115 29.404 49.4845C29.3677 49.5592 29.3221 49.6264 29.2689 49.6906C29.2181 49.7525 29.1467 49.8074 29.0573 49.8529C28.9655 49.8985 28.8672 49.9206 28.7608 49.9206C28.6479 49.9206 28.5415 49.8985 28.4409 49.8512C28.3385 49.8056 28.2456 49.7577 28.1613 49.7122C28.0754 49.6666 27.9953 49.6433 27.9187 49.6433ZM28.0047 50.5022H28.6894L30.4788 55.0952H29.7128L29.2286 53.8474H27.4544L26.9737 55.0952H26.2007L28.0047 50.5022Z" fill="black"/>
<path d="M34.0863 54.473C34.3097 54.473 34.5161 54.4257 34.7044 54.327C34.8903 54.2301 35.0459 54.1028 35.1646 53.944C35.2851 53.7851 35.3786 53.6065 35.4441 53.4073C35.512 53.2106 35.5447 53.008 35.5447 52.7977C35.5447 52.5829 35.5102 52.3727 35.4388 52.1718C35.3675 51.9698 35.2704 51.7923 35.1482 51.6375C35.0242 51.4822 34.8705 51.3602 34.6857 51.2691C34.5015 51.1757 34.3021 51.1301 34.0863 51.1301C33.8617 51.1301 33.657 51.1774 33.4669 51.2743C33.2787 51.3689 33.1237 51.4968 33.0009 51.6539C32.8787 51.8127 32.7834 51.9914 32.7161 52.1887C32.6483 52.3873 32.6156 52.5899 32.6156 52.7977C32.6156 53.0897 32.674 53.36 32.7909 53.6135C32.9079 53.8675 33.0798 54.0736 33.3079 54.2324C33.5366 54.393 33.7962 54.473 34.0863 54.473ZM31.877 52.7977C31.877 52.4953 31.9337 52.201 32.0471 51.9184C32.1606 51.6358 32.3138 51.3876 32.5073 51.1739C32.7015 50.9625 32.9372 50.7909 33.2132 50.663C33.4892 50.5334 33.7834 50.4697 34.0921 50.4697C34.412 50.4697 34.7096 50.5369 34.9874 50.6723C35.2669 50.8072 35.4991 50.9841 35.6856 51.2049C35.8722 51.4256 36.0201 51.6737 36.1277 51.9528C36.2353 52.2325 36.2885 52.5169 36.2885 52.8053C36.2885 53.1084 36.2318 53.4003 36.1183 53.6829C36.0072 53.9656 35.8534 54.212 35.6616 54.4257C35.4698 54.6388 35.2359 54.8087 34.9599 54.9366C34.6839 55.0645 34.3897 55.1264 34.0792 55.1264C33.8231 55.1264 33.5787 55.0843 33.3465 54.9985C33.1144 54.9144 32.9097 54.7959 32.7343 54.6464C32.5571 54.4969 32.405 54.3252 32.2758 54.1279C32.146 53.9329 32.0472 53.7215 31.9793 53.4914C31.9121 53.2631 31.877 53.0331 31.877 52.7977Z" fill="black"/>
<path d="M44.3782 54.4549V55.0948H41.2245V50.5024H44.3214V51.1447H41.9479V52.4492H44.0022V53.0512H41.9479V54.4549H44.3782Z" fill="black"/>
<path d="M50.0389 52.8558H51.3108C51.5113 52.8558 51.6762 52.7717 51.8078 52.6035C51.9376 52.4377 52.0031 52.2351 52.0031 51.9963C52.0031 51.7627 51.93 51.5618 51.7821 51.3943C51.6341 51.2278 51.464 51.1438 51.2686 51.1438H50.0389V52.8558ZM49.3149 55.0962V50.5015H51.316C51.5172 50.5015 51.7073 50.5453 51.888 50.6311C52.0692 50.7169 52.2189 50.832 52.3411 50.9727C52.4657 51.1128 52.5604 51.2734 52.6335 51.4526C52.7048 51.6313 52.7417 51.8135 52.7417 51.9963C52.7417 52.3081 52.6593 52.5889 52.4949 52.8412C52.33 53.0928 52.1131 53.2627 51.8423 53.348L52.9242 55.0962H52.1072L51.1078 53.4963H50.0389V55.0962H49.3149Z" fill="black"/>
<path d="M58.0444 54.4549V55.0948H54.8901V50.5024H57.9876V51.1447H55.614V52.4492H57.6677V53.0512H55.614V54.4549H58.0444Z" fill="black"/>
<path d="M61.939 50.4771C62.3408 50.4771 62.6957 50.5687 63.0003 50.7509C63.3056 50.9337 63.5343 51.176 63.6898 51.479L63.1196 51.8603C63.0571 51.7289 62.9805 51.6139 62.8875 51.5158C62.7957 51.4171 62.6933 51.3424 62.584 51.2875C62.474 51.2344 62.3647 51.1947 62.253 51.169C62.1437 51.1433 62.0302 51.1304 61.9133 51.1304C61.7285 51.1304 61.5554 51.1631 61.3946 51.2274C61.2338 51.291 61.0964 51.3768 60.9829 51.4843C60.87 51.5923 60.7712 51.7178 60.6887 51.8603C60.6069 52.0045 60.5467 52.154 60.5081 52.3128C60.4677 52.4717 60.4478 52.6305 60.4478 52.7928C60.4478 53.09 60.5116 53.3674 60.6361 53.6231C60.7619 53.8806 60.939 54.0885 61.1694 54.2456C61.3998 54.4021 61.6536 54.4809 61.9314 54.4809C62.0904 54.4809 62.246 54.4552 62.3957 54.4061C62.5472 54.3565 62.6916 54.2724 62.8325 54.1556C62.9735 54.0389 63.0811 53.8952 63.1577 53.7253L63.7606 54.0663C63.6711 54.2853 63.5232 54.4791 63.3185 54.645C63.1138 54.8108 62.8892 54.9334 62.6442 55.0134C62.3992 55.094 62.1548 55.1337 61.908 55.1337C61.5952 55.1337 61.2993 55.0665 61.0232 54.9293C60.7455 54.7927 60.5116 54.6123 60.3233 54.3892C60.135 54.165 59.9852 53.9116 59.8759 53.6284C59.766 53.3458 59.711 53.0591 59.711 52.7671C59.711 52.5446 59.7426 52.3222 59.8063 52.1032C59.87 51.8825 59.9654 51.6764 60.0935 51.4808C60.221 51.2858 60.3713 51.1141 60.5467 50.9646C60.7221 50.8151 60.9303 50.696 61.1694 50.6084C61.4109 50.5208 61.6665 50.4771 61.939 50.4771Z" fill="black"/>
<path d="M67.5879 54.473C67.8107 54.473 68.0172 54.4257 68.2055 54.327C68.392 54.2301 68.5475 54.1028 68.6663 53.944C68.7867 53.7851 68.8797 53.6065 68.9476 53.4073C69.0131 53.2106 69.0464 53.008 69.0464 52.7977C69.0464 52.5829 69.0113 52.3727 68.9399 52.1718C68.8709 51.9698 68.7721 51.7923 68.6499 51.6375C68.5254 51.4822 68.3721 51.3602 68.1873 51.2691C68.0026 51.1757 67.8037 51.1301 67.5879 51.1301C67.3651 51.1301 67.1587 51.1774 66.9687 51.2743C66.7804 51.3689 66.6248 51.4968 66.5026 51.6539C66.3798 51.8127 66.2851 51.9914 66.2172 52.1887C66.15 52.3873 66.1167 52.5899 66.1167 52.7977C66.1167 53.0897 66.1752 53.36 66.2921 53.6135C66.4091 53.8675 66.581 54.0736 66.8096 54.2324C67.0377 54.393 67.2973 54.473 67.5879 54.473ZM65.3787 52.7977C65.3787 52.4953 65.4354 52.201 65.5483 51.9184C65.6617 51.6358 65.8155 51.3876 66.0091 51.1739C66.2026 50.9625 66.4383 50.7909 66.7143 50.663C66.9904 50.5334 67.2845 50.4697 67.595 50.4697C67.9131 50.4697 68.2113 50.5369 68.4891 50.6723C68.7686 50.8072 69.0008 50.9841 69.1867 51.2049C69.3733 51.4256 69.5213 51.6737 69.6294 51.9528C69.737 52.2325 69.7903 52.5169 69.7903 52.8053C69.7903 53.1084 69.7335 53.4003 69.6201 53.6829C69.5084 53.9656 69.3552 54.212 69.1634 54.4257C68.9716 54.6388 68.7376 54.8087 68.4616 54.9366C68.1856 55.0645 67.8915 55.1264 67.5804 55.1264C67.3248 55.1264 67.0798 55.0843 66.8476 54.9985C66.6155 54.9144 66.4108 54.7959 66.2354 54.6464C66.0582 54.4969 65.9068 54.3252 65.7769 54.1279C65.6471 53.9329 65.5483 53.7215 65.4811 53.4914C65.4132 53.2631 65.3787 53.0331 65.3787 52.7977Z" fill="black"/>
<path d="M72.5644 51.8479V55.0956H71.8405V50.5015H72.4346L75.0421 53.8221V50.5085H75.773V55.0956H75.1374L72.5644 51.8479Z" fill="black"/>
<path d="M80.8213 51.5826C80.7224 51.4735 80.5529 51.3672 80.3149 51.2673C80.0774 51.1669 79.8306 51.1155 79.5786 51.1155C79.2786 51.1155 79.0541 51.1704 78.9062 51.2819C78.7565 51.3911 78.6816 51.5482 78.6816 51.7508C78.6816 51.8127 78.6904 51.8711 78.7085 51.9201C78.7255 51.9715 78.7471 52.0153 78.7728 52.0556C78.7986 52.0936 78.8383 52.1321 78.8915 52.1665C78.9448 52.2033 78.9956 52.2343 79.0471 52.2576C79.0997 52.2833 79.1693 52.3108 79.2605 52.34C79.35 52.3674 79.4324 52.3931 79.5108 52.4112C79.5897 52.4328 79.6921 52.4585 79.8178 52.4895C80.0207 52.5373 80.1926 52.5864 80.3371 52.6337C80.4815 52.681 80.6184 52.7417 80.7517 52.8123C80.8851 52.8853 80.9915 52.9677 81.0716 53.057C81.1523 53.1463 81.216 53.2544 81.2634 53.384C81.309 53.5113 81.3347 53.659 81.3347 53.8237C81.3347 54.0059 81.3055 54.1723 81.247 54.3182C81.1885 54.466 81.1102 54.5898 81.0079 54.6919C80.9073 54.7924 80.7844 54.8782 80.6406 54.9459C80.4979 55.0148 80.3441 55.0645 80.1798 55.0937C80.0137 55.1246 79.8383 55.141 79.6482 55.141C79.2973 55.141 78.9594 55.0861 78.6319 54.9804C78.305 54.8747 78.0109 54.7211 77.7495 54.5203L78.0822 53.8984C78.2138 54.035 78.4307 54.1682 78.7307 54.296C79.0325 54.4222 79.3412 54.4858 79.6611 54.4858C79.9458 54.4858 80.1669 54.4368 80.3225 54.3346C80.4775 54.2342 80.5546 54.0882 80.5546 53.8984C80.5546 53.8237 80.5435 53.7542 80.5195 53.694C80.4979 53.6322 80.4575 53.5773 80.4008 53.5276C80.3441 53.4786 80.2856 53.4348 80.2254 53.4003C80.1652 53.3636 80.0792 53.3274 79.9681 53.2888C79.8581 53.2503 79.7559 53.2193 79.6646 53.1942C79.5734 53.1685 79.4488 53.1358 79.2933 53.0955C79.0506 53.0336 78.8494 52.9694 78.6921 52.904C78.533 52.838 78.3944 52.758 78.2722 52.6629C78.1512 52.5683 78.0635 52.4568 78.0091 52.3271C77.9541 52.1975 77.9267 52.0445 77.9267 51.8676C77.9267 51.6469 77.9688 51.446 78.0547 51.2691C78.1407 51.0898 78.2576 50.9439 78.4074 50.8271C78.5571 50.7126 78.7325 50.6227 78.9354 50.5626C79.1383 50.5007 79.3576 50.4697 79.5967 50.4697C80.1616 50.4697 80.6803 50.6431 81.1499 50.99L80.8213 51.5826Z" fill="black"/>
<path d="M86.7334 51.1435H85.206V55.0959H84.4715V51.1435H82.9365V50.5029H86.7334V51.1435Z" fill="black"/>
<path d="M89.3649 52.8558H90.6367C90.8379 52.8558 91.0022 52.7717 91.1338 52.6035C91.2636 52.4377 91.3297 52.2351 91.3297 51.9963C91.3297 51.7627 91.2566 51.5618 91.1087 51.3943C90.9601 51.2278 90.7905 51.1438 90.5946 51.1438H89.3649V52.8558ZM88.6415 55.0962V50.5015H90.6426C90.8432 50.5015 91.0332 50.5453 91.2145 50.6311C91.3952 50.7169 91.5449 50.832 91.6677 50.9727C91.79 51.1128 91.887 51.2734 91.9601 51.4526C92.0315 51.6313 92.0677 51.8135 92.0677 51.9963C92.0677 52.3081 91.9858 52.5889 91.8209 52.8412C91.6566 53.0928 91.4391 53.2627 91.1689 53.348L92.2507 55.0962H91.4338L90.4338 53.4963H89.3649V55.0962H88.6415Z" fill="black"/>
<path d="M96.1307 55.1272C95.8453 55.1272 95.5898 55.0851 95.3629 55.001C95.1366 54.9175 94.9483 54.8043 94.7986 54.6618C94.6489 54.5216 94.5243 54.3517 94.4255 54.1526C94.3249 53.9541 94.2559 53.7439 94.2121 53.5267C94.1682 53.31 94.146 53.0765 94.146 52.8301V50.5015H94.8752V52.8301C94.8752 53.0052 94.8881 53.1693 94.9121 53.3246C94.9372 53.4794 94.981 53.6289 95.0436 53.7713C95.1056 53.9156 95.184 54.0376 95.2775 54.138C95.3688 54.2385 95.4892 54.3208 95.6337 54.3809C95.7799 54.4428 95.9442 54.4738 96.1307 54.4738C96.319 54.4738 96.4851 54.4428 96.6313 54.3809C96.7792 54.3173 96.898 54.2349 96.9915 54.1328C97.0845 54.0288 97.1611 53.9045 97.2219 53.7626C97.2839 53.6201 97.326 53.4706 97.3494 53.3188C97.3751 53.1658 97.3862 53.0035 97.3862 52.8301V50.5015H98.1207V52.8301C98.1207 53.153 98.0821 53.4484 98.0072 53.7205C97.9306 53.9903 97.8154 54.2332 97.6605 54.4463C97.5049 54.66 97.2985 54.8282 97.0371 54.9467C96.7775 55.067 96.474 55.1272 96.1307 55.1272Z" fill="black"/>
<path d="M104.142 54.0663C104.023 54.3495 103.821 54.5807 103.532 54.7652C103.243 54.9515 102.927 55.0665 102.585 55.1156C102.806 55.3001 102.918 55.508 102.918 55.738C102.918 55.922 102.856 56.0697 102.732 56.1795C102.607 56.2886 102.432 56.3435 102.209 56.3435C101.944 56.3435 101.688 56.2816 101.447 56.1573L101.626 55.776C101.79 55.8653 101.944 55.9114 102.086 55.9114C102.207 55.9114 102.304 55.8858 102.371 55.8344C102.441 55.7818 102.476 55.7071 102.476 55.6084C102.476 55.4402 102.359 55.2797 102.126 55.1284C101.834 55.1045 101.558 55.021 101.302 54.875C101.046 54.7308 100.831 54.548 100.656 54.3291C100.48 54.1101 100.343 53.8637 100.242 53.5922C100.142 53.3201 100.093 53.0462 100.093 52.7671C100.093 52.5446 100.124 52.3239 100.188 52.1032C100.25 51.8825 100.345 51.6758 100.473 51.4808C100.601 51.2858 100.752 51.1141 100.928 50.9646C101.103 50.8145 101.31 50.696 101.551 50.6084C101.79 50.5208 102.048 50.4771 102.32 50.4771C102.722 50.4771 103.077 50.5687 103.38 50.7509C103.685 50.9337 103.916 51.176 104.069 51.479L103.499 51.8603C103.439 51.7289 103.362 51.6122 103.269 51.5152C103.176 51.4171 103.075 51.3424 102.966 51.2875C102.856 51.2344 102.744 51.1941 102.635 51.169C102.523 51.1433 102.41 51.1322 102.295 51.1322C102.108 51.1322 101.935 51.1631 101.776 51.2274C101.615 51.291 101.478 51.3768 101.364 51.4843C101.249 51.5923 101.153 51.7178 101.07 51.8603C100.988 52.0045 100.926 52.154 100.887 52.3128C100.849 52.4717 100.829 52.6305 100.829 52.7928C100.829 53.09 100.891 53.3674 101.017 53.6249C101.143 53.88 101.321 54.0885 101.551 54.245C101.781 54.4021 102.035 54.4809 102.313 54.4809C102.472 54.4809 102.625 54.4552 102.777 54.4056C102.927 54.3565 103.073 54.2724 103.213 54.1556C103.353 54.0389 103.462 53.897 103.537 53.7253L104.142 54.0663Z" fill="black"/>
<path d="M108.452 53.3108L107.712 51.2981L106.95 53.3108H108.452ZM107.284 49.6433C107.217 49.6433 107.16 49.6579 107.114 49.6847C107.067 49.7139 107.034 49.749 107.016 49.7893C106.995 49.8307 106.985 49.864 106.977 49.8914C106.972 49.9166 106.968 49.937 106.968 49.9533H106.566C106.566 49.9206 106.574 49.8786 106.586 49.8237C106.597 49.7688 106.621 49.7052 106.657 49.6322C106.691 49.5592 106.734 49.4915 106.784 49.4296C106.833 49.3677 106.899 49.3145 106.983 49.2708C107.065 49.2287 107.158 49.2071 107.258 49.2071C107.367 49.2071 107.469 49.2305 107.565 49.2783C107.662 49.3256 107.755 49.3729 107.845 49.4202C107.933 49.4681 108.021 49.4915 108.106 49.4915C108.167 49.4915 108.218 49.4804 108.264 49.4588C108.309 49.4389 108.344 49.415 108.368 49.3875C108.393 49.3601 108.412 49.3291 108.426 49.2964C108.441 49.2637 108.45 49.2381 108.454 49.22C108.457 49.1995 108.46 49.1849 108.46 49.1738H108.867C108.867 49.203 108.859 49.2416 108.847 49.2947C108.832 49.3472 108.806 49.4115 108.77 49.4845C108.733 49.5592 108.688 49.6264 108.635 49.6906C108.583 49.7525 108.512 49.8074 108.423 49.8529C108.333 49.8985 108.233 49.9206 108.127 49.9206C108.013 49.9206 107.908 49.8985 107.807 49.8512C107.705 49.8056 107.612 49.7577 107.527 49.7122C107.441 49.6666 107.361 49.6433 107.284 49.6433ZM107.37 50.5022H108.057L109.844 55.0952H109.079L108.595 53.8474H106.82L106.34 55.0952H105.567L107.37 50.5022Z" fill="black"/>
<path d="M113.452 54.473C113.675 54.473 113.881 54.4257 114.069 54.327C114.256 54.2301 114.411 54.1028 114.53 53.944C114.65 53.7851 114.743 53.6065 114.811 53.4073C114.877 53.2106 114.91 53.008 114.91 52.7977C114.91 52.5829 114.875 52.3727 114.804 52.1718C114.733 51.9698 114.636 51.7923 114.514 51.6375C114.389 51.4822 114.236 51.3602 114.051 51.2691C113.866 51.1757 113.667 51.1301 113.452 51.1301C113.229 51.1301 113.023 51.1774 112.832 51.2743C112.644 51.3689 112.489 51.4968 112.366 51.6539C112.244 51.8127 112.149 51.9914 112.081 52.1887C112.014 52.3873 111.98 52.5899 111.98 52.7977C111.98 53.0897 112.039 53.36 112.156 53.6135C112.273 53.8675 112.445 54.0736 112.673 54.2324C112.901 54.393 113.161 54.473 113.452 54.473ZM111.242 52.7977C111.242 52.4953 111.299 52.201 111.412 51.9184C111.525 51.6358 111.679 51.3876 111.873 51.1739C112.066 50.9625 112.302 50.7909 112.578 50.663C112.854 50.5334 113.148 50.4697 113.457 50.4697C113.777 50.4697 114.075 50.5369 114.353 50.6723C114.632 50.8072 114.865 50.9841 115.05 51.2049C115.237 51.4256 115.385 51.6737 115.493 51.9528C115.601 52.2325 115.654 52.5169 115.654 52.8053C115.654 53.1084 115.597 53.4003 115.484 53.6829C115.372 53.9656 115.219 54.212 115.027 54.4257C114.835 54.6388 114.601 54.8087 114.325 54.9366C114.049 55.0645 113.755 55.1264 113.444 55.1264C113.189 55.1264 112.944 55.0843 112.711 54.9985C112.479 54.9144 112.275 54.7959 112.099 54.6464C111.922 54.4969 111.77 54.3252 111.641 54.1279C111.511 53.9329 111.412 53.7215 111.345 53.4914C111.277 53.2631 111.242 53.0331 111.242 52.7977Z" fill="black"/>
<path d="M35.7411 31.1885H23.6339V43.3903H43.6881L35.7411 31.1885Z" fill="#03CE00"/>
<path d="M0.221924 43.3897H14.3968C19.499 43.3897 23.6345 39.2609 23.6345 34.1663C23.6345 29.0718 19.499 24.9424 14.3968 24.9424H0.221924V43.3897Z" fill="#FE0000"/>
<path d="M0.221924 24.9429H13.3606C16.7798 24.9429 19.5504 22.1752 19.5504 18.7628C19.5504 15.3488 16.7798 12.5811 13.3606 12.5811H0.221924V24.9429Z" fill="#183EFD"/>
<path d="M56.1965 12.5811L37.8457 43.3896H74.5479L56.1965 12.5811Z" fill="#FECE00"/>
<path d="M115.776 12.582H105.107V33.0426H115.776V12.582Z" fill="#FECE00"/>
<path d="M126.442 33.043H115.773V43.3909H126.442V33.043Z" fill="#183EFD"/>
<path d="M115.776 33.043H105.107V43.3909H115.776V33.043Z" fill="#3C3C3C"/>
<path d="M79.2933 26.2744H69.2076V43.3904H79.2933V26.2744Z" fill="#FE0000"/>
<path d="M37.8463 43.3894H43.6881L40.6368 38.7036L37.8463 43.3894Z" fill="#3C3C3C"/>
<path d="M69.2076 34.4243V43.389H74.5478L69.2076 34.4243Z" fill="#3C3C3C"/>
<path d="M103.308 12.582H92.6396V43.3906H103.308V12.582Z" fill="#03CE00"/>
<path d="M10.8905 12.582H0.221924V24.9444H10.8905V12.582Z" fill="#03CE00"/>
<path d="M23.6363 31.1889H35.7446C40.8906 31.1889 45.0606 27.0233 45.0606 21.885C45.0606 16.7466 40.8906 12.5811 35.7446 12.5811H23.6363V31.1889Z" fill="#183EFD"/>
<path d="M90.8373 12.582H79.295V23.786H90.8373V12.582Z" fill="#183EFD"/>
<path d="M82.8213 23.7842H79.2963V43.3905H82.8213C88.2433 43.3905 92.6379 39.0001 92.6379 33.5862C92.6379 28.1722 88.2433 23.7842 82.8213 23.7842Z" fill="#FECE00"/>
<path d="M76.0671 12.5811C72.2806 12.5811 69.2106 15.6466 69.2106 19.4273C69.2106 23.2081 72.2806 26.2736 76.0671 26.2736H79.2962V12.5811H76.0671Z" fill="#03CE00"/>
<path d="M10.8905 24.9424H0.221924V43.3902H10.8905V24.9424Z" fill="#FECE00"/>
<path d="M35.7411 31.1889L23.6346 12.5811V31.1889H35.7411Z" fill="#FECE00"/>
<path d="M67.4534 43.3905C67.4534 37.1825 62.4133 32.1504 56.1965 32.1504C49.9798 32.1504 44.9414 37.1825 44.9414 43.3905H67.4534Z" fill="#183EFD"/>
<path d="M16.9465 2.91242V3.36904C16.9465 5.1914 15.7221 6.37964 14.1034 6.37964C12.3801 6.37964 11.0275 5.03667 11.0275 3.32524C11.0275 1.61324 12.3889 0.253906 14.0941 0.253906C15.1724 0.253906 16.1624 0.805112 16.7056 1.70841L15.3624 2.50778C15.1028 2.04416 14.6297 1.7779 14.0776 1.7779C13.2169 1.7779 12.6046 2.44004 12.6046 3.334C12.6046 4.21161 13.2169 4.84865 14.1034 4.84865C14.7244 4.84865 15.1191 4.5386 15.2583 4.16081H13.6812V2.91242H16.9465Z" fill="black"/>
<path d="M23.5545 3.31736C23.5545 2.49056 22.9604 1.8722 22.1932 1.8722C21.409 1.8722 20.806 2.49056 20.806 3.31736C20.806 4.14359 21.409 4.76253 22.1932 4.76253C22.9604 4.76253 23.5545 4.14359 23.5545 3.31736ZM19.1172 3.31736C19.1172 1.6147 20.4786 0.255371 22.1932 0.255371C23.8908 0.255371 25.2521 1.6147 25.2521 3.31736C25.2521 5.01944 23.8908 6.37936 22.1932 6.37936C20.4786 6.37936 19.1172 5.01944 19.1172 3.31736Z" fill="black"/>
<path d="M32.8757 0.391602L30.584 6.24174H29.0068L26.7408 0.391602H28.4384L29.7998 3.99721L31.1781 0.391602H32.8757Z" fill="black"/>
<path d="M36.5189 1.81993V2.68878H38.2422V3.94417H36.5189V4.81419H39.1282V6.24125H34.9325V0.391113H39.1282V1.81993H36.5189Z" fill="black"/>
<path d="M43.1269 2.88653H44.2304C44.5999 2.88653 44.8316 2.62961 44.8316 2.34467C44.8316 2.05271 44.6087 1.79346 44.2304 1.79346H43.1269V2.88653ZM43.7901 4.22075H43.1269V6.24223H41.5679V0.39209H44.4023C45.5479 0.39209 46.4274 1.20956 46.4274 2.29387C46.4274 3.04185 46.0216 3.6602 45.4017 3.98894L46.7028 6.24223H44.9526L43.7901 4.22075Z" fill="black"/>
<path d="M54.1265 0.391602V6.24174H52.7909L50.4296 3.16164V6.24174H48.8705V0.391602H50.1974L52.5675 3.47929V0.391602H54.1265Z" fill="black"/>
<path d="M60.8396 3.31736C60.8396 2.49056 60.2455 1.8722 59.4777 1.8722C58.6941 1.8722 58.0911 2.49056 58.0911 3.31736C58.0911 4.14359 58.6941 4.76253 59.4777 4.76253C60.2455 4.76253 60.8396 4.14359 60.8396 3.31736ZM56.4023 3.31736C56.4023 1.6147 57.7637 0.255371 59.4777 0.255371C61.1758 0.255371 62.5372 1.6147 62.5372 3.31736C62.5372 5.01944 61.1758 6.37936 59.4777 6.37936C57.7637 6.37936 56.4023 5.01944 56.4023 3.31736Z" fill="black"/>
<path d="M70.272 1.79423V2.78337H71.9953V4.10825H70.272V6.24125H68.6861V0.391113H72.8818V1.79423H70.272Z" fill="black"/>
<path d="M76.8331 1.81993V2.68878H78.5564V3.94417H76.8331V4.81419H79.4447V6.24125H75.249V0.391113H79.4447V1.81993H76.8331Z" fill="black"/>
<path d="M85.7626 3.31696C85.7626 2.46446 85.1246 1.91384 84.1948 1.91384H83.4802V4.71833H84.1948C85.1246 4.71833 85.7626 4.16888 85.7626 3.31696ZM87.4 3.31696C87.4 4.99394 86.055 6.24174 84.2714 6.24174H81.885V0.391602H84.2714C86.055 0.391602 87.4 1.63999 87.4 3.31696Z" fill="black"/>
<path d="M91.2595 1.81993V2.68878H92.9828V3.94417H91.2595V4.81419H93.8687V6.24125H89.673V0.391113H93.8687V1.81993H91.2595Z" fill="black"/>
<path d="M97.8616 2.88653H98.9657C99.3347 2.88653 99.5668 2.62961 99.5668 2.34467C99.5668 2.05271 99.344 1.79346 98.9657 1.79346H97.8616V2.88653ZM98.5253 4.22075H97.8616V6.24223H96.3032V0.39209H99.1376C100.283 0.39209 101.162 1.20956 101.162 2.29387C101.162 3.04185 100.756 3.6602 100.137 3.98894L101.438 6.24223H99.689L98.5253 4.22075Z" fill="black"/>
<path d="M106.961 3.84199L106.374 2.40558L105.789 3.84199H106.961ZM107.538 5.23577H105.221L104.815 6.24125H103.171L105.618 0.391113H107.116L109.589 6.24125H107.951L107.538 5.23577Z" fill="black"/>
<path d="M115.773 4.73643V6.24174H111.647V0.391602H113.31V4.73643H115.773Z" fill="black"/>
</svg>
