<svg width="153" height="49" viewBox="0 0 153 49" fill="none" xmlns="http://www.w3.org/2000/svg">
<path d="M52.0452 29.0233C52.0452 30.2916 52.0376 31.4816 52.047 32.6675C52.0563 33.9777 52.0838 35.2839 52.102 36.5907C52.1131 37.4409 52.1277 38.2875 52.14 39.1359C52.1458 39.4226 52.1458 39.4261 51.8534 39.4261C50.7897 39.4279 49.7278 39.4279 48.6664 39.4261C48.3998 39.4261 48.3939 39.4226 48.3939 39.1523C48.3886 38.503 48.3904 37.8549 48.3904 37.2056C48.3904 32.9997 48.3904 28.7938 48.3939 24.588C48.3939 24.0934 48.343 24.1623 48.829 24.1606C50.3055 24.1588 51.7803 24.1646 53.2551 24.1553C53.4978 24.1536 53.6224 24.223 53.7376 24.449C55.3252 27.657 56.9263 30.8591 58.5269 34.0636L58.7116 34.4139L58.7812 34.1821C58.7684 31.6363 58.7537 29.091 58.7391 26.5476C58.7356 25.841 58.7333 25.1333 58.7333 24.4274C58.7315 24.1664 58.7356 24.1606 59.004 24.1606C60.066 24.1588 61.1291 24.1588 62.1893 24.1606C62.4378 24.1606 62.4396 24.1664 62.4448 24.4146V39.0834C62.4489 39.4682 62.4489 39.4261 62.1016 39.4261C60.6379 39.4261 59.1742 39.4209 57.7123 39.4337C57.4579 39.4355 57.3392 39.3479 57.2275 39.1324C55.5813 35.9029 53.9258 32.675 52.2739 29.4466C52.2113 29.3246 52.144 29.2043 52.0452 29.0233Z" fill="#009479"/>
<path d="M46.0601 31.8157C46.0414 32.865 45.9303 33.9288 45.594 34.9583C44.8596 37.2098 43.3643 38.6952 41.0802 39.3352C39.2838 39.8426 37.4639 39.8426 35.6675 39.33C33.2389 38.6386 31.7349 37.0107 31.0694 34.5986C30.7279 33.3613 30.6513 32.0971 30.7537 30.8178C30.825 29.9565 30.9747 29.1151 31.2724 28.3035C32.0144 26.2744 33.4103 24.9221 35.4827 24.302C37.3832 23.7327 39.3042 23.7251 41.2047 24.2746C43.507 24.9402 44.9619 26.4788 45.6508 28.7595C45.9484 29.7487 46.0437 30.7647 46.0601 31.8157ZM41.8351 31.6715C41.8456 31.3579 41.8147 30.92 41.7509 30.4891C41.6486 29.7995 41.4731 29.1315 41.1258 28.5184C40.6322 27.6425 39.9089 27.0902 38.8984 26.9564C37.7943 26.8105 36.8131 27.0697 36.0529 27.9327C35.6617 28.3747 35.419 28.8944 35.2471 29.4491C34.9126 30.5352 34.8781 31.6516 34.9839 32.7704C35.0646 33.6077 35.2763 34.4141 35.7201 35.1439C36.1189 35.8008 36.6599 36.2954 37.4055 36.5161C38.7376 36.9085 40.234 36.5453 41.062 35.1206C41.1661 34.9378 41.2632 34.7463 41.3451 34.553C41.7123 33.6696 41.8386 32.7412 41.8351 31.6715Z" fill="#009479"/>
<path d="M80.7412 39.4271H76.6443C76.328 39.4271 76.3262 39.4271 76.2239 39.1352C75.9075 38.2371 75.5859 37.3397 75.2824 36.4364C75.2151 36.232 75.1145 36.1701 74.9046 36.1701C73.183 36.1789 71.4615 36.1789 69.7399 36.1719C69.53 36.1701 69.4276 36.2303 69.3563 36.4294C69.0364 37.3286 68.7037 38.2208 68.3674 39.1153C68.2417 39.447 68.313 39.4271 67.9218 39.4271H64.1664L64.2448 39.0528C65.5459 35.63 66.8453 32.2107 68.1481 28.7907C68.6949 27.3497 69.2428 25.908 69.7914 24.4663C69.9083 24.1598 69.9083 24.1598 70.2387 24.1598C71.7006 24.158 73.1649 24.1633 74.6268 24.1563C74.835 24.1545 74.9373 24.2147 75.014 24.4155C76.911 29.3454 78.8132 34.2759 80.7155 39.2047L80.7412 39.4271ZM72.4152 27.3602L72.3532 27.3643C71.7082 29.3238 71.0615 31.2799 70.4054 33.2617H74.2134C73.6105 31.2782 73.0146 29.3221 72.4152 27.3602Z" fill="#009479"/>
<path d="M95.8073 35.6629C96.4213 35.9548 96.995 36.196 97.6032 36.3489C98.6745 36.621 99.7581 36.7413 100.862 36.6099C101.191 36.5732 101.509 36.4932 101.81 36.3489C102.713 35.9163 102.678 34.7887 102.19 34.2778C101.951 34.0262 101.66 33.851 101.346 33.7085C100.819 33.4715 100.264 33.3161 99.7107 33.1486C99.0435 32.9442 98.3803 32.7398 97.7517 32.4385C97.2909 32.2231 96.8635 31.9551 96.4869 31.6047C95.7489 30.9186 95.4015 30.0539 95.3249 29.0665C95.1805 27.264 95.7997 25.8352 97.4044 24.9027C97.8541 24.6399 98.3324 24.4466 98.8336 24.3024C100.129 23.934 101.452 23.8335 102.791 23.9153C103.735 23.9719 104.668 24.0963 105.578 24.3591C105.991 24.4776 105.913 24.4828 105.885 24.8133C105.825 25.5777 105.759 26.3385 105.694 27.1016C105.681 27.264 105.692 27.4298 105.609 27.598C105.088 27.3843 104.568 27.2015 104.023 27.0993C102.938 26.8914 101.849 26.8313 100.757 27.0596C100.512 27.1122 100.283 27.198 100.072 27.3352C99.3721 27.7836 99.323 28.698 99.9756 29.2142C100.197 29.3911 100.456 29.5103 100.719 29.6142C101.313 29.8437 101.933 29.9937 102.543 30.1707C103.244 30.3768 103.939 30.6051 104.588 30.9478C105.692 31.537 106.424 32.4093 106.653 33.6595C106.841 34.6778 106.768 35.6774 106.392 36.6444C106.024 37.5827 105.364 38.2665 104.489 38.754C103.674 39.2083 102.791 39.4512 101.872 39.5698C99.8476 39.8325 97.8517 39.6702 95.8764 39.1569L95.774 39.1318C95.4799 39.0203 95.4506 39.1131 95.491 38.7301C95.6003 37.7264 95.6992 36.7191 95.8073 35.6629Z" fill="#009479"/>
<path d="M92.2314 27.5985C91.5847 27.327 90.9338 27.1261 90.2526 27.0274C89.2912 26.889 88.3281 26.854 87.3702 27.0624C87.1363 27.1115 86.917 27.1938 86.7124 27.3194C85.9779 27.7812 85.9375 28.7283 86.6358 29.2427C86.9591 29.4839 87.3357 29.6299 87.7211 29.7484C88.4287 29.9656 89.1433 30.17 89.852 30.3849C90.2924 30.5203 90.7181 30.6932 91.1274 30.9034C92.5186 31.6111 93.2694 32.7462 93.3607 34.3011C93.3957 34.892 93.3495 35.4812 93.2057 36.0563C92.8987 37.2936 92.1548 38.1946 91.0362 38.7972C90.2485 39.2222 89.3953 39.4541 88.5146 39.5685C86.4784 39.8353 84.4668 39.6748 82.4839 39.1493C82.0049 39.0231 82.0821 39.085 82.1219 38.6343C82.2155 37.6603 82.3231 36.691 82.4236 35.7258L82.6944 35.786C84.2125 36.4995 85.806 36.7769 87.4767 36.6128C87.7854 36.5801 88.0813 36.5071 88.3644 36.3845C89.3789 35.9465 89.3111 34.7151 88.7444 34.2042C88.5105 33.9981 88.255 33.8375 87.972 33.7114C87.4433 33.4725 86.8878 33.3172 86.3363 33.1514C85.6691 32.947 85.006 32.7427 84.3756 32.4414C84.0774 32.2971 83.7926 32.1366 83.5201 31.9433C82.6593 31.332 82.1587 30.4929 81.9927 29.4547C81.8921 28.8323 81.8973 28.2116 82.0236 27.5932C82.2353 26.5585 82.7856 25.7539 83.6388 25.1502C84.4247 24.5937 85.313 24.2831 86.2486 24.1079C88.1912 23.743 90.1245 23.8305 92.0338 24.314C92.5987 24.4582 92.5513 24.3362 92.4911 24.9966C92.4233 25.7119 92.3724 26.4289 92.3116 27.1442C92.2993 27.2849 92.3174 27.4291 92.2314 27.5985Z" fill="#009479"/>
<path d="M29.0718 27.9549C28.8893 27.9187 28.7519 27.8218 28.6057 27.7488C27.4181 27.1719 26.1684 26.884 24.8433 26.922C22.6305 26.9915 20.8616 28.4985 20.4429 30.6683C20.2674 31.5862 20.2692 32.5 20.54 33.3946C21.0405 35.0383 22.1791 36.0239 23.8129 36.4636C24.8819 36.7503 25.962 36.7041 27.0397 36.5039C27.7707 36.3725 28.4835 36.1623 29.18 35.8925L29.2636 36.2738C29.3221 37.1205 29.3753 37.9671 29.4227 38.812C29.439 39.0748 29.4303 39.0765 29.1759 39.1402C27.4146 39.5892 25.6292 39.8064 23.8129 39.6424C22.1422 39.4946 20.5692 39.0363 19.171 38.0763C17.4038 36.863 16.4448 35.155 16.1886 33.046C16.0278 31.7194 16.0992 30.4073 16.4974 29.1262C17.205 26.8344 18.7523 25.3367 20.9855 24.5262C22.5171 23.9715 24.1012 23.8092 25.7222 23.9295C26.8953 24.0171 28.0286 24.2839 29.1507 24.601C29.4063 24.674 29.4063 24.6798 29.3829 24.9332C29.3005 25.8021 29.2197 26.6686 29.1344 27.5392L29.0718 27.9549Z" fill="#009479"/>
<path d="M9.8059 7.67677L9.58661 7.76027C8.96909 8.01953 8.34924 8.27878 7.72996 8.53803C7.4522 8.65073 7.45044 8.64547 7.31712 8.36637C6.99374 7.66043 6.67036 6.95565 6.33938 6.25146C6.17506 5.90462 6.22241 5.96126 6.5072 5.83339C7.15279 5.54728 7.79605 5.25182 8.4393 4.95987C8.72233 4.83024 8.72233 4.82849 8.60537 4.55289C8.30948 3.86096 8.00949 3.16962 7.7136 2.47594C7.55279 2.10224 7.57265 2.14604 7.91299 1.99422C8.61823 1.67716 9.32874 1.36127 10.0398 1.04538C10.2702 0.945529 10.279 0.945527 10.3778 1.16975C10.7071 1.91247 11.0304 2.65695 11.3573 3.40143C11.4854 3.69338 11.4889 3.69338 11.7889 3.55441C12.4117 3.2753 13.035 2.99445 13.6543 2.70775C13.9485 2.57112 13.9286 2.58221 14.0385 2.83738C14.3671 3.60755 14.694 4.37772 15.0139 5.14555C15.1162 5.3867 15.1127 5.39371 14.8624 5.51224C14.2321 5.80828 13.5999 6.09615 12.973 6.39043C12.6807 6.52532 12.6824 6.52707 12.8157 6.82603C13.1298 7.55065 13.4496 8.27119 13.7642 8.99231C13.8701 9.23288 13.8701 9.23463 13.618 9.34791C12.8561 9.6854 12.09 10.0212 11.3281 10.368C11.1603 10.4427 11.0889 10.4211 11.014 10.2477C10.6866 9.46469 10.3451 8.69102 10.0071 7.91384L9.8059 7.67677Z" fill="#D9923D"/>
<path d="M16.6641 5.69021C17.1793 5.26337 17.6693 4.85814 18.1605 4.4535C18.3617 4.28884 18.5681 4.13585 18.7599 3.96068L19.1055 3.99163C19.5184 4.48795 19.9441 4.97901 20.3645 5.47124L20.4996 5.63415L20.7903 5.61955C21.1575 5.28906 21.5323 4.96617 21.9031 4.63918C22.1867 4.38752 22.4715 4.14111 22.7475 3.8877L23.0914 3.9058C23.6282 4.56269 24.1732 5.21432 24.7246 5.85662L24.6919 6.17017C24.1036 6.69744 23.5241 7.2323 22.9452 7.76891C22.6212 8.06786 22.6212 7.98612 22.9159 8.33821C23.3434 8.85613 23.782 9.3653 24.2223 9.87271L24.2059 10.1594C23.579 10.7305 22.9539 11.3068 22.3253 11.8761C22.1224 12.0606 22.1154 12.0548 21.9218 11.8323C21.4517 11.3068 20.9838 10.7743 20.5143 10.2447C20.3371 10.0479 20.3353 10.0479 20.1324 10.2283C19.5242 10.7649 18.9172 11.3068 18.3067 11.8451C18.1003 12.0297 18.0968 12.0279 17.9284 11.8305C17.419 11.2285 16.9074 10.63 16.3974 10.0257C16.1869 9.77578 16.1869 9.77053 16.4249 9.55332C17.0003 9.03131 17.5799 8.51338 18.157 7.99312C18.3523 7.8162 18.3564 7.81445 18.188 7.60483C17.691 6.97713 17.1922 6.35119 16.6641 5.69021Z" fill="#D9923D"/>
<path d="M20.9288 15.8783C21.3622 15.1408 21.8025 14.3928 22.2539 13.625C22.8808 14.0005 23.4872 14.3601 24.0919 14.7198L24.5766 15.0135C24.8339 15.1683 24.876 15.1227 24.6954 15.431C24.4065 15.9291 24.1158 16.4277 23.8311 16.9276C23.7357 17.0899 23.555 17.2522 23.5895 17.4239C23.6223 17.6026 23.8708 17.6446 24.0281 17.7415C24.6533 18.1228 25.2801 18.493 25.9088 18.8673C26.1409 19.0074 26.1409 19.0115 26.0093 19.2427C25.6146 19.9399 25.2199 20.6354 24.8211 21.3302C24.6714 21.5953 24.6661 21.597 24.3971 21.4347C23.7141 21.0166 23.034 20.5951 22.3504 20.1752C22.1077 20.024 22.1019 20.0258 21.9557 20.2722C21.5884 20.8888 21.2247 21.5112 20.8575 22.1278C20.7294 22.3433 20.7242 22.3468 20.5177 22.2189C19.8049 21.781 19.0944 21.3413 18.3868 20.8981C18.1857 20.772 18.1822 20.7632 18.3067 20.5332C18.6137 19.9639 18.9242 19.3946 19.233 18.8253C19.4178 18.4895 19.4178 18.4878 19.1049 18.2962C18.4289 17.8852 17.7529 17.4805 17.0822 17.0677C16.7769 16.8803 16.7494 16.9241 16.96 16.5971C17.3798 15.9437 17.8003 15.2909 18.2225 14.6375C18.378 14.3987 18.3798 14.3987 18.619 14.5423C19.2967 14.9458 19.9733 15.3528 20.6528 15.758L20.9288 15.8783Z" fill="#D9923D"/>
<path d="M16.6782 21.3617C16.4922 22.2872 16.3039 23.1829 16.132 24.0845C16.0934 24.2778 16.0314 24.3052 15.849 24.2667C15.1344 24.1172 14.4163 23.9951 13.7034 23.8433C13.5116 23.8071 13.4584 23.8562 13.4221 24.0348C13.2666 24.8196 13.0982 25.6009 12.9356 26.3833C12.8771 26.6624 12.8625 26.6753 12.5847 26.6134C11.7918 26.4364 11.0006 26.2554 10.2094 26.0733C9.95735 26.0184 9.95326 26.0149 10.01 25.7445C10.1725 24.951 10.3351 24.1575 10.4983 23.3599C10.5638 23.0387 10.5638 23.037 10.2351 22.971C9.57901 22.8378 8.92113 22.7082 8.26326 22.5733C8.00362 22.5208 7.99836 22.5132 8.04397 22.265C8.19016 21.4312 8.33988 20.5992 8.48958 19.7671C8.52993 19.5534 8.57203 19.53 8.8188 19.5902C9.51644 19.7578 10.2129 19.9277 10.9111 20.0976C11.1924 20.163 11.1959 20.1612 11.2526 19.8856C11.4099 19.1009 11.569 18.3167 11.7152 17.5337C11.7479 17.3509 11.8029 17.3019 11.993 17.3404C12.7877 17.4951 13.59 17.6283 14.387 17.7766C14.732 17.8402 14.7303 17.8437 14.6648 18.1684C14.5075 18.9298 14.3519 19.6889 14.2005 20.4497C14.1361 20.7743 14.1385 20.7726 14.48 20.8473C15.1344 20.9915 15.7905 21.1375 16.4443 21.2835L16.6782 21.3617Z" fill="#D9923D"/>
<path d="M1.43599 16.2458C1.18746 16.2563 1.17636 16.2563 1.14186 15.9959C1.03017 15.1907 0.937177 14.3843 0.825485 13.5815C0.799755 13.3993 0.86584 13.328 1.04303 13.3134C1.61844 13.2586 2.19269 13.1967 2.76635 13.1383C3.04938 13.1108 3.32715 13.0851 3.61076 13.0577C3.8628 13.0326 3.86806 13.0232 3.84292 12.7768C3.77158 12.0744 3.70725 11.3737 3.62889 10.6695L3.80257 10.4447C4.64698 10.3647 5.49082 10.2754 6.33172 10.1802C6.49955 10.1621 6.55802 10.2129 6.57264 10.3828C6.63521 11.0654 6.71183 11.7422 6.77557 12.4212C6.8048 12.7237 6.8013 12.7348 7.11357 12.7039C7.92348 12.6256 8.73105 12.5398 9.54037 12.4522C9.82223 12.423 9.84035 12.4282 9.87661 12.7091C9.97543 13.4536 10.0708 14.2022 10.1655 14.9501L10.1836 15.1598L10.0012 15.3916C9.49827 15.4354 8.99243 15.4885 8.48777 15.5375C8.09129 15.5778 7.69306 15.6286 7.29308 15.6637L7.12292 15.8645C7.16151 16.2417 7.18842 16.6143 7.22701 16.9903C7.25976 17.3406 7.29483 17.6927 7.33869 18.0431C7.35857 18.2235 7.30362 18.2854 7.11357 18.3041C6.30599 18.3771 5.49667 18.4682 4.68851 18.5557C4.42536 18.5832 4.40897 18.5756 4.38149 18.3111C4.31073 17.6215 4.24641 16.9278 4.17332 16.24C4.14408 15.9737 4.13707 15.979 3.87918 16.0047C3.07161 16.0852 2.26169 16.1652 1.43599 16.2458Z" fill="#D9923D"/>
<path d="M16.6892 13.9548C16.6834 15.3037 15.5817 16.3891 14.2203 16.3874C12.8479 16.3839 11.7462 15.2745 11.7584 13.9075C11.7713 12.5663 12.8806 11.4499 14.2332 11.468C15.7899 11.4902 16.7167 12.7543 16.6892 13.9548Z" fill="#D9923D"/>
<path d="M51.9681 47.1978L51.9862 46.82C51.988 45.9938 51.9845 45.1705 51.9862 44.3478C51.988 44.092 51.9938 44.0833 52.2348 44.0868C52.4576 44.0885 52.7336 43.9939 52.8873 44.1288C53.0464 44.2672 52.9417 44.5486 52.9417 44.7653C52.9493 45.9792 52.9476 47.1925 52.9458 48.4059C52.9458 48.6979 52.9417 48.6979 52.6622 48.7031C51.9751 48.716 51.9751 48.716 51.5623 48.1776C51.0892 47.5627 50.6155 46.9461 50.1424 46.3272C49.943 46.072 49.7383 45.8204 49.5904 45.4846L49.5319 45.7474C49.5319 46.6431 49.5337 47.5371 49.5337 48.4316C49.5337 48.6961 49.5284 48.7089 49.26 48.6979C49.0407 48.6903 48.7665 48.8053 48.6168 48.6395C48.4887 48.497 48.5764 48.2342 48.5746 48.0229C48.5729 46.8235 48.5746 45.623 48.5746 44.4225C48.5746 44.0868 48.5817 44.116 48.8887 44.0774C49.4114 44.0085 49.7571 44.1907 50.0512 44.6397C50.4711 45.2762 50.9705 45.8624 51.4307 46.4732C51.6114 46.7143 51.7798 46.9695 51.9517 47.2177L51.9938 47.2615L51.9681 47.1978Z" fill="#009479"/>
<path d="M126.011 48.3434C125.645 48.7702 125.221 48.8835 124.737 48.7994C124.25 48.7136 123.935 48.4128 123.76 47.9691C123.555 47.4453 123.551 46.9075 123.736 46.3779C124.06 45.4565 125.134 45.1938 125.863 45.8472L126.006 45.9383L126.048 45.7193C126.048 45.1663 126.051 44.6099 126.038 44.0552C126.037 43.873 126.097 43.807 126.282 43.8129C127.049 43.838 126.906 43.7048 126.91 44.4073C126.917 45.6831 126.912 46.9548 126.912 48.2266V48.4403C126.906 48.6937 126.906 48.6955 126.663 48.703H126.344C126.051 48.699 126.051 48.699 126.011 48.3434ZM124.538 47.1721L124.637 47.6298C124.772 47.8961 124.995 48.017 125.296 48.017C125.587 48.0187 125.832 47.9311 125.967 47.6555C126.135 47.3198 126.134 46.9747 125.967 46.6389C125.868 46.4381 125.704 46.3178 125.479 46.2705C124.929 46.1572 124.534 46.5257 124.538 47.1721Z" fill="#009479"/>
<path d="M80.5506 45.9723V45.3902C80.5506 44.9429 80.5576 44.4962 80.5471 44.049C80.5395 43.8574 80.6144 43.8171 80.7939 43.8136C81.4079 43.8043 81.4079 43.799 81.4079 44.4209C81.4079 45.7183 81.4079 47.0123 81.4055 48.3062V48.552L81.2558 48.7021L80.7991 48.7073C80.5763 48.7348 80.4956 48.6419 80.5249 48.4481H80.4114C79.5728 49.1546 78.484 48.8352 78.1893 47.7894C78.0618 47.3387 78.0671 46.8791 78.2115 46.4301C78.5255 45.4556 79.6442 45.173 80.388 45.8807L80.5506 45.9723ZM80.5746 47.1325L80.567 46.9994C80.5249 46.5504 80.2436 46.2643 79.8266 46.2514C79.419 46.2386 79.1395 46.4815 79.0466 46.9153C79.0027 47.1308 79.0226 47.3387 79.0922 47.5395C79.1963 47.8496 79.4465 48.016 79.7957 48.0177C80.1611 48.0177 80.3845 47.8735 80.5085 47.5541L80.574 47.1325H80.5746Z" fill="#009479"/>
<path d="M147.262 45.9755C147.262 45.3367 147.26 44.7113 147.262 44.0889C147.264 43.8226 147.268 43.8226 147.535 43.8168C148.118 43.8063 148.118 43.8063 148.118 44.3826V48.554L147.967 48.7C147.743 48.6982 147.522 48.7 147.301 48.7L147.242 48.3934L147.16 48.4098C146.95 48.6562 146.677 48.7817 146.363 48.8185C145.72 48.895 145.159 48.5429 144.938 47.9006C144.775 47.4318 144.772 46.95 144.912 46.4736C145.214 45.45 146.35 45.158 147.119 45.899L147.262 45.9755ZM147.286 47.1637C147.288 46.7112 147.103 46.3971 146.771 46.2914C146.347 46.1583 145.935 46.3568 145.798 46.755C145.625 47.2601 145.813 47.8183 146.208 47.9701L146.347 48.0028C146.916 48.0997 147.28 47.7728 147.286 47.1637Z" fill="#009479"/>
<path d="M21.3604 45.282C20.9768 44.9755 20.6043 44.7968 20.1599 44.7822C19.0763 44.7495 18.3728 45.4846 18.4734 46.5648C18.5827 47.7928 19.5915 48.1577 20.571 47.8827C20.847 47.8074 21.0809 47.6509 21.3627 47.4536C21.3627 47.7823 21.3604 48.0579 21.3627 48.3312L21.2364 48.5209C19.9757 49.1819 17.9746 48.8059 17.5377 47.0705C17.1044 45.3404 18.2301 44.0727 19.778 43.9758C20.2698 43.9431 20.7411 44.0249 21.1978 44.2C21.3534 44.2584 21.4265 44.3355 21.4043 44.5107C21.3774 44.7442 21.3773 44.9796 21.3604 45.282Z" fill="#009479"/>
<path d="M39.4913 46.0648C39.8808 45.6268 40.2901 45.4698 40.7837 45.5083C41.3333 45.5503 41.6807 45.8604 41.7357 46.4116C41.7614 46.6814 41.7503 46.9517 41.7503 47.2256C41.7503 47.6489 41.7468 48.0722 41.752 48.4973L41.5526 48.7052C40.8363 48.7437 40.8363 48.749 40.8363 48.0244V47.0335L40.8275 46.8583C40.7924 46.4461 40.6521 46.2726 40.3322 46.2364C39.9995 46.2014 39.665 46.4151 39.5627 46.7363C39.5135 46.8968 39.4989 47.0592 39.4989 47.2273C39.5042 47.6489 39.4989 48.0722 39.5042 48.4973L39.3071 48.7052C38.5908 48.7396 38.5908 48.7455 38.5908 48.0208V44.1361C38.5908 43.8202 38.5925 43.8202 38.8919 43.8167C39.4913 43.8097 39.4913 43.8097 39.4913 44.4024V46.0648Z" fill="#009479"/>
<path d="M133.787 47.4951C134.056 47.9383 134.419 48.0936 134.889 48.0008C135.125 47.9529 135.304 47.8291 135.365 47.5862C135.437 47.3328 135.307 47.1594 135.112 47.0187C134.949 46.9001 134.77 46.8125 134.589 46.7232C134.282 46.5737 133.977 46.4149 133.721 46.1866C133.166 45.6961 133.167 44.8839 133.708 44.3806C134.266 43.8638 135.656 43.74 136.182 44.5721C136.033 44.7782 135.836 44.9405 135.647 45.1064L135.463 44.9423C135.201 44.7233 134.911 44.683 134.604 44.8109C134.244 44.9586 134.18 45.3423 134.461 45.612C134.615 45.758 134.81 45.8509 135.006 45.9332C135.278 46.0482 135.541 46.1761 135.781 46.3513C136.217 46.6724 136.427 47.094 136.343 47.6358C136.257 48.1888 135.929 48.5497 135.402 48.7196C134.904 48.8819 134.403 48.862 133.911 48.6828L133.516 48.4533C133.219 48.1923 133.215 48.1374 133.478 47.8402L133.787 47.4951Z" fill="#009479"/>
<path d="M88.2959 47.5219C88.4749 47.8051 88.7088 48.0001 89.0544 48.0223C89.2719 48.0345 89.4819 48.0164 89.6625 47.8816C89.9298 47.6789 89.9549 47.356 89.7175 47.1172C89.5678 46.9654 89.3795 46.8667 89.1895 46.7739C88.8918 46.6279 88.5954 46.4819 88.3305 46.2811C87.5305 45.6697 87.6398 44.5895 88.5497 44.1557C89.0158 43.9367 89.5058 43.9058 89.997 44.0552C90.2274 44.1247 90.4175 44.2649 90.5836 44.4383L90.5818 44.6975L90.4011 44.8651L90.1345 45.0858L89.9006 44.8926C89.6298 44.7104 89.3485 44.6864 89.0596 44.8254C88.7398 44.9766 88.6854 45.327 88.9316 45.5845C89.0906 45.7503 89.2971 45.8432 89.5018 45.9307C89.7708 46.0516 90.0339 46.1771 90.2766 46.3523C90.7467 46.6898 90.9239 47.1499 90.8216 47.7099C90.7227 48.25 90.3666 48.577 89.8567 48.7317C89.3942 48.8724 88.9263 48.8578 88.4638 48.7043L88.0895 48.5093C87.7094 48.2354 87.6965 48.1443 88.0071 47.8051L88.2959 47.5219Z" fill="#009479"/>
<path d="M108.724 48.387C108.529 48.5733 108.357 48.7099 108.134 48.7724C107.41 48.9709 106.74 48.6369 106.484 47.9345C106.292 47.4183 106.29 46.891 106.475 46.376C106.798 45.4657 107.888 45.1995 108.606 45.8488L108.75 45.9364L108.819 45.6356L108.872 45.6024C109.117 45.6024 109.428 45.4984 109.59 45.6426C109.762 45.7921 109.649 46.1063 109.651 46.3492C109.66 47.0224 109.655 47.6939 109.655 48.3654C109.652 48.7011 109.652 48.7011 109.304 48.7029H109.092C108.801 48.6994 108.801 48.6994 108.724 48.387ZM108.821 47.1392C108.819 46.6919 108.624 46.3836 108.278 46.2849C107.849 46.1629 107.462 46.3638 107.326 46.7795C107.162 47.2793 107.341 47.8142 107.727 47.9695L107.864 48.0022C108.45 48.1044 108.821 47.7669 108.821 47.1392Z" fill="#009479"/>
<path d="M139.326 46.013V45.599H140.064L140.185 45.7374L140.186 45.9126V48.3831C140.186 48.7264 140.199 48.7042 139.856 48.7042H139.607C139.343 48.7007 139.343 48.7007 139.278 48.4362L139.183 48.4508C138.357 49.1608 137.259 48.8338 136.963 47.7846C136.841 47.3449 136.843 46.8982 136.978 46.462C137.292 45.4489 138.445 45.1663 139.192 45.9108L139.326 46.013ZM139.348 47.144C139.346 46.5204 138.951 46.1555 138.399 46.2757C138.05 46.3522 137.846 46.6208 137.803 47.0512C137.765 47.4692 137.946 47.8377 138.257 47.9638L138.392 48.0018C138.979 48.1115 139.348 47.7775 139.348 47.144Z" fill="#009479"/>
<path d="M56.1141 46.0131L56.1451 45.6224C56.3849 45.5716 56.6223 45.6026 56.8562 45.5991L56.986 45.7264L56.9878 45.8671C56.9878 46.7283 56.9895 47.5878 56.9878 48.4474C56.986 48.6955 56.9784 48.6955 56.7316 48.7025L56.4486 48.7043C56.1398 48.7025 56.1398 48.7025 56.0884 48.3685C55.8948 48.5332 55.7229 48.7066 55.4761 48.772C54.7305 48.9711 54.0581 48.6278 53.806 47.9014C53.6452 47.4343 53.6399 46.9526 53.7826 46.4767C54.0896 45.442 55.2533 45.1571 56.0153 45.9307L56.1141 46.0131ZM56.1545 47.1645L56.1433 46.9987C56.103 46.5497 55.8235 46.263 55.4071 46.2519C54.9738 46.2396 54.6797 46.5187 54.6229 46.9876L54.6452 47.4419C54.727 47.8197 55.0066 48.024 55.4141 48.0164C55.8001 48.0077 56.0591 47.7905 56.1305 47.4179L56.1545 47.1645Z" fill="#009479"/>
<path d="M72.7656 45.957L72.7913 45.6247C72.9942 45.5681 73.193 45.6119 73.3924 45.5938C73.5696 45.5757 73.6444 45.6341 73.6392 45.8274C73.6263 46.2011 73.6333 46.5788 73.6333 46.9566C73.6333 47.4384 73.6316 47.9183 73.6333 48.4035C73.6333 48.734 73.6374 48.7031 73.3193 48.7013L72.8626 48.6972L72.7836 48.6721L72.7603 48.4053L72.6925 48.4076C71.81 49.1918 70.6534 48.8327 70.399 47.6754C70.313 47.2854 70.3148 46.8819 70.43 46.4895C70.7264 45.4566 71.8995 45.1559 72.6579 45.9149L72.7656 45.957ZM71.2726 47.1353L71.282 47.3455C71.3328 47.7723 71.6141 48.0187 72.0439 48.017C72.455 48.0152 72.7018 47.8126 72.7836 47.4074C72.8825 46.9333 72.7269 46.4878 72.393 46.3307C71.9048 46.103 71.2486 46.3546 71.2726 47.1353Z" fill="#009479"/>
<path d="M64.3921 45.508C64.9407 45.508 65.5523 45.9097 65.7827 46.5777C66.0278 47.2743 65.8248 48.0188 65.2676 48.4608C64.4799 49.0844 63.1916 48.8947 62.6723 48.0608C62.3361 47.519 62.3162 46.9368 62.6121 46.3786C62.9337 45.7725 63.4729 45.4993 64.3921 45.508ZM64.153 47.9826C64.6337 47.9791 64.9658 47.6323 64.9605 47.1447C64.957 46.6525 64.6208 46.3313 64.1272 46.3401C63.6466 46.3494 63.3507 46.656 63.3507 47.1523C63.3489 47.658 63.6682 47.9861 64.153 47.9826Z" fill="#009479"/>
<path d="M114.759 47.1742C114.757 46.1979 115.464 45.5299 116.476 45.5007C117.313 45.4768 118.201 46.0426 118.219 47.1485C118.236 48.0991 117.487 48.822 116.497 48.8255C115.49 48.8272 114.762 48.1336 114.759 47.1742ZM115.683 47.1578C115.687 47.6629 116.007 47.9876 116.494 47.9823C116.975 47.9753 117.302 47.6302 117.293 47.1392C117.28 46.6574 116.97 46.3421 116.493 46.338C115.99 46.3363 115.681 46.6504 115.683 47.1578Z" fill="#009479"/>
<path d="M42.3942 47.1706C42.3924 46.1961 43.1052 45.5298 44.114 45.5047C45.0204 45.4773 45.8554 46.1359 45.8537 47.1525C45.8537 48.1136 45.1245 48.8236 44.1303 48.8254C43.1234 48.8271 42.3942 48.1323 42.3942 47.1706ZM44.9327 47.1432C44.9233 46.6504 44.587 46.331 44.0958 46.3403C43.6169 46.3514 43.3134 46.6667 43.3152 47.1578C43.3169 47.6576 43.6426 47.9863 44.1303 47.9822C44.6075 47.9787 44.9379 47.6284 44.9327 47.1432Z" fill="#009479"/>
<path d="M23.7346 45.508C25.1123 45.4624 25.8614 46.8492 25.2585 47.9732C24.8509 48.7417 23.8293 49.0482 22.9761 48.6757C22.1902 48.3347 21.8083 47.446 22.0879 46.6069C22.2779 46.0393 22.8808 45.4718 23.7346 45.508ZM23.727 47.9826C24.2094 47.9843 24.5439 47.6468 24.5439 47.1523C24.5439 46.6595 24.2129 46.3383 23.7199 46.3401C23.2375 46.3459 22.934 46.6524 22.9247 47.1429C22.9194 47.6392 23.2428 47.9808 23.727 47.9826Z" fill="#009479"/>
<path d="M130.669 48.042C130.484 48.3579 130.226 48.5856 129.879 48.71C129.457 48.863 129.027 48.8706 128.6 48.7246C128.013 48.529 127.713 48.0951 127.611 47.5054C127.45 46.5893 127.935 45.7467 128.775 45.5569C129.701 45.3485 130.422 45.6953 130.707 46.431C130.783 46.6295 130.82 46.8374 130.827 47.0494C130.835 47.3629 130.833 47.3705 130.524 47.3705C129.959 47.374 129.394 47.3705 128.828 47.374L128.536 47.4161L128.645 47.7664C128.883 48.084 129.466 48.1389 129.784 47.8341C129.95 47.6718 130.069 47.6806 130.234 47.7827L130.669 48.042ZM129.908 46.8123C129.766 46.3796 129.57 46.2301 129.208 46.2412C128.841 46.25 128.638 46.4217 128.549 46.8123H129.908Z" fill="#009479"/>
<path d="M101.593 47.3713C101.691 47.9879 102.335 48.2291 102.815 47.877L102.943 47.7567L103.188 47.7234C103.363 47.8151 103.539 47.9062 103.738 48.0084C103.546 48.4095 103.232 48.6326 102.839 48.7511C102.47 48.8603 102.091 48.8533 101.722 48.7453C101.492 48.6799 101.287 48.5631 101.118 48.3914C100.639 47.9027 100.579 47.3077 100.725 46.6817C100.86 46.0961 101.243 45.6961 101.832 45.563C102.808 45.3388 103.577 45.7346 103.819 46.5574L103.859 46.729C103.967 47.3713 103.967 47.3713 103.312 47.3713H101.593ZM101.604 46.7822L101.688 46.8242C102.015 46.8312 102.344 46.8347 102.671 46.8312L102.929 46.7804L102.832 46.4663L102.609 46.3004C102.179 46.1235 101.774 46.3133 101.604 46.7822Z" fill="#009479"/>
<path d="M85.1504 48.0235L84.9855 48.288C84.5306 48.8048 83.6938 48.9782 83.0014 48.695C82.3962 48.4527 82.0453 47.832 82.0821 47.0875C82.1476 45.7831 83.3301 45.2079 84.4429 45.6388C85.0148 45.8578 85.3697 46.4651 85.313 47.2317L85.0791 47.3701C84.582 47.3724 84.0885 47.3724 83.5932 47.3724H83.2733C82.9886 47.376 82.9482 47.4524 83.0961 47.7023C83.2938 48.0439 83.9037 48.1806 84.2125 47.8793C84.461 47.6329 84.6294 47.7169 84.847 47.8466L85.1504 48.0235ZM83.7213 46.8323V46.8341H84.2125C84.3879 46.8247 84.4136 46.7774 84.3464 46.6151C84.2417 46.3652 83.999 46.228 83.6862 46.2408C83.3903 46.2554 83.1307 46.4271 83.0558 46.6642L83.1581 46.8323C83.3447 46.8341 83.533 46.8323 83.7213 46.8323Z" fill="#009479"/>
<path d="M35.9464 48.0331C35.4312 48.8266 34.3494 49.0695 33.5705 48.5843L33.4535 48.5037C32.9272 48.095 32.7225 47.2851 32.9623 46.5734C33.1816 45.9241 33.7354 45.5206 34.433 45.5112L34.9248 45.5387C35.7838 45.7232 36.1493 46.4496 36.0961 47.2285L35.9043 47.3727C35.5862 47.371 35.2686 47.3727 34.9488 47.3727C34.6418 47.3727 34.3348 47.3669 34.0295 47.3727C33.781 47.3745 33.7482 47.4422 33.8611 47.6682C34.0459 48.0349 34.6669 48.1902 34.9944 47.8819C35.2447 47.6442 35.409 47.7067 35.63 47.8451L35.9464 48.0331ZM34.4973 46.8326C34.6745 46.8326 34.8499 46.8309 35.0271 46.8326L35.1517 46.6557C35.071 46.4058 34.8225 46.2452 34.5155 46.2394C34.2049 46.2359 33.9289 46.4058 33.843 46.6592L33.9693 46.8344C34.1465 46.8309 34.3219 46.8326 34.4973 46.8326Z" fill="#009479"/>
<path d="M92.3104 47.3715C92.4145 47.9904 93.056 48.2275 93.5367 47.8754L93.663 47.7545L93.8764 47.7131L94.3519 47.9501L94.3957 48.1451C94.1817 48.4406 93.9074 48.6543 93.5531 48.7512C93.1823 48.8569 92.8075 48.8517 92.4367 48.7436C92.2666 48.6946 92.1057 48.6181 91.9654 48.5083C91.397 48.0541 91.3034 47.4357 91.4169 46.7823C91.5303 46.1511 91.9192 45.7073 92.5537 45.5631C93.5548 45.3313 94.3045 45.7546 94.5361 46.5598L94.5712 46.6965C94.6934 47.3335 94.6659 47.3715 94.0302 47.3715H92.3104ZM92.5227 46.8331H93.4729C93.6811 46.8244 93.7156 46.7619 93.6209 46.5744C93.4928 46.3204 93.2642 46.2422 93.0069 46.244C92.7344 46.2457 92.5022 46.3444 92.3747 46.6106C92.2888 46.7934 92.3069 46.8244 92.5227 46.8331Z" fill="#009479"/>
<path d="M151.878 48.0116C151.504 48.6334 150.897 48.9108 150.178 48.811C149.502 48.7193 149.046 48.3654 148.863 47.7033C148.77 47.3693 148.77 47.0225 148.852 46.6867C149.059 45.8436 149.864 45.3712 150.805 45.5242C151.578 45.6555 152.079 46.3381 152.026 47.176L151.812 47.3745C151.209 47.3693 150.608 47.371 150.007 47.3745L149.747 47.4218L149.815 47.7179C150.019 48.0536 150.626 48.1646 150.94 47.8691C151.169 47.6554 151.332 47.705 151.544 47.8347L151.878 48.0116ZM150.425 46.8327H150.919C151.096 46.8257 151.125 46.7743 151.061 46.6172C150.963 46.3732 150.712 46.2307 150.404 46.2394C150.1 46.2523 149.852 46.4169 149.769 46.661L149.897 46.8344C150.074 46.8309 150.248 46.8327 150.425 46.8327Z" fill="#009479"/>
<path d="M27.0403 46.0149L27.314 45.7813C27.7233 45.4642 28.1824 45.435 28.6555 45.5828C28.9701 45.6815 29.1671 45.9127 29.2315 46.2397L29.2788 46.6245C29.2841 47.2376 29.2771 47.8507 29.2858 48.4638C29.2876 48.6448 29.2315 48.7213 29.0449 48.7049C28.8367 48.6845 28.5736 48.7884 28.4291 48.657C28.2789 48.5257 28.3812 48.2594 28.3742 48.0515C28.3648 47.7467 28.3742 47.4384 28.3724 47.1336L28.3561 46.8142C28.3063 46.4364 28.1841 46.287 27.8865 46.2414C27.5754 46.1941 27.2321 46.3821 27.1117 46.6776C27.0473 46.8323 27.0292 46.997 27.0327 47.1628C27.0345 47.5879 27.0345 48.013 27.0327 48.4346C27.0292 48.6973 27.0274 48.6973 26.7549 48.7032L26.331 48.7049L26.1228 48.4965C26.1322 48.121 26.1246 47.7467 26.1246 47.3672C26.1246 46.8598 26.1228 46.3547 26.1263 45.849C26.1281 45.6026 26.1357 45.6026 26.3877 45.5974H26.6345C27.0093 45.5974 27.0093 45.5974 27.0403 46.0149Z" fill="#009479"/>
<path d="M67.4803 46.0318C67.8622 45.581 68.3078 45.4549 68.8177 45.5174C69.2855 45.5735 69.6165 45.8712 69.6639 46.3273C69.7387 47.0665 69.6838 47.8092 69.6931 48.5479L69.5469 48.7032C69.3148 48.6921 69.037 48.7873 68.8581 48.6629C68.6937 48.5496 68.8066 48.2688 68.7961 48.0626C68.7814 47.6539 68.8195 47.2417 68.7668 46.8312C68.7119 46.4277 68.6095 46.2963 68.3207 46.2432C68.0213 46.1924 67.6903 46.3582 67.5493 46.6303L67.4563 47.112C67.4563 47.5482 67.4581 47.9821 67.4546 48.4182C67.4546 48.6956 67.4528 48.7067 67.1932 48.7014C66.9868 48.6938 66.7271 48.7943 66.5862 48.643C66.4622 48.5076 66.55 48.2594 66.5465 48.0609C66.5447 47.3328 66.5447 46.6029 66.5465 45.873C66.5465 45.6026 66.5517 45.6026 66.8166 45.5974H67.1692C67.4178 45.6009 67.4178 45.6026 67.4435 45.8695L67.4803 46.0318Z" fill="#009479"/>
<path d="M144.158 46.7153C144.14 47.0441 144.187 47.4324 144.096 47.8195C143.968 48.3631 143.628 48.6697 143.087 48.7771C142.76 48.8413 142.433 48.8396 142.106 48.7789C141.479 48.6621 141.117 48.2995 141.04 47.6735C140.96 47.0417 141.007 46.4035 140.999 45.7682L141.197 45.5931H141.693L141.899 45.7957C141.892 46.2079 141.896 46.6207 141.899 47.0312L141.912 47.3851C141.971 47.8265 142.186 48.0075 142.623 47.9871C143.033 47.969 143.23 47.7699 143.241 47.3284C143.25 46.9033 143.241 46.4818 143.242 46.0567C143.25 45.5218 143.173 45.5966 143.72 45.5966C144.209 45.5948 144.152 45.5294 144.158 46.0199C144.16 46.2319 144.158 46.4456 144.158 46.7153Z" fill="#009479"/>
<path d="M119.243 47.8081C119.497 48.1497 119.78 48.2536 120.082 48.1369L120.288 47.9196L120.146 47.6586L119.795 47.4963C119.543 47.3976 119.285 47.3101 119.059 47.1588C118.62 46.8686 118.541 46.3542 118.854 45.9344C119.333 45.2991 120.822 45.3306 121.12 46.1241C120.963 46.2538 120.758 46.3104 120.577 46.4108L120.389 46.3139C120.202 46.1148 119.944 46.0582 119.716 46.1586C119.494 46.2538 119.462 46.4377 119.647 46.5948L120.087 46.8067C120.321 46.885 120.558 46.958 120.767 47.0946C121.284 47.4344 121.317 48.1515 120.836 48.5363C120.345 48.9304 119.33 48.9234 118.846 48.5199L118.697 48.3722C118.561 48.1953 118.567 48.1643 118.763 48.058C118.914 47.9745 119.073 47.8957 119.243 47.8081Z" fill="#009479"/>
<path d="M31.2296 45.4883C31.6045 45.4918 31.9863 45.587 32.2565 45.932C32.381 46.0885 32.3734 46.1253 32.198 46.224L31.9477 46.3495L31.6004 46.2894C31.4635 46.0996 31.1694 46.0669 30.9554 46.158C30.7343 46.2509 30.7016 46.4447 30.8864 46.5942C31.025 46.711 31.1934 46.7676 31.3594 46.8202C31.5857 46.8932 31.8091 46.9702 32.008 47.0999C32.5126 47.4228 32.5565 48.1269 32.0957 48.5158C31.6004 48.9392 30.5314 48.9263 30.0507 48.4936L29.9121 48.3348L29.9776 48.061L30.2612 47.9173C30.4109 47.8186 30.5039 47.8151 30.625 47.9903C30.7747 48.2034 31.1402 48.2385 31.3706 48.1176C31.5624 48.0154 31.5881 47.8385 31.4232 47.689L31.0489 47.4975C30.7946 47.4082 30.539 47.3147 30.3104 47.167C29.8262 46.8587 29.7694 46.2421 30.1823 45.8421C30.4641 45.5689 30.8168 45.4941 31.2296 45.4883Z" fill="#009479"/>
<path d="M97.5564 47.7353C97.5564 47.9963 97.5529 48.2351 97.5581 48.4781L97.3739 48.6988C96.5167 49.0474 95.2629 48.6988 95.0857 47.427C95.0307 47.013 95.0805 46.6043 95.3085 46.237C95.7144 45.5895 96.6576 45.3051 97.3739 45.6058L97.5599 45.8616C97.5494 46.084 97.5564 46.303 97.5564 46.5348C96.8167 46.23 96.4196 46.2557 96.1588 46.6113C95.9249 46.9272 95.9447 47.4434 96.2044 47.7283C96.4968 48.0565 96.9207 48.0641 97.5564 47.7353Z" fill="#009479"/>
<path d="M60.0818 46.5395C59.459 46.2161 59.0275 46.233 58.7392 46.5792C58.4865 46.8805 58.483 47.3862 58.7316 47.6963C59.0239 48.0554 59.4824 48.0758 60.1023 47.7365C60.1023 47.9935 60.0987 48.2364 60.104 48.4769L59.89 48.7122C59.0935 49.0188 57.838 48.7414 57.6462 47.4516C57.4486 46.1413 58.4538 45.2404 59.8081 45.572C60.1023 45.6432 60.1005 45.6578 60.1023 45.9533L60.1005 46.4496L60.0818 46.5395Z" fill="#009479"/>
<path d="M75.3677 43.8177L75.4151 44.1172C75.4168 45.5402 75.4151 46.962 75.4151 48.385V48.5619L75.2637 48.7026C75.0625 48.7009 74.8637 48.7009 74.6607 48.7026L74.5052 48.5619V44.119C74.5052 43.8194 74.5087 43.8177 74.8198 43.8177C75.0075 43.8159 75.1958 43.8177 75.3677 43.8177Z" fill="#009479"/>
<path d="M36.7937 46.2251C36.7937 45.5063 36.792 44.7875 36.7955 44.0722C36.7955 43.8258 36.8013 43.813 37.0499 43.8206C37.258 43.8276 37.5159 43.7236 37.6563 43.879C37.7826 44.0156 37.6966 44.262 37.6984 44.4588C37.7019 45.7673 37.7001 47.0717 37.6984 48.3785C37.6984 48.6997 37.6966 48.6997 37.368 48.7032C36.7937 48.7049 36.7937 48.7049 36.7937 48.1321V46.2251Z" fill="#009479"/>
<path d="M104.65 47.5062C104.65 47.1868 104.643 46.8733 104.652 46.5539C104.658 46.3822 104.614 46.2835 104.418 46.3092L104.223 46.0996V45.8164C104.206 45.6523 104.272 45.57 104.442 45.5974C104.625 45.6249 104.658 45.5262 104.652 45.3715C104.643 45.1595 104.652 44.9481 104.65 44.7344L104.796 44.5832H104.833C105.564 44.5154 105.564 44.5154 105.566 45.2401V45.417L105.75 45.5957C105.962 45.5682 106.021 45.6687 105.997 45.8602V45.9991C105.992 46.2724 105.995 46.2835 105.732 46.3074C105.55 46.322 105.566 46.4353 105.566 46.5521C105.566 47.1284 105.568 47.7053 105.566 48.2799C105.562 48.7669 105.625 48.698 105.127 48.7032C104.65 48.7067 104.65 48.705 104.65 48.2121V47.5062Z" fill="#009479"/>
<path d="M111.384 46.1439L111.569 45.9162C111.812 45.5659 112.154 45.4672 112.559 45.5145L112.696 45.7025C112.636 45.9559 112.656 46.221 112.563 46.4727L112.11 46.4359C111.689 46.44 111.486 46.6187 111.421 47.0361C111.359 47.4233 111.397 47.8139 111.392 48.1969C111.384 48.7026 111.39 48.7026 110.891 48.7026H110.785C110.482 48.6985 110.48 48.6985 110.478 48.392C110.476 47.5471 110.476 46.6987 110.48 45.852C110.48 45.6003 110.485 45.6003 110.732 45.5968H110.766C110.955 45.6114 111.172 45.5256 111.318 45.6348C111.454 45.7335 111.338 45.9583 111.384 46.1439Z" fill="#009479"/>
<path d="M100.297 46.4837C99.4125 46.3249 99.1295 46.5661 99.1277 47.4507C99.126 47.794 99.1184 48.135 99.1295 48.4743C99.133 48.6331 99.0985 48.7207 98.9154 48.7061H98.457C98.2757 48.7172 98.2049 48.6553 98.2119 48.4672C98.2231 48.0784 98.2137 47.6918 98.2137 47.3029C98.2137 46.8101 98.2172 46.3156 98.2119 45.8216C98.2102 45.6569 98.2576 45.5711 98.433 45.5968H98.5026C98.6909 45.6079 98.9067 45.5296 99.0546 45.6277C99.2061 45.7299 99.0581 45.9565 99.1441 46.1351L99.3066 45.9197C99.5458 45.5658 99.8879 45.4689 100.293 45.5168L100.436 45.699C100.376 45.9506 100.392 46.2157 100.297 46.4837Z" fill="#009479"/>
<path d="M113.142 47.1795C113.142 46.7346 113.148 46.2856 113.139 45.8401C113.135 45.669 113.179 45.596 113.371 45.5919C114.051 45.5755 114.051 45.5685 114.051 46.2383C114.051 46.9769 114.047 47.7179 114.054 48.4606C114.056 48.6323 114.014 48.7053 113.82 48.707C113.141 48.7251 113.141 48.7304 113.141 48.0589C113.141 47.7669 113.141 47.4732 113.142 47.1795Z" fill="#009479"/>
<path d="M61.7198 47.1793C61.7198 47.6137 61.7145 48.0499 61.7233 48.4843C61.7274 48.6519 61.6665 48.7156 61.5005 48.7068H61.0052L60.8081 48.4931C60.8134 47.6009 60.8151 46.7069 60.8063 45.8147C60.8063 45.6466 60.8625 45.5829 61.0309 45.5917H61.4894C61.6853 45.5753 61.7274 45.6688 61.7233 45.8398C61.7145 46.2854 61.7198 46.7344 61.7198 47.1793Z" fill="#009479"/>
<path d="M61.7952 44.3381C61.7975 44.63 61.5507 44.8747 61.2601 44.8706C60.9659 44.8688 60.7279 44.6224 60.7355 44.3287C60.7408 44.0444 60.9642 43.8254 61.2507 43.8196C61.5542 43.8108 61.7934 44.0426 61.7952 44.3381Z" fill="#009479"/>
<path d="M114.127 44.3267C114.134 44.621 113.898 44.8651 113.603 44.8709C113.314 44.8744 113.065 44.628 113.067 44.3378C113.067 44.0605 113.293 43.8287 113.577 43.8182C113.878 43.8088 114.12 44.0278 114.127 44.3267Z" fill="#009479"/>
<path d="M143.524 43.9766C143.181 44.3818 142.892 44.7175 142.609 45.0568C142.466 45.2302 142.291 45.1391 142.064 45.1572C142.271 44.7707 142.457 44.4256 142.642 44.077L142.845 43.9766H143.524Z" fill="#009479"/>
<path d="M109.082 43.9768C108.731 44.3914 108.445 44.74 108.141 45.0828C108.013 45.2252 107.842 45.1522 107.63 45.1412C107.834 44.7581 108.021 44.4078 108.209 44.0609L108.427 43.9751C108.613 43.9768 108.799 43.9768 109.082 43.9768Z" fill="#009479"/>
</svg>
