<svg width="109" height="43" viewBox="0 0 109 43" fill="none" xmlns="http://www.w3.org/2000/svg">
<path fill-rule="evenodd" clip-rule="evenodd" d="M89.6397 35.8267C89.6072 35.4918 89.5743 35.1573 89.5339 34.7401C89.3027 35.0267 89.2041 35.2375 89.2397 35.4943C88.5588 36.42 88.5784 35.3969 88.3137 35.1615C88.1281 35.3619 88.3695 35.91 87.8354 35.8093C87.4284 35.7327 87.5849 35.3538 87.5744 35.0976C87.5523 34.5586 87.5517 34.0182 87.5744 33.4795C87.5858 33.201 87.4182 32.8215 87.9364 32.7564C88.425 32.6948 88.513 33.0132 88.6158 33.3587C88.6854 33.5932 88.6119 33.872 88.9133 34.1397C89.0155 33.7677 89.1267 33.4409 89.1906 33.1055C89.2455 32.8161 89.424 32.76 89.6666 32.7633C89.8604 32.766 90.0952 32.766 90.0964 33.0192C90.1 33.9045 90.0891 34.7908 90.0467 35.6751C90.0389 35.8364 89.7989 35.8289 89.6397 35.8267ZM89.6397 35.8267C89.5943 35.8062 89.5641 35.7784 89.5432 35.7463C89.5754 35.7731 89.6076 35.7999 89.6397 35.8267ZM34.4686 21.0032C31.0826 21.9012 28.875 24.5239 26.2983 26.6032C26.0644 26.7919 25.9306 27.1123 25.7717 27.3843C25.6933 27.5186 25.7005 27.7118 25.6062 27.8276C24.1865 29.5651 23.8179 32.016 21.8446 33.3757C21.5526 33.5771 21.5164 33.8969 21.4158 34.1959C20.828 35.9445 20.0292 37.6103 18.8961 39.0496C18.377 39.7092 17.6752 40.1875 17.2312 40.9899C16.8298 41.7161 15.8299 41.8354 15.0118 41.8846C14.1461 41.9367 13.3153 42.1395 12.4708 42.2752C10.8829 42.5302 9.57701 42.1073 8.59199 40.8132C8.09523 40.1607 7.49989 39.6485 6.68212 39.4773C5.1412 39.1545 4.41564 37.6512 4.84913 36.1441C5.12943 35.169 4.78643 34.57 4.3107 33.6895C3.53662 32.2563 2.35414 31.1479 1.63765 29.7248C1.15681 28.7696 0.650793 27.8101 0.718603 26.655C0.835221 24.6677 2.30678 23.824 4.01505 24.8169C5.66381 25.7754 5.95145 25.7421 7.28913 24.384C7.57889 24.0895 7.82814 23.7559 8.10217 23.4457C8.56575 22.9212 8.77796 22.4663 7.97764 22.0063C7.55477 21.7635 7.27437 21.3094 7.6002 20.7834C8.00475 20.1306 7.81183 19.5603 7.38983 19.0354C6.884 18.406 7.02117 17.8674 7.54995 17.3568C9.79289 15.1916 9.49146 11.4463 6.85545 9.74412C5.76692 9.04152 5.09596 8.1107 4.68061 6.94838C4.49734 6.43561 4.31253 5.93586 3.98158 5.49996C3.77603 5.2293 3.71931 4.93327 3.79619 4.59991C4.00599 3.69109 4.41024 2.82326 3.89448 1.83909C3.71054 1.48799 4.16032 1.04061 4.5422 0.769086C4.91356 0.504984 5.20023 0.690665 5.48151 0.919753C6.77761 1.97597 8.2293 2.596 9.93179 2.56677C10.3758 2.55925 10.6938 2.85827 10.9636 3.18198C11.9764 4.39735 13.2533 5.00263 14.8503 5.08163C15.9459 5.13555 16.926 5.58562 17.6829 6.45557C18.6016 7.51208 19.7675 8.00729 21.1385 8.42573C22.773 8.9249 24.1922 10.086 25.268 11.5226C25.8583 12.3109 26.414 13.1274 27.0402 13.8861C27.6907 14.6738 28.5395 15.2537 29.5866 15.1775C31.1447 15.0642 31.8229 16.2116 32.4279 17.2176C32.7264 17.7131 33.004 17.9157 33.4399 17.9941C34.374 18.1619 35.0151 18.6107 35.2346 19.5678C35.3018 20.2183 35.026 20.6858 34.4686 21.0032ZM91.7386 25.885C92.9646 26.1777 94.1859 26.4951 95.4688 26.2964C95.7922 26.2461 96.1944 26.2313 96.2218 25.8626C96.2532 25.4379 95.8149 25.3575 95.486 25.2568C94.7319 25.0259 93.9409 24.947 93.2205 24.5689C91.8101 23.8289 91.3872 22.6277 91.5071 21.1438C91.6211 19.7351 92.3572 18.7546 93.6666 18.2705C95.4098 17.6267 97.1972 17.6028 98.9998 18.0478C99.404 18.1472 99.625 18.3263 99.5575 18.7643C99.5481 18.8267 99.5569 18.8915 99.5565 18.9554C99.5502 19.6553 99.8019 20.5421 99.4673 21.0045C99.1111 21.4959 98.3137 20.7549 97.6753 20.798C97.0761 20.8387 96.4657 20.6913 95.877 20.8869C95.6431 20.965 95.3479 21.0301 95.3289 21.3415C95.3088 21.6819 95.5463 21.8283 95.8511 21.9172C96.4898 22.1036 97.1364 22.2751 97.7537 22.5186C99.3648 23.1534 100.025 24.095 100.027 25.6721C100.028 27.202 99.2467 28.3754 97.7446 28.965C95.8447 29.7101 93.8927 29.5887 91.933 29.2239C91.5707 29.1567 91.4842 28.9813 91.4978 28.6452C91.5159 28.2012 91.4834 27.7548 91.4727 27.3099C91.1873 26.7649 91.3305 26.3004 91.7386 25.885ZM100.364 23.7054C100.364 22.1438 100.398 20.5812 100.348 19.0213C100.326 18.3295 100.569 18.1706 101.218 18.1812C103.416 18.217 105.616 18.2167 107.814 18.1805C108.411 18.1709 108.554 18.3472 108.554 18.9293C108.552 20.7964 108.578 20.7964 106.748 20.7964C106.078 20.7964 105.403 20.8527 104.741 20.7819C103.933 20.6948 103.687 20.9836 103.746 21.7775C103.783 22.2858 103.936 22.4289 104.421 22.4142C105.408 22.3844 106.397 22.4247 107.384 22.3973C107.835 22.3849 107.969 22.526 107.991 22.9868C108.084 25.0073 108.102 25.0065 106.049 25.0065C105.571 25.0065 105.086 25.0587 104.616 24.995C103.839 24.8895 103.718 25.2557 103.749 25.9216C103.77 26.3933 103.925 26.5109 104.365 26.5021C105.544 26.4786 106.724 26.5179 107.902 26.4834C108.405 26.4687 108.538 26.623 108.552 27.1246C108.61 29.2627 108.629 29.2621 106.531 29.2621C104.81 29.2621 103.088 29.2247 101.369 29.279C100.599 29.3034 100.306 29.1237 100.344 28.2939C100.414 26.7671 100.364 25.2353 100.364 23.7054ZM77.3133 39.1714C77.2851 39.2816 77.2382 39.3917 77.1725 39.5018C77.0143 40.0289 76.6995 40.3946 76.1244 40.4489C75.4586 40.5116 74.818 40.5363 75.035 39.5235C75.0935 39.2504 74.9805 38.9351 75.0586 38.6728C75.1848 38.2484 74.6284 37.5639 75.3986 37.4132C76.1676 37.2624 76.9597 37.3143 77.1753 38.34C77.2395 38.4502 77.2856 38.5603 77.3135 38.6702C77.3436 38.4986 77.4041 38.3269 77.4938 38.155C77.7874 37.5001 78.2565 37.1848 78.9925 37.3696C79.8082 37.5739 79.9526 38.2552 79.9713 38.9141C79.9896 39.5576 79.7934 40.2226 79.0615 40.417C78.3881 40.5954 77.8013 40.4019 77.5013 39.6884C77.4061 39.5163 77.3437 39.344 77.3133 39.1714ZM75.5507 38.8477C75.7448 39.1494 75.2483 39.7604 75.9525 39.8048C76.5116 39.8397 76.5677 39.3713 76.5665 38.9351C76.5656 38.5104 76.552 38.0438 75.9983 38.0088C75.3141 37.9657 75.7056 38.5484 75.5507 38.8477ZM79.3144 38.8068C79.2572 38.4207 79.221 37.9371 78.6573 37.9739C78.1407 38.0074 78.0219 38.4762 78.0499 38.8878C78.0759 39.2677 78.0665 39.81 78.6507 39.8012C79.2487 39.7925 79.2831 39.2921 79.3144 38.8068ZM96.2691 34.5358C96.2652 34.9733 96.214 35.4087 96.0613 35.8393C95.5674 35.9258 95.5034 35.6464 95.5152 35.2439C95.5396 34.4379 95.5321 33.6304 95.5378 32.8234C95.8962 32.617 96.1497 32.6535 96.1864 33.1237C96.2133 33.4654 96.2469 33.8075 96.2618 34.1488C96.2938 34.0142 96.3618 33.8795 96.4659 33.7449C96.9373 32.7779 97.6719 32.4605 98.3124 32.9561C98.543 33.1341 98.7935 33.3781 98.5738 33.6662C98.3772 33.9245 98.1524 33.765 97.9531 33.5469C97.658 33.2237 97.3346 33.3425 97.1869 33.6788C96.9804 34.149 96.899 34.6712 97.2948 35.1037C97.5724 35.4067 97.8286 35.2349 97.9803 34.9521C98.1173 34.6956 98.3082 34.6147 98.5144 34.7679C98.7826 34.9675 98.629 35.2276 98.4905 35.441C98.2859 35.7563 97.9953 35.9061 97.6047 35.8952C96.9458 35.8766 96.669 35.4423 96.4655 34.9105C96.369 34.7856 96.3036 34.6607 96.2691 34.5358ZM56.1218 34.3036C56.1218 34.1769 56.0883 34.0386 56.1277 33.9258C56.2718 33.5145 55.6989 32.7662 56.7065 32.7512C57.8074 32.7343 58.2378 33.0448 58.3132 34.0109C58.4114 35.2669 58.0606 35.754 57.1077 35.8463C56.3313 35.9217 55.9837 35.6787 56.1172 34.8727C56.148 34.6876 56.1218 34.4935 56.1218 34.3036ZM56.7299 34.4066C56.9922 34.6092 56.465 35.2283 57.1396 35.2141C57.7002 35.2021 57.6755 34.6727 57.6719 34.2748C57.668 33.8704 57.6385 33.3326 57.0705 33.411C56.5165 33.4873 56.9081 34.0395 56.7299 34.4066ZM80.5799 35.7666C79.9277 35.9598 79.8125 35.5025 79.5988 35.1649C79.4691 34.9605 79.348 34.6567 79.0535 34.7263C78.7626 34.7947 78.9347 35.1001 78.8919 35.2979C78.8501 35.4938 78.9748 35.797 78.6363 35.8088C78.2315 35.8229 78.3306 35.4911 78.3276 35.2572C78.3198 34.6871 78.3804 34.1102 78.3132 33.5483C78.1983 32.5867 78.8343 32.7607 79.3863 32.7634C80.0992 32.767 80.5595 33.0347 80.4588 33.8323C80.315 34.975 80.3044 34.9738 80.5799 35.7666ZM79.2501 33.3722C79.037 33.3635 78.8839 33.4204 78.8887 33.6757C78.895 34.0091 79.1383 33.9814 79.3517 33.9723C79.563 33.9639 79.84 33.9748 79.7767 33.6438C79.7248 33.3731 79.475 33.3698 79.2501 33.3722ZM41.1839 34.0752C41.1839 34.7226 41.1907 35.0949 41.1805 35.4663C41.1763 35.6175 41.1772 35.7994 40.9541 35.8141C40.7691 35.8262 40.6413 35.7381 40.6389 35.5486C40.6298 34.7214 40.6307 33.8937 40.6295 33.0662C40.6293 32.8757 40.7338 32.7829 40.9201 32.7741C41.1302 32.7642 41.271 32.8429 41.371 33.0439C41.5645 33.4325 41.7858 33.8072 42.155 34.1791C42.155 33.8554 42.1539 33.5313 42.1557 33.2076C42.1566 33.0147 42.1517 32.8113 42.4152 32.7829C42.7024 32.7521 42.7016 32.9608 42.7021 33.1527C42.7045 33.9172 42.7061 34.681 42.7 35.4449C42.6991 35.5934 42.7211 35.7734 42.5047 35.8153C42.2949 35.8563 42.133 35.7906 42.0269 35.5982C41.7895 35.167 41.55 34.7365 41.1839 34.0752ZM94.5642 34.2159C94.5642 33.9075 94.5495 33.5982 94.5696 33.2911C94.5821 33.099 94.4539 32.7991 94.8084 32.7838C95.137 32.7696 95.1105 33.0363 95.1113 33.2561C95.1137 33.9536 95.1156 34.6511 95.1105 35.3486C95.1089 35.5292 95.1496 35.755 94.897 35.8089C94.6613 35.8592 94.4756 35.7893 94.356 35.5434C94.1687 35.1594 93.9499 34.7904 93.5969 34.448C93.5969 34.7789 93.5993 35.1105 93.5961 35.4415C93.5939 35.6486 93.5388 35.8204 93.284 35.8191C93.0658 35.8183 93.0402 35.6543 93.039 35.4967C93.0335 34.7039 93.0351 33.9114 93.0354 33.119C93.0354 32.9567 93.0477 32.7983 93.259 32.7723C93.4659 32.7473 93.632 32.8109 93.7341 33.0035C93.9544 33.418 94.1745 33.8328 94.3948 34.2472C94.4512 34.2366 94.5079 34.2261 94.5642 34.2159ZM69.1222 34.336C69.1222 34.1768 69.0896 34.0092 69.1284 33.8603C69.2225 33.4988 68.8304 32.9219 69.4012 32.8019C69.9312 32.6907 70.5871 32.5918 71.0238 33.0572C71.3823 33.4382 71.3738 33.9422 70.9983 34.3492C70.6061 34.7739 71.1704 34.9424 71.2014 35.2481C71.2204 35.4376 71.5698 35.6358 71.243 35.8042C71.0528 35.9019 70.7954 35.8461 70.6474 35.6315C70.5573 35.5013 70.4984 35.3497 70.4099 35.2189C70.2703 35.0118 70.1573 34.6862 69.8896 34.7155C69.514 34.7564 69.7205 35.1193 69.6819 35.34C69.6442 35.5552 69.6961 35.8335 69.3666 35.8105C69.0269 35.7867 69.1388 35.4877 69.1273 35.2909C69.1089 34.9735 69.1222 34.6546 69.1222 34.336ZM70.5723 33.7284C70.5293 33.4511 70.3418 33.3782 70.1036 33.3709C69.8761 33.3646 69.6591 33.3582 69.6738 33.691C69.6856 33.9527 69.851 33.9846 70.0512 33.9752C70.2595 33.9656 70.5033 34.0205 70.5723 33.7284ZM81.1974 38.8671C81.1974 38.7092 81.1596 38.5395 81.2049 38.3957C81.314 38.046 80.8483 37.4239 81.6438 37.3925C82.2978 37.3672 82.9851 37.2487 83.2844 38.1127C83.7149 39.3552 83.1476 40.3908 82.0091 40.4683C81.3273 40.5151 81.0979 40.2758 81.1917 39.6247C81.2272 39.3766 81.1974 39.1197 81.1974 38.8671ZM81.7974 38.9187C81.9189 39.2363 81.5753 39.8049 82.1983 39.8061C82.7524 39.8073 82.7472 39.3142 82.746 38.8885C82.7448 38.4566 82.7216 37.9706 82.1607 38.015C81.5786 38.0605 81.9216 38.6118 81.7974 38.9187ZM60.5757 37.3965C61.1218 37.3395 61.603 37.4251 61.8031 37.946C62.0849 38.6797 62.1247 39.4529 61.6247 40.1073C61.2551 40.5911 60.6501 40.4542 60.1208 40.45C59.735 40.447 59.7872 40.151 59.785 39.9059C59.7805 39.3377 59.82 38.7665 59.7738 38.2019C59.7205 37.5478 59.9198 37.2313 60.5757 37.3965ZM60.318 38.8642C60.453 39.1927 60.0536 39.7996 60.7593 39.8074C61.3425 39.814 61.3102 39.3069 61.3232 38.897C61.337 38.4684 61.3156 38.01 60.7408 38.006C60.0756 38.0018 60.4442 38.5612 60.318 38.8642ZM41.664 37.3909C42.1685 37.3095 42.643 37.434 42.848 38.0077C43.1018 38.719 43.1579 39.4675 42.6728 40.0878C42.281 40.5891 41.4512 40.6837 41.1208 40.3994C40.4263 39.8032 40.9288 38.8389 40.8248 38.0378C40.7934 37.7969 40.6777 37.4255 41.1401 37.3927C41.2971 37.3815 41.456 37.3909 41.664 37.3909ZM42.3307 38.8886C42.3365 38.5055 42.3895 38.0175 41.8548 38.0236C41.1488 38.0314 41.5014 38.6391 41.471 38.9775C41.4451 39.266 41.2444 39.78 41.8053 39.7969C42.4295 39.8153 42.3234 39.2916 42.3307 38.8886ZM94.1236 38.9563C94.1314 37.6758 94.9022 37.0287 95.8502 37.4004C96.2082 37.5408 96.5426 37.8305 96.3939 38.1687C96.2098 38.5879 95.9237 38.3242 95.6684 38.0819C95.4272 37.8531 95.1285 37.9204 94.9227 38.1925C94.6204 38.5919 94.6957 39.0468 94.8367 39.4637C94.9365 39.7585 95.2415 39.8793 95.5488 39.7919C95.7492 39.7352 96.059 39.5867 95.6102 39.4124C95.3205 39.3 95.2808 39.0932 95.3889 38.8891C95.5373 38.6109 95.8433 38.7776 96.0786 38.7447C96.3361 38.7092 96.5112 38.7921 96.5131 39.0953C96.516 39.6304 96.6414 40.225 95.9008 40.4002C95.2256 40.5594 94.629 40.4677 94.27 39.7844C94.1175 39.4941 94.1025 39.1739 94.1236 38.9563ZM63.6098 34.0973C64.0041 34.5183 64.0583 34.9915 63.7789 35.4847C63.5631 35.8648 63.1848 35.9179 62.7866 35.8931C62.3646 35.8673 62.0749 35.668 61.936 35.261C61.8738 35.0799 61.7825 34.8625 61.9878 34.7546C62.1466 34.6705 62.345 34.7125 62.455 34.9333C62.5496 35.1239 62.6723 35.3657 62.9472 35.224C63.0669 35.1624 63.2101 34.9831 63.2014 34.8682C63.1808 34.6027 62.8969 34.7535 62.7598 34.6688C62.3598 34.4221 61.9212 34.1771 61.9338 33.6161C61.9414 33.2954 62.0263 32.9494 62.373 32.8439C62.9065 32.6811 63.4398 32.6636 63.8281 33.1853C63.8579 33.6128 63.8515 34.0394 63.2701 33.6191C63.0871 33.4872 62.9668 33.3262 62.72 33.4052C62.5892 33.4467 62.6127 33.5543 62.6441 33.6288C62.7405 33.8588 62.953 33.9012 63.1746 33.9411C63.3241 33.9682 63.4651 34.0432 63.6098 34.0973ZM94.0252 40.3579C92.8636 40.7636 93.1134 39.3127 92.3541 39.2434C92.1356 39.5319 92.2806 39.8574 92.2407 40.1567C92.2158 40.3467 92.1253 40.4407 91.9417 40.445C91.7214 40.4501 91.6976 40.2927 91.697 40.1272C91.6955 39.3317 91.574 38.5113 91.7305 37.748C91.8806 37.0152 92.6188 37.4279 93.073 37.4207C93.6846 37.4107 93.9686 38.0036 93.7344 38.4256C93.3223 39.1686 93.6235 39.7046 94.0252 40.3579ZM92.687 37.9776C92.448 37.9667 92.2331 37.9851 92.2265 38.3052C92.2205 38.5844 92.3459 38.7269 92.6295 38.6895C92.851 38.6606 93.1066 38.6181 93.1275 38.3444C93.1482 38.0671 92.9457 37.9664 92.687 37.9776ZM62.2204 38.9066C62.2207 37.8856 62.6367 37.3256 63.4186 37.2933C64.1879 37.2619 64.7355 37.9495 64.7256 38.9349C64.7154 39.9155 64.259 40.4529 63.4349 40.4544C62.6072 40.456 62.2201 39.9625 62.2204 38.9066ZM62.7992 38.9328C62.9058 39.3014 62.8811 39.8344 63.4563 39.806C64.0389 39.7777 64.1267 39.2595 64.1074 38.8134C64.0899 38.4068 63.9591 37.9173 63.4177 37.9706C62.9162 38.02 62.8332 38.4803 62.7992 38.9328ZM44.2637 37.3885C44.5494 37.3885 44.7399 37.3841 44.9301 37.39C45.1239 37.3961 45.3202 37.4096 45.3202 37.6803C45.3199 37.9344 45.1477 37.9881 44.9431 37.9962C44.7846 38.0023 44.6257 38.001 44.4671 38.0014C44.2356 38.0017 43.9884 38.0082 44.021 38.3311C44.0491 38.6115 44.3034 38.4915 44.4668 38.5379C44.7239 38.6108 45.1936 38.3142 45.1863 38.8562C45.1794 39.3831 44.7182 39.1193 44.4535 39.1676C44.2254 39.2095 43.9872 39.1999 44.0089 39.5193C44.0307 39.8377 44.2817 39.8111 44.503 39.8157C44.6616 39.8189 44.8207 39.8141 44.9786 39.8244C45.1954 39.8385 45.3325 39.9354 45.3199 40.1792C45.3093 40.3826 45.1761 40.4469 45.007 40.4493C44.563 40.4565 44.119 40.455 43.6746 40.451C43.2919 40.4475 43.3274 40.1641 43.3262 39.9118C43.3238 39.4042 43.3817 38.8888 43.3126 38.3905C43.1926 37.5245 43.5282 37.2191 44.2637 37.3885ZM52.4014 34.2933C52.4083 33.1945 52.7812 32.7357 53.6448 32.7626C54.4776 32.7885 54.9127 33.3359 54.8964 34.3369C54.8803 35.3052 54.3817 35.905 53.6023 35.8923C52.792 35.8797 52.3947 35.3507 52.4014 34.2933ZM54.2413 34.2391C54.1934 33.8817 54.1888 33.4002 53.6306 33.3885C53.0642 33.3767 53.0256 33.8265 53.0205 34.2627C53.0151 34.7407 53.1034 35.2408 53.6668 35.2278C54.169 35.2164 54.238 34.725 54.2413 34.2391ZM83.7077 38.9139V38.7238C83.7077 37.3595 84.0245 37.1074 85.3598 37.3842C85.5703 37.4276 85.7228 37.4704 85.6995 37.7263C85.6812 37.931 85.5389 37.9804 85.3747 37.9931C85.2167 38.0051 85.0575 37.9972 84.8989 38.0015C84.681 38.0072 84.4037 37.9666 84.3989 38.2833C84.3935 38.6408 84.7081 38.4868 84.8959 38.5368C85.1338 38.6008 85.5371 38.3482 85.5714 38.8082C85.6124 39.3642 85.1494 39.1252 84.8854 39.1695C84.6701 39.2054 84.407 39.1523 84.3935 39.4709C84.3769 39.8658 84.6904 39.7817 84.931 39.8213C85.2064 39.8661 85.6839 39.6391 85.6794 40.1299C85.6743 40.702 85.1518 40.4319 84.8679 40.4425C83.7084 40.4853 83.7077 40.4666 83.7077 38.9139ZM45.4619 34.3007V34.0149C45.4619 32.8206 46.0596 32.3995 47.2105 32.766C47.3916 32.8239 47.4763 32.899 47.4709 33.087C47.4652 33.2858 47.3522 33.3617 47.174 33.3695C47.0471 33.3755 46.9142 33.3511 46.7939 33.3801C46.5769 33.4331 46.2043 33.21 46.1693 33.5841C46.1248 34.0607 46.5509 33.8635 46.7939 33.9052C47.0242 33.9447 47.3498 33.8235 47.344 34.2313C47.3383 34.6446 47.0052 34.4987 46.781 34.5387C46.5353 34.5824 46.1666 34.3886 46.1419 34.8682C46.113 35.424 46.5353 35.2115 46.8065 35.2697C47.0441 35.3203 47.4592 35.103 47.4477 35.5654C47.4387 35.9365 47.0754 35.8168 46.8445 35.8298C45.4619 35.9073 45.4619 35.9039 45.4619 34.3007ZM58.6342 34.2447V33.8633C58.6351 32.8807 59.5297 32.3481 60.4367 32.7851C60.5655 32.847 60.632 32.9284 60.6336 33.0682C60.6357 33.2617 60.5281 33.3569 60.3478 33.3663C60.1259 33.3778 59.9032 33.369 59.6813 33.3786C59.5321 33.385 59.3437 33.3545 59.3284 33.5825C59.3115 33.8311 59.4715 33.904 59.6877 33.9056C59.8462 33.9067 60.0051 33.9116 60.1639 33.9098C60.3879 33.9074 60.52 33.9882 60.5148 34.2387C60.5093 34.5042 60.3394 34.5368 60.135 34.5368C60.0398 34.5368 59.9445 34.5358 59.8493 34.5389C59.6023 34.547 59.3205 34.4892 59.3103 34.8831C59.2982 35.3512 59.6409 35.2265 59.9047 35.2726C60.1513 35.3157 60.5889 35.092 60.5974 35.5116C60.6068 36.0041 60.1302 35.8272 59.8562 35.8242C58.3611 35.8082 58.6694 36.0481 58.6342 34.2447ZM48.3366 38.6782C48.731 39.0994 48.7852 39.5726 48.5057 40.0657C48.2899 40.4458 47.9116 40.4989 47.5135 40.4742C47.0915 40.4482 46.8018 40.249 46.6628 39.8421C46.6007 39.6609 46.5093 39.4435 46.7147 39.3357C46.8735 39.2516 47.0719 39.2934 47.1818 39.5144C47.2766 39.7049 47.3992 39.9467 47.6741 39.805C47.7938 39.7435 47.9369 39.5641 47.9282 39.4493C47.9077 39.1838 47.6238 39.3344 47.4866 39.2497C47.0866 39.0032 46.648 38.7581 46.6607 38.1972C46.6682 37.8765 46.7533 37.5304 47.0998 37.4249C47.6335 37.2621 48.1667 37.2447 48.5549 37.7664C48.5847 38.1938 48.5784 38.6204 47.9969 38.2002C47.8139 38.0681 47.6937 37.9071 47.4468 37.9861C47.316 38.0277 47.3395 38.1354 47.3709 38.2098C47.4674 38.4398 47.6799 38.4823 47.9014 38.5221C48.0509 38.5493 48.1919 38.6243 48.3366 38.6782ZM37.9097 33.5611C38.2636 32.891 38.7957 32.5879 39.5459 32.8194C40.254 33.0379 40.3667 33.6697 40.3739 34.265C40.3818 34.8959 40.2763 35.572 39.5562 35.8237C38.8158 36.0824 38.2796 35.7523 37.9191 35.0924C37.5426 34.5846 37.5441 34.0739 37.9097 33.5611ZM39.7846 34.2824C39.6965 33.8999 39.6897 33.4088 39.1474 33.3871C38.527 33.3624 38.502 33.8471 38.4851 34.3143C38.4688 34.7698 38.5882 35.2078 39.069 35.2403C39.6625 35.2804 39.6803 34.7239 39.7846 34.2824ZM69.967 38.6717C70.3614 39.0928 70.4156 39.566 70.1361 40.0591C69.9204 40.4393 69.5421 40.4923 69.1439 40.4676C68.7219 40.4417 68.4322 40.2424 68.2932 39.8355C68.2311 39.6544 68.1397 39.437 68.3451 39.3291C68.5039 39.245 68.7023 39.2869 68.8122 39.5079C68.907 39.6984 69.0296 39.9401 69.3045 39.7984C69.4242 39.737 69.5673 39.5575 69.5586 39.4428C69.5381 39.1772 69.2542 39.3279 69.1171 39.2432C68.717 38.9966 68.2785 38.7515 68.2911 38.1906C68.2986 37.8699 68.3837 37.5238 68.7303 37.4183C69.2639 37.2556 69.7971 37.2381 70.1853 37.7599C70.2151 38.1873 70.2088 38.6138 69.6273 38.1936C69.4443 38.0616 69.3242 37.9006 69.0772 37.9796C68.9464 38.0212 68.97 38.1288 69.0013 38.2033C69.0978 38.4332 69.3103 38.4758 69.5318 38.5155C69.6813 38.5427 69.8224 38.6178 69.967 38.6717ZM53.9923 38.8807C53.9923 38.7215 53.948 38.5455 54.001 38.4065C54.1312 38.0644 53.6026 37.4401 54.423 37.3907C55.1414 37.3473 55.8495 37.3072 56.0924 38.2296C56.4207 39.4751 55.9438 40.3528 54.9135 40.4623C54.1807 40.5401 53.8555 40.3125 53.9866 39.5484C54.0237 39.3316 53.9923 39.1034 53.9923 38.8807ZM54.569 38.8589C54.7212 39.1793 54.2905 39.8026 54.9991 39.7997C55.4601 39.7975 55.542 39.3734 55.5378 38.9535C55.5338 38.5183 55.523 38.0474 54.9901 38.0136C54.3176 37.9712 54.708 38.5623 54.569 38.8589ZM44.818 34.0973C45.2124 34.5183 45.2666 34.9915 44.9872 35.4847C44.7714 35.8648 44.393 35.9179 43.9949 35.8931C43.5729 35.8673 43.2832 35.668 43.1442 35.261C43.0822 35.0799 42.9908 34.8625 43.1961 34.7546C43.355 34.6705 43.5533 34.7125 43.6633 34.9333C43.758 35.1239 43.8807 35.3657 44.1556 35.224C44.2752 35.1624 44.4184 34.9831 44.4096 34.8682C44.3892 34.6027 44.1052 34.7535 43.9681 34.6688C43.568 34.4221 43.1294 34.1771 43.1421 33.6161C43.1497 33.2954 43.2347 32.9494 43.5814 32.8439C44.1149 32.6811 44.6481 32.6636 45.0363 33.1853C45.0661 33.6128 45.0599 34.0394 44.4784 33.6191C44.2954 33.4872 44.1751 33.3262 43.9282 33.4052C43.7974 33.4467 43.821 33.5543 43.8523 33.6288C43.9488 33.8588 44.1613 33.9012 44.3828 33.9411C44.5323 33.9682 44.6734 34.0432 44.818 34.0973ZM73.4965 33.3486C73.4335 33.3562 73.3673 33.354 73.3076 33.3728C72.9796 33.4762 72.3921 33.1343 72.3497 33.6145C72.3047 34.123 72.8835 33.8488 73.1849 33.903C73.4167 33.9446 73.5246 34.0206 73.512 34.2599C73.5011 34.4609 73.3872 34.5294 73.2078 34.5324C73.0806 34.5345 72.9531 34.5342 72.8259 34.5366C72.5732 34.542 72.299 34.5016 72.2911 34.892C72.2836 35.276 72.545 35.2365 72.803 35.2772C73.0752 35.3206 73.5611 35.0517 73.5713 35.5325C73.5816 36.0136 73.089 35.8219 72.8154 35.8213C71.3447 35.8183 71.6467 35.9771 71.6108 34.6168C71.6099 34.5851 71.6108 34.5529 71.6108 34.5212C71.6108 32.6756 71.6108 32.6756 73.5098 32.8022C73.6656 32.9882 73.6744 33.1705 73.4965 33.3486ZM90.5294 34.0749C90.5294 33.8523 90.5074 33.6269 90.5354 33.4078C90.5664 33.1651 90.369 32.75 90.857 32.7811C91.3164 32.81 91.1127 33.2113 91.1313 33.4533C91.1636 33.8648 91.1433 34.2801 91.1403 34.6934C91.1385 34.9749 91.2178 35.2185 91.5334 35.2405C91.8882 35.2658 91.9277 34.9857 91.9319 34.7214C91.9409 34.2123 91.9388 33.7035 91.9371 33.1944C91.9361 32.9388 92.0076 32.751 92.3105 32.7738C92.5613 32.7926 92.6017 32.9731 92.602 33.1778C92.6023 33.6869 92.6002 34.1957 92.6044 34.7045C92.6095 35.3985 92.3916 35.8916 91.5862 35.897C90.8016 35.9021 90.52 35.4593 90.5291 34.7428C90.5321 34.5203 90.5297 34.2973 90.5294 34.0749ZM100.2 38.8824V38.5963C100.2 37.3346 100.417 37.1639 101.697 37.3825C101.902 37.4178 102.069 37.4307 102.06 37.6978C102.051 37.9591 101.886 37.999 101.679 37.9983C101.584 37.998 101.486 37.9862 101.394 38.0034C101.148 38.0487 100.72 37.8567 100.764 38.3257C100.798 38.6834 101.174 38.4806 101.395 38.5336C101.614 38.5861 101.96 38.4068 101.989 38.8071C102.023 39.2791 101.638 39.1362 101.381 39.1761C101.13 39.2149 100.72 39.0512 100.755 39.5175C100.788 39.947 101.184 39.7666 101.438 39.8178C101.712 39.8727 102.179 39.6445 102.17 40.1524C102.161 40.6669 101.691 40.436 101.427 40.4459C100.2 40.4903 100.2 40.4773 100.2 38.8824ZM83.9929 35.3683C84.0559 35.6697 84.0173 35.7882 83.8663 35.8132C83.6752 35.8449 83.5115 35.8316 83.397 35.6107C83.0063 34.8573 82.5913 34.8576 82.1918 35.6107C82.0833 35.8147 81.9009 35.8795 81.7147 35.8056C81.4765 35.7113 81.5625 35.4994 81.6222 35.3219C81.863 34.6027 82.1087 33.8852 82.3492 33.1663C82.493 32.7371 82.8523 32.5195 83.072 32.9484C83.4871 33.7598 83.7328 34.6584 83.9929 35.3683ZM82.7751 33.8356C82.6669 34.1243 82.4218 34.2877 82.6561 34.5038C82.7028 34.5466 82.8722 34.54 82.9093 34.4948C83.0841 34.2798 82.9126 34.1011 82.7751 33.8356ZM51.4852 38.5586C51.6476 38.2352 51.1819 37.4584 51.7719 37.4617C52.3319 37.4651 51.9431 38.2388 52.0477 38.6578C52.0929 38.8381 52.0642 39.0364 52.0733 39.2266C52.0875 39.5272 52.1278 39.8162 52.5308 39.8005C52.9056 39.7861 52.8757 39.4849 52.885 39.2429C52.9016 38.7992 52.8884 38.3545 52.8929 37.9108C52.8956 37.6594 52.8561 37.3668 53.2542 37.3942C53.6516 37.4217 53.5524 37.7336 53.5588 37.9657C53.5708 38.4097 53.5729 38.8541 53.5596 39.2981C53.5395 39.9763 53.3158 40.464 52.5101 40.4628C51.7041 40.4618 51.471 40.0004 51.4846 39.2984C51.4888 39.0765 51.4852 38.8541 51.4852 38.5586ZM56.4925 38.8895V38.6987C56.4925 37.3127 56.6797 37.1605 58.0693 37.386C58.2664 37.4179 58.4497 37.4146 58.4434 37.6886C58.4373 37.9466 58.2758 37.9945 58.0665 37.9955C57.8757 37.9961 57.6852 37.9975 57.4944 38.0015C57.2723 38.006 57.1213 38.1052 57.1433 38.3428C57.1644 38.5679 57.3672 38.517 57.5113 38.5329C57.6373 38.5468 57.7661 38.5308 57.8929 38.5389C58.1003 38.5525 58.3635 38.4765 58.378 38.825C58.3918 39.1499 58.1715 39.1675 57.9363 39.1705C57.7772 39.1719 57.618 39.171 57.4595 39.1789C57.2822 39.1873 57.1512 39.2747 57.1361 39.4577C57.1168 39.691 57.2573 39.8031 57.4785 39.8134C57.701 39.824 57.9267 39.801 58.1455 39.8312C58.5097 39.8813 58.5603 40.2498 58.3559 40.3515C57.8685 40.5938 57.2943 40.4813 56.7672 40.4271C56.2785 40.3768 56.5467 39.924 56.5012 39.6512C56.4599 39.4038 56.4925 39.1439 56.4925 38.8895ZM52.0492 34.3239C52.0498 34.4508 52.073 34.5825 52.0455 34.7034C51.9621 35.0723 52.3003 35.7108 51.7975 35.7653C51.2146 35.8287 51.569 35.1953 51.5021 34.8824C51.4385 34.5864 51.298 34.5309 51.0506 34.5352C50.8197 34.5394 50.5924 34.5352 50.5866 34.8571C50.5833 35.047 50.5846 35.2372 50.5785 35.4274C50.5725 35.6243 50.5475 35.8063 50.2852 35.822C50.0127 35.8383 49.9762 35.6583 49.9751 35.4579C49.9708 34.697 49.9705 33.9363 49.9741 33.1754C49.9751 32.991 49.9572 32.7869 50.2367 32.7697C50.5635 32.7492 50.5764 32.9602 50.5833 33.1995C50.593 33.5278 50.4742 33.9278 51.0539 33.9157C51.6516 33.9031 51.4512 33.4733 51.4873 33.1664C51.5093 32.978 51.4879 32.7682 51.7668 32.7788C52.0293 32.7884 52.0471 32.9852 52.0479 33.1826C52.0498 33.5631 52.0486 33.9435 52.0492 34.3239ZM104.314 35.4604C104.349 35.6302 104.328 35.7685 104.19 35.8065C103.998 35.8598 103.822 35.8207 103.71 35.6144C103.312 34.8781 102.907 34.8696 102.503 35.6139C102.397 35.8092 102.211 35.8803 102.02 35.8098C101.745 35.7085 101.906 35.5005 101.957 35.3368C102.193 34.5836 102.413 33.824 102.684 33.0834C102.853 32.6215 103.278 32.6047 103.45 32.9878C103.813 33.7914 104.042 34.6556 104.314 35.4604ZM103.091 33.8717C103.001 34.0839 102.954 34.1632 102.934 34.2485C102.866 34.5382 103.111 34.6021 103.239 34.4981C103.458 34.32 103.208 34.1397 103.091 33.8717ZM51.3084 40.3828C50.8536 40.5272 50.6926 40.3825 50.5003 40.0362C50.1959 39.4858 49.738 39.4743 49.4432 40.0688C49.3079 40.341 49.1866 40.5399 48.8972 40.4257C48.5009 40.2692 48.8273 39.9955 48.8816 39.8074C49.0845 39.1054 49.3438 38.4199 49.5589 37.7212C49.6231 37.5129 49.6937 37.389 49.9336 37.3857C50.1916 37.3821 50.3183 37.4626 50.4027 37.7314C50.6779 38.608 50.9938 39.4722 51.3084 40.3828ZM50.1763 38.8539C50.1443 38.8065 50.0937 38.6501 50.0187 38.6374C49.8248 38.6049 49.7802 38.7706 49.7784 38.9281C49.7768 39.0573 49.8275 39.1601 49.9831 39.1544C50.135 39.1489 50.1775 39.0504 50.1763 38.8539ZM74.8531 40.3793C74.3847 40.5351 74.2349 40.3582 74.0426 40.029C73.7304 39.4952 73.2791 39.4581 72.9984 40.074C72.8692 40.3579 72.7452 40.5376 72.4577 40.4258C72.0727 40.2756 72.3558 39.9775 72.41 39.7819C72.587 39.1422 72.8086 38.5144 73.0349 37.8895C73.1124 37.676 73.1031 37.3909 73.482 37.3788C73.897 37.3656 73.9217 37.6489 74.0115 37.9142C74.2859 38.7233 74.5635 39.5314 74.8531 40.3793ZM73.5231 38.6284C73.3489 38.6393 73.3404 38.784 73.3293 38.8997C73.3169 39.0308 73.3628 39.1529 73.5282 39.1562C73.6988 39.1598 73.7392 39.039 73.7211 38.9057C73.7052 38.7872 73.6876 38.6501 73.5231 38.6284ZM64.2929 34.2739V33.9883C64.2932 32.7685 64.6763 32.4704 65.8544 32.764C66.0128 32.8035 66.1588 32.8282 66.1768 33.0334C66.1998 33.2909 66.0497 33.3635 65.8344 33.3699C65.6442 33.3753 65.4537 33.3683 65.2639 33.3758C65.0815 33.3828 64.8515 33.3511 64.8695 33.6378C64.8853 33.891 65.0887 33.9058 65.2864 33.9094C65.4763 33.913 65.6687 33.9039 65.8558 33.9302C66.0596 33.9588 66.0683 34.1273 66.0541 34.2902C66.0297 34.5699 65.8079 34.5027 65.6316 34.5391C65.3425 34.5991 64.8312 34.3191 64.8701 34.9304C64.907 35.5088 65.4016 35.182 65.688 35.2674C65.8954 35.3291 66.2612 35.1272 66.2374 35.5651C66.2199 35.8901 65.9351 35.8124 65.7266 35.8298C64.2929 35.9525 64.2929 35.9525 64.2929 34.2739ZM78.0607 35.3683C78.1237 35.6697 78.0851 35.7882 77.9341 35.8132C77.743 35.8449 77.5793 35.8316 77.4648 35.6107C77.0742 34.8573 76.6591 34.8576 76.2597 35.6107C76.1512 35.8147 75.9688 35.8795 75.7825 35.8056C75.5443 35.7113 75.6303 35.4994 75.69 35.3219C75.9308 34.6027 76.1764 33.8852 76.417 33.1663C76.5608 32.7371 76.9201 32.5195 77.1399 32.9484C77.5549 33.7598 77.8006 34.6584 78.0607 35.3683ZM76.843 33.8356C76.7347 34.1243 76.4896 34.2877 76.7238 34.5038C76.7706 34.5466 76.94 34.54 76.977 34.4948C77.1519 34.2798 76.9804 34.1011 76.843 33.8356ZM89.3845 38.8875C89.3845 38.7283 89.3842 38.5691 89.3845 38.41C89.3855 37.4939 90.1915 37.0138 91.0557 37.4074C91.1883 37.4677 91.2528 37.5464 91.2495 37.6884C91.2459 37.8285 91.1901 37.9479 91.0481 37.9633C90.7962 37.9904 90.5412 37.991 90.2874 37.9997C90.0631 38.0073 89.9211 38.1026 89.9479 38.344C89.9736 38.5718 90.168 38.5227 90.3142 38.5345C90.4407 38.5447 90.5689 38.5399 90.6961 38.5378C90.9309 38.5338 91.1504 38.533 91.132 38.8727C91.1172 39.138 90.943 39.1364 90.7467 39.176C90.4543 39.2344 89.9199 38.9501 89.9573 39.5388C89.9871 40.0085 90.461 39.7564 90.7383 39.8186C90.9586 39.868 91.2968 39.7014 91.3155 40.1125C91.3378 40.6111 90.9433 40.4359 90.7019 40.4477C89.3849 40.5119 89.3845 40.5052 89.3845 38.8875ZM66.0178 38.8956V38.6097C66.0178 37.3282 66.2115 37.1706 67.4875 37.387C67.6862 37.4208 67.8706 37.4265 67.8625 37.6951C67.8547 37.9561 67.676 37.9914 67.4722 37.9944C67.3452 37.9966 67.2181 37.9959 67.0911 37.9974C66.8666 37.9998 66.6137 37.9769 66.639 38.3166C66.6604 38.607 66.9052 38.4981 67.0703 38.5412C67.3248 38.6078 67.7956 38.3214 67.7564 38.8915C67.7245 39.3586 67.3211 39.1233 67.08 39.1627C66.854 39.2002 66.626 39.1766 66.6309 39.504C66.636 39.8377 66.8733 39.8148 67.0965 39.8202C67.3184 39.8262 67.552 39.7924 67.76 39.85C68.0525 39.9314 68.044 40.279 67.8818 40.3522C67.3821 40.5774 66.8199 40.4767 66.2942 40.4276C65.8056 40.3818 66.069 39.929 66.0262 39.6568C65.9867 39.409 66.0178 39.1498 66.0178 38.8956ZM97.8467 38.9252C97.8464 38.7036 97.8202 38.4778 97.8531 38.2611C97.8959 37.9748 97.6517 37.5229 98.0562 37.437C98.5298 37.3366 99.0748 37.2311 99.526 37.5383C99.8733 37.7752 99.936 38.1812 99.8564 38.5656C99.7758 38.9523 99.5733 39.3127 99.1061 39.2832C98.5939 39.2507 98.3297 39.3824 98.4034 39.9518C98.4278 40.1399 98.5039 40.435 98.147 40.4425C97.8069 40.4501 97.8519 40.1851 97.8485 39.9699C97.8434 39.6218 97.8474 39.2733 97.8467 38.9252ZM99.1902 38.3582C99.1625 38.1053 98.9907 38.0055 98.7498 37.9932C98.4484 37.9778 98.4005 38.1725 98.3989 38.4158C98.3978 38.6487 98.499 38.763 98.7327 38.7362C98.9578 38.7105 99.163 38.6518 99.1902 38.3582ZM100.761 32.7611C101.439 32.7876 101.98 32.8871 102.01 33.6805C102.037 34.4036 101.714 34.7653 100.992 34.7267C100.483 34.6992 100.545 35.0357 100.533 35.3561C100.527 35.5292 100.588 35.7854 100.315 35.802C99.9826 35.8215 100.014 35.5384 100.01 35.3256C100.001 34.7207 100.05 34.1112 99.9932 33.5111C99.9293 32.8292 100.237 32.6613 100.761 32.7611ZM101.321 33.7231C101.258 33.4737 101.094 33.3692 100.845 33.3701C100.524 33.371 100.515 33.5871 100.53 33.818C100.545 34.0559 100.698 34.1261 100.91 34.1234C101.176 34.12 101.306 33.9817 101.321 33.7231ZM66.5145 34.303C66.5402 33.0949 67.3034 32.4392 68.1878 32.8266C68.526 32.9746 68.8383 33.2769 68.6553 33.6257C68.4665 33.9847 68.2004 33.6926 67.974 33.5054C67.71 33.2872 67.3995 33.314 67.2814 33.6561C67.1171 34.1333 67.014 34.6566 67.3805 35.091C67.6337 35.3914 67.9014 35.2564 68.059 34.955C68.1851 34.7141 68.3488 34.6017 68.5793 34.7531C68.8938 34.9601 68.6824 35.2064 68.5579 35.409C68.1624 36.0528 67.2584 36.0609 66.8051 35.4243C66.5576 35.0762 66.4843 34.6725 66.5145 34.303ZM37.5561 35.2832C36.854 36.0021 36.2084 36.0796 35.7029 35.5053C35.1868 34.9191 35.2374 33.5593 35.7951 33.0246C36.288 32.552 36.9999 32.6924 37.5618 33.3733C37.4268 34.1436 37.1217 33.7291 36.8137 33.4933C36.5375 33.2811 36.2318 33.3164 36.1119 33.6479C35.94 34.1236 35.8464 34.6472 36.2017 35.086C36.4344 35.3737 36.6723 35.2682 36.905 34.9981C37.3858 34.4398 37.5506 34.7033 37.5561 35.2832ZM71.4267 37.3997C71.7785 37.3997 72.0336 37.3937 72.2879 37.4021C72.4203 37.406 72.5472 37.4594 72.5288 37.6194C72.5155 37.7346 72.4583 37.9408 72.4136 37.9425C71.4807 37.9821 71.8892 38.6898 71.811 39.1438C71.7791 39.3295 71.8373 39.5321 71.7981 39.715C71.7426 39.9748 72.0287 40.4463 71.4792 40.4318C71.0177 40.4191 71.2332 39.9999 71.213 39.7593C71.1784 39.3478 71.2121 38.9312 71.1988 38.5171C71.1937 38.3652 71.1865 38.1651 71.0943 38.0737C70.911 37.8919 70.3046 38.1038 70.5056 37.5936C70.6717 37.1724 71.1808 37.4811 71.4267 37.3997ZM73.8952 32.795C74.4028 32.7844 74.91 32.7705 75.4174 32.7654C75.569 32.7639 75.7577 32.7452 75.7981 32.9448C75.8207 33.055 75.7791 33.2817 75.7448 33.2859C74.7099 33.4159 75.2326 34.2189 75.1036 34.7373C75.0137 35.0985 75.3532 35.7649 74.8218 35.7676C74.1866 35.7713 74.6394 35.0605 74.473 34.7159C74.2581 34.2714 75.0403 33.4113 73.9102 33.3544C73.7363 33.1726 73.7457 32.9858 73.8952 32.795ZM47.8333 34.2506C48.022 33.8469 47.4655 32.9354 48.1782 32.9191C48.7478 32.9062 48.3963 33.8168 48.4207 34.3C48.4525 34.9318 48.441 35.4463 49.3057 35.2772C49.4906 35.2413 49.7079 35.29 49.6675 35.5721C49.6413 35.7557 49.502 35.796 49.3296 35.8337C48.0823 36.1062 47.8333 35.8602 47.8333 34.2506ZM105.118 34.3972C104.944 34.8038 105.464 35.7099 104.8 35.7316C104.277 35.7485 104.655 34.8243 104.57 34.3279C104.506 33.9574 104.558 33.5667 104.559 33.1851C104.56 32.982 104.599 32.7854 104.846 32.7737C105.123 32.7607 105.114 32.9844 105.116 33.1728C105.121 33.5544 105.118 33.936 105.118 34.3972ZM99.567 34.2303C99.566 34.6429 99.5724 35.0559 99.5625 35.4686C99.5592 35.6187 99.5606 35.8025 99.3409 35.8188C99.0895 35.8373 99.013 35.6712 99.0114 35.4611C99.0073 34.6991 99.0087 33.9364 99.0094 33.1743C99.0097 32.9691 99.0566 32.778 99.3056 32.775C99.5821 32.7719 99.5625 32.9974 99.5658 33.1819C99.5721 33.5315 99.5676 33.8809 99.567 34.2303ZM97.4228 39.0143C97.2492 39.4218 97.7701 40.3173 97.1081 40.3499C96.6162 40.3738 96.9746 39.4468 96.8893 38.9528C96.826 38.5818 96.8742 38.1917 96.8793 37.8098C96.8817 37.6241 96.8624 37.411 97.1407 37.4007C97.4223 37.3911 97.4199 37.5985 97.4216 37.7905C97.4255 38.1721 97.4228 38.554 97.4228 39.0143ZM81.3809 34.2694C81.3809 34.6824 81.3866 35.0953 81.3779 35.5079C81.3745 35.6692 81.3324 35.8299 81.1195 35.8242C80.9284 35.8194 80.8359 35.6994 80.8347 35.5188C80.8298 34.7246 80.8287 33.9303 80.8301 33.136C80.8308 32.9211 80.9179 32.7647 81.1618 32.7794C81.3794 32.7927 81.3806 32.9705 81.383 33.1258C81.3887 33.5068 81.3848 33.8881 81.3848 34.2694H81.3809ZM107.238 34.1328C107.632 34.554 107.686 35.0272 107.407 35.5204C107.191 35.9004 106.813 35.9535 106.415 35.9288C105.993 35.9028 105.703 35.7037 105.564 35.2967C105.502 35.1156 105.411 34.8982 105.616 34.7903C105.775 34.7062 105.973 34.7481 106.083 34.969C106.178 35.1595 106.3 35.4013 106.575 35.2597C106.695 35.1981 106.838 35.0188 106.829 34.9039C106.809 34.6384 106.525 34.7891 106.388 34.7044C105.988 34.4578 105.549 34.2128 105.562 33.6518C105.569 33.3311 105.654 32.985 106.001 32.8796C106.535 32.7167 107.068 32.6993 107.456 33.221C107.486 33.6485 107.48 34.075 106.898 33.6548C106.715 33.5227 106.595 33.3619 106.348 33.4408C106.217 33.4824 106.241 33.59 106.272 33.6644C106.368 33.8945 106.581 33.9369 106.803 33.9768C106.952 34.0039 107.093 34.0789 107.238 34.1328ZM86.0167 34.0973C86.411 34.5183 86.4652 34.9915 86.1859 35.4847C85.97 35.8648 85.5917 35.9179 85.1935 35.8931C84.7715 35.8673 84.4818 35.668 84.3428 35.261C84.2808 35.0799 84.1895 34.8625 84.3947 34.7546C84.5536 34.6705 84.7519 34.7125 84.862 34.9333C84.9566 35.1239 85.0793 35.3657 85.3542 35.224C85.4738 35.1624 85.6171 34.9831 85.6083 34.8682C85.5878 34.6027 85.3039 34.7535 85.1667 34.6688C84.7667 34.4221 84.3281 34.1771 84.3407 33.6161C84.3484 33.2954 84.4333 32.9494 84.78 32.8439C85.3135 32.6811 85.8467 32.6636 86.235 33.1853C86.2648 33.6128 86.2585 34.0394 85.6771 33.6191C85.4941 33.4872 85.3738 33.3262 85.1269 33.4052C84.9961 33.4467 85.0196 33.5543 85.0509 33.6288C85.1474 33.8588 85.3599 33.9012 85.5815 33.9411C85.731 33.9682 85.872 34.0432 86.0167 34.0973ZM52.7287 36.5284C52.8635 36.5399 53.01 36.6294 52.9434 36.7385C52.8246 36.9338 52.7097 37.1958 52.4096 37.1698C52.2476 37.1556 52.2459 37.0206 52.2805 36.8938C52.3423 36.6655 52.4674 36.5125 52.7287 36.5284ZM88.6451 38.6782C89.0393 39.0994 89.0936 39.5726 88.8142 40.0657C88.5983 40.4458 88.2201 40.4989 87.8218 40.4742C87.3998 40.4482 87.1101 40.249 86.9712 39.8421C86.9091 39.6609 86.8178 39.4435 87.023 39.3357C87.1819 39.2516 87.3802 39.2934 87.4903 39.5144C87.5849 39.7049 87.7076 39.9467 87.9825 39.805C88.1022 39.7435 88.2453 39.5641 88.2366 39.4493C88.2161 39.1838 87.9322 39.3344 87.795 39.2497C87.395 39.0032 86.9565 38.7581 86.9691 38.1972C86.9766 37.8765 87.0616 37.5304 87.4083 37.4249C87.9418 37.2621 88.475 37.2447 88.8633 37.7664C88.8932 38.1938 88.8868 38.6204 88.3054 38.2002C88.1224 38.0681 88.0021 37.9071 87.7552 37.9861C87.6245 38.0277 87.6479 38.1354 87.6792 38.2098C87.7757 38.4398 87.9882 38.4823 88.2098 38.5221C88.3593 38.5493 88.5004 38.6243 88.6451 38.6782Z" fill="#009540"/>
<path fill-rule="evenodd" clip-rule="evenodd" d="M52.4478 22.8302C52.3794 24.0651 52.3757 25.3109 51.891 26.4807C51.0669 28.4696 49.4681 29.4806 47.1498 29.4866C44.848 29.4926 43.284 28.4802 42.4465 26.4455C42.3987 26.3285 42.3317 26.2191 42.2739 26.1061C41.4269 24.8654 41.4325 22.3204 42.2849 21.115C44.0016 17.707 48.0043 16.7014 50.6558 19.0046C51.3744 19.6289 51.7611 20.4498 52.0978 21.307C52.2737 21.7997 52.1366 22.3671 52.4484 22.8271L52.4478 22.8302ZM52.4478 22.8302L52.4695 22.8571C52.3179 22.2174 52.2717 21.5756 52.427 20.9294C52.6365 19.532 53.4184 18.6443 54.7667 18.2093C56.44 17.6694 58.1126 17.6281 59.8184 18.0375C60.3098 18.1556 60.5488 18.363 60.4689 18.8745C60.4641 18.9053 60.4689 18.9382 60.4682 18.9698C60.4577 19.6689 60.7037 20.5587 60.3652 21.0141C60.0146 21.4864 59.2074 20.7787 58.5677 20.7974C58.0273 20.8127 57.4808 20.7723 56.9475 20.8396C56.6636 20.8752 56.2631 20.9369 56.2365 21.3508C56.2109 21.7514 56.5418 21.8605 56.8547 21.9549C57.4603 22.1375 58.077 22.291 58.6684 22.5113C59.8793 22.9629 60.7345 23.759 60.8743 25.1111C61.0341 26.6536 60.6193 27.9871 59.152 28.728C57.1251 29.7514 54.9837 29.6438 52.8273 29.207C52.4879 29.1382 52.4538 28.9559 52.4581 28.6752C52.4695 27.9112 52.4812 27.1458 52.455 26.3823C52.4388 25.91 52.609 25.8834 53.0217 25.9765C54.1557 26.2334 55.2942 26.5001 56.4767 26.2958C56.7781 26.2436 57.1106 26.1707 57.1369 25.8623C57.1631 25.5545 56.839 25.4132 56.5575 25.3297C56.3151 25.2579 56.0719 25.1823 55.8242 25.1373C54.3543 24.8694 53.157 24.2084 52.4478 22.8302ZM48.7103 23.7412C48.6817 23.0154 48.723 22.2772 48.3218 21.6125C48.0602 21.1797 47.7147 20.8149 47.2058 20.8207C46.6777 20.8263 46.2305 21.1097 46.0101 21.6285C45.4208 23.0138 45.3533 24.414 46.0756 25.7617C46.5837 26.7097 47.6173 26.7196 48.2287 25.8473C48.6748 25.2104 48.7037 24.4794 48.7103 23.7412ZM76.3488 24.3396C76.6312 22.5519 76.9218 20.7656 77.1914 18.9757C77.2727 18.4355 77.4494 18.15 78.0911 18.1775C79.4268 18.2341 80.7669 18.2097 82.1049 18.1865C82.6002 18.1781 82.8522 18.2649 82.8476 18.8547C82.8224 22.1045 82.8272 25.3546 82.8447 28.6042C82.8474 29.0998 82.6892 29.2478 82.1924 29.2726C79.4327 29.4094 79.4337 29.423 79.4333 26.7243C79.4333 25.036 79.4328 23.347 79.4316 21.6581C79.4316 21.5951 79.4204 21.5318 79.2824 21.4384C78.9526 23.0348 78.6201 24.6308 78.2948 26.2281C78.136 27.0067 77.9542 27.7832 77.8521 28.5693C77.7788 29.1323 77.5376 29.274 76.9837 29.2759C74.7127 29.2828 74.7242 29.3021 74.2969 27.0649C73.9301 25.1424 73.5325 23.2258 72.9716 21.3304C72.9716 23.6921 72.9486 26.0542 72.9864 28.4156C72.9966 29.0706 72.8308 29.2798 72.148 29.278C69.673 29.2705 69.6727 29.297 69.6727 26.824C69.6727 24.2113 69.6899 21.5981 69.6601 18.9859C69.6532 18.3839 69.7869 18.154 70.4378 18.179C71.774 18.2309 73.1145 18.2209 74.4513 18.1811C74.9517 18.1663 75.1331 18.3758 75.2019 18.8081C75.4753 20.5307 75.7523 22.2522 76.0281 23.9743C76.1079 24.2679 76.2108 24.5534 76.3061 24.7676C76.281 24.6679 76.2373 24.4997 76.3488 24.3396ZM91.7386 25.8848C91.65 26.3596 91.5614 26.8342 91.4727 27.3097C90.5558 28.7568 89.1225 29.2994 87.5255 29.4535C86.2939 29.5722 85.052 29.5282 83.8279 29.2605C83.4327 29.174 83.2292 29.0462 83.262 28.5817C83.3115 27.8839 83.3073 27.1776 83.2651 26.4789C83.2298 25.8977 83.4246 25.8986 83.9267 26.0023C85.0315 26.2302 86.142 26.5343 87.2949 26.2938C87.5822 26.2338 87.9207 26.1862 87.9761 25.883C88.041 25.5255 87.6729 25.4374 87.4121 25.3533C86.9305 25.1981 86.4382 25.0727 85.9467 24.95C84.2544 24.5283 83.2931 23.4166 83.1852 21.7452C83.0773 20.0774 83.9761 18.7556 85.6255 18.2031C87.2922 17.6446 88.9766 17.627 90.6839 18.0433C91.1107 18.1476 91.2967 18.3212 91.2572 18.7457C91.2515 18.8089 91.2572 18.8732 91.2567 18.9371C91.2515 19.6063 91.4896 20.4361 91.1804 20.9049C90.771 21.527 90.0283 20.7252 89.4025 20.7924C88.8048 20.8569 88.1965 20.7074 87.5994 20.8862C87.3453 20.9621 87.0761 21.0134 87.0691 21.3301C87.0625 21.6078 87.2368 21.8022 87.5065 21.8869C88.0497 22.0581 88.598 22.213 89.1382 22.3927C91.036 23.0236 91.6587 23.8652 91.7386 25.8848ZM61.1299 23.7088C61.1299 22.1164 61.1556 20.5233 61.117 18.9314C61.1023 18.3328 61.3003 18.1748 61.879 18.1824C64.14 18.212 66.4017 18.2071 68.663 18.1848C69.1504 18.1796 69.3045 18.3081 69.3184 18.8178C69.3717 20.797 69.3931 20.7964 67.4371 20.7964C66.7682 20.7964 66.0975 20.8268 65.4311 20.7874C64.8291 20.7509 64.5084 20.8377 64.5226 21.5846C64.5355 22.2801 64.7658 22.4524 65.4106 22.4172C66.2995 22.3683 67.1939 22.4196 68.0851 22.3991C68.5183 22.3892 68.6853 22.513 68.7115 22.9872C68.823 25.008 68.8418 25.0068 66.8502 25.0068C66.3724 25.0068 65.8914 25.042 65.4175 24.9981C64.7911 24.9399 64.5359 25.0939 64.5204 25.8086C64.503 26.6047 64.95 26.4971 65.4269 26.4956C66.5099 26.4919 67.5936 26.5206 68.6754 26.4829C69.1876 26.4654 69.3036 26.6397 69.3168 27.1307C69.3735 29.2612 69.3907 29.2606 67.2927 29.2606C65.5731 29.2606 63.8519 29.2232 62.1337 29.2778C61.3657 29.3022 61.0718 29.1249 61.1101 28.2945C61.18 26.7686 61.1299 25.2377 61.1299 23.7088ZM34.4686 21.003C34.7239 20.5246 34.9792 20.046 35.2345 19.5676C37.1188 17.5251 39.4401 17.4232 41.9276 18.0617C42.1452 19.0301 41.9734 20.0125 42.0294 20.9865C42.0487 21.3274 41.8353 21.4226 41.5474 21.4278C41.2912 21.4322 41.0456 21.3584 40.7953 21.3174C39.6198 21.1257 38.7239 21.4977 38.2603 22.3658C37.7823 23.2608 37.9501 24.8275 38.6293 25.5058C39.2758 26.1511 40.0556 26.2419 40.9226 26.0246C42.0216 25.7491 42.0747 25.7738 42.0125 26.8716C41.9661 27.6933 42.2889 28.5491 41.825 29.3382C40.7001 29.5386 39.5637 29.6788 38.4294 29.5037C35.7521 29.0907 34.1775 27.0491 34.0955 24.0016C34.0677 22.9774 34.2727 21.9935 34.4686 21.003Z" fill="#E20613"/>
</svg>
