<svg width="18" height="14" viewBox="0 0 18 14" fill="none" xmlns="http://www.w3.org/2000/svg">
<path d="M15.75 0H2.25C1.00723 0 0 1.04453 0 2.33333V11.6667C0 12.9555 1.00723 14 2.25 14H15.75C16.9928 14 18 12.9555 18 11.6667V2.33333C18 1.04453 16.991 0 15.75 0ZM2.25 1.75H15.75C16.0601 1.75 16.3125 2.0117 16.3125 2.33333V3.14125L10.4484 8.17615C9.63316 8.87906 8.36227 8.8787 7.5491 8.17671L1.6875 3.14271V2.33333C1.6875 2.0125 1.93992 1.75 2.25 1.75ZM15.75 12.25H2.25C1.93985 12.25 1.6875 11.9883 1.6875 11.6667V5.42135L6.47227 9.55573C7.18242 10.1646 8.07891 10.5 9 10.5C9.92109 10.5 10.8193 10.165 11.5302 9.55281L16.3125 5.42135V11.6667C16.3125 11.9875 16.0594 12.25 15.75 12.25Z" fill="white"/>
</svg>
