<svg width="104" height="201" viewBox="0 0 104 201" fill="none" xmlns="http://www.w3.org/2000/svg">
<path fill-rule="evenodd" clip-rule="evenodd" d="M-5.87792e-09 0.0672357C1.23307 0.022412 2.47123 2.16042e-07 3.71447 3.24729e-07C59.094 5.16616e-06 104 44.9929 104 100.5C104 156.008 59.094 201 3.71445 201C2.47121 201 1.23306 200.978 -1.75661e-05 200.933L-1.57048e-05 179.642C1.23102 179.7 2.46918 179.728 3.71445 179.728C47.3783 179.728 82.7735 144.264 82.7735 100.5C82.7735 56.7337 47.3783 21.2719 3.71447 21.2719C2.46919 21.2719 1.23104 21.3015 -1.86722e-06 21.3585L-5.87792e-09 0.0672357Z" fill="url(#paint0_linear_687_1611)"/>
<defs>
<linearGradient id="paint0_linear_687_1611" x1="24.0313" y1="15.8115" x2="140.646" y2="110.337" gradientUnits="userSpaceOnUse">
<stop stop-color="#00B0B9"/>
<stop offset="1" stop-color="#00778B"/>
</linearGradient>
</defs>
</svg>
