<svg width="34" height="34" viewBox="0 0 34 34" fill="none" xmlns="http://www.w3.org/2000/svg">
<path d="M8.33334 20.8334C8.11446 20.8333 7.8977 20.8764 7.69547 20.9601C7.49323 21.0438 7.30948 21.1666 7.1547 21.3214C6.99993 21.4762 6.87716 21.6599 6.79343 21.8621C6.70969 22.0644 6.66662 22.2811 6.66668 22.5V25.4705C4.51842 23.041 3.33285 19.9097 3.33334 16.6667C3.33303 16.1765 3.36238 15.6868 3.42123 15.2002C3.44821 14.9826 3.43199 14.7618 3.37349 14.5505C3.31499 14.3392 3.21536 14.1415 3.08032 13.9688C2.94528 13.796 2.77747 13.6516 2.58652 13.5438C2.39557 13.436 2.18523 13.367 1.96755 13.3407C1.74987 13.3143 1.52914 13.3312 1.31799 13.3903C1.10685 13.4495 0.909443 13.5497 0.737096 13.6852C0.564749 13.8208 0.420846 13.989 0.313633 14.1803C0.20642 14.3715 0.138005 14.5821 0.112309 14.7998C0.0368148 15.4192 -0.000688444 16.0427 9.56564e-06 16.6667C0.00227411 20.6436 1.4316 24.4877 4.02813 27.5H1.66668C1.22465 27.5 0.800725 27.6756 0.488165 27.9882C0.175604 28.3007 9.56564e-06 28.7247 9.56564e-06 29.1667C9.56564e-06 29.6087 0.175604 30.0326 0.488165 30.3452C0.800725 30.6578 1.22465 30.8334 1.66668 30.8334H8.33334C8.59401 30.8301 8.85011 30.7646 9.08034 30.6423C9.31056 30.52 9.50823 30.3445 9.65689 30.1303C9.67633 30.1047 9.70114 30.0857 9.71924 30.0587C9.73034 30.0421 9.73064 30.0225 9.74101 30.0056C9.82044 29.8714 9.87995 29.7264 9.91768 29.5751C9.94235 29.4901 9.95987 29.4032 9.97006 29.3153C9.97484 29.2638 10.0001 29.2194 10.0001 29.1667V22.5001C10.0001 22.2812 9.95706 22.0644 9.87332 21.8622C9.78958 21.6599 9.66681 21.4762 9.51203 21.3214C9.35725 21.1666 9.17349 21.0438 8.97124 20.9601C8.769 20.8764 8.55224 20.8333 8.33334 20.8334ZM10.8333 6.66669H7.86256C10.2922 4.51854 13.4236 3.33298 16.6667 3.33335C17.1566 3.33218 17.6461 3.36154 18.1323 3.42125C18.3497 3.44765 18.5701 3.43097 18.7811 3.37218C18.992 3.31338 19.1893 3.21361 19.3617 3.07857C19.534 2.94353 19.6781 2.77586 19.7857 2.58513C19.8933 2.39441 19.9622 2.18436 19.9886 1.96699C20.015 1.74961 19.9983 1.52917 19.9395 1.31824C19.8807 1.10731 19.781 0.91003 19.6459 0.737658C19.5109 0.565286 19.3432 0.4212 19.1525 0.313627C18.9618 0.206055 18.7517 0.137101 18.5343 0.110705C17.9146 0.0359396 17.2909 -0.00102298 16.6667 2.15296e-05C12.6898 0.00218339 8.8457 1.43141 5.83334 4.02784V1.66669C5.83334 1.22466 5.65775 0.800737 5.34519 0.488177C5.03263 0.175616 4.6087 2.15296e-05 4.16668 2.15296e-05C3.72465 2.15296e-05 3.30073 0.175616 2.98816 0.488177C2.6756 0.800737 2.50001 1.22466 2.50001 1.66669V8.33335C2.51049 8.44351 2.53245 8.55228 2.56553 8.65787L2.56593 8.6599C2.6064 8.86499 2.6863 9.06027 2.80121 9.23491L2.82024 9.26307C2.93037 9.42325 3.0684 9.56231 3.22774 9.67364C3.24596 9.68697 3.25501 9.70741 3.27393 9.72012C3.29774 9.73589 3.32469 9.74089 3.34901 9.75532C3.44353 9.81218 3.54369 9.8591 3.64788 9.89532C3.78868 9.94431 3.93549 9.97394 4.08428 9.98341C4.11316 9.98494 4.13748 10.0001 4.16668 10.0001H10.8333C11.2754 10.0001 11.6993 9.82448 12.0119 9.51192C12.3244 9.19936 12.5 8.77543 12.5 8.3334C12.5 7.89138 12.3244 7.46745 12.0119 7.15489C11.6993 6.84233 11.2754 6.66669 10.8333 6.66669ZM30.7674 24.6735C30.727 24.4683 30.647 24.273 30.532 24.0984L30.5132 24.0704C30.403 23.9101 30.2649 23.771 30.1054 23.6596C30.0872 23.6464 30.0782 23.6258 30.0594 23.6132C30.0414 23.6013 30.02 23.6009 30.0017 23.5897C29.7903 23.4722 29.5587 23.3956 29.3189 23.364C29.2662 23.359 29.2207 23.3333 29.1667 23.3333H22.5C22.058 23.3333 21.6341 23.5089 21.3215 23.8214C21.0089 24.134 20.8333 24.5579 20.8333 24.9999C20.8333 25.442 21.0089 25.8659 21.3215 26.1784C21.6341 26.491 22.058 26.6666 22.5 26.6666H25.4707C23.0411 28.8148 19.9098 30.0003 16.6667 29.9999C16.1767 30.0006 15.6872 29.9707 15.201 29.9104C14.762 29.8571 14.3198 29.9804 13.9717 30.2531C13.6236 30.5258 13.398 30.9257 13.3447 31.3647C13.2914 31.8037 13.4147 32.2459 13.6874 32.594C13.9601 32.9421 14.36 33.1677 14.799 33.221C15.4187 33.2957 16.0424 33.3332 16.6667 33.3333C20.6436 33.3311 24.4876 31.9019 27.5 29.3055V31.6667C27.5 32.1087 27.6756 32.5326 27.9882 32.8452C28.3007 33.1578 28.7246 33.3334 29.1667 33.3334C29.6087 33.3334 30.0326 33.1578 30.3452 32.8452C30.6577 32.5326 30.8333 32.1087 30.8333 31.6667V25C30.8229 24.8899 30.8009 24.7811 30.7678 24.6755L30.7674 24.6735ZM31.6667 5.83335C32.1087 5.83335 32.5326 5.65776 32.8452 5.3452C33.1577 5.03264 33.3333 4.60872 33.3333 4.16669C33.3333 3.72466 33.1577 3.30074 32.8452 2.98818C32.5326 2.67562 32.1087 2.50002 31.6667 2.50002H25C24.8915 2.51048 24.7844 2.53209 24.6803 2.56452L24.6692 2.56675C24.4668 2.60725 24.274 2.68619 24.1014 2.7993L24.0687 2.82137C23.9093 2.93133 23.7708 3.06893 23.6599 3.22767C23.6468 3.24567 23.6265 3.25452 23.6141 3.27314C23.6022 3.29104 23.6018 3.3122 23.5906 3.3304C23.4717 3.54306 23.3945 3.77651 23.3633 4.01817C23.3586 4.06965 23.3333 4.114 23.3333 4.16669V10.8334C23.3333 11.2754 23.5089 11.6993 23.8215 12.0119C24.1341 12.3244 24.558 12.5 25 12.5C25.442 12.5 25.866 12.3244 26.1785 12.0119C26.4911 11.6993 26.6667 11.2754 26.6667 10.8334V7.86189C28.8148 10.2918 30.0003 13.4233 30 16.6666C30.0003 17.1568 29.971 17.6465 29.9121 18.1331C29.8593 18.5718 29.9827 19.0135 30.2552 19.3614C30.5276 19.7092 30.927 19.9348 31.3656 19.9886C31.4331 19.9964 31.501 20.0002 31.569 19.9999C31.976 19.9994 32.3687 19.85 32.673 19.5798C32.9773 19.3097 33.1723 18.9375 33.221 18.5335C33.2965 17.9141 33.334 17.2907 33.3333 16.6667C33.3311 12.6897 31.9016 8.84563 29.305 5.83335H31.6667Z" fill="#41A935"/>
</svg>
