<svg width="120" height="27" viewBox="0 0 120 27" fill="none" xmlns="http://www.w3.org/2000/svg">
<path fill-rule="evenodd" clip-rule="evenodd" d="M12.7498 20.2786C12.8033 20.282 12.857 20.2839 12.9109 20.2857C12.9474 20.2872 12.9833 20.29 13.0199 20.2908V26.9884C5.87177 26.916 0.0696261 20.9533 0.000141677 13.6065H6.51455C6.51517 13.6442 6.51805 13.6812 6.51948 13.7187C6.52132 13.7738 6.52337 13.8286 6.52644 13.8831C6.52993 13.9435 6.53464 14.0033 6.53977 14.0633C6.54427 14.1168 6.54879 14.1705 6.55452 14.2235C6.56088 14.2839 6.56888 14.3437 6.57667 14.4035C6.58363 14.4555 6.5906 14.5075 6.5986 14.5593C6.60803 14.6193 6.61889 14.6786 6.62975 14.7382C6.63898 14.7887 6.6482 14.8395 6.65845 14.8896C6.67074 14.9498 6.68469 15.0089 6.69862 15.0681C6.7101 15.1169 6.72116 15.1658 6.73368 15.214C6.74904 15.274 6.76606 15.3331 6.78308 15.3923C6.7964 15.4392 6.8093 15.4862 6.82366 15.5327C6.84211 15.5923 6.8624 15.6514 6.88228 15.7104C6.89744 15.7552 6.91221 15.8003 6.92819 15.8447C6.94991 15.9043 6.97329 15.9632 6.99644 16.0222C7.01326 16.0647 7.02925 16.1074 7.04686 16.1497C7.07188 16.2093 7.09853 16.268 7.12496 16.3268C7.143 16.367 7.16043 16.4076 7.17928 16.4474C7.20778 16.5074 7.23791 16.5663 7.26804 16.6251C7.2871 16.6625 7.30534 16.7002 7.32502 16.7371C7.3572 16.7977 7.39122 16.8567 7.42525 16.916C7.44493 16.9503 7.46358 16.9851 7.48387 17.0192C7.52014 17.0802 7.55847 17.14 7.5968 17.2C7.61628 17.2305 7.63493 17.2619 7.65502 17.2922C7.69703 17.356 7.74111 17.4181 7.78517 17.4802C7.80301 17.5053 7.82002 17.5313 7.83827 17.556C7.88869 17.6252 7.94116 17.6928 7.99425 17.76C8.00737 17.7766 8.01987 17.7941 8.0332 17.8107C8.09858 17.892 8.16581 17.9715 8.23468 18.0494C8.23652 18.0515 8.23795 18.0536 8.23981 18.0555C8.38267 18.217 8.5327 18.3713 8.68971 18.518C8.693 18.521 8.69648 18.5239 8.69976 18.5269C8.77417 18.5961 8.85022 18.6639 8.9277 18.7298C8.94675 18.746 8.96683 18.7612 8.9863 18.7774C9.04863 18.8292 9.11114 18.8808 9.1753 18.93C9.20194 18.9507 9.22961 18.97 9.25647 18.99C9.31448 19.0334 9.37248 19.077 9.43213 19.1184C9.46369 19.1405 9.49669 19.1614 9.52888 19.1829C9.58483 19.2203 9.64058 19.2584 9.69777 19.2942C9.73302 19.3165 9.7693 19.3374 9.80498 19.3586C9.86031 19.3921 9.91545 19.4256 9.97182 19.4572C10.0104 19.479 10.0497 19.4993 10.0887 19.5201C10.1434 19.5494 10.1979 19.579 10.2534 19.6068C10.2948 19.6277 10.3371 19.6468 10.3791 19.6666C10.4336 19.6925 10.4879 19.7186 10.5433 19.743C10.5867 19.7622 10.631 19.7799 10.6751 19.7982C10.7298 19.8209 10.7843 19.8439 10.8397 19.8651C10.8854 19.8826 10.9319 19.8984 10.978 19.915C11.0329 19.9346 11.0879 19.9544 11.1434 19.9725C11.191 19.9881 11.2389 20.0022 11.2869 20.0167C11.3423 20.0333 11.3974 20.0502 11.4533 20.0653C11.5023 20.0786 11.5519 20.0904 11.6013 20.1026C11.6573 20.1165 11.7131 20.1304 11.7694 20.1426C11.8198 20.1535 11.8707 20.1632 11.9215 20.1731C11.9779 20.1841 12.0342 20.1948 12.091 20.2041C12.1429 20.2127 12.1949 20.2199 12.247 20.2272C12.304 20.2352 12.3606 20.2432 12.4177 20.2497C12.4706 20.2556 12.5239 20.2603 12.577 20.2651C12.6346 20.2702 12.692 20.275 12.7498 20.2786ZM6.51934 13.2257C6.51811 13.2632 6.51523 13.3002 6.51462 13.3379H0C0.070303 6.01571 5.87224 0.0722048 13.0198 0V6.63527C12.9833 6.63612 12.9472 6.63906 12.9108 6.64032C12.8571 6.64221 12.8034 6.64433 12.7501 6.64748C12.6919 6.65126 12.6341 6.65612 12.5762 6.66116C12.5234 6.6658 12.4707 6.67063 12.4184 6.67654C12.3608 6.68305 12.3036 6.69105 12.2467 6.69906C12.1946 6.70643 12.1425 6.71357 12.0911 6.72221C12.0343 6.73168 11.9779 6.74242 11.9216 6.75336C11.8707 6.76326 11.8199 6.77294 11.7693 6.7841C11.7133 6.79632 11.6578 6.81021 11.602 6.82389C11.5522 6.83632 11.5024 6.84811 11.453 6.86157C11.3977 6.87653 11.3429 6.89336 11.2882 6.91C11.2396 6.92451 11.191 6.93884 11.1429 6.95462C11.0879 6.97252 11.0338 6.9921 10.9795 7.01146C10.9328 7.02852 10.8856 7.04451 10.8393 7.0622C10.7848 7.08346 10.7313 7.10598 10.6774 7.12829C10.6323 7.14703 10.587 7.16514 10.5425 7.18493C10.4888 7.2085 10.4359 7.23419 10.3828 7.25923C10.3394 7.27986 10.2955 7.29986 10.2525 7.32156C10.1994 7.34807 10.1473 7.37671 10.0949 7.40492C10.0535 7.42702 10.0116 7.44849 9.97064 7.47164C9.91736 7.50175 9.8653 7.53376 9.81302 7.56513C9.77428 7.58849 9.73492 7.61101 9.69661 7.63544C9.6429 7.66912 9.59063 7.70469 9.53795 7.74006C9.50229 7.76405 9.46621 7.78701 9.43096 7.81163C9.37664 7.84953 9.32397 7.88953 9.27087 7.92911C9.23869 7.9531 9.2057 7.97625 9.17392 8.00068C9.11756 8.04426 9.06262 8.09015 9.00749 8.13562C8.98064 8.15793 8.95296 8.17898 8.92631 8.20173C8.86278 8.25583 8.80088 8.31204 8.73938 8.36845C8.72258 8.38404 8.70495 8.39876 8.68834 8.41435C8.53236 8.56065 8.38314 8.71432 8.24131 8.87495C8.22593 8.89222 8.21179 8.91032 8.19662 8.9278C8.1419 8.99095 8.08737 9.05473 8.03469 9.12021C8.01296 9.14736 7.99266 9.17536 7.97135 9.20294C7.92688 9.25998 7.88239 9.31683 7.83976 9.37535C7.81577 9.4084 7.79323 9.44229 7.76987 9.47556C7.73174 9.53008 7.69321 9.58418 7.65651 9.63976C7.63213 9.67682 7.60937 9.7147 7.5856 9.75218C7.55178 9.80585 7.51754 9.85912 7.48516 9.91364C7.46158 9.95343 7.43965 9.99427 7.4167 10.0343C7.38637 10.0882 7.35542 10.1414 7.32631 10.1959C7.30396 10.2383 7.28305 10.2812 7.26154 10.3237C7.23427 10.378 7.20639 10.4317 7.18057 10.4867C7.15967 10.5309 7.1402 10.5759 7.12011 10.6208C7.09571 10.6753 7.07092 10.7298 7.04795 10.7852C7.02868 10.8313 7.01107 10.8782 6.99282 10.9248C6.9713 10.9801 6.94936 11.0351 6.92907 11.0911C6.91186 11.1391 6.89607 11.1875 6.87967 11.2359C6.86081 11.2917 6.84175 11.3475 6.82434 11.4041C6.80916 11.4534 6.79543 11.5035 6.78128 11.5531C6.7651 11.6098 6.7489 11.6664 6.73414 11.7237C6.72102 11.7744 6.70934 11.826 6.69746 11.8771C6.68412 11.9342 6.67081 11.9914 6.65892 12.0491C6.64806 12.1015 6.63863 12.1542 6.629 12.2068C6.61854 12.2647 6.60789 12.3226 6.59887 12.3809C6.59046 12.4339 6.58349 12.4876 6.57631 12.5411C6.56874 12.5998 6.56094 12.6586 6.55458 12.7177C6.54885 12.772 6.54413 12.8266 6.53963 12.8811C6.5347 12.9407 6.53 12.9998 6.5265 13.0596C6.52323 13.1148 6.52139 13.1701 6.51934 13.2257ZM19.814 13.3424C19.7447 9.67578 16.8523 6.70645 13.2811 6.63529V1.61677e-05C20.416 0.072221 26.2072 6.01554 26.2775 13.3381L19.814 13.3424ZM12.022 13.6064C12.0829 14.1318 12.4982 14.5497 13.0198 14.6101V20.0204C12.985 20.0196 12.9497 20.0187 12.9149 20.0174C12.8651 20.0158 12.8151 20.0137 12.7653 20.0107C12.7079 20.0069 12.6507 20.0021 12.5937 19.9972C12.5445 19.9926 12.4955 19.9884 12.4467 19.9829C12.3895 19.9764 12.333 19.9684 12.2762 19.9604C12.2284 19.9539 12.1807 19.9471 12.1331 19.9391C12.0761 19.9297 12.0198 19.9189 11.9634 19.9082C11.9169 19.8989 11.8703 19.8901 11.824 19.8802C11.7677 19.8678 11.7117 19.8539 11.6557 19.84C11.6106 19.8288 11.5656 19.8181 11.5209 19.8059C11.4643 19.7905 11.4085 19.7737 11.3528 19.7568C11.3095 19.7438 11.2661 19.7309 11.223 19.717C11.1669 19.6985 11.1111 19.6785 11.0556 19.6585C11.0142 19.6438 10.9726 19.6295 10.9318 19.6137C10.8752 19.5922 10.8197 19.5688 10.7641 19.5457C10.725 19.5295 10.6854 19.5137 10.6467 19.4966C10.5901 19.4716 10.5343 19.445 10.4786 19.4183C10.4419 19.4011 10.405 19.384 10.3687 19.3659C10.3115 19.3375 10.2554 19.3072 10.1992 19.2766C10.1654 19.2585 10.1314 19.2411 10.0978 19.2223C10.0402 19.1899 9.98358 19.1554 9.927 19.1213C9.89626 19.1027 9.8649 19.0847 9.83457 19.0657C9.77554 19.0286 9.71794 18.9897 9.66013 18.9508C9.63328 18.9327 9.60603 18.9154 9.57938 18.8969C9.51769 18.8537 9.45722 18.8087 9.39695 18.7634C9.37584 18.7476 9.35391 18.7325 9.3328 18.716C9.26516 18.6638 9.19915 18.6099 9.13357 18.5552C9.12085 18.5445 9.10753 18.5344 9.09483 18.5236C8.78163 18.2575 8.49324 17.9613 8.23435 17.6395C8.2241 17.6268 8.21467 17.6136 8.20463 17.6009C8.15114 17.5331 8.09824 17.4649 8.04721 17.3952C8.03144 17.3736 8.01688 17.351 8.00131 17.3294C7.95723 17.2675 7.91317 17.205 7.87114 17.1414C7.85352 17.1149 7.83732 17.0875 7.8201 17.0605C7.78157 17.0005 7.74324 16.9405 7.70676 16.8791C7.68852 16.8483 7.6713 16.8165 7.65346 16.7854C7.61985 16.7269 7.58623 16.6685 7.55466 16.6088C7.53621 16.5747 7.51921 16.5393 7.50158 16.5046C7.47207 16.4469 7.44255 16.3892 7.41467 16.3305C7.39704 16.2934 7.38064 16.2553 7.36364 16.2178C7.3378 16.1604 7.31177 16.1029 7.28759 16.0446C7.27098 16.0052 7.25582 15.965 7.24003 15.925C7.21728 15.8675 7.19454 15.8101 7.17341 15.7518C7.15825 15.7099 7.14451 15.6675 7.13017 15.6254C7.1107 15.5682 7.09102 15.5107 7.07318 15.4526C7.05946 15.4084 7.04716 15.364 7.03444 15.3196C7.01806 15.2623 7.00145 15.2046 6.98648 15.1465C6.9748 15.1008 6.96434 15.0547 6.95348 15.0088C6.93996 14.9509 6.92642 14.8931 6.91433 14.8345C6.90449 14.7874 6.89609 14.74 6.88727 14.6926C6.87662 14.6343 6.86596 14.576 6.85673 14.5173C6.84915 14.4689 6.8428 14.42 6.83624 14.371C6.82824 14.3124 6.82067 14.2539 6.81431 14.1948C6.80897 14.1451 6.80488 14.0948 6.80058 14.0449C6.79545 13.9859 6.79074 13.927 6.78745 13.8676C6.78438 13.8167 6.78254 13.7655 6.78068 13.7144C6.77946 13.6784 6.77884 13.6424 6.77802 13.6064H12.022ZM19.5526 13.6107C19.4835 17.1147 16.7082 19.9516 13.281 20.0223V14.6102C13.7982 14.5504 14.1971 14.139 14.2549 13.6064L19.5526 13.6107ZM12.0217 13.3379H6.77809C6.7787 13.3019 6.77932 13.2661 6.78054 13.2301C6.7824 13.1783 6.78445 13.1265 6.78752 13.075C6.79079 13.0162 6.79551 12.9581 6.80043 12.9C6.80474 12.8485 6.80904 12.7973 6.81458 12.7461C6.82072 12.6887 6.8281 12.6314 6.83589 12.5741C6.84266 12.5234 6.84921 12.4727 6.857 12.4224C6.86602 12.3657 6.87627 12.3095 6.88652 12.2533C6.89574 12.2032 6.90456 12.1533 6.91481 12.1036C6.92628 12.0481 6.93921 11.9931 6.95211 11.9382C6.96338 11.8887 6.97466 11.8392 6.98736 11.7904C7.00131 11.7359 7.01667 11.6822 7.03205 11.6285C7.04578 11.5801 7.05932 11.5315 7.07407 11.4832C7.09067 11.43 7.10871 11.3772 7.12634 11.3241C7.14232 11.2769 7.15791 11.2296 7.1747 11.1829C7.19377 11.1302 7.21447 11.078 7.23477 11.026C7.2528 10.9803 7.27022 10.9342 7.28908 10.889C7.3106 10.8372 7.33377 10.7862 7.35652 10.7353C7.3764 10.6909 7.39567 10.646 7.41658 10.6022C7.44055 10.5513 7.46638 10.5014 7.4916 10.4511C7.51312 10.4084 7.53403 10.3652 7.55657 10.3231C7.58363 10.2726 7.61212 10.2229 7.64041 10.173C7.66316 10.1328 7.68529 10.092 7.70887 10.0524C7.73921 10.0014 7.77118 9.95175 7.80274 9.90186C7.82632 9.86438 7.84907 9.82648 7.87345 9.78944C7.90728 9.73808 7.94295 9.68818 7.97799 9.63787C8.00198 9.60397 8.02494 9.56903 8.04952 9.53535C8.08847 9.48187 8.12946 9.42987 8.17006 9.37746C8.1924 9.34861 8.21392 9.31914 8.23666 9.29072C8.28504 9.23051 8.33525 9.172 8.38549 9.11368C8.40228 9.09431 8.41807 9.0741 8.43488 9.05515C8.57118 8.90085 8.71446 8.75306 8.86429 8.61286C8.87783 8.60023 8.89196 8.58823 8.90549 8.57603C8.96699 8.51918 9.02909 8.46277 9.09283 8.40866C9.116 8.38866 9.14018 8.37034 9.16356 8.35097C9.21889 8.30509 9.27424 8.25919 9.33102 8.2152C9.35827 8.19415 9.38676 8.17415 9.41444 8.15331C9.46856 8.1131 9.52266 8.07226 9.57801 8.03352C9.60855 8.01226 9.63991 7.99226 9.67085 7.97163C9.72457 7.9352 9.77826 7.89858 9.8332 7.86405C9.8664 7.843 9.90042 7.82363 9.93404 7.80342C9.98794 7.77079 10.0419 7.73796 10.097 7.7068C10.1318 7.68701 10.1677 7.6687 10.2032 7.64954C10.2579 7.62006 10.3126 7.59017 10.3682 7.56238C10.4053 7.54365 10.443 7.52639 10.4803 7.5087C10.5354 7.48238 10.5904 7.45586 10.6465 7.43123C10.6855 7.41418 10.725 7.39818 10.7644 7.38198C10.8199 7.3586 10.8755 7.33524 10.932 7.31356C10.9724 7.29797 11.0134 7.28387 11.0542 7.26913C11.1104 7.24892 11.1667 7.22871 11.2235 7.20999C11.2659 7.19608 11.3088 7.18367 11.3514 7.17062C11.408 7.15356 11.4644 7.13629 11.5215 7.12073C11.5652 7.10894 11.6093 7.0984 11.6533 7.08724C11.7103 7.07314 11.7675 7.05905 11.8253 7.0464C11.8702 7.03651 11.9157 7.02789 11.961 7.01926C12.0186 7.00789 12.0762 6.99672 12.134 6.98703C12.1805 6.97926 12.2275 6.97294 12.2742 6.96619C12.3318 6.958 12.3896 6.94999 12.4476 6.94346C12.4956 6.938 12.5439 6.93378 12.5923 6.92936C12.6499 6.92409 12.7077 6.91947 12.7659 6.91567C12.8153 6.91273 12.8647 6.91063 12.9145 6.90873C12.9496 6.90747 12.9846 6.90684 13.0199 6.90599V12.3163C12.4976 12.3777 12.0819 12.8032 12.0217 13.3379ZM32.7946 12.9915V12.9704C32.7946 10.8141 34.4862 9.06639 36.7415 9.06639C38.9975 9.06639 40.6682 10.7928 40.6682 12.949V12.9704C40.6682 15.1255 38.9765 16.8736 36.7206 16.8736C34.4653 16.8736 32.7946 15.147 32.7946 12.9915ZM38.6004 12.9915V12.9704C38.6004 11.8865 37.8383 10.9429 36.7206 10.9429C35.614 10.9429 34.8726 11.865 34.8726 12.949V12.9704C34.8726 14.0529 35.6349 14.9966 36.7415 14.9966C37.8591 14.9966 38.6004 14.0744 38.6004 12.9915ZM40.855 15.6084L41.9827 14.2245C42.703 14.8146 43.5073 15.1253 44.3528 15.1253C44.896 15.1253 45.1881 14.9323 45.1881 14.6104V14.5889C45.1881 14.2782 44.9483 14.107 43.9562 13.8706C42.4005 13.506 41.1993 13.0557 41.1993 11.5114V11.4899C41.1993 10.0959 42.2752 9.0877 44.0292 9.0877C45.2717 9.0877 46.2431 9.43063 47.0365 10.0851L46.0237 11.5543C45.3553 11.0716 44.6246 10.8141 43.9771 10.8141C43.4864 10.8141 43.2462 11.0291 43.2462 11.2969V11.3183C43.2462 11.6615 43.4969 11.8116 44.5096 12.0478C46.1908 12.4229 47.2349 12.9808 47.2349 14.3856V14.407C47.2349 15.9402 46.0551 16.8522 44.2798 16.8522C42.985 16.8522 41.7529 16.4337 40.855 15.6084ZM47.3873 9.21659H49.528L50.8022 13.5595L52.2117 9.19468H53.9554L55.3648 13.5595L56.6387 9.21659H58.7378L56.2942 16.7769H54.5298L53.0575 12.4552L51.5956 16.7769H49.8306L47.3873 9.21659ZM61.0506 9.16298H63.0034L66.1155 16.7235H63.9432L63.4109 15.3829H60.5915L60.0692 16.7235H57.9394L61.0506 9.16298ZM62.8259 13.7634L62.0115 11.6294L61.1865 13.7634H62.8259ZM66.5631 9.21659H68.589V14.9001H72.1284V16.7234H66.5631V9.21659ZM72.7333 9.21649H75.5531C78.1635 9.21649 79.6774 10.7608 79.6774 12.9271V12.949C79.6774 15.1147 78.1425 16.7235 75.5113 16.7235H72.7333V9.21649ZM75.5845 14.8788C76.7957 14.8788 77.5996 14.1927 77.5996 12.9807V12.9593C77.5996 11.7579 76.7957 11.0613 75.5845 11.0613H74.7593V14.8788H75.5845ZM80.2083 12.9915V12.9704C80.2083 10.8141 81.8996 9.06639 84.1549 9.06639C86.4104 9.06639 88.0811 10.7928 88.0811 12.949V12.9704C88.0811 15.1255 86.3895 16.8736 84.1339 16.8736C81.8786 16.8736 80.2083 15.147 80.2083 12.9915ZM86.0133 12.9915V12.9704C86.0133 11.8865 85.2513 10.9429 84.1339 10.9429C83.0273 10.9429 82.2861 11.865 82.2861 12.949V12.9704C82.2861 14.0529 83.0482 14.9966 84.1549 14.9966C85.2722 14.9966 86.0133 14.0744 86.0133 12.9915ZM91.254 12.9915V12.9704C91.254 10.7821 92.8932 9.06639 95.1064 9.06639C96.5999 9.06639 97.5604 9.70973 98.2081 10.6316L96.6835 11.8435C96.2658 11.3076 95.7855 10.9642 95.0857 10.9642C94.0625 10.9642 93.3418 11.8543 93.3418 12.949V12.9704C93.3418 14.0958 94.0625 14.9752 95.0857 14.9752C95.8482 14.9752 96.2969 14.6106 96.7358 14.0636L98.2603 15.1792C97.5708 16.1549 96.6417 16.8736 95.023 16.8736C92.935 16.8736 91.254 15.2329 91.254 12.9915ZM98.8649 9.21667H102.321C103.438 9.21667 104.211 9.51643 104.702 10.0314C105.13 10.46 105.349 11.0393 105.349 11.7797V11.8007C105.349 12.9489 104.754 13.7097 103.846 14.107L105.589 16.7235H103.25L101.778 14.4499H100.89V16.7235H98.8649V9.21667ZM102.227 12.8199C102.916 12.8199 103.313 12.4765 103.313 11.9294V11.9079C103.313 11.3183 102.896 11.0178 102.217 11.0178H100.89V12.8199H102.227ZM106.017 13.4309V9.21652H108.073V13.3879C108.073 14.4714 108.606 14.9859 109.42 14.9859C110.235 14.9859 110.768 14.4925 110.768 13.4416V9.21652H112.825V13.3772C112.825 15.8013 111.478 16.8633 109.4 16.8633C107.322 16.8633 106.017 15.78 106.017 13.4309ZM113.534 15.2117L117.199 10.975H113.659V9.21659H119.998V10.7283L116.332 14.9645H119.998V16.7234H113.534V15.2117ZM46.2864 21.1673V22.5391H45.9514V19.4906H46.2864V20.845H47.9993V19.4906H48.3342V22.5391H47.9993V21.1673H46.2864ZM51.8252 22.5913C50.9221 22.5913 50.3158 21.864 50.3158 21.0191C50.3158 20.1743 50.9305 19.4384 51.8336 19.4384C52.7369 19.4384 53.3432 20.1657 53.3432 21.0105C53.3432 21.8553 52.7283 22.5913 51.8252 22.5913ZM51.8252 19.7563C51.1467 19.7563 50.6632 20.3137 50.6632 21.0105C50.6632 21.7073 51.1553 22.2734 51.8336 22.2734C52.5121 22.2734 52.9956 21.7162 52.9956 21.0191C52.9956 20.3225 52.5036 19.7563 51.8252 19.7563ZM56.3676 20.8494C57.0293 20.9974 57.3345 21.2456 57.3345 21.7161C57.3345 22.2428 56.9104 22.5824 56.3209 22.5824C55.8505 22.5824 55.4645 22.4213 55.1085 22.0948L55.3161 21.8422C55.6258 22.1298 55.9224 22.2733 56.3338 22.2733C56.7323 22.2733 56.9953 22.0601 56.9953 21.7508C56.9953 21.4635 56.8469 21.3022 56.2235 21.1673C55.541 21.0149 55.227 20.7884 55.227 20.2831C55.227 19.7954 55.6384 19.4471 56.2022 19.4471C56.6349 19.4471 56.9444 19.5733 57.2455 19.8217L57.0504 20.0871C56.7749 19.8562 56.499 19.7562 56.1938 19.7562C55.8081 19.7562 55.5621 19.9741 55.5621 20.2526C55.5621 20.5444 55.7146 20.7056 56.3676 20.8494ZM60.346 21.4634H59.6253V22.5391H59.2902V19.4906H60.4011C61.0712 19.4906 61.5123 19.8563 61.5123 20.4617C61.5123 21.1236 60.9779 21.4634 60.346 21.4634ZM60.3757 19.8085H59.6253V21.1499H60.3587C60.8507 21.1499 61.1729 20.8798 61.1729 20.4748C61.1729 20.035 60.855 19.8085 60.3757 19.8085ZM63.4255 19.4905H63.7604V22.539H63.4255V19.4905ZM67.026 22.5391H66.6868V19.8085H65.6904V19.4906H68.0224V19.8085H67.026V22.5391ZM72.3063 22.5392H71.9457L71.5979 21.7333H69.9825L69.6306 22.5392H69.2871L70.6399 19.4688H70.9535L72.3063 22.5392ZM70.7922 19.8694L70.1139 21.4241H71.4663L70.7922 19.8694ZM74.1643 19.4906H74.4992V22.2212H76.1701V22.5391H74.1643V19.4906ZM83.3715 22.5392H83.011L82.6631 21.7333H81.0478L80.6958 22.5392H80.3523L81.7051 19.4688H82.0187L83.3715 22.5392ZM81.8574 19.8694L81.1791 21.4241H82.5315L81.8574 19.8694ZM85.2296 19.4906H85.5646V22.2212H87.2355V22.5391H85.2296V19.4906ZM91.2731 19.8042H89.4622V20.845H91.0823V21.1587H89.4622V22.2256H91.2942V22.539H89.1272V19.4905H91.2731V19.8042ZM94.6661 21.703H94.6491L93.568 20.074V22.5392H93.2413V19.4907H93.5806L94.6618 21.1542L95.7434 19.4907H96.0826V22.5392H95.7473V20.0698L94.6661 21.703ZM99.7432 19.2204C99.5521 19.2204 99.3191 19.0463 99.1746 19.0463C99.0645 19.0463 99.018 19.1031 98.9542 19.2598L98.7552 19.2031C98.8396 18.8764 98.9542 18.7459 99.1578 18.7459C99.3486 18.7459 99.582 18.9202 99.7261 18.9202C99.8362 18.9202 99.8832 18.8633 99.9465 18.7067L100.146 18.7634C100.061 19.0899 99.9465 19.2204 99.7432 19.2204ZM100.96 22.5392H100.599L100.252 21.7333H98.6361L98.2842 22.5392H97.9406L99.2934 19.4688H99.6071L100.96 22.5392ZM99.4461 19.8694L98.7677 21.4241H100.12L99.4461 19.8694ZM104.196 22.5913C103.293 22.5913 102.687 21.864 102.687 21.0191C102.687 20.1743 103.301 19.4384 104.205 19.4384C105.108 19.4384 105.714 20.1657 105.714 21.0105C105.714 21.8553 105.099 22.5913 104.196 22.5913ZM104.196 19.7562C103.518 19.7562 103.034 20.3137 103.034 21.0105C103.034 21.7073 103.526 22.2734 104.205 22.2734C104.883 22.2734 105.367 21.7162 105.367 21.0191C105.367 20.3225 104.875 19.7562 104.196 19.7562Z" fill="white"/>
</svg>
