<svg width="187" height="42" viewBox="0 0 187 42" fill="none" xmlns="http://www.w3.org/2000/svg">
<path d="M60.2679 19.9743V19.9416C60.2679 18.3009 59.082 16.8762 57.3423 16.8762C55.6207 16.8762 54.4676 18.2699 54.4676 19.9107V19.9416C54.4676 21.5801 55.6535 23.0071 57.375 23.0071C59.113 23.0071 60.2679 21.6128 60.2679 19.9743ZM51.2349 19.9743V19.9416C51.2349 16.6788 53.8647 14.0366 57.375 14.0366C60.8854 14.0366 63.4842 16.6478 63.4842 19.9107V19.9416C63.4842 23.2022 60.8527 25.8478 57.3423 25.8478C53.8337 25.8478 51.2349 23.2349 51.2349 19.9743Z" fill="#16B3BB"/>
<path d="M63.776 23.9343L65.5303 21.8393C66.6507 22.7332 67.9039 23.2027 69.2179 23.2027C70.0641 23.2027 70.519 22.9107 70.519 22.4232V22.3922C70.519 21.9216 70.1465 21.6641 68.6004 21.305C66.1829 20.7538 64.3117 20.0712 64.3117 17.7356V17.7046C64.3117 15.595 65.9853 14.0698 68.7156 14.0698C70.6488 14.0698 72.1605 14.5878 73.3938 15.5786L71.8184 17.8016C70.7787 17.0693 69.6419 16.681 68.6331 16.681C67.8712 16.681 67.4987 17.0057 67.4987 17.4127V17.4436C67.4987 17.9639 67.8858 18.1899 69.4629 18.5478C72.0798 19.1153 73.7025 19.9597 73.7025 22.0839V22.1149C73.7025 24.4359 71.8681 25.8156 69.105 25.8156C67.0911 25.8156 65.1742 25.1821 63.776 23.9343Z" fill="#16B3BB"/>
<path d="M73.9405 14.2638H77.2714L79.2543 20.8327L81.4472 14.2305H84.1594L86.3541 20.8327L88.3347 14.2638H91.6024L87.8014 25.7024H85.0529L82.7647 19.1627L80.4876 25.7024H77.7415L73.9405 14.2638Z" fill="#16B3BB"/>
<path d="M97.9636 21.1432L96.697 17.9153L95.4105 21.1432H97.9636ZM95.2005 14.1836H98.2414L103.08 25.6205H99.7009L98.8735 23.5938H94.4859L93.6725 25.6205H90.3592L95.2005 14.1836Z" fill="#16B3BB"/>
<path d="M103.779 14.2642H106.931V22.8639H112.438V25.6211H103.779V14.2642Z" fill="#16B3BB"/>
<path d="M117.816 22.8302C119.7 22.8302 120.952 21.792 120.952 19.9586V19.9253C120.952 18.1082 119.7 17.0554 117.816 17.0554H116.531V22.8302H117.816ZM113.379 14.2632H117.767C121.829 14.2632 124.183 16.6011 124.183 19.878V19.9107C124.183 23.1864 121.796 25.6201 117.703 25.6201H113.379V14.2632Z" fill="#16B3BB"/>
<path d="M134.043 19.9743V19.9416C134.043 18.3009 132.855 16.8762 131.119 16.8762C129.398 16.8762 128.243 18.2699 128.243 19.9107V19.9416C128.243 21.5801 129.427 23.0071 131.152 23.0071C132.89 23.0071 134.043 21.6128 134.043 19.9743ZM125.01 19.9743V19.9416C125.01 16.6788 127.641 14.0366 131.152 14.0366C134.661 14.0366 137.259 16.6478 137.259 19.9107V19.9416C137.259 23.2022 134.629 25.8478 131.119 25.8478C127.61 25.8478 125.01 23.2349 125.01 19.9743Z" fill="#16B3BB"/>
<path d="M142.198 19.9743V19.9416C142.198 16.6315 144.748 14.0366 148.194 14.0366C150.515 14.0366 152.011 15.0094 153.016 16.4055L150.645 18.2372C149.996 17.4274 149.248 16.9088 148.161 16.9088C146.569 16.9088 145.445 18.2553 145.445 19.9107V19.9416C145.445 21.6437 146.569 22.9762 148.161 22.9762C149.349 22.9762 150.045 22.425 150.729 21.5964L153.101 23.2827C152.028 24.7589 150.581 25.8478 148.062 25.8478C144.813 25.8478 142.198 23.3645 142.198 19.9743Z" fill="#16B3BB"/>
<path d="M159.274 19.7157C160.344 19.7157 160.962 19.1954 160.962 18.3669V18.3359C160.962 17.4437 160.312 16.9894 159.257 16.9894H157.192V19.7157H159.274ZM154.04 14.2632H159.418C161.158 14.2632 162.36 14.7192 163.124 15.497C163.789 16.1463 164.131 17.0221 164.131 18.1426V18.1736C164.131 19.9107 163.204 21.0622 161.79 21.6624L164.506 25.6201H160.864L158.574 22.1809H157.192V25.6201H154.04V14.2632Z" fill="#16B3BB"/>
<path d="M165.169 20.6394V14.2661H168.369V20.5758C168.369 22.2125 169.198 22.992 170.465 22.992C171.733 22.992 172.561 22.2452 172.561 20.6564V14.2661H175.761V20.5577C175.761 24.2252 173.667 25.8309 170.434 25.8309C167.201 25.8309 165.169 24.1925 165.169 20.6394Z" fill="#16B3BB"/>
<path d="M176.865 23.3333L182.571 16.9249H177.061V14.2646H186.923V16.5506L181.22 22.9572H186.923V25.6198H176.865V23.3333Z" fill="#16B3BB"/>
<path d="M75.0843 34.3396V32.1792H72.1277V34.3396H71.7839V29.7285H72.1277V31.8633H75.0843V29.7285H75.4264V34.3396H75.0843Z" fill="#007989"/>
<path d="M82.8647 32.0331C82.8647 30.8927 82.0332 29.9585 80.8911 29.9585C79.7508 29.9585 78.9322 30.8799 78.9322 32.0185V32.0331C78.9322 33.1735 79.7637 34.1077 80.9058 34.1077C82.0461 34.1077 82.8647 33.1863 82.8647 32.0477V32.0331ZM80.8911 34.4195C79.4929 34.4195 78.5754 33.3048 78.5754 32.0477V32.0331C78.5754 30.7742 79.5058 29.6484 80.9058 29.6484C82.3016 29.6484 83.2209 30.7614 83.2209 32.0185C83.2267 32.0279 83.2267 32.0278 83.2209 32.0331C83.2209 33.292 82.2911 34.4195 80.8911 34.4195Z" fill="#007989"/>
<path d="M87.9008 34.4049C87.1622 34.4049 86.5938 34.1602 86.04 33.6656L86.2652 33.4105C86.771 33.8776 87.2412 34.0948 87.9207 34.0948C88.613 34.0948 89.0885 33.7059 89.0885 33.1787V33.1658C89.0885 32.6788 88.8306 32.3957 87.7821 32.1843C86.6745 31.9595 86.2266 31.5858 86.2266 30.8868V30.874C86.2266 30.1879 86.8517 29.6606 87.7107 29.6606C88.3832 29.6606 88.8253 29.8446 89.2914 30.2206L89.0738 30.491C88.6405 30.1167 88.2037 29.9707 87.6961 29.9707C87.016 29.9707 86.5687 30.3613 86.5687 30.8395V30.8541C86.5687 31.3411 86.8172 31.6383 87.9137 31.8614C88.9844 32.0803 89.4317 32.4599 89.4317 33.1331V33.146C89.4317 33.8904 88.7908 34.4049 87.9008 34.4049Z" fill="#007989"/>
<path d="M95.5894 31.1571C95.5894 30.4255 95.021 30.0442 94.1895 30.0442H92.8831V32.3033H94.1491C95.0082 32.3033 95.5894 31.8561 95.5894 31.1717V31.1571ZM94.131 32.6204H92.8831V34.3377H92.5392V29.7266H94.217C95.2327 29.7266 95.9309 30.2486 95.9309 31.1355V31.1501C95.9309 32.1188 95.0941 32.6204 94.131 32.6204Z" fill="#007989"/>
<path d="M99.3156 29.728H98.9741V34.3391H99.3156V29.728Z" fill="#007989"/>
<path d="M104.34 30.0436V34.3394H103.998V30.0436H102.386V29.7266H105.95V30.0436H104.34Z" fill="#007989"/>
<path d="M110.292 30.0704L109.071 32.7382H111.507L110.292 30.0704ZM112.24 34.3381L111.651 33.0465H108.927L108.339 34.3381H107.982L110.133 29.6943H110.464L112.615 34.3381H112.24Z" fill="#007989"/>
<path d="M115.572 34.3396V29.7285H115.914V34.022H118.626V34.3396H115.572Z" fill="#007989"/>
<path d="M127.51 30.0704L126.29 32.7382H128.724L127.51 30.0704ZM129.458 34.3381L128.868 33.0465H126.146L125.557 34.3381H125.201L127.351 29.6943H127.682L129.833 34.3381H129.458Z" fill="#007989"/>
<path d="M132.791 34.3396V29.7285H133.132V34.022H135.845V34.3396H132.791Z" fill="#007989"/>
<path d="M138.855 34.3396V29.7285H142.141V30.0438H139.197V31.8539H141.843V32.1716H139.197V34.022H142.174V34.3396H138.855Z" fill="#007989"/>
<path d="M149.269 34.3396V30.334L147.439 32.989H147.416L145.586 30.334V34.3396H145.257V29.7285H145.579L147.435 32.4542L149.289 29.7285H149.61V34.3396H149.269Z" fill="#007989"/>
<path d="M155.309 29.2994C155.056 29.2994 154.687 29.0297 154.463 29.0297C154.304 29.0297 154.232 29.1097 154.133 29.3578L153.907 29.2994C154.035 28.8253 154.199 28.6863 154.463 28.6863C154.713 28.6863 155.084 28.9567 155.309 28.9567C155.466 28.9567 155.537 28.8784 155.637 28.6279L155.86 28.6863C155.735 29.1593 155.572 29.2994 155.309 29.2994ZM154.879 30.0696L153.657 32.7392H156.092L154.879 30.0696ZM156.823 34.3397L156.237 33.0475H153.512L152.926 34.3397H152.569L154.72 29.6959H155.049L157.202 34.3397H156.823Z" fill="#007989"/>
<path d="M164.243 32.0331C164.243 30.8927 163.411 29.9585 162.269 29.9585C161.129 29.9585 160.31 30.8799 160.31 32.0185V32.0331C160.31 33.1735 161.142 34.1077 162.284 34.1077C163.424 34.1077 164.243 33.1863 164.243 32.0477V32.0331ZM162.269 34.4195C160.872 34.4195 159.954 33.3048 159.954 32.0477V32.0331C159.954 30.7742 160.885 29.6484 162.284 29.6484C163.68 29.6484 164.6 30.7614 164.6 32.0185C164.605 32.0279 164.605 32.0278 164.6 32.0331C164.6 33.292 163.669 34.4195 162.269 34.4195Z" fill="#007989"/>
<path d="M20.6671 30.7765C15.0679 30.7765 10.5412 26.2547 10.5412 20.6621H0.000610352C0.000610352 32.05 9.26401 41.3142 20.6671 41.3142V30.7765Z" fill="#003A4E"/>
<path d="M10.5423 20.6626C10.5423 15.0717 15.0667 10.5208 20.6682 10.5208V0.0776367C9.26106 0.0776367 0 9.27412 0 20.6626H10.5423Z" fill="#007989"/>
<path d="M20.6671 10.5213C26.2663 10.5213 30.8328 15.0757 30.8328 20.6683L41.2967 20.6625C41.2967 9.27637 32.0701 0.078125 20.6671 0.078125V10.5213Z" fill="#16B3BB"/>
<path d="M20.6671 22.1923C19.8133 22.1923 19.1028 21.5138 19.1028 20.6631H10.5411C10.5411 26.2563 15.0638 30.7757 20.6671 30.7757V22.1923Z" fill="#007989"/>
<path d="M20.6671 30.7765C26.2698 30.7765 30.8328 26.2658 30.8328 20.6691L22.1945 20.6621C22.1945 21.514 21.5202 22.1931 20.6671 22.1931V30.7765Z" fill="#003A4E"/>
<path d="M20.6671 10.521C15.0638 10.521 10.5411 15.0679 10.5411 20.6622H19.1028C19.1028 19.8103 19.8133 19.1044 20.6671 19.1044V10.521Z" fill="#16B3BB"/>
</svg>
