<?xml version="1.0" encoding="UTF-8"?>
<svg id="Camada_1" data-name="Camada 1" xmlns="http://www.w3.org/2000/svg" version="1.1" viewBox="0 0 51 51">
  <defs>
    <style>
      .cls-1 {
        fill: #fff;
        stroke-width: 0px;
      }
    </style>
  </defs>
  <path class="cls-1" d="M21.8,47.1v.2c8.4,0,15.7-4.8,19.4-11.7h-.2c-3.6,6.9-10.8,11.5-19.1,11.5Z"/>
  <path class="cls-1" d="M21.8,3.7v.2c10.2,0,18.8,7.1,21,16.6h.2c-2.3-9.6-10.9-16.8-21.3-16.8Z"/>
  <path class="cls-1" d="M19.8,20.6V7.4C9.8,7.4,1.7,15.5,1.7,25.5s8.1,18.1,18.1,18.1v-19.8l.4-1.9v-1.3s-.4,0-.4,0ZM14.6,30.8h-3.4v-9.8h1.1v8.7h2.3v1ZM19.8,21.8l-2,9h-1.1l2-8.7h-2.8v-1h3.9v.8Z"/>
  <path class="cls-1" d="M22.9,22.8c-.6,0-1.5.2-1.5,1.9v4.3c0,1.7.8,1.9,1.5,1.9.5,0,.8-.3,1-.8l.2-.5.5,1.2h.7v-10.4h-1.1v3.8l-.4-.8c-.2-.4-.5-.6-.9-.6ZM24.2,24.7v4.3c0,.6-.3.9-.8.9s-.8-.3-.8-.9v-4.3c0-.6.3-.9.8-.9s.8.3.8.9Z"/>
  <path class="cls-1" d="M28.7,22.8c-1.3,0-1.9.6-1.9,1.9v4.3c0,1.3.6,1.9,1.9,1.9s1.9-.6,1.9-1.9v-.5h-1.1v.5c0,.6-.3.9-.8.9-.5,0-.9-.3-.9-.9v-1.8h2.8v-2.5c0-1.3-.6-1.9-1.9-1.9ZM29.5,26.3h-1.7v-1.6c0-.6.3-.9.8-.9s.8.3.8.9v1.6Z"/>
  <path class="cls-1" d="M34,22.8c-1.3,0-1.9.6-1.9,1.9v.2c0,.9.4,1.6,1.3,2.2,1,.7,1.5,1.3,1.5,1.8h0c0,.7-.3,1-.8,1-.5,0-.9-.3-.9-.9v-.5h-1.1v.5c0,1.3.6,1.9,1.9,1.9s1.9-.6,1.9-1.9h0c0-1-.4-1.7-1.3-2.3-1-.7-1.5-1.3-1.5-1.9h0c0-.7.3-1,.8-1s.8.3.8.9v.5h1.1v-.5c0-1.3-.6-1.9-1.9-1.9Z"/>
  <rect class="cls-1" x="37.5" y="20.4" width="1.1" height=".9"/>
  <rect class="cls-1" x="37.5" y="22.9" width="1.1" height="7.9"/>
  <path class="cls-1" d="M42.7,22.9h-.2v-.7h-.7v.6c-.1,0-.3,0-.3,0-1,.1-1.5.7-1.5,1.9v2.5c0,1.1.4,1.7,1.2,1.9h.2v.9h-.2c-.8.2-1.2.8-1.2,1.9v.3c0,1.3.6,1.9,1.9,1.9,1.3,0,1.9-.6,1.9-1.9v-.3c0-1.1-.4-1.7-1.2-1.9h-.2v-.9h.2c.8-.2,1.2-.8,1.2-1.9v-2.5c0-1.1-.4-1.7-1.2-1.9ZM42.9,31.9v.3c0,.6-.3.9-.8.9s-.8-.3-.8-.9v-.3c0-.6.3-.9.8-.9.6,0,.9.3.9.9ZM42.9,27.2c0,.6-.3.9-.8.9s-.8-.3-.8-.9v-2.5c0-.6.3-.9.8-.9.6,0,.9.3.9.9v2.5Z"/>
  <path class="cls-1" d="M47.8,22.8c-.5,0-.8.3-1,.8l-.2.5-.5-1.2h-.7v7.9h1.1v-6.1c0-.6.3-.9.8-.9s.8.3.8.9v6.1h1.1v-6.1c0-1.7-.8-1.9-1.5-1.9Z"/>
</svg>