<svg width="40" height="38" viewBox="0 0 40 38" fill="none" xmlns="http://www.w3.org/2000/svg">
<path d="M0 15C0 27.7365 13.689 35.487 14.271 35.811C14.494 35.935 14.7449 36.0001 15 36.0001C15.2551 36.0001 15.506 35.935 15.729 35.811C16.311 35.487 30 27.7365 30 15C30 11.0218 28.4197 7.20645 25.6066 4.3934C22.7936 1.58035 18.9783 0 15 0C11.0218 0 7.20645 1.58035 4.3934 4.3934C1.58035 7.20645 0 11.0218 0 15ZM15 3C18.1815 3.00357 21.2317 4.269 23.4813 6.51867C25.731 8.76833 26.9964 11.8185 27 15C27 24.411 17.7 31.02 15 32.745C12.3 31.02 3 24.411 3 15C3.00357 11.8185 4.269 8.76833 6.51867 6.51867C8.76833 4.269 11.8185 3.00357 15 3Z" fill="white"/>
<path d="M15 22.5C16.4834 22.5 17.9334 22.0601 19.1668 21.236C20.4001 20.4119 21.3614 19.2406 21.9291 17.8701C22.4968 16.4997 22.6453 14.9917 22.3559 13.5368C22.0665 12.082 21.3522 10.7456 20.3033 9.6967C19.2544 8.64781 17.918 7.9335 16.4632 7.64411C15.0083 7.35472 13.5003 7.50325 12.1299 8.07091C10.7594 8.63856 9.58809 9.59986 8.76398 10.8332C7.93987 12.0666 7.5 13.5166 7.5 15C7.50238 16.9884 8.29332 18.8947 9.69933 20.3007C11.1053 21.7067 13.0116 22.4976 15 22.5ZM15 10.5C15.89 10.5 16.76 10.7639 17.5001 11.2584C18.2401 11.7529 18.8169 12.4557 19.1575 13.2779C19.4981 14.1002 19.5872 15.005 19.4135 15.8779C19.2399 16.7508 18.8113 17.5527 18.182 18.182C17.5526 18.8113 16.7508 19.2399 15.8779 19.4135C15.005 19.5872 14.1002 19.4981 13.2779 19.1575C12.4557 18.8169 11.7529 18.2401 11.2584 17.5001C10.7639 16.7601 10.5 15.89 10.5 15C10.5 13.8065 10.9741 12.6619 11.818 11.818C12.6619 10.9741 13.8065 10.5 15 10.5Z" fill="white"/>
</svg>
