<svg width="354" height="414" viewBox="0 0 354 414" fill="none" xmlns="http://www.w3.org/2000/svg">
<g filter="url(#filter0_d_642_1229)">
<path fill-rule="evenodd" clip-rule="evenodd" d="M112.13 378.926C116.576 378.809 115.846 382.691 121.234 380.066C119.679 388.614 126.98 381.046 126.893 377.807C129.952 374.56 130.404 376.067 134.829 378.926C141.655 375.906 137.706 379.862 141.634 381.185C138.596 378.487 148.453 382.326 150.738 381.185C151.286 377.99 153.994 376.893 157.28 376.111C181.738 321.913 216.375 273.471 268.125 234.943C288.385 219.866 306.748 203.019 324 185.177C320.598 186.961 316.473 189.974 318.685 186.844C303.192 191.349 315.078 162.576 298.242 157.296C284.917 166.853 280.88 152.09 268.738 151.607C261.736 146.811 262.145 137.97 251.719 137.941C242.089 129.949 247.974 114.754 238.095 109.541C227.239 116.37 221.12 101.819 212.016 97.0665C200.152 97.3371 195.589 94.0027 189.317 84.5409C174.832 76.2929 159.317 68.4543 141.634 68.6371C117.971 55.1828 130.704 52.258 104.194 48.1632C96.1624 36.0105 82.0348 36.5151 69.0316 30C65.7461 34.9576 67.6152 39.1182 63.3513 40.215C61.7305 46.9787 68.2795 49.1504 72.4339 52.7333C59.197 56.4405 60.4966 77.5505 73.5509 81.1627C77.7929 83.3563 72.1783 93.4763 70.1705 98.1853C75.8289 112.122 87.1236 106.572 98.5352 114.089C100.791 125.145 106.45 138.175 108.728 147.037C111.312 160.726 118.723 174.114 100.813 176.586C87.0068 184.877 102.843 192.372 99.6742 207.274C95.6805 234.029 112.174 234.073 65.6074 245.955C66.4105 226.264 46.4858 243.491 39.5279 234.556C29.5838 234.439 37.2061 247.74 30.4234 250.46C29.6276 256.902 29.927 263.804 31.5478 272.074C33.9645 274.129 41.2655 274.772 38.367 280.03C42.8864 285.697 47.1064 288.687 50.8665 287.978C53.1736 292.482 52.2829 294.127 55.4077 297.096C59.2408 297.374 53.9475 303.129 54.2907 303.926C56.868 307.655 60.2484 308.774 57.6711 313C62.7818 318.784 80.5308 318.301 71.2876 325.474C73.8211 330.754 68.3891 336.421 70.1705 342.548C75.5076 344.647 67.1114 342.614 71.2876 345.948C72.1564 343.279 75.6682 352.076 73.5509 352.763C75.9676 356.441 77.6103 353.648 78.1141 357.333C79.5013 362.291 85.4809 350.292 86.0504 360.711C87.9487 362.269 88.3356 361.538 89.4308 359.593C91.205 359.658 94.8117 361.077 90.5698 360.711C87.6274 362.269 96.5932 361.143 95.111 364.141C86.6418 367.226 105.128 370.012 100.813 375.496C104.763 377.39 109.071 375.401 112.13 378.926Z" fill="white"/>
</g>
<defs>
<filter id="filter0_d_642_1229" x="0" y="0" width="354" height="414" filterUnits="userSpaceOnUse" color-interpolation-filters="sRGB">
<feFlood flood-opacity="0" result="BackgroundImageFix"/>
<feColorMatrix in="SourceAlpha" type="matrix" values="0 0 0 0 0 0 0 0 0 0 0 0 0 0 0 0 0 0 127 0" result="hardAlpha"/>
<feOffset/>
<feGaussianBlur stdDeviation="15"/>
<feComposite in2="hardAlpha" operator="out"/>
<feColorMatrix type="matrix" values="0 0 0 0 0 0 0 0 0 0 0 0 0 0 0 0 0 0 0.1 0"/>
<feBlend mode="normal" in2="BackgroundImageFix" result="effect1_dropShadow_642_1229"/>
<feBlend mode="normal" in="SourceGraphic" in2="effect1_dropShadow_642_1229" result="shape"/>
</filter>
</defs>
</svg>
