<?xml version="1.0" encoding="UTF-8" standalone="no"?><!DOCTYPE svg PUBLIC "-//W3C//DTD SVG 1.1//EN" "http://www.w3.org/Graphics/SVG/1.1/DTD/svg11.dtd"><svg width="100%" height="100%" viewBox="0 0 609 1180" version="1.1" xmlns="http://www.w3.org/2000/svg" xmlns:xlink="http://www.w3.org/1999/xlink" xml:space="preserve" xmlns:serif="http://www.serif.com/" style="fill-rule:evenodd;clip-rule:evenodd;stroke-linejoin:round;stroke-miterlimit:2;"><path d="M608.333,1178.77c-7.212,0.262 -14.454,0.396 -21.729,0.396c-323.933,-0 -586.604,-263.95 -586.604,-589.584c-0,-325.638 262.671,-589.583 586.604,-589.583c7.275,-0 14.517,0.131 21.729,0.394l0,124.9c-7.2,-0.335 -14.441,-0.502 -21.729,-0.502c-255.403,-0 -462.442,208.048 -462.442,464.791c-0,256.755 207.039,464.792 462.442,464.792c7.288,0 14.529,-0.175 21.729,-0.508l0,124.904Z" style="fill:url(#_Linear1);"/><defs><linearGradient id="_Linear1" x1="0" y1="0" x2="1" y2="0" gradientUnits="userSpaceOnUse" gradientTransform="matrix(-683.701,-552.579,552.579,-683.701,467.767,1086.41)"><stop offset="0" style="stop-color:#00b0b9;stop-opacity:1"/><stop offset="1" style="stop-color:#00778b;stop-opacity:1"/></linearGradient></defs></svg>