<svg width="113" height="217" viewBox="0 0 113 217" fill="none" xmlns="http://www.w3.org/2000/svg">
<path fill-rule="evenodd" clip-rule="evenodd" d="M-6.34582e-09 216.927C1.33978 216.976 2.68509 217 4.03591 217C64.2079 217 113 168.426 113 108.5C113 48.5733 64.2079 9.64556e-06 4.03589 1.4906e-05C2.68507 1.50241e-05 1.33976 0.0242003 -1.89644e-05 0.0726013L-1.6955e-05 23.0576C1.33756 22.996 2.68286 22.9652 4.0359 22.9652C51.4783 22.9652 89.9365 61.252 89.9366 108.5C89.9366 155.75 51.4783 194.035 4.03591 194.035C2.68287 194.035 1.33757 194.003 -2.01586e-06 193.941L-6.34582e-09 216.927Z" fill="white"/>
</svg>
