<svg width="113" height="217" viewBox="0 0 113 217" fill="none" xmlns="http://www.w3.org/2000/svg">
<path fill-rule="evenodd" clip-rule="evenodd" d="M113 216.927C111.66 216.976 110.315 217 108.964 217C48.7921 217 -1.10123e-05 168.426 -5.77342e-06 108.5C-5.34461e-07 48.5733 48.7921 9.64556e-06 108.964 1.4906e-05C110.315 1.50241e-05 111.66 0.0242003 113 0.0726013L113 23.0576C111.662 22.996 110.317 22.9652 108.964 22.9652C61.5217 22.9652 23.0635 61.252 23.0634 108.5C23.0634 155.75 61.5217 194.035 108.964 194.035C110.317 194.035 111.662 194.003 113 193.941L113 216.927Z" fill="white"/>
</svg>
