<svg width="85" height="22" viewBox="0 0 85 22" fill="none" xmlns="http://www.w3.org/2000/svg">
<path d="M5.99945 8.96025V4.54243L4.17203 7.89462H3.59426L1.75984 4.54243V8.96025H0.782104V2.75977H1.83116L3.88493 6.55164L5.9392 2.75977H6.99004V8.96025H5.99945Z" fill="#222221"/>
<path d="M11.1174 2.76025H10.1396V8.96073H11.1174V2.76025Z" fill="#222221"/>
<path d="M15.2389 4.57659V8.95996H14.2611V2.76123H15.0635L18.5832 7.2427V2.76882H19.568V8.95996H18.7113L15.2389 4.57659Z" fill="#222221"/>
<path d="M23.696 2.76025H22.7182V8.96073H23.696V2.76025Z" fill="#222221"/>
<path d="M30.5189 4.2186C30.385 4.07087 30.157 3.9284 29.8354 3.79177C29.5137 3.65513 29.1828 3.5874 28.8413 3.5874C28.4355 3.5874 28.1337 3.66214 27.9331 3.81162C27.7319 3.96168 27.6313 4.1713 27.6313 4.44515C27.6313 4.52923 27.6442 4.60748 27.6659 4.67521C27.6899 4.74236 27.7173 4.80426 27.7535 4.85564C27.7886 4.90877 27.8436 4.95957 27.9144 5.00687C27.984 5.0565 28.0553 5.09621 28.1249 5.13124C28.1945 5.16569 28.291 5.20248 28.4114 5.24043C28.5325 5.27897 28.6453 5.31167 28.7518 5.33736C28.8559 5.3648 28.9945 5.39925 29.1647 5.44304C29.4389 5.50903 29.6711 5.57267 29.8646 5.63632C30.0582 5.70055 30.2447 5.78054 30.4254 5.87922C30.6044 5.9779 30.747 6.08709 30.8569 6.20796C30.9645 6.32824 31.0505 6.47597 31.1143 6.64939C31.1786 6.82281 31.2114 7.01959 31.2114 7.24205C31.2114 7.48846 31.171 7.71327 31.0926 7.91179C31.0137 8.1109 30.9078 8.27848 30.771 8.41395C30.6336 8.55058 30.4692 8.66561 30.2757 8.7567C30.0821 8.85013 29.8734 8.91728 29.6523 8.95757C29.4295 8.99961 29.1904 9.01946 28.9342 9.01946C28.4629 9.01946 28.0044 8.94822 27.5635 8.804C27.1214 8.66036 26.725 8.45365 26.3723 8.18389L26.8203 7.34424C26.9992 7.52875 27.2916 7.70743 27.6992 7.87909C28.1045 8.05076 28.5213 8.13659 28.9506 8.13659C29.3383 8.13659 29.636 8.06886 29.8465 7.93223C30.0547 7.79676 30.1605 7.59999 30.1605 7.34424C30.1605 7.24205 30.1441 7.14921 30.1131 7.06688C30.0821 6.98513 30.0272 6.9104 29.9506 6.84266C29.8734 6.77727 29.795 6.71888 29.7126 6.671C29.6325 6.62195 29.5172 6.5729 29.3675 6.52151C29.2178 6.47072 29.0822 6.42692 28.9582 6.39364C28.8337 6.35919 28.6676 6.3154 28.4553 6.26051C28.1284 6.17643 27.8582 6.08884 27.6442 6.00126C27.4302 5.91192 27.2419 5.80448 27.0793 5.67661C26.915 5.54873 26.7963 5.3975 26.7215 5.22233C26.6484 5.04891 26.6115 4.84104 26.6115 4.60164C26.6115 4.30443 26.6682 4.03467 26.7852 3.79527C26.9004 3.5547 27.0577 3.35559 27.2606 3.20085C27.4636 3.04378 27.7009 2.9235 27.9728 2.84117C28.2471 2.75884 28.5448 2.7168 28.8664 2.7168C29.629 2.7168 30.3283 2.95036 30.9628 3.41748L30.5189 4.2186Z" fill="#222221"/>
<path d="M38.4895 3.62599H36.4264V8.95996H35.4358V3.62599H33.3651V2.76123H38.4895V3.62599Z" fill="#222221"/>
<path d="M43.5889 2.1206L42.9561 1.92908L43.4549 0.969727H44.3741L43.5889 2.1206ZM45.3262 8.09511V8.95987H41.0685V2.76114H45.2496V3.62649H42.0462V5.38696H44.8186V6.20092H42.0462V8.09511H45.3262Z" fill="#222221"/>
<path d="M49.0681 5.93679H50.7843C51.0545 5.93679 51.2791 5.82351 51.4545 5.59754C51.6323 5.37099 51.72 5.09772 51.72 4.77657C51.72 4.46068 51.6194 4.19033 51.4217 3.96436C51.2206 3.73781 50.9908 3.62511 50.7294 3.62511H49.0681V5.93679ZM48.0903 8.96025V2.75977H50.7931C51.0639 2.75977 51.3212 2.81816 51.5644 2.93494C51.8077 3.05172 52.0124 3.20529 52.1767 3.39506C52.3428 3.58658 52.4726 3.80204 52.5696 4.04436C52.6661 4.28551 52.7158 4.53016 52.7158 4.77657C52.7158 5.19757 52.6041 5.57711 52.3813 5.91869C52.1603 6.25794 51.8662 6.48624 51.5025 6.60302L52.9626 8.96025H51.8603L50.5119 6.80155H49.0681V8.96025H48.0903Z" fill="#222221"/>
<path d="M56.5953 2.76025H55.6175V8.96073H56.5953V2.76025Z" fill="#222221"/>
<path d="M62.3308 8.12064C62.6325 8.12064 62.9103 8.05466 63.1641 7.92503C63.4167 7.79365 63.6248 7.62081 63.7874 7.40711C63.95 7.19165 64.0764 6.95108 64.1658 6.68248C64.2553 6.41622 64.2991 6.14237 64.2991 5.86151C64.2991 5.56781 64.2518 5.2852 64.1565 5.01485C64.0617 4.74275 63.9302 4.50218 63.7635 4.29431C63.5974 4.08411 63.3892 3.91828 63.1407 3.79624C62.8904 3.67187 62.6214 3.60998 62.3308 3.60998C62.0296 3.60998 61.7519 3.67363 61.4957 3.80325C61.2419 3.93288 61.0314 4.10454 60.8653 4.31767C60.701 4.52963 60.5729 4.7702 60.4817 5.03879C60.3905 5.30505 60.3443 5.57891 60.3443 5.86151C60.3443 6.2539 60.425 6.62059 60.5823 6.95984C60.7414 7.30142 60.9729 7.58053 61.2799 7.79599C61.5869 8.01261 61.9378 8.12064 62.3308 8.12064ZM59.3502 5.86151C59.3502 5.45103 59.4274 5.05514 59.5789 4.67385C59.7303 4.29023 59.9391 3.95682 60.2005 3.66837C60.4613 3.38167 60.7794 3.15161 61.1524 2.97878C61.5249 2.80536 61.9214 2.71777 62.3401 2.71777C62.7693 2.71777 63.1717 2.80886 63.5483 2.99104C63.9243 3.1738 64.2372 3.41262 64.4892 3.71041C64.7412 4.00586 64.9406 4.34336 65.085 4.7194C65.2312 5.09718 65.3026 5.48023 65.3026 5.86911C65.3026 6.27959 65.2272 6.67372 65.074 7.05501C64.9225 7.4363 64.7155 7.77029 64.4582 8.05641C64.1986 8.3431 63.8822 8.57316 63.5097 8.74483C63.1366 8.91767 62.7401 9.0035 62.322 9.0035C61.9746 9.0035 61.6454 8.94511 61.3314 8.83008C61.0191 8.71564 60.7431 8.55681 60.5051 8.3542C60.2677 8.15334 60.0612 7.91978 59.8858 7.65527C59.7104 7.39076 59.5789 7.10406 59.4876 6.79576C59.3964 6.48921 59.3502 6.17565 59.3502 5.86151Z" fill="#222221"/>
<path d="M74.1783 3.62599H72.952V8.09461H74.1777C74.6058 8.09461 74.973 7.99652 75.2817 7.79916C75.5905 7.60005 75.8226 7.33379 75.9764 6.99804C76.1296 6.66405 76.2063 6.28101 76.2063 5.85242C76.2063 5.18969 76.0256 4.65367 75.6653 4.2426C75.3057 3.83036 74.811 3.62599 74.1783 3.62599ZM71.9742 8.95996V2.76123H74.1777C74.6642 2.76123 75.1028 2.84123 75.4917 3.0018C75.8794 3.16237 76.1975 3.38367 76.4461 3.66628C76.6923 3.94889 76.8823 4.27588 77.0121 4.64783C77.1402 5.01861 77.2062 5.41975 77.2062 5.85242C77.2062 6.79017 76.9302 7.54166 76.38 8.10921C75.8279 8.67677 75.0952 8.95996 74.1777 8.95996H71.9742Z" fill="#222221"/>
<path d="M83.0082 6.55136L82.0083 3.83445L80.9797 6.55136H83.0082ZM81.5481 2.76123H82.4744L84.8866 8.95996H83.8544L83.2001 7.27539H80.8043L80.1558 8.95996H79.1137L81.5481 2.76123Z" fill="#222221"/>
<path d="M53.1789 17.0427C53.1538 17.0281 53.1187 17.0076 53.0766 16.9825C53.0351 16.9568 52.9474 16.9113 52.8158 16.8471C52.686 16.7817 52.5579 16.7233 52.4316 16.6742C52.3077 16.6246 52.1615 16.5791 51.9948 16.537C51.827 16.4967 51.6755 16.4751 51.5345 16.4751C51.2018 16.4751 51.0358 16.5773 51.0358 16.7834C51.0358 16.8272 51.0428 16.8693 51.0591 16.9055C51.0738 16.944 51.103 16.9767 51.1416 17.0076C51.1819 17.0409 51.2223 17.066 51.2603 17.09C51.2989 17.1122 51.3574 17.1373 51.4375 17.1665C51.5165 17.1939 51.5855 17.2178 51.6422 17.2342C51.6989 17.2505 51.7866 17.278 51.9018 17.3124C52.0188 17.3492 52.1141 17.3784 52.1889 17.4C52.4392 17.4771 52.6509 17.5536 52.8264 17.6266C53.0018 17.7013 53.1719 17.7907 53.3363 17.8981C53.5029 18.0044 53.6345 18.1211 53.7345 18.2484C53.8333 18.3781 53.914 18.5316 53.9725 18.7121C54.0292 18.8931 54.0585 19.0974 54.0585 19.3234C54.0585 19.6119 54.0146 19.8688 53.9228 20.0988C53.8316 20.3306 53.7111 20.5187 53.5614 20.6646C53.4111 20.8106 53.2339 20.9326 53.0257 21.0296C52.8176 21.1265 52.6053 21.1936 52.386 21.2339C52.1685 21.2742 51.9404 21.2941 51.6972 21.2941C51.2516 21.2941 50.7814 21.2287 50.2919 21.095C49.8019 20.9636 49.3709 20.7867 48.9979 20.5677L49.7329 19.077C49.7621 19.0974 49.8002 19.1208 49.8516 19.1517C49.9007 19.1809 50.0031 19.2358 50.1586 19.3123C50.3136 19.3911 50.4656 19.46 50.6171 19.5208C50.7668 19.5792 50.9463 19.6335 51.1527 19.6848C51.3591 19.7339 51.5509 19.7596 51.7264 19.7596C52.0573 19.7596 52.2235 19.6685 52.2235 19.4857C52.2235 19.4186 52.2018 19.3579 52.1597 19.3053C52.1159 19.2522 52.0445 19.2031 51.9456 19.1593C51.8451 19.1155 51.7504 19.0787 51.6568 19.0478C51.5638 19.0186 51.434 18.9783 51.2639 18.9293C51.0943 18.8802 50.9551 18.8364 50.844 18.7996C50.2867 18.6116 49.8826 18.3874 49.6376 18.1229C49.3908 17.8601 49.2685 17.5063 49.2685 17.059C49.2685 16.7268 49.3306 16.4261 49.4586 16.1557C49.585 15.886 49.7545 15.6647 49.9703 15.4953C50.1843 15.3237 50.4306 15.194 50.7066 15.1029C50.9826 15.0119 51.2749 14.9663 51.5854 14.9663C52.2492 14.9663 53.0258 15.1888 53.914 15.6355L53.1789 17.0427Z" fill="#222221"/>
<path d="M59.3425 18.8673L58.7905 16.6853L58.2151 18.8673H59.3425ZM57.8384 15.0171H59.7448L61.7219 21.2176H59.991L59.615 20.0025H57.9589L57.5917 21.2176H55.8538L57.8384 15.0171Z" fill="#222221"/>
<path d="M66.9854 14.753L65.9352 14.4757L66.3696 13.2349H67.848L66.9854 14.753ZM66.4614 21.267C66.0737 21.267 65.7229 21.2139 65.4089 21.1065C65.0925 20.9985 64.8294 20.849 64.6136 20.6627C64.3978 20.4753 64.2189 20.2505 64.0727 19.9895C63.9282 19.7267 63.8224 19.4476 63.7569 19.1504C63.6925 18.8549 63.6599 18.5373 63.6599 18.2015V15.0175H65.3668V18.2015C65.3668 18.4147 65.3884 18.612 65.4287 18.7942C65.4708 18.977 65.5328 19.1411 65.617 19.287C65.7013 19.433 65.8141 19.548 65.9585 19.6321C66.103 19.7162 66.269 19.7577 66.4614 19.7577C66.6532 19.7577 66.8229 19.7162 66.969 19.6304C67.1135 19.5445 67.2287 19.4277 67.3129 19.2783C67.3971 19.1282 67.4591 18.9641 67.5012 18.7837C67.541 18.6027 67.5615 18.4094 67.5615 18.2015V15.0175H69.266V18.2015C69.266 18.643 69.2099 19.0465 69.0947 19.4132C68.9813 19.7798 68.8129 20.1027 68.5883 20.3801C68.3655 20.6592 68.0731 20.8764 67.7094 21.0335C67.3474 21.1906 66.931 21.267 66.4614 21.267Z" fill="#222221"/>
<path d="M74.3829 16.5007H73.6993V19.7326H74.3829C74.818 19.7326 75.1612 19.5825 75.4097 19.2818C75.6583 18.9788 75.7829 18.5882 75.7829 18.1082C75.7829 17.623 75.6583 17.2323 75.408 16.9404C75.1577 16.6467 74.8162 16.5007 74.3829 16.5007ZM71.9965 21.2157V15.0176H74.3829C74.8834 15.0176 75.3349 15.0976 75.739 15.2581C76.1408 15.4187 76.4699 15.6394 76.7255 15.9226C76.9798 16.2052 77.1752 16.5334 77.3102 16.9042C77.4459 17.2744 77.5132 17.6761 77.5132 18.1082C77.5132 19.0465 77.2284 19.798 76.6565 20.3656C76.0864 20.9331 75.3279 21.2157 74.3829 21.2157H71.9965Z" fill="#222221"/>
<path d="M84.4292 19.7336V21.2167H80.0048V15.0186H84.3526V16.5017H81.7082V17.3758H83.9685V18.7515H81.7082V19.7336H84.4292Z" fill="#222221"/>
</svg>
