<svg width="36" height="36" viewBox="0 0 36 36" fill="none" xmlns="http://www.w3.org/2000/svg">
<path fill-rule="evenodd" clip-rule="evenodd" d="M21.6429 0C21.9931 8.59701e-05 22.3293 0.141564 22.577 0.393141L32.6123 10.5913C32.8604 10.8431 32.9999 11.1852 33 11.5415V31.5116C32.9976 33.9726 31.0059 35.997 28.5842 36H8.41579C5.99446 35.997 4.0029 33.9732 4 31.5125V4.48747C4.0029 2.02683 5.99446 0.00295164 8.41579 0H21.642L21.6429 0ZM20.3202 2.68657H8.41579C7.444 2.68754 6.64461 3.4999 6.64365 4.48747V31.5125C6.64461 32.5001 7.444 33.3125 8.41579 33.3134H28.5842C29.556 33.3125 30.3554 32.5001 30.3563 31.5125V12.8848H24.736C22.3146 12.8818 20.3231 10.8579 20.3202 8.39731V2.68657ZM28.4871 10.1982L22.9638 4.58579V8.39731C22.9648 9.38487 23.7642 10.1972 24.736 10.1982H28.4871ZM9.05027 19.6442C9.05027 19.3478 9.31463 19.0872 9.72704 19.0872H12.1345C13.674 19.0872 14.8875 19.8224 14.8875 21.814V21.8731C14.8875 23.8648 13.6273 24.6233 12.0173 24.6233H10.8656V27.1836C10.8656 27.5633 10.4109 27.7523 9.95526 27.7523C9.49968 27.7523 9.05027 27.5633 9.05027 27.1836V19.6442ZM10.87 20.6991V23.2003H12.0244C12.6774 23.2003 13.0748 22.8215 13.0748 22.0155V21.8848C13.0748 21.0788 12.6774 20.6991 12.0244 20.6991L10.87 20.6991ZM22.5646 19.6567C22.5646 19.277 22.9612 19.0872 23.3577 19.0872H27.4052C27.7902 19.0872 27.9542 19.5027 27.9542 19.8815C27.9542 20.3203 27.7559 20.6991 27.4052 20.6991H24.3835V22.7033H26.1459C26.4984 22.7033 26.694 23.0463 26.694 23.426C26.694 23.7457 26.531 24.1254 26.1459 24.1254H24.3835V27.1836C24.3835 27.5633 23.9288 27.7523 23.474 27.7523C23.0193 27.7523 22.5638 27.5633 22.5638 27.1836L22.5646 19.6567ZM18.5401 19.0872C20.1501 19.0872 21.4102 19.8457 21.4102 21.8848V24.9556C21.4102 26.9938 20.1501 27.7523 18.5401 27.7523H16.4754C15.9978 27.7523 15.6823 27.4917 15.6823 27.1953V19.6442C15.6823 19.3478 15.9978 19.0872 16.4754 19.0872H18.5401ZM17.502 20.6991V26.1403H18.5401C19.194 26.1403 19.5905 25.7615 19.5905 24.9556V21.8848C19.5905 21.0788 19.1939 20.6991 18.5401 20.6991H17.502Z" fill="white"/>
</svg>
