<svg width="80" height="80" viewBox="0 0 80 80" fill="none" xmlns="http://www.w3.org/2000/svg">
<path opacity="0.9" d="M40 80C17.908 80 0 62.092 0 40C0 17.908 17.908 0 40 0C62.092 0 80 17.908 80 40C80 62.092 62.092 80 40 80ZM34.488 25.66C34.2473 25.4994 33.9675 25.4071 33.6784 25.3929C33.3894 25.3787 33.1019 25.4432 32.8466 25.5794C32.5913 25.7157 32.3777 25.9187 32.2286 26.1667C32.0796 26.4148 32.0005 26.6986 32 26.988V53.012C32.0005 53.3014 32.0796 53.5852 32.2286 53.8333C32.3777 54.0813 32.5913 54.2843 32.8466 54.4206C33.1019 54.5568 33.3894 54.6213 33.6784 54.6071C33.9675 54.5929 34.2473 54.5006 34.488 54.34L54.004 41.332C54.2235 41.1859 54.4034 40.9879 54.5279 40.7555C54.6524 40.5232 54.7176 40.2636 54.7176 40C54.7176 39.7364 54.6524 39.4768 54.5279 39.2445C54.4034 39.0121 54.2235 38.8141 54.004 38.668L34.488 25.66Z" fill="white"/>
</svg>
