<svg width="146" height="37" viewBox="0 0 146 37" fill="none" xmlns="http://www.w3.org/2000/svg">
<path d="M18.7599 6.45209H25.0532L22.0253 0.939453L18.7599 6.45209Z" fill="#5292A9"/>
<path d="M18.3242 18.7236L14.9676 24.4021H21.4311L24.7895 18.7236H18.3242Z" fill="#47356B"/>
<path d="M18.3277 18.4188H24.7988L21.6849 12.7368H15.212L17.1564 16.2823L18.3277 18.4188Z" fill="#C5D98A"/>
<path d="M14.7056 24.2452L18.0628 18.5685L16.9518 16.543L14.9507 12.8936L11.5935 18.5738L14.7056 24.2452Z" fill="#5292A9"/>
<path d="M31.6074 6.75586H25.5678L28.4753 12.0548L31.6074 6.75586Z" fill="#C5D98A"/>
<path d="M21.2773 36.1884L25.0234 30.6519L18.2401 30.6647L21.2773 36.1884Z" fill="#47356B"/>
<path d="M25.5988 30.3473L25.573 30.3852L31.3623 30.373L28.3431 24.8784L25.5783 30.3473H25.5988Z" fill="#C5D98A"/>
<path d="M1.3307 12.7373L4.5996 18.2721L7.87607 12.7373H1.3307Z" fill="#5292A9"/>
<path d="M1.3307 24.4006H7.62405L4.59432 18.8774L1.3307 24.4006Z" fill="#47356B"/>
<path d="M31.5611 6.75488L28.4291 12.0538L25.5216 6.75488H31.5611Z" fill="#C5D98A"/>
<path d="M21.9779 0.939941L25.0076 6.45024H18.7125L21.9779 0.939941Z" fill="#5292A9"/>
<path d="M4.64054 6.75509H11.6993L15.2501 0.797513L21.7159 0.784668L18.178 6.75509H24.9193L24.9573 6.82457L22.1942 11.4976L22.0136 11.8006L21.6405 12.4336H14.8226L14.7331 12.5813L11.2847 18.4186H4.81946L8.18366 12.7366L8.36262 12.4336H1.28334L4.64054 6.75509Z" fill="#86CAE1"/>
<path d="M18.2774 18.7236H24.7427L23.0638 21.5608L21.3861 24.4003H14.9208L18.2774 18.7236Z" fill="#47356B"/>
<path d="M11.5467 18.5738L11.6379 18.4185L14.9038 12.8936L16.9067 16.543L18.0154 18.5679L11.5467 18.5738Z" fill="#5292A9"/>
<path d="M18.281 18.4188L17.1097 16.2823L15.1653 12.7368H21.6381L24.7521 18.4188H18.281Z" fill="#C5D98A"/>
<path d="M1.28334 12.7373H7.8287L4.55224 18.2715L1.28334 12.7373Z" fill="#5292A9"/>
<path d="M4.54815 18.8779L7.57785 24.3993H1.28218L4.54815 18.8779Z" fill="#47356B"/>
<path d="M14.4887 36.3402L14.4027 36.1849L11.2069 30.3715L4.3885 30.3844L1.27282 24.7059H8.09305L8.00882 24.5541L7.84043 24.2441L4.8107 18.7227H11.2818L11.3678 18.8774L14.4776 24.5506L14.5636 24.7059H21.389L22.2843 26.1201L24.9655 30.3476L24.0351 30.3493L17.8476 30.3587V30.3604H17.6775L17.7599 30.5082L17.9301 30.8182L20.9598 36.3274L14.4887 36.3402Z" fill="#796EA9"/>
<path d="M21.2305 36.1878L18.1932 30.6647L24.9766 30.6519L21.2305 36.1878Z" fill="#47356B"/>
<path d="M25.5263 30.3845H25.5117L25.5316 30.346L28.2964 24.8789L31.3173 30.3717L25.5263 30.3845Z" fill="#C5D98A"/>
<path d="M31.5781 30.2168L28.3823 24.3999L28.287 24.2265L28.1975 24.3999L28.0437 24.7041L25.2608 30.2074L21.7504 24.7041L21.6498 24.5494L21.7393 24.3999L23.417 21.5604L25.0965 18.7232L25.1842 18.5732L25.0982 18.4184L21.9036 12.5881L22.2071 12.0737L22.4322 11.6942L25.1275 7.13447L25.259 6.912L28.4186 12.6687L28.5577 12.4334L31.8231 6.90967L34.8528 12.4334L34.9353 12.5811L34.844 12.7364L31.5307 18.3437L34.9353 24.5494L31.5781 30.2168Z" fill="#97C155"/>
<path d="M31.5864 29.909L28.3865 24.0898L28.2912 23.9146L28.2034 24.0898L28.0502 24.3928L25.2632 29.8996L21.7493 24.3928L21.6505 24.2375L21.7399 24.0898L23.4194 21.2491L25.0989 18.4043L25.1866 18.2566L25.1024 18.0995L21.9025 12.2657L22.2077 11.7513L22.4329 11.37L25.1299 6.80796L25.2632 6.58374L28.4245 12.3445L28.5637 12.1092L31.8308 6.58374L34.8646 12.1092L34.9471 12.2587L34.8535 12.4134L31.5384 18.0265L34.9447 24.2375L31.5864 29.909ZM25.576 30.0765H25.5152L25.5339 30.0386L28.3023 24.5645L28.3262 24.61L28.3496 24.5662L31.3706 30.0643L25.576 30.0765ZM21.278 35.8846L21.2557 35.8467L21.23 35.8846L18.1892 30.3562L24.9802 30.3451H25.0275L21.278 35.8846ZM14.4835 36.0364L14.3975 35.8829L11.1994 30.0643L4.3739 30.0765L1.25823 24.3928H8.08195L7.99776 24.2416L7.82819 23.9333L4.79614 18.4043H11.2725L11.3585 18.5614L14.4724 24.2375L14.5583 24.3928H21.3891L22.2861 25.8088L24.9673 30.0386L24.0369 30.0421L17.8442 30.0514H17.6758L17.7564 30.2027L17.9261 30.511L20.9599 36.0253L14.4835 36.0364ZM4.53473 18.5614H4.58034L7.61414 24.0898H1.26761L4.53473 18.5614ZM1.26761 12.4134H7.86445L4.5862 17.9535H4.53883L1.26761 12.4134ZM18.3249 18.103V18.0995H18.2769L17.1056 15.963L15.1612 12.4134H21.685L24.8012 18.103H18.3249ZM14.701 23.9333L14.677 23.893L14.6531 23.9333L11.5374 18.2566L11.6292 18.0995L14.8998 12.5705L14.9203 12.6108L14.9454 12.5705L16.9483 16.2257L18.0594 18.2507L14.701 23.9333ZM14.9145 24.0898L18.2752 18.4043H24.7919L23.1106 21.2491L21.4329 24.0898H14.9624H14.9642H14.9145ZM4.62828 6.43076H11.6912L15.2454 0.465592L21.7166 0.454498L18.1763 6.43076H24.9217L24.9597 6.4979L22.1931 11.1767L22.0142 11.4792L21.6394 12.1092H14.8162L14.7285 12.2587L11.276 18.0995H4.80724L8.17318 12.4134L8.35214 12.1092H1.26761L4.62828 6.43076ZM21.9774 0.608065L22.0013 0.650105L22.0253 0.608065L25.0585 6.12421H18.7102L21.9774 0.608065ZM25.5246 6.43076H31.6156L28.4812 11.7297L28.4578 11.6894L28.4338 11.7297L25.5246 6.43076ZM31.8875 18.03L35.2079 12.4134L35.2956 12.2657L35.1973 12.0853L31.9261 6.12421H25.3585L25.3275 6.06757L25.2726 5.97064L22.1586 0.303267L22.0727 0.147949H21.8972L15.0718 0.160795L11.5175 6.12421H4.45285L0.91498 12.1092L0.823181 12.2605L0.91498 12.4134L4.36341 18.2566L4.27157 18.4043L0.91498 24.0898L0.825501 24.2375L0.909127 24.3928L4.19498 30.3813L11.0187 30.3685L14.2168 36.1859L14.3046 36.3412L21.2979 36.3284L21.3949 36.1859L25.2503 30.4876L25.3234 30.3813H25.362L31.491 30.3685L31.6682 30.3667L31.7559 30.2173L35.2956 24.2416L31.8875 18.03Z" fill="white"/>
<path d="M42.5882 28.7995C42.7268 28.7557 42.8473 28.6973 42.9461 28.6168C43.0467 28.5385 43.1251 28.4433 43.1818 28.3324C43.2368 28.2191 43.266 28.0953 43.266 27.9599V27.9494C43.266 27.8011 43.2368 27.6738 43.1835 27.564C43.1292 27.4548 43.0543 27.3614 42.9555 27.2884C42.8567 27.2154 42.7397 27.1588 42.6029 27.1208C42.4672 27.0823 42.3158 27.0624 42.1514 27.0624H41.1135V28.8614H42.1204C42.2918 28.8614 42.4473 28.8398 42.5882 28.7995ZM42.1731 26.8125C42.376 26.8125 42.5608 26.8376 42.7268 26.889C42.8935 26.938 43.0356 27.011 43.1567 27.108C43.2789 27.2049 43.3718 27.3217 43.4379 27.4583C43.5052 27.5967 43.5385 27.7555 43.5385 27.9324V27.9435C43.5385 28.1368 43.4999 28.3067 43.4233 28.4527C43.3467 28.6004 43.2403 28.723 43.1104 28.8194C42.9789 28.9181 42.8257 28.991 42.6537 29.0401C42.4801 29.088 42.2976 29.1131 42.104 29.1131H41.1135V30.4818H40.8392V26.8125H42.1731Z" fill="#232B34"/>
<path d="M44.5449 27.8082V28.5696C44.5975 28.4487 44.6636 28.3395 44.7455 28.2374C44.8244 28.1369 44.9157 28.0511 45.018 27.9781C45.1186 27.9069 45.2302 27.852 45.3507 27.8158C45.4729 27.779 45.5992 27.7626 45.7308 27.7667V28.0493H45.7051C45.5519 28.0493 45.4057 28.0785 45.2648 28.1369C45.1238 28.1936 45.0016 28.2794 44.894 28.3921C44.7876 28.5054 44.7016 28.6461 44.6397 28.8119C44.5759 28.9783 44.5449 29.1698 44.5449 29.3847V30.4819H44.287V27.8082H44.5449Z" fill="#232B34"/>
<path d="M48.0225 30.2112C48.1576 30.1511 48.2728 30.0694 48.3681 29.9654C48.4646 29.8632 48.5401 29.7406 48.5945 29.6005C48.6494 29.4615 48.6769 29.3138 48.6769 29.155V29.1439C48.6769 28.985 48.6476 28.8321 48.5927 28.6913C48.5359 28.5512 48.4576 28.4268 48.3588 28.3229C48.2582 28.2172 48.1412 28.1349 48.0079 28.0765C47.8728 28.0163 47.7284 27.9872 47.5729 27.9872C47.4161 27.9872 47.2699 28.0163 47.1366 28.0782C47.0009 28.1384 46.8857 28.2225 46.7892 28.3247C46.6922 28.4268 46.6173 28.5495 46.5623 28.6896C46.508 28.8286 46.4822 28.978 46.4822 29.1351V29.1439C46.4822 29.3062 46.5097 29.4563 46.5665 29.5981C46.6226 29.7406 46.6998 29.8632 46.8003 29.9689C46.8986 30.0729 47.0156 30.1552 47.1512 30.2153C47.2863 30.2755 47.4307 30.3047 47.584 30.3047C47.7413 30.3047 47.8874 30.2737 48.0225 30.2112ZM47.0249 30.4325C46.8588 30.3572 46.7144 30.2574 46.5916 30.1313C46.4694 30.0051 46.374 29.8591 46.3068 29.6916C46.2372 29.5234 46.2027 29.3447 46.2027 29.155V29.1439C46.2027 28.9559 46.2372 28.7772 46.3068 28.6113C46.374 28.4432 46.4694 28.2937 46.5957 28.1641C46.7179 28.0344 46.8658 27.9323 47.0319 27.8593C47.2003 27.7828 47.3851 27.7466 47.584 27.7466C47.7834 27.7466 47.9658 27.7828 48.1342 27.8593C48.2985 27.9323 48.443 28.0327 48.5652 28.1606C48.688 28.2844 48.7845 28.4327 48.8523 28.6003C48.9219 28.7684 48.9547 28.9453 48.9547 29.1351V29.1439C48.9547 29.3336 48.9219 29.5129 48.8523 29.6787C48.7845 29.8486 48.688 29.9964 48.5634 30.126C48.4395 30.255 48.2933 30.3572 48.1249 30.4325C47.957 30.5073 47.774 30.5435 47.5729 30.5435C47.374 30.5435 47.191 30.5073 47.0249 30.4325Z" fill="#232B34"/>
<path d="M51.2949 29.9626C51.4288 29.9135 51.5476 29.8441 51.6499 29.7547C51.7522 29.6671 51.8358 29.5615 51.8984 29.4353C51.9622 29.3115 51.9931 29.1726 51.9931 29.0196V29.0085C51.9931 28.8555 51.9622 28.7148 51.8984 28.5887C51.8358 28.4631 51.7522 28.3569 51.6499 28.2658C51.5476 28.1782 51.4288 28.1087 51.2949 28.0614C51.1616 28.0159 51.0265 27.9919 50.8856 27.9919C50.7452 27.9919 50.6137 28.0159 50.4874 28.0614C50.3616 28.1087 50.25 28.1764 50.157 28.264C50.0617 28.3516 49.9868 28.4573 49.9318 28.5817C49.8792 28.7054 49.8517 28.8462 49.8517 29.0032V29.0138C49.8517 29.1638 49.8792 29.3022 49.9353 29.4283C49.9921 29.5539 50.0669 29.6619 50.1605 29.7512C50.2552 29.8406 50.3651 29.91 50.4932 29.9608C50.6172 30.0122 50.7488 30.0356 50.8856 30.0356C51.0265 30.0356 51.1616 30.0122 51.2949 29.9626ZM49.6944 30.9225L49.8459 30.7129C50.1716 30.9646 50.533 31.0907 50.9277 31.0907C51.0815 31.0907 51.2218 31.0685 51.3499 31.0247C51.478 30.9809 51.5873 30.9155 51.6826 30.8279C51.7738 30.7404 51.847 30.6323 51.8984 30.5027C51.951 30.3737 51.9785 30.2236 51.9785 30.0525V29.6636C51.9183 29.7477 51.8528 29.826 51.7774 29.9007C51.7043 29.9737 51.6224 30.0397 51.5312 30.0981C51.4411 30.1547 51.3388 30.2002 51.2259 30.2329C51.1143 30.2656 50.9938 30.282 50.8605 30.282C50.6996 30.282 50.5406 30.2528 50.3868 30.1944C50.2335 30.1343 50.0962 30.0484 49.9757 29.9392C49.8535 29.8295 49.7564 29.6981 49.6833 29.5434C49.6102 29.3898 49.574 29.2164 49.574 29.0248V29.0138C49.574 28.8222 49.6102 28.6453 49.6833 28.4906C49.7564 28.3335 49.8535 28.1986 49.9757 28.0888C50.0962 27.9797 50.2335 27.8938 50.3868 27.8337C50.5406 27.7753 50.6996 27.7461 50.8605 27.7461C50.9938 27.7461 51.116 27.7624 51.2294 27.7951C51.3429 27.8278 51.4452 27.8716 51.5364 27.9265C51.6277 27.9814 51.7101 28.0433 51.7832 28.118C51.8581 28.191 51.9218 28.2658 51.9785 28.3423V27.808H52.2364V30.0671C52.2364 30.2639 52.2054 30.4373 52.1469 30.5868C52.0867 30.7363 52.0025 30.8659 51.8943 30.9757C51.7774 31.0907 51.6388 31.1783 51.4704 31.2402C51.306 31.3021 51.1218 31.3313 50.9224 31.3313C50.471 31.3313 50.0616 31.1946 49.6944 30.9225Z" fill="#232B34"/>
<path d="M53.468 27.8082V28.5696C53.5189 28.4487 53.5867 28.3395 53.6668 28.2374C53.7475 28.1369 53.8387 28.0511 53.9393 27.9781C54.0416 27.9069 54.1533 27.852 54.2738 27.8158C54.3943 27.779 54.5206 27.7626 54.6557 27.7667V28.0493H54.6282C54.475 28.0493 54.3264 28.0785 54.1861 28.1369C54.0469 28.1936 53.9229 28.2794 53.8171 28.3921C53.7106 28.5054 53.6247 28.6461 53.561 28.8119C53.499 28.9783 53.468 29.1698 53.468 29.3847V30.4819H53.2101V27.8082H53.468Z" fill="#232B34"/>
<path d="M56.5275 30.2434C56.6503 30.2031 56.7579 30.1483 56.8509 30.0753C56.9427 30.004 57.0175 29.9164 57.0719 29.816C57.1251 29.7138 57.1526 29.6029 57.1526 29.4803V29.1778C57.0409 29.1486 56.9093 29.1212 56.7596 29.0937C56.6082 29.068 56.4363 29.0569 56.2445 29.0569C55.9609 29.0569 55.7439 29.1118 55.5901 29.2269C55.4386 29.3401 55.3638 29.4914 55.3638 29.6794V29.6905C55.3638 29.7891 55.3837 29.8744 55.4258 29.9497C55.4679 30.0262 55.5246 30.0881 55.5954 30.1412C55.6685 30.1938 55.7509 30.2341 55.8462 30.2615C55.9392 30.289 56.038 30.3036 56.1386 30.3036C56.2772 30.3036 56.4053 30.2831 56.5275 30.2434ZM55.7509 30.4933C55.6287 30.4566 55.5188 30.4058 55.42 30.3345C55.3217 30.265 55.2427 30.1774 55.1807 30.0735C55.1205 29.9678 55.0896 29.8452 55.0896 29.7068V29.6957C55.0896 29.5556 55.1188 29.4312 55.1755 29.3238C55.234 29.214 55.3141 29.1247 55.4147 29.0499C55.5153 28.9769 55.6392 28.9203 55.7819 28.8841C55.9263 28.8438 56.0854 28.8257 56.2608 28.8257C56.4491 28.8257 56.6117 28.8362 56.7485 28.8567C56.8842 28.8765 57.0175 28.9057 57.1474 28.9402V28.8257C57.1474 28.5519 57.0702 28.3475 56.9152 28.2126C56.7579 28.0754 56.5421 28.0082 56.2643 28.0082C56.1 28.0082 55.9503 28.0281 55.8147 28.0684C55.6778 28.1081 55.548 28.1595 55.4258 28.2231L55.3305 27.9971C55.4767 27.9259 55.6269 27.871 55.7784 27.829C55.9281 27.7869 56.0965 27.7671 56.2807 27.7671C56.648 27.7671 56.9298 27.864 57.1269 28.0608C57.3082 28.2418 57.3994 28.4935 57.3994 28.8146V30.4822H57.1474V30.0373C57.1012 30.0992 57.0468 30.1611 56.9807 30.2212C56.9169 30.2831 56.8421 30.338 56.7596 30.3836C56.6754 30.4332 56.579 30.4694 56.4725 30.5003C56.3649 30.5295 56.2497 30.5441 56.124 30.5441C55.9977 30.5441 55.8731 30.5278 55.7509 30.4933Z" fill="#232B34"/>
<path d="M58.5801 27.8088V28.2852C58.6204 28.2157 58.6695 28.1486 58.7245 28.0844C58.7771 28.019 58.8415 27.9606 58.9105 27.9109C58.9801 27.8601 59.0625 27.8199 59.1555 27.7907C59.2473 27.7597 59.3531 27.7451 59.4718 27.7451C59.5888 27.7451 59.6929 27.7615 59.7899 27.7924C59.8864 27.8234 59.9706 27.8654 60.0455 27.9185C60.1186 27.9711 60.1829 28.0318 60.2356 28.1025C60.2905 28.172 60.3361 28.2449 60.3765 28.3214C60.4162 28.2484 60.4677 28.1778 60.5279 28.1083C60.5864 28.0371 60.656 27.9752 60.7343 27.922C60.8133 27.8672 60.9028 27.8234 61.0016 27.7924C61.1034 27.7615 61.215 27.7451 61.3414 27.7451C61.4987 27.7451 61.6408 27.7743 61.7688 27.8274C61.8969 27.88 62.0062 27.9565 62.094 28.0517C62.1834 28.1486 62.253 28.2671 62.3004 28.4038C62.346 28.5427 62.37 28.694 62.37 28.8615V30.4819H62.1121V28.8948C62.1121 28.6029 62.0431 28.3798 61.9039 28.2192C61.7636 28.061 61.5676 27.9822 61.3209 27.9822C61.2098 27.9822 61.1016 28.0026 60.9975 28.0441C60.8952 28.0861 60.804 28.1463 60.7274 28.2286C60.6502 28.3092 60.5882 28.4073 60.5425 28.524C60.4987 28.6408 60.4753 28.774 60.4753 28.9258V30.4819H60.2174V28.8785C60.2174 28.5988 60.1478 28.3798 60.0069 28.2192C59.8666 28.061 59.6765 27.9822 59.435 27.9822C59.3163 27.9822 59.2052 28.0061 59.0987 28.0534C58.9946 28.1025 58.9034 28.172 58.8268 28.2595C58.7479 28.3471 58.6894 28.4493 58.6456 28.5643C58.6017 28.6794 58.5801 28.8055 58.5801 28.9421V30.4819H58.3222V27.8088H58.5801Z" fill="#232B34"/>
<path d="M64.5324 30.2434C64.6546 30.2031 64.7628 30.1483 64.8541 30.0753C64.947 30.004 65.0201 29.9164 65.0751 29.816C65.1301 29.7138 65.1575 29.6029 65.1575 29.4803V29.1778C65.0459 29.1486 64.9143 29.1212 64.7628 29.0937C64.6125 29.068 64.4412 29.0569 64.2494 29.0569C63.9658 29.0569 63.7465 29.1118 63.595 29.2269C63.4412 29.3401 63.3664 29.4914 63.3664 29.6794V29.6905C63.3664 29.7891 63.3886 29.8744 63.4284 29.9497C63.4705 30.0262 63.5272 30.0881 63.6003 30.1412C63.6716 30.1938 63.7559 30.2341 63.8488 30.2615C63.9442 30.289 64.0424 30.3036 64.143 30.3036C64.2804 30.3036 64.4102 30.2831 64.5324 30.2434ZM63.7558 30.4933C63.633 30.4566 63.5219 30.4058 63.4249 30.3345C63.326 30.265 63.2459 30.1774 63.1857 30.0735C63.1237 29.9678 63.0945 29.8452 63.0945 29.7068V29.6957C63.0945 29.5556 63.1214 29.4312 63.1798 29.3238C63.2383 29.214 63.3173 29.1247 63.4179 29.0499C63.5202 28.9769 63.6424 28.9203 63.7868 28.8841C63.9295 28.8438 64.0903 28.8257 64.264 28.8257C64.4517 28.8257 64.6166 28.8362 64.7517 28.8567C64.8885 28.8765 65.0219 28.9057 65.1517 28.9402V28.8257C65.1517 28.5519 65.0733 28.3475 64.916 28.2126C64.7628 28.0754 64.5453 28.0082 64.2693 28.0082C64.105 28.0082 63.9529 28.0281 63.8178 28.0684C63.681 28.1081 63.5529 28.1595 63.4284 28.2231L63.3354 27.9971C63.4833 27.9259 63.6313 27.871 63.7816 27.829C63.9313 27.7869 64.0991 27.7671 64.2856 27.7671C64.6529 27.7671 64.9342 27.864 65.1318 28.0608C65.3125 28.2418 65.4043 28.4935 65.4043 28.8146V30.4822H65.1517V30.0373C65.1061 30.0992 65.0511 30.1611 64.9856 30.2212C64.9219 30.2831 64.8465 30.338 64.7628 30.3836C64.6786 30.4332 64.5833 30.4694 64.4757 30.5003C64.3699 30.5295 64.2547 30.5441 64.1283 30.5441C64.0026 30.5441 63.878 30.5278 63.7558 30.4933Z" fill="#232B34"/>
<path d="M69.4632 30.2144C69.593 30.1595 69.7118 30.0789 69.8124 29.979C69.9129 29.8769 69.9954 29.756 70.0573 29.6159C70.1176 29.4769 70.1486 29.3222 70.1486 29.1505V29.1394C70.1486 28.9677 70.1176 28.813 70.0573 28.6705C69.9954 28.5298 69.9129 28.4078 69.8124 28.3091C69.7118 28.2086 69.593 28.1304 69.4632 28.0755C69.3316 28.0189 69.1966 27.9914 69.0557 27.9914C68.9095 27.9914 68.7726 28.0171 68.6446 28.0703C68.5165 28.1228 68.4054 28.1981 68.3101 28.2945C68.2153 28.3932 68.1422 28.5134 68.0873 28.6542C68.0323 28.7966 68.0048 28.9549 68.0048 29.1341V29.1446C68.0048 29.3198 68.034 29.4786 68.0908 29.6211C68.1457 29.7653 68.2223 29.8856 68.3177 29.9861C68.4141 30.0865 68.5276 30.163 68.6557 30.2179C68.782 30.271 68.9171 30.2979 69.0557 30.2979C69.1966 30.2979 69.3316 30.271 69.4632 30.2144ZM68.5551 30.4497C68.3995 30.3878 68.2592 30.2979 68.1387 30.1776C68.0159 30.059 67.9171 29.9131 67.8405 29.7396C67.7656 29.5662 67.7288 29.3712 67.7288 29.1557V29.1446C67.7288 28.928 67.7656 28.7342 67.8405 28.559C67.9171 28.3856 68.0159 28.2396 68.1387 28.1193C68.2592 27.999 68.3995 27.9079 68.5551 27.842C68.7106 27.7783 68.8697 27.7456 69.0305 27.7456C69.1638 27.7456 69.286 27.762 69.3977 27.7964C69.5088 27.8309 69.6094 27.8787 69.6989 27.9389C69.7884 27.9973 69.8691 28.0668 69.9422 28.1432C70.0135 28.2197 70.0773 28.3003 70.1322 28.3838V26.6543H70.3895V30.4806H70.1322V29.8839C70.072 29.9715 70.0077 30.0555 69.9346 30.1355C69.8632 30.2161 69.7831 30.2856 69.6936 30.3457C69.6042 30.4041 69.5053 30.4532 69.3954 30.49C69.2843 30.5262 69.1638 30.5443 69.0299 30.5443C68.8691 30.5443 68.7106 30.5133 68.5551 30.4497Z" fill="#232B34"/>
<path d="M73.321 28.6286C73.2772 28.5042 73.2169 28.395 73.1386 28.2981C73.0596 28.2017 72.9608 28.1247 72.8462 28.068C72.731 28.0096 72.5953 27.9804 72.4421 27.9804C72.3087 27.9804 72.1842 28.0061 72.069 28.061C71.9544 28.1118 71.8538 28.1848 71.7679 28.2782C71.6819 28.3693 71.6105 28.4808 71.5538 28.6081C71.4988 28.7343 71.4643 28.8709 71.455 29.0192H73.4035C73.3923 28.882 73.3649 28.7524 73.321 28.6286ZM71.9924 30.4457C71.8333 30.3785 71.693 30.2833 71.5719 30.1613C71.4515 30.0387 71.3567 29.8927 71.2854 29.7216C71.2158 29.55 71.1813 29.3602 71.1813 29.1506V29.1395C71.1813 28.948 71.2141 28.7652 71.2778 28.5959C71.3439 28.4277 71.4334 28.28 71.5468 28.1539C71.662 28.0283 71.7953 27.9296 71.9485 27.8549C72.1023 27.7819 72.2702 27.7451 72.4532 27.7451C72.6415 27.7451 72.8111 27.7802 72.9608 27.8531C73.1128 27.9244 73.2409 28.0225 73.3467 28.1486C73.4543 28.2747 73.5368 28.4224 73.5953 28.5918C73.652 28.7599 73.6812 28.9462 73.6812 29.1447V29.1996C73.6812 29.2125 73.6795 29.2288 73.6754 29.2487H71.455C71.4643 29.4168 71.5029 29.5663 71.5649 29.6959C71.6286 29.8256 71.7076 29.9348 71.8006 30.0264C71.8959 30.1158 72.0035 30.1847 72.124 30.2325C72.2444 30.2798 72.3707 30.3038 72.5041 30.3038C72.7146 30.3038 72.8935 30.2635 73.038 30.1829C73.1824 30.1029 73.3116 30.0025 73.4233 29.884L73.6023 30.041C73.4654 30.1888 73.3099 30.309 73.1386 30.4019C72.9649 30.4971 72.7491 30.5444 72.493 30.5444C72.3199 30.5444 72.1514 30.5117 71.9924 30.4457Z" fill="#232B34"/>
<path d="M77.5857 27.0841L76.6138 29.2066H78.5523L77.5857 27.0841ZM77.7231 26.7852L79.4336 30.4819H79.1336L78.6675 29.4548H76.4986L76.0325 30.4819H75.7472L77.46 26.7852H77.7231Z" fill="#232B34"/>
<path d="M81.8967 30.2191C82.0248 30.1666 82.1365 30.0912 82.2312 29.9949C82.3248 29.8962 82.3996 29.7759 82.454 29.6352C82.5072 29.4927 82.5347 29.3345 82.5347 29.1552V29.1447C82.5347 28.9713 82.5072 28.8107 82.4505 28.6683C82.3955 28.524 82.3189 28.4038 82.2242 28.3033C82.1271 28.2029 82.0136 28.1264 81.8879 28.0733C81.7581 28.0184 81.6248 27.9915 81.4856 27.9915C81.3453 27.9915 81.2096 28.0184 81.078 28.075C80.9464 28.1317 80.8295 28.2105 80.7289 28.3103C80.6266 28.4125 80.5465 28.5334 80.4845 28.6735C80.4243 28.8142 80.3927 28.9672 80.3927 29.1389V29.15C80.3927 29.3217 80.4243 29.4781 80.4845 29.6189C80.5465 29.7613 80.6266 29.8816 80.7289 29.9821C80.8295 30.0807 80.9464 30.159 81.078 30.2139C81.2096 30.2705 81.3453 30.2979 81.4856 30.2979C81.6336 30.2979 81.771 30.2723 81.8967 30.2191ZM80.4096 27.8088V28.4055C80.464 28.3179 80.5301 28.2338 80.6032 28.1539C80.6763 28.0733 80.7582 28.0038 80.8459 27.9436C80.9377 27.8835 81.0359 27.8362 81.1476 27.7994C81.2552 27.7632 81.378 27.7451 81.5131 27.7451C81.6721 27.7451 81.8312 27.7761 81.9862 27.838C82.1417 27.9016 82.2809 27.9933 82.4049 28.1118C82.5271 28.2303 82.6242 28.3763 82.7008 28.5497C82.7756 28.7232 82.8124 28.9182 82.8124 29.1354V29.1447C82.8124 29.3614 82.7756 29.557 82.7008 29.7286C82.6242 29.9038 82.5271 30.0498 82.4049 30.1701C82.2809 30.2904 82.1417 30.3832 81.9862 30.4474C81.8312 30.5111 81.6721 30.5438 81.5131 30.5438C81.378 30.5438 81.2552 30.5274 81.1441 30.493C81.0324 30.4562 80.9318 30.4089 80.8406 30.3505C80.7529 30.2904 80.6728 30.2226 80.5997 30.1461C80.5283 30.0696 80.464 29.9891 80.4096 29.9056V31.3215H80.1517V27.8088H80.4096Z" fill="#232B34"/>
<path d="M85.2503 30.2112C85.3854 30.1511 85.5024 30.0694 85.5977 29.9654C85.6942 29.8632 85.7696 29.7406 85.824 29.6005C85.8772 29.4615 85.9047 29.3138 85.9047 29.155V29.1439C85.9047 28.985 85.8772 28.8321 85.8205 28.6913C85.7638 28.5512 85.6872 28.4268 85.5866 28.3229C85.486 28.2172 85.3691 28.1349 85.2357 28.0765C85.1007 28.0163 84.9562 27.9872 84.8024 27.9872C84.6457 27.9872 84.4995 28.0163 84.3638 28.0782C84.2288 28.1384 84.1135 28.2225 84.0171 28.3247C83.9217 28.4268 83.8451 28.5495 83.7919 28.6896C83.7375 28.8286 83.7101 28.978 83.7101 29.1351V29.1439C83.7101 29.3062 83.7376 29.4563 83.7937 29.5981C83.8504 29.7406 83.9276 29.8632 84.0276 29.9689C84.1282 30.0729 84.2451 30.1552 84.3808 30.2153C84.5141 30.2755 84.6603 30.3047 84.8135 30.3047C84.9708 30.3047 85.1153 30.2737 85.2503 30.2112ZM84.2545 30.4325C84.0884 30.3572 83.9422 30.2574 83.8194 30.1313C83.699 30.0051 83.6019 29.8591 83.5346 29.6916C83.4668 29.5234 83.4323 29.3447 83.4323 29.155V29.1439C83.4323 28.9559 83.4668 28.7772 83.5346 28.6113C83.6019 28.4432 83.699 28.2937 83.8229 28.1641C83.9475 28.0344 84.0937 27.9323 84.2615 27.8593C84.4299 27.7828 84.6124 27.7466 84.8135 27.7466C85.0129 27.7466 85.1936 27.7828 85.3621 27.8593C85.5281 27.9323 85.6726 28.0327 85.7948 28.1606C85.9176 28.2844 86.0123 28.4327 86.0819 28.6003C86.1497 28.7684 86.1825 28.9453 86.1825 29.1351V29.1439C86.1825 29.3336 86.1497 29.5129 86.0819 29.6787C86.0123 29.8486 85.9176 29.9964 85.7913 30.126C85.669 30.255 85.5211 30.3572 85.3527 30.4325C85.1848 30.5073 85.0018 30.5435 84.8024 30.5435C84.6018 30.5435 84.4206 30.5073 84.2545 30.4325Z" fill="#232B34"/>
<path d="M87.2678 30.4812H87.0105V27.8081H87.2678V30.4812ZM87.3011 27.1109H86.9795V26.7588H87.3011V27.1109Z" fill="#232B34"/>
<path d="M89.9174 30.2112C90.0525 30.1511 90.1677 30.0694 90.263 29.9654C90.3595 29.8632 90.4344 29.7406 90.4893 29.6005C90.5443 29.4615 90.57 29.3138 90.57 29.155V29.1439C90.57 28.985 90.5426 28.8321 90.4876 28.6913C90.4309 28.5512 90.3525 28.4268 90.2537 28.3229C90.1531 28.2172 90.0361 28.1349 89.9011 28.0765C89.7677 28.0163 89.6233 27.9872 89.4678 27.9872C89.3105 27.9872 89.1643 28.0163 89.0292 28.0782C88.8941 28.1384 88.7789 28.2225 88.6842 28.3247C88.5871 28.4268 88.5122 28.5495 88.4573 28.6896C88.4023 28.8286 88.3748 28.978 88.3748 29.1351V29.1439C88.3748 29.3062 88.404 29.4563 88.4608 29.5981C88.5157 29.7406 88.5941 29.8632 88.6929 29.9689C88.7935 30.0729 88.9104 30.1552 89.0455 30.2153C89.1812 30.2755 89.3251 30.3047 89.4789 30.3047C89.6362 30.3047 89.7824 30.2737 89.9174 30.2112ZM88.9198 30.4325C88.7532 30.3572 88.6087 30.2574 88.4865 30.1313C88.3643 30.0051 88.269 29.8591 88.1994 29.6916C88.1321 29.5234 88.097 29.3447 88.097 29.155V29.1439C88.097 28.9559 88.1321 28.7772 88.1994 28.6113C88.269 28.4432 88.3643 28.2937 88.4882 28.1641C88.6128 28.0344 88.759 27.9323 88.9268 27.8593C89.0952 27.7828 89.2795 27.7466 89.4789 27.7466C89.6783 27.7466 89.8607 27.7828 90.0268 27.8593C90.1935 27.9323 90.3379 28.0327 90.4601 28.1606C90.5847 28.2844 90.6794 28.4327 90.7472 28.6003C90.8145 28.7684 90.8496 28.9453 90.8496 29.1351V29.1439C90.8496 29.3336 90.8145 29.5129 90.7472 29.6787C90.6794 29.8486 90.5823 29.9964 90.4584 30.126C90.332 30.255 90.1858 30.3572 90.0198 30.4325C89.8514 30.5073 89.6672 30.5435 89.4678 30.5435C89.2689 30.5435 89.0859 30.5073 88.9198 30.4325Z" fill="#232B34"/>
<path d="M94.433 30.2434C94.5553 30.2031 94.6634 30.1483 94.7564 30.0753C94.8494 30.004 94.9225 29.9164 94.9757 29.816C95.0324 29.7138 95.0582 29.6029 95.0582 29.4803V29.1778C94.9465 29.1486 94.8149 29.1212 94.6652 29.0937C94.5132 29.068 94.3418 29.0569 94.1494 29.0569C93.8664 29.0569 93.6471 29.1118 93.4974 29.2269C93.3436 29.3401 93.267 29.4914 93.267 29.6794V29.6905C93.267 29.7891 93.2892 29.8744 93.3307 29.9497C93.3728 30.0262 93.4296 30.0881 93.5009 30.1412C93.5723 30.1938 93.6565 30.2341 93.7512 30.2615C93.8465 30.289 93.943 30.3036 94.0454 30.3036C94.181 30.3036 94.3126 30.2831 94.433 30.2434ZM93.6565 30.4933C93.5337 30.4566 93.4243 30.4058 93.3255 30.3345C93.2267 30.265 93.1483 30.1774 93.0863 30.0735C93.0237 29.9678 92.9945 29.8452 92.9945 29.7068V29.6957C92.9945 29.5556 93.022 29.4312 93.0822 29.3238C93.1389 29.214 93.2196 29.1247 93.3202 29.0499C93.4225 28.9769 93.5448 28.9203 93.6892 28.8841C93.8302 28.8438 93.991 28.8257 94.1664 28.8257C94.3541 28.8257 94.519 28.8362 94.6541 28.8567C94.7909 28.8765 94.9225 28.9057 95.0541 28.9402V28.8257C95.0541 28.5519 94.974 28.3475 94.8184 28.2126C94.6634 28.0754 94.4476 28.0082 94.1716 28.0082C94.0073 28.0082 93.8553 28.0281 93.7185 28.0684C93.5834 28.1081 93.4535 28.1595 93.3307 28.2231L93.2378 27.9971C93.384 27.9259 93.5319 27.871 93.6816 27.829C93.8319 27.7869 94.0015 27.7671 94.1863 27.7671C94.5535 27.7671 94.8348 27.864 95.0324 28.0608C95.2131 28.2418 95.3043 28.4935 95.3043 28.8146V30.4822H95.0541V30.0373C95.0067 30.0992 94.9517 30.1611 94.8863 30.2212C94.8243 30.2831 94.7471 30.338 94.6652 30.3836C94.581 30.4332 94.4839 30.4694 94.3781 30.5003C94.2705 30.5295 94.1553 30.5441 94.029 30.5441C93.9032 30.5441 93.7787 30.5278 93.6565 30.4933Z" fill="#232B34"/>
<path d="M97.8634 30.2112C97.9985 30.1511 98.1137 30.0694 98.2107 29.9654C98.3055 29.8632 98.3827 29.7406 98.4353 29.6005C98.4902 29.4615 98.5177 29.3138 98.5177 29.155V29.1439C98.5177 28.985 98.4885 28.8321 98.4335 28.6913C98.3768 28.5512 98.3002 28.4268 98.1996 28.3229C98.099 28.2172 97.9821 28.1349 97.847 28.0765C97.7137 28.0163 97.5692 27.9872 97.4137 27.9872C97.257 27.9872 97.1108 28.0163 96.9769 28.0782C96.84 28.1384 96.7266 28.2225 96.6301 28.3247C96.533 28.4268 96.4582 28.5495 96.4032 28.6896C96.3506 28.8286 96.3213 28.978 96.3213 29.1351V29.1439C96.3213 29.3062 96.3506 29.4563 96.4067 29.5981C96.4617 29.7406 96.5406 29.8632 96.6389 29.9689C96.7395 30.0729 96.8564 30.1552 96.9938 30.2153C97.1272 30.2755 97.2716 30.3047 97.4248 30.3047C97.5821 30.3047 97.7283 30.2737 97.8634 30.2112ZM96.8658 30.4325C96.6991 30.3572 96.5552 30.2574 96.4324 30.1313C96.3102 30.0051 96.2149 29.8591 96.1459 29.6916C96.0781 29.5234 96.0453 29.3447 96.0453 29.155V29.1439C96.0453 28.9559 96.0781 28.7772 96.1459 28.6113C96.2149 28.4432 96.3102 28.2937 96.4342 28.1641C96.5605 28.0344 96.7049 27.9323 96.8728 27.8593C97.0429 27.7828 97.2254 27.7466 97.4248 27.7466C97.626 27.7466 97.8067 27.7828 97.9733 27.8593C98.1394 27.9323 98.2856 28.0327 98.406 28.1606C98.5289 28.2844 98.6254 28.4327 98.6932 28.6003C98.7628 28.7684 98.7955 28.9453 98.7955 29.1351V29.1439C98.7955 29.3336 98.7628 29.5129 98.6932 29.6787C98.6254 29.8486 98.5289 29.9964 98.4043 30.126C98.2803 30.255 98.1318 30.3572 97.9657 30.4325C97.7979 30.5073 97.6131 30.5435 97.4137 30.5435C97.2149 30.5435 97.0318 30.5073 96.8658 30.4325Z" fill="#232B34"/>
<path d="M103.136 30.1076C103.343 30.0252 103.518 29.9137 103.661 29.7718C103.805 29.6311 103.916 29.4635 103.995 29.2738C104.074 29.084 104.113 28.8773 104.113 28.6583V28.6461C104.113 28.4306 104.074 28.2262 103.995 28.0347C103.916 27.8409 103.805 27.6733 103.66 27.5308C103.518 27.3883 103.343 27.2739 103.136 27.1898C102.929 27.1057 102.699 27.0637 102.443 27.0637H101.493V30.2314H102.443C102.699 30.2314 102.929 30.1893 103.136 30.1076ZM102.443 26.812C102.73 26.812 102.994 26.8593 103.233 26.9504C103.473 27.0438 103.679 27.1734 103.853 27.3375C104.026 27.5016 104.16 27.6931 104.254 27.9162C104.35 28.1386 104.395 28.3775 104.395 28.6367V28.6461C104.395 28.9065 104.35 29.1476 104.254 29.3701C104.16 29.5949 104.026 29.7882 103.853 29.9522C103.679 30.1163 103.473 30.246 103.233 30.3411C102.994 30.434 102.73 30.4813 102.443 30.4813H101.219V26.812H102.443Z" fill="#232B34"/>
<path d="M107.223 28.6286C107.179 28.5042 107.117 28.395 107.04 28.2981C106.959 28.2017 106.862 28.1247 106.747 28.068C106.632 28.0096 106.497 27.9804 106.344 27.9804C106.21 27.9804 106.086 28.0061 105.971 28.061C105.854 28.1118 105.753 28.1848 105.667 28.2782C105.582 28.3693 105.512 28.4808 105.455 28.6081C105.4 28.7343 105.368 28.8709 105.357 29.0192H107.303C107.294 28.882 107.265 28.7524 107.223 28.6286ZM105.894 30.4457C105.735 30.3785 105.594 30.2833 105.474 30.1613C105.353 30.0387 105.258 29.8927 105.189 29.7216C105.117 29.55 105.082 29.3602 105.082 29.1506V29.1395C105.082 28.948 105.116 28.7652 105.179 28.5959C105.245 28.4277 105.335 28.28 105.448 28.1539C105.561 28.0283 105.696 27.9296 105.85 27.8549C106.003 27.7819 106.172 27.7451 106.354 27.7451C106.543 27.7451 106.713 27.7802 106.862 27.8531C107.014 27.9244 107.142 28.0225 107.248 28.1486C107.356 28.2747 107.436 28.4224 107.495 28.5918C107.553 28.7599 107.581 28.9462 107.581 29.1447V29.1996C107.581 29.2125 107.579 29.2288 107.577 29.2487H105.357C105.368 29.4168 105.402 29.5663 105.467 29.6959C105.529 29.8256 105.609 29.9348 105.702 30.0264C105.797 30.1158 105.905 30.1847 106.026 30.2325C106.146 30.2798 106.272 30.3038 106.406 30.3038C106.616 30.3038 106.795 30.2635 106.939 30.1829C107.083 30.1029 107.212 30.0025 107.325 29.884L107.504 30.041C107.367 30.1888 107.211 30.309 107.04 30.4019C106.866 30.4971 106.651 30.5444 106.395 30.5444C106.221 30.5444 106.053 30.5117 105.894 30.4457Z" fill="#232B34"/>
<path d="M108.61 30.4262C108.414 30.355 108.244 30.2622 108.1 30.1471L108.254 29.9428C108.4 30.0543 108.553 30.1419 108.714 30.202C108.876 30.2622 109.041 30.2931 109.213 30.2931C109.396 30.2931 109.549 30.2476 109.673 30.1582C109.797 30.0671 109.86 29.9428 109.86 29.784V29.7752C109.86 29.6981 109.842 29.631 109.802 29.5743C109.763 29.5194 109.71 29.4704 109.644 29.4284C109.579 29.3863 109.502 29.3519 109.418 29.3227C109.334 29.2952 109.246 29.2678 109.151 29.2403L108.822 29.1399C108.712 29.1055 108.614 29.0599 108.526 29.0068C108.438 28.9519 108.367 28.8865 108.312 28.8042C108.259 28.7242 108.231 28.6255 108.231 28.5052V28.4959C108.231 28.3861 108.255 28.288 108.297 28.1987C108.341 28.1087 108.402 28.0322 108.478 27.9668C108.555 27.8991 108.648 27.8483 108.758 27.8098C108.866 27.7753 108.985 27.7549 109.114 27.7549C109.275 27.7549 109.441 27.7823 109.61 27.8337C109.779 27.888 109.931 27.9593 110.065 28.0486L109.927 28.264C109.805 28.1841 109.673 28.1198 109.531 28.0708C109.39 28.0211 109.246 27.996 109.103 27.996C108.917 27.996 108.771 28.0416 108.659 28.1309C108.55 28.2203 108.495 28.3318 108.495 28.4632V28.4737C108.495 28.5467 108.517 28.6109 108.557 28.6658C108.599 28.7201 108.655 28.7656 108.723 28.8042C108.793 28.8445 108.871 28.8771 108.962 28.9063C109.054 28.9373 109.145 28.9647 109.24 28.9939C109.348 29.0249 109.454 29.0576 109.56 29.0944C109.664 29.1306 109.761 29.1784 109.844 29.2368C109.927 29.2952 109.995 29.3641 110.046 29.4447C110.097 29.5247 110.123 29.6234 110.123 29.7437V29.753C110.123 29.8715 110.099 29.9796 110.052 30.0759C110.004 30.1711 109.938 30.2546 109.854 30.3223C109.771 30.3918 109.673 30.4426 109.56 30.4794C109.449 30.5156 109.328 30.5343 109.199 30.5343C109.003 30.5343 108.806 30.4992 108.61 30.4262Z" fill="#232B34"/>
<path d="M112.895 28.6286C112.853 28.5042 112.791 28.395 112.713 28.2981C112.634 28.2017 112.537 28.1247 112.42 28.068C112.305 28.0096 112.172 27.9804 112.016 27.9804C111.883 27.9804 111.759 28.0061 111.644 28.061C111.528 28.1118 111.428 28.1848 111.342 28.2782C111.256 28.3693 111.186 28.4808 111.128 28.6081C111.073 28.7343 111.04 28.8709 111.03 29.0192H112.977C112.966 28.882 112.939 28.7524 112.895 28.6286ZM111.569 30.4457C111.408 30.3785 111.269 30.2833 111.148 30.1613C111.028 30.0387 110.931 29.8927 110.861 29.7216C110.792 29.55 110.757 29.3602 110.757 29.1506V29.1395C110.757 28.948 110.788 28.7652 110.854 28.5959C110.918 28.4277 111.007 28.28 111.121 28.1539C111.236 28.0283 111.369 27.9296 111.522 27.8549C111.676 27.7819 111.844 27.7451 112.027 27.7451C112.217 27.7451 112.385 27.7802 112.537 27.8531C112.687 27.9244 112.815 28.0225 112.922 28.1486C113.028 28.2747 113.111 28.4224 113.169 28.5918C113.226 28.7599 113.255 28.9462 113.255 29.1447V29.1996C113.255 29.2125 113.253 29.2288 113.25 29.2487H111.03C111.04 29.4168 111.077 29.5663 111.139 29.6959C111.203 29.8256 111.282 29.9348 111.376 30.0264C111.47 30.1158 111.577 30.1847 111.698 30.2325C111.821 30.2798 111.946 30.3038 112.08 30.3038C112.29 30.3038 112.468 30.2635 112.612 30.1829C112.756 30.1029 112.886 30.0025 112.997 29.884L113.177 30.041C113.039 30.1888 112.884 30.309 112.713 30.4019C112.539 30.4971 112.325 30.5444 112.067 30.5444C111.894 30.5444 111.725 30.5117 111.569 30.4457Z" fill="#232B34"/>
<path d="M114.263 27.8088V28.3068C114.354 28.1486 114.477 28.0172 114.632 27.9074C114.784 27.8 114.985 27.7451 115.229 27.7451C115.396 27.7451 115.547 27.7743 115.681 27.8274C115.814 27.88 115.926 27.9565 116.019 28.0534C116.112 28.1538 116.181 28.2689 116.229 28.4038C116.277 28.5369 116.301 28.6864 116.301 28.8469V30.4819H116.043V28.8948C116.043 28.6175 115.97 28.3968 115.822 28.2303C115.676 28.0645 115.465 27.9822 115.193 27.9822C115.06 27.9822 114.937 28.0044 114.824 28.0517C114.712 28.099 114.615 28.1649 114.529 28.2484C114.446 28.3325 114.381 28.433 114.334 28.5515C114.287 28.6665 114.263 28.7961 114.263 28.9369V30.4819H114.005V27.8088H114.263Z" fill="#232B34"/>
<path d="M117.248 27.8086L118.263 30.1938L119.286 27.8086H119.575L118.374 30.5039H118.151L116.95 27.8086H117.248Z" fill="#232B34"/>
<path d="M121.913 30.2112C122.049 30.1511 122.164 30.0694 122.259 29.9654C122.356 29.8632 122.431 29.7406 122.485 29.6005C122.538 29.4615 122.568 29.3138 122.568 29.155V29.1439C122.568 28.985 122.538 28.8321 122.482 28.6913C122.427 28.5512 122.348 28.4268 122.25 28.3229C122.149 28.2172 122.032 28.1349 121.897 28.0765C121.764 28.0163 121.619 27.9872 121.464 27.9872C121.307 27.9872 121.161 28.0163 121.026 28.0782C120.89 28.1384 120.777 28.2225 120.68 28.3247C120.583 28.4268 120.508 28.5495 120.453 28.6896C120.399 28.8286 120.371 28.978 120.371 29.1351V29.1439C120.371 29.3062 120.401 29.4563 120.455 29.5981C120.512 29.7406 120.589 29.8632 120.691 29.9689C120.789 30.0729 120.906 30.1552 121.042 30.2153C121.177 30.2755 121.32 30.3047 121.475 30.3047C121.632 30.3047 121.778 30.2737 121.913 30.2112ZM120.916 30.4325C120.75 30.3572 120.605 30.2574 120.482 30.1313C120.36 30.0051 120.265 29.8591 120.196 29.6916C120.128 29.5234 120.094 29.3447 120.094 29.155V29.1439C120.094 28.9559 120.128 28.7772 120.196 28.6113C120.265 28.4432 120.362 28.2937 120.485 28.1641C120.609 28.0344 120.755 27.9323 120.923 27.8593C121.091 27.7828 121.276 27.7466 121.475 27.7466C121.672 27.7466 121.857 27.7828 122.023 27.8593C122.189 27.9323 122.334 28.0327 122.456 28.1606C122.581 28.2844 122.674 28.4327 122.743 28.6003C122.811 28.7684 122.844 28.9453 122.844 29.1351V29.1439C122.844 29.3336 122.811 29.5129 122.743 29.6787C122.674 29.8486 122.579 29.9964 122.452 30.126C122.33 30.255 122.184 30.3572 122.016 30.4325C121.848 30.5073 121.663 30.5435 121.464 30.5435C121.265 30.5435 121.082 30.5073 120.916 30.4325Z" fill="#232B34"/>
<path d="M123.932 26.6543H123.674V30.4806H123.932V26.6543Z" fill="#232B34"/>
<path d="M124.97 27.8086L125.984 30.1938L127.007 27.8086H127.296L126.094 30.5039H125.873L124.67 27.8086H124.97Z" fill="#232B34"/>
<path d="M128.292 30.4812H128.034V27.8081H128.292V30.4812ZM128.325 27.1109H128.003V26.7588H128.325V27.1109Z" fill="#232B34"/>
<path d="M129.563 27.8088V28.2852C129.605 28.2157 129.653 28.1486 129.707 28.0844C129.76 28.019 129.822 27.9606 129.894 27.9109C129.963 27.8601 130.046 27.8199 130.139 27.7907C130.23 27.7597 130.336 27.7451 130.455 27.7451C130.57 27.7451 130.676 27.7615 130.773 27.7924C130.87 27.8234 130.954 27.8654 131.027 27.9185C131.102 27.9711 131.166 28.0318 131.219 28.1025C131.274 28.172 131.319 28.2449 131.357 28.3214C131.4 28.2484 131.451 28.1778 131.511 28.1083C131.57 28.0371 131.639 27.9752 131.718 27.922C131.796 27.8672 131.885 27.8234 131.984 27.7924C132.087 27.7615 132.198 27.7451 132.324 27.7451C132.481 27.7451 132.624 27.7743 132.752 27.8274C132.88 27.88 132.988 27.9565 133.077 28.0517C133.167 28.1486 133.236 28.2671 133.282 28.4038C133.329 28.5427 133.353 28.694 133.353 28.8615V30.4819H133.095V28.8948C133.095 28.6029 133.026 28.3798 132.885 28.2192C132.746 28.061 132.553 27.9822 132.302 27.9822C132.191 27.9822 132.083 28.0026 131.981 28.0441C131.877 28.0861 131.787 28.1463 131.71 28.2286C131.633 28.3092 131.571 28.4073 131.526 28.524C131.48 28.6408 131.458 28.774 131.458 28.9258V30.4819H131.201V28.8785C131.201 28.5988 131.131 28.3798 130.99 28.2192C130.85 28.061 130.66 27.9822 130.418 27.9822C130.3 27.9822 130.188 28.0061 130.082 28.0534C129.978 28.1025 129.887 28.172 129.81 28.2595C129.731 28.3471 129.673 28.4493 129.629 28.5643C129.585 28.6794 129.563 28.8055 129.563 28.9421V30.4819H129.305V27.8088H129.563Z" fill="#232B34"/>
<path d="M136.253 28.6286C136.209 28.5042 136.148 28.395 136.07 28.2981C135.991 28.2017 135.894 28.1247 135.777 28.068C135.662 28.0096 135.527 27.9804 135.373 27.9804C135.24 27.9804 135.116 28.0061 135.001 28.061C134.884 28.1118 134.785 28.1848 134.699 28.2782C134.613 28.3693 134.542 28.4808 134.485 28.6081C134.43 28.7343 134.398 28.8709 134.387 29.0192H136.333C136.323 28.882 136.296 28.7524 136.253 28.6286ZM134.924 30.4457C134.765 30.3785 134.624 30.2833 134.504 30.1613C134.383 30.0387 134.288 29.8927 134.218 29.7216C134.149 29.55 134.112 29.3602 134.112 29.1506V29.1395C134.112 28.948 134.145 28.7652 134.209 28.5959C134.275 28.4277 134.364 28.28 134.478 28.1539C134.591 28.0283 134.726 27.9296 134.88 27.8549C135.033 27.7819 135.202 27.7451 135.384 27.7451C135.572 27.7451 135.743 27.7802 135.894 27.8531C136.044 27.9244 136.172 28.0225 136.278 28.1486C136.386 28.2747 136.468 28.4224 136.526 28.5918C136.583 28.7599 136.612 28.9462 136.612 29.1447V29.1996C136.612 29.2125 136.61 29.2288 136.607 29.2487H134.387C134.398 29.4168 134.432 29.5663 134.496 29.6959C134.559 29.8256 134.639 29.9348 134.732 30.0264C134.827 30.1158 134.934 30.1847 135.056 30.2325C135.176 30.2798 135.302 30.3038 135.436 30.3038C135.646 30.3038 135.825 30.2635 135.969 30.1829C136.113 30.1029 136.243 30.0025 136.355 29.884L136.534 30.041C136.396 30.1888 136.243 30.309 136.07 30.4019C135.896 30.4971 135.68 30.5444 135.425 30.5444C135.251 30.5444 135.083 30.5117 134.924 30.4457Z" fill="#232B34"/>
<path d="M137.619 27.8088V28.3068C137.71 28.1486 137.832 28.0172 137.988 27.9074C138.139 27.8 138.34 27.7451 138.585 27.7451C138.753 27.7451 138.903 27.7743 139.037 27.8274C139.17 27.88 139.284 27.9565 139.376 28.0534C139.468 28.1538 139.537 28.2689 139.585 28.4038C139.634 28.5369 139.656 28.6864 139.656 28.8469V30.4819H139.399V28.8948C139.399 28.6175 139.326 28.3968 139.179 28.2303C139.031 28.0645 138.823 27.9822 138.548 27.9822C138.415 27.9822 138.293 28.0044 138.181 28.0517C138.068 28.099 137.971 28.1649 137.887 28.2484C137.803 28.3325 137.737 28.433 137.69 28.5515C137.642 28.6665 137.619 28.7961 137.619 28.9369V30.4819H137.361V27.8088H137.619Z" fill="#232B34"/>
<path d="M141.177 30.4875C141.086 30.4583 141.008 30.4145 140.94 30.3544C140.87 30.2925 140.818 30.2154 140.779 30.1226C140.741 30.0297 140.721 29.9217 140.721 29.7938V28.0444H140.334V27.8085H140.721V26.9531H140.979V27.8085H141.918V28.0444H140.979V29.7687C140.979 29.9602 141.028 30.0969 141.128 30.1716C141.227 30.2504 141.355 30.2884 141.514 30.2884C141.58 30.2884 141.644 30.2814 141.702 30.2685C141.762 30.2522 141.83 30.2282 141.907 30.1938V30.4344C141.837 30.4653 141.768 30.4892 141.7 30.5056C141.633 30.5202 141.556 30.5295 141.472 30.5295C141.368 30.5295 141.269 30.5167 141.177 30.4875Z" fill="#232B34"/>
<path d="M144.315 30.2112C144.449 30.1511 144.566 30.0694 144.663 29.9654C144.758 29.8632 144.832 29.7406 144.887 29.6005C144.942 29.4615 144.967 29.3138 144.967 29.155V29.1439C144.967 28.985 144.941 28.8321 144.884 28.6913C144.829 28.5512 144.75 28.4268 144.652 28.3229C144.551 28.2172 144.434 28.1349 144.299 28.0765C144.166 28.0163 144.021 27.9872 143.866 27.9872C143.708 27.9872 143.562 28.0163 143.429 28.0782C143.294 28.1384 143.177 28.2225 143.082 28.3247C142.985 28.4268 142.91 28.5495 142.855 28.6896C142.802 28.8286 142.773 28.978 142.773 29.1351V29.1439C142.773 29.3062 142.802 29.4563 142.859 29.5981C142.914 29.7406 142.992 29.8632 143.091 29.9689C143.191 30.0729 143.308 30.1552 143.444 30.2153C143.579 30.2755 143.721 30.3047 143.877 30.3047C144.034 30.3047 144.18 30.2737 144.315 30.2112ZM143.318 30.4325C143.151 30.3572 143.007 30.2574 142.884 30.1313C142.762 30.0051 142.667 29.8591 142.599 29.6916C142.53 29.5234 142.497 29.3447 142.497 29.155V29.1439C142.497 28.9559 142.53 28.7772 142.599 28.6113C142.667 28.4432 142.762 28.2937 142.886 28.1641C143.013 28.0344 143.157 27.9323 143.325 27.8593C143.493 27.7828 143.677 27.7466 143.877 27.7466C144.076 27.7466 144.259 27.7828 144.427 27.8593C144.591 27.9323 144.736 28.0327 144.858 28.1606C144.98 28.2844 145.077 28.4327 145.145 28.6003C145.212 28.7684 145.248 28.9453 145.248 29.1351V29.1439C145.248 29.3336 145.212 29.5129 145.145 29.6787C145.077 29.8486 144.98 29.9964 144.856 30.126C144.732 30.255 144.586 30.3572 144.418 30.4325C144.249 30.5073 144.065 30.5435 143.866 30.5435C143.666 30.5435 143.484 30.5073 143.318 30.4325Z" fill="#232B34"/>
<path d="M41.8549 33.0996H41.5807V36.7712H41.8549V33.0996Z" fill="#232B34"/>
<path d="M43.1829 34.0971V34.5951C43.2742 34.4363 43.397 34.3049 43.5502 34.1957C43.704 34.0877 43.9046 34.0352 44.1496 34.0352C44.318 34.0352 44.4677 34.0603 44.601 34.1152C44.7343 34.17 44.846 34.2448 44.939 34.3435C45.032 34.4416 45.1016 34.5566 45.1489 34.6938C45.1969 34.8269 45.2203 34.9747 45.2203 35.1352V36.7719H44.963V35.1825C44.963 34.9052 44.8899 34.6845 44.7419 34.5204C44.5958 34.3522 44.3852 34.2705 44.1133 34.2705C43.9794 34.2705 43.8572 34.2938 43.7455 34.3417C43.6326 34.3873 43.5338 34.4526 43.4496 34.5385C43.3677 34.6226 43.3016 34.7212 43.2543 34.8398C43.2069 34.9566 43.1829 35.0838 43.1829 35.2246V36.7719H42.9251V34.0971H43.1829Z" fill="#232B34"/>
<path d="M46.4214 36.7163C46.2261 36.645 46.0559 36.5522 45.9115 36.4354L46.0653 36.2311C46.2115 36.3443 46.3647 36.4296 46.5255 36.4903C46.6863 36.5522 46.853 36.5832 47.0249 36.5832C47.2074 36.5832 47.3611 36.5359 47.4851 36.4465C47.6097 36.3566 47.6717 36.2311 47.6717 36.074V36.0646C47.6717 35.9864 47.6512 35.921 47.6132 35.8644C47.5746 35.8095 47.522 35.7604 47.4559 35.7184C47.3881 35.6763 47.3132 35.6396 47.2296 35.6121C47.1454 35.5853 47.0577 35.5561 46.9623 35.5286L46.6337 35.4282C46.5238 35.3955 46.4232 35.3494 46.3378 35.2968C46.2501 35.2419 46.1787 35.1742 46.1255 35.0942C46.0705 35.0136 46.0431 34.9138 46.0431 34.7947V34.7841C46.0431 34.6761 46.0653 34.5757 46.1092 34.4881C46.153 34.3988 46.2132 34.3205 46.2898 34.2545C46.367 34.1891 46.46 34.136 46.5676 34.0998C46.6776 34.063 46.7963 34.0449 46.9243 34.0449C47.0869 34.0449 47.2512 34.0724 47.4214 34.1232C47.591 34.1763 47.743 34.2475 47.8746 34.3386L47.7389 34.5541C47.6167 34.4735 47.4851 34.4099 47.3424 34.3608C47.2003 34.3112 47.0577 34.2861 46.915 34.2861C46.7284 34.2861 46.5805 34.3316 46.4711 34.421C46.3612 34.5085 46.3062 34.6195 46.3062 34.7532V34.7637C46.3062 34.8367 46.3267 34.9009 46.3688 34.9535C46.4109 35.0084 46.4653 35.0557 46.5331 35.0942C46.6027 35.1327 46.6811 35.1654 46.7723 35.1964C46.8641 35.2256 46.9571 35.2548 47.0518 35.2822C47.16 35.3132 47.2658 35.3476 47.3717 35.3844C47.4758 35.4206 47.5711 35.4685 47.6553 35.5269C47.7389 35.5829 47.8068 35.6524 47.8559 35.733C47.9073 35.813 47.933 35.9134 47.933 36.0319V36.043C47.933 36.1616 47.9091 36.269 47.8617 36.3642C47.8161 36.4611 47.75 36.5429 47.6658 36.6123C47.5822 36.6801 47.4834 36.7309 47.3717 36.7677C47.2606 36.8056 47.1395 36.8237 47.0103 36.8237C46.8126 36.8237 46.6173 36.7875 46.4214 36.7163Z" fill="#232B34"/>
<path d="M49.3506 36.7758C49.2593 36.7483 49.1786 36.7045 49.1108 36.6421C49.0436 36.5819 48.9903 36.5037 48.95 36.4108C48.912 36.3192 48.8938 36.21 48.8938 36.0839V34.3321H48.5062V34.0968H48.8938V33.2432H49.1511V34.0968H50.0903V34.3321H49.1511V36.0564C49.1511 36.2503 49.2008 36.3852 49.2991 36.4616C49.3997 36.5381 49.5277 36.5767 49.6868 36.5767C49.7523 36.5767 49.8166 36.5691 49.8751 36.5568C49.9353 36.5422 50.0026 36.5165 50.0798 36.4838V36.7226C50.0102 36.7553 49.9406 36.7775 49.8733 36.7939C49.8037 36.8085 49.7289 36.8172 49.6429 36.8172C49.5389 36.8172 49.4418 36.8026 49.3506 36.7758Z" fill="#232B34"/>
<path d="M51.1452 36.7707H50.8879V34.0959H51.1452V36.7707ZM51.1768 33.4004H50.8569V33.0483H51.1768V33.4004Z" fill="#232B34"/>
<path d="M52.7562 36.7758C52.665 36.7483 52.5861 36.7045 52.5165 36.6421C52.4492 36.5819 52.396 36.5037 52.3557 36.4108C52.3176 36.3192 52.2995 36.21 52.2995 36.0839V34.3321H51.9101V34.0968H52.2995V33.2432H52.5568V34.0968H53.496V34.3321H52.5568V36.0564C52.5568 36.2503 52.6065 36.3852 52.7065 36.4616C52.8054 36.5381 52.9352 36.5767 53.0925 36.5767C53.158 36.5767 53.2223 36.5691 53.2825 36.5568C53.341 36.5422 53.4082 36.5165 53.4872 36.4838V36.7226C53.4158 36.7553 53.3463 36.7775 53.279 36.7939C53.2112 36.8085 53.1346 36.8172 53.0504 36.8172C52.9446 36.8172 52.8474 36.8026 52.7562 36.7758Z" fill="#232B34"/>
<path d="M54.8235 36.7527C54.6919 36.6978 54.579 36.6213 54.4854 36.5249C54.3925 36.4263 54.3229 36.3112 54.2755 36.1764C54.2299 36.0409 54.2042 35.8932 54.2042 35.7326V34.0977H54.4621V35.6853C54.4621 35.9626 54.5352 36.1816 54.6831 36.3498C54.8293 36.5156 55.0392 36.5997 55.3135 36.5997C55.4433 36.5997 55.5638 36.5757 55.6772 36.5284C55.7924 36.4811 55.8889 36.4134 55.9731 36.3293C56.0591 36.2476 56.1246 36.1454 56.1708 36.0304C56.2181 35.9118 56.2415 35.784 56.2415 35.6432V34.0977H56.4994V36.7708H56.2415V36.2727C56.1503 36.4315 56.0298 36.5629 55.8743 36.6727C55.7211 36.7784 55.5217 36.8332 55.2749 36.8332C55.1088 36.8332 54.9574 36.8076 54.8235 36.7527Z" fill="#232B34"/>
<path d="M58.118 36.7209C57.9502 36.6444 57.8075 36.5457 57.6853 36.4202C57.5625 36.2923 57.466 36.1464 57.3964 35.9788C57.3268 35.8124 57.2906 35.6337 57.2906 35.4439V35.4328C57.2906 35.2448 57.3268 35.0679 57.3964 34.9003C57.466 34.7304 57.5625 34.5827 57.6853 34.453C57.8075 34.3252 57.9502 34.2212 58.118 34.1465C58.2824 34.0717 58.4636 34.0332 58.6554 34.0332C58.7818 34.0332 58.8964 34.0478 59.001 34.0735C59.1034 34.0992 59.1981 34.1354 59.2858 34.1809C59.3735 34.2271 59.4519 34.2796 59.525 34.338C59.5963 34.3981 59.6624 34.4606 59.7262 34.526L59.5437 34.7158C59.4268 34.5955 59.3004 34.4933 59.1595 34.4057C59.0192 34.3181 58.8508 34.2761 58.6502 34.2761C58.4964 34.2761 58.3537 34.3053 58.2221 34.3637C58.0906 34.4238 57.9777 34.5062 57.8806 34.6083C57.7853 34.7105 57.7087 34.8326 57.652 34.9733C57.5976 35.1117 57.5701 35.2612 57.5701 35.4241V35.4328C57.5701 35.5934 57.5976 35.7452 57.6561 35.8871C57.7122 36.0296 57.7929 36.1516 57.8917 36.2579C57.9923 36.3618 58.1069 36.4436 58.2408 36.5043C58.3742 36.5627 58.5163 36.5919 58.6718 36.5919C58.8619 36.5919 59.028 36.5498 59.1783 36.464C59.328 36.3782 59.4578 36.2725 59.5689 36.1463L59.7484 36.3034C59.611 36.4582 59.456 36.5843 59.2823 36.6847C59.1104 36.7834 58.9005 36.8342 58.6554 36.8342C58.4636 36.8342 58.2824 36.7962 58.118 36.7209Z" fill="#232B34"/>
<path d="M60.7647 36.7707H60.5074V34.0959H60.7647V36.7707ZM60.7963 33.4004H60.4765V33.0483H60.7963V33.4004Z" fill="#232B34"/>
<path d="M63.4137 36.4994C63.5494 36.4393 63.6646 36.357 63.7611 36.2548C63.8564 36.1508 63.933 36.0305 63.9862 35.8898C64.0406 35.7491 64.0681 35.6014 64.0681 35.4443V35.4338C64.0681 35.2732 64.0389 35.1214 63.9839 34.9813C63.9277 34.8388 63.8506 34.7144 63.75 34.6105C63.65 34.5048 63.533 34.4225 63.3974 34.3641C63.264 34.3039 63.1196 34.2747 62.9646 34.2747C62.8073 34.2747 62.6611 34.3057 62.5278 34.3664C62.3927 34.4283 62.2775 34.5101 62.1805 34.6122C62.0834 34.7168 62.0085 34.8388 61.9541 34.9772C61.9009 35.1179 61.8734 35.2656 61.8734 35.4227V35.4338C61.8734 35.5944 61.9009 35.7438 61.9577 35.8863C62.0126 36.0282 62.091 36.1526 62.1916 36.2583C62.2904 36.3622 62.4091 36.4445 62.5424 36.5029C62.6775 36.5631 62.822 36.5923 62.9752 36.5923C63.1325 36.5923 63.2787 36.5631 63.4137 36.4994ZM62.4161 36.7201C62.2501 36.6454 62.1056 36.545 61.9834 36.4188C61.8606 36.2933 61.7658 36.1473 61.698 35.9792C61.6284 35.8116 61.5939 35.6323 61.5939 35.4443V35.4338C61.5939 35.244 61.6284 35.0671 61.698 34.8989C61.7658 34.7314 61.8623 34.583 61.9852 34.4517C62.1109 34.3244 62.2553 34.2222 62.4237 34.1475C62.5933 34.0704 62.7763 34.0342 62.9752 34.0342C63.1763 34.0342 63.3576 34.0704 63.5254 34.1475C63.6915 34.2222 63.8342 34.3226 63.957 34.4482C64.081 34.5725 64.1763 34.7203 64.2435 34.8878C64.3131 35.056 64.3459 35.2329 64.3459 35.4227V35.4338C64.3459 35.6218 64.3131 35.8005 64.2435 35.9681C64.1763 36.138 64.0792 36.2857 63.9547 36.4136C63.8307 36.5432 63.6845 36.6454 63.5161 36.7201C63.3482 36.7966 63.1635 36.8334 62.9646 36.8334C62.7652 36.8334 62.5828 36.7966 62.4161 36.7201Z" fill="#232B34"/>
<path d="M65.3955 34.0971V34.5951C65.4867 34.4363 65.6078 34.3049 65.7627 34.1957C65.9165 34.0877 66.1154 34.0352 66.3622 34.0352C66.5306 34.0352 66.6785 34.0603 66.8118 34.1152C66.9469 34.17 67.0586 34.2448 67.1516 34.3435C67.2434 34.4416 67.3124 34.5566 67.3621 34.6938C67.4095 34.8269 67.4311 34.9747 67.4311 35.1352V36.7719H67.1738V35.1825C67.1738 34.9052 67.1025 34.6845 66.9545 34.5204C66.8066 34.3522 66.5978 34.2705 66.3241 34.2705C66.1908 34.2705 66.0698 34.2938 65.9569 34.3417C65.8452 34.3873 65.7464 34.4526 65.6622 34.5385C65.5785 34.6226 65.5125 34.7212 65.4651 34.8398C65.4177 34.9566 65.3955 35.0838 65.3955 35.2246V36.7719H65.1382V34.0971H65.3955Z" fill="#232B34"/>
<path d="M69.5725 36.5328C69.6953 36.4925 69.8029 36.4358 69.8959 36.3646C69.9895 36.2934 70.0626 36.2058 70.1152 36.1036C70.1702 36.0032 70.1977 35.8905 70.1977 35.7679V35.4648C70.086 35.438 69.9544 35.4105 69.8047 35.3831C69.6532 35.3574 69.4813 35.3445 69.2895 35.3445C69.0065 35.3445 68.7872 35.4012 68.6352 35.5162C68.4837 35.6295 68.4071 35.779 68.4071 35.9687V35.9798C68.4071 36.0779 68.4287 36.1638 68.4708 36.2385C68.5129 36.3138 68.5696 36.3775 68.641 36.4306C68.7141 36.4831 68.796 36.5217 68.8913 36.5509C68.9843 36.5783 69.0831 36.5912 69.1837 36.5912C69.3205 36.5912 69.4503 36.5707 69.5725 36.5328ZM68.796 36.7809C68.6737 36.7459 68.5638 36.6934 68.4656 36.6239C68.3667 36.5544 68.2878 36.4668 68.2258 36.3629C68.1656 36.2572 68.1346 36.1346 68.1346 35.9944V35.9833C68.1346 35.8444 68.1638 35.7206 68.2205 35.6131C68.279 35.5034 68.3591 35.4123 68.4597 35.3393C68.5603 35.2663 68.6849 35.2097 68.827 35.1711C68.9714 35.1332 69.1304 35.1145 69.3059 35.1145C69.4942 35.1145 69.6567 35.1238 69.7918 35.146C69.931 35.1659 70.0626 35.1933 70.1924 35.2295V35.1145C70.1924 34.8412 70.1135 34.6368 69.9585 34.5014C69.803 34.3647 69.5854 34.2953 69.3111 34.2953C69.1468 34.2953 68.9954 34.3157 68.8579 34.3554C68.7229 34.3974 68.5931 34.4488 68.4708 34.5107L68.3755 34.2865C68.524 34.2153 68.672 34.1586 68.8217 34.1183C68.9731 34.0745 69.1416 34.0547 69.3258 34.0547C69.6936 34.0547 69.9749 34.1534 70.1719 34.3484C70.3532 34.5306 70.4444 34.7811 70.4444 35.104V36.7716H70.1924V36.3243C70.1468 36.3886 70.0918 36.4504 70.0275 36.5106C69.962 36.5707 69.8872 36.6256 69.8047 36.6729C69.7205 36.7202 69.6257 36.7588 69.5181 36.7897C69.41 36.8189 69.2948 36.8335 69.169 36.8335C69.0427 36.8335 68.9188 36.8154 68.796 36.7809Z" fill="#232B34"/>
<path d="M71.662 32.9429H71.4041V36.7709H71.662V32.9429Z" fill="#232B34"/>
<path d="M75.8115 36.5034C75.9414 36.4491 76.0583 36.3685 76.1606 36.2681C76.2612 36.1659 76.3437 36.0456 76.4057 35.9067C76.4659 35.7665 76.4951 35.6095 76.4951 35.4378V35.429C76.4951 35.2574 76.4659 35.1021 76.4057 34.9602C76.3437 34.8177 76.2612 34.6974 76.1606 34.5987C76.0583 34.4983 75.9414 34.4201 75.8115 34.3652C75.68 34.3085 75.5449 34.2793 75.4046 34.2793C75.2584 34.2793 75.1192 34.3068 74.9928 34.3593C74.8654 34.4125 74.7519 34.4855 74.659 34.5841C74.5636 34.6828 74.4905 34.8031 74.4356 34.9456C74.3812 35.0857 74.3537 35.2445 74.3537 35.4232V35.4343C74.3537 35.6077 74.3829 35.7683 74.4397 35.9125C74.494 36.055 74.5713 36.1753 74.666 36.2757C74.7631 36.3761 74.8742 36.4509 75.004 36.5052C75.1303 36.5601 75.2636 36.5875 75.4046 36.5875C75.5449 36.5875 75.68 36.5601 75.8115 36.5034ZM74.9034 36.7387C74.7467 36.6768 74.6075 36.5875 74.4853 36.4672C74.3625 36.3487 74.2642 36.2027 74.1888 36.0293C74.1139 35.8559 74.0759 35.6626 74.0759 35.4454V35.4343C74.0759 35.2171 74.1139 35.0221 74.1888 34.8486C74.2642 34.677 74.3625 34.5292 74.4853 34.409C74.6075 34.2887 74.7467 34.1953 74.9034 34.1316C75.059 34.0674 75.2163 34.0347 75.3788 34.0347C75.5104 34.0347 75.6344 34.051 75.7461 34.0878C75.8577 34.1223 75.9577 34.1678 76.0478 34.228C76.1373 34.2887 76.2174 34.3558 76.2887 34.4347C76.3601 34.5094 76.4238 34.5894 76.4805 34.6735V32.9434H76.7384V36.772H76.4805V36.1735C76.4203 36.2611 76.3566 36.3446 76.2835 36.4252C76.2121 36.5052 76.1314 36.5747 76.0419 36.6348C75.9525 36.6932 75.8537 36.7411 75.7443 36.779C75.6326 36.8158 75.5104 36.8339 75.3788 36.8339C75.2163 36.8339 75.059 36.803 74.9034 36.7387Z" fill="#232B34"/>
<path d="M79.3488 36.4994C79.4839 36.4393 79.5991 36.357 79.6956 36.2548C79.7927 36.1508 79.8676 36.0305 79.9225 35.8898C79.9752 35.7491 80.0026 35.6014 80.0026 35.4443V35.4338C80.0026 35.2732 79.9751 35.1214 79.919 34.9813C79.8623 34.8388 79.7851 34.7144 79.6851 34.6105C79.5845 34.5048 79.4675 34.4225 79.3342 34.3641C79.1985 34.3039 79.0541 34.2747 78.8992 34.2747C78.7436 34.2747 78.5974 34.3057 78.4623 34.3664C78.3273 34.4283 78.2121 34.5101 78.115 34.6122C78.0185 34.7168 77.943 34.8388 77.8904 34.9772C77.8354 35.1179 77.808 35.2656 77.808 35.4227V35.4338C77.808 35.5944 77.8354 35.7438 77.8922 35.8863C77.9471 36.0282 78.0255 36.1526 78.1261 36.2583C78.2249 36.3622 78.3436 36.4445 78.4769 36.5029C78.612 36.5631 78.7565 36.5923 78.9103 36.5923C79.067 36.5923 79.2132 36.5631 79.3488 36.4994ZM78.3506 36.7201C78.1845 36.6454 78.0401 36.545 77.9179 36.4188C77.7951 36.2933 77.7004 36.1473 77.6325 35.9792C77.563 35.8116 77.5302 35.6323 77.5302 35.4443V35.4338C77.5302 35.244 77.563 35.0671 77.6325 34.8989C77.7004 34.7314 77.7968 34.583 77.9214 34.4517C78.0454 34.3244 78.1898 34.2222 78.36 34.1475C78.5278 34.0704 78.7109 34.0342 78.9103 34.0342C79.1108 34.0342 79.2921 34.0704 79.46 34.1475C79.6266 34.2222 79.7687 34.3226 79.8915 34.4482C80.0155 34.5725 80.1108 34.7203 80.178 34.8878C80.2476 35.056 80.2804 35.2329 80.2804 35.4227V35.4338C80.2804 35.6218 80.2476 35.8005 80.178 35.9681C80.1108 36.138 80.0137 36.2857 79.8892 36.4136C79.7652 36.5432 79.619 36.6454 79.4506 36.7201C79.2828 36.7966 79.1003 36.8334 78.8992 36.8334C78.6998 36.8334 78.5173 36.7966 78.3506 36.7201Z" fill="#232B34"/>
<path d="M83.1534 36.6771C82.9177 36.5802 82.6897 36.4325 82.4686 36.2368L82.6476 36.0325C82.7499 36.1259 82.8488 36.2077 82.9488 36.2771C83.0493 36.3449 83.1516 36.3998 83.2557 36.4436C83.3604 36.4873 83.4715 36.52 83.5867 36.5434C83.7019 36.5656 83.8282 36.5784 83.9651 36.5784C84.1019 36.5784 84.2282 36.558 84.3434 36.5218C84.4586 36.485 84.5569 36.4342 84.6376 36.3706C84.7177 36.3046 84.7802 36.2281 84.8259 36.1388C84.8715 36.0512 84.8931 35.9542 84.8931 35.8486V35.8375C84.8931 35.7405 84.8785 35.6529 84.8493 35.5747C84.82 35.4982 84.7656 35.4287 84.6867 35.3651C84.6083 35.3026 84.5025 35.2465 84.3691 35.1952C84.2376 35.1444 84.0657 35.0982 83.8534 35.0568C83.6341 35.0107 83.444 34.9581 83.2891 34.898C83.1318 34.8355 83.002 34.7648 82.9014 34.6825C82.8026 34.6002 82.7295 34.5038 82.6838 34.3976C82.6382 34.2884 82.6166 34.164 82.6166 34.0239V34.0128C82.6166 33.8779 82.6458 33.75 82.706 33.6332C82.7645 33.5164 82.8464 33.4143 82.9528 33.3267C83.0569 33.2391 83.1809 33.1714 83.3236 33.1223C83.468 33.0733 83.6253 33.0493 83.7967 33.0493C84.0639 33.0493 84.2937 33.0861 84.4879 33.1591C84.6814 33.2321 84.8715 33.3448 85.058 33.4948L84.8844 33.7097C84.7089 33.5585 84.5335 33.4528 84.3563 33.3903C84.1809 33.3267 83.9908 33.2957 83.7862 33.2957C83.6505 33.2957 83.5265 33.3138 83.4166 33.3506C83.3055 33.3868 83.2119 33.4382 83.1335 33.5001C83.0534 33.562 82.9949 33.6367 82.9528 33.7208C82.9107 33.8031 82.8885 33.8925 82.8885 33.9871V33.9982C82.8885 34.0951 82.9031 34.1844 82.9324 34.2627C82.9634 34.3415 83.0166 34.4121 83.0973 34.4764C83.1756 34.5418 83.2832 34.6002 83.4242 34.6533C83.5651 34.7064 83.7423 34.7537 83.9598 34.7993C84.3873 34.8869 84.6943 35.0107 84.8844 35.1695C85.0726 35.3283 85.1674 35.542 85.1674 35.8118V35.8229C85.1674 35.9688 85.1364 36.1037 85.0762 36.2281C85.0142 36.3519 84.9299 36.4581 84.8241 36.5457C84.7159 36.6333 84.5879 36.7005 84.4399 36.7501C84.292 36.7992 84.1276 36.8231 83.9487 36.8231C83.6546 36.8231 83.3897 36.7752 83.1534 36.6771Z" fill="#232B34"/>
<path d="M86.3012 36.7707H86.0439V34.0959H86.3012V36.7707ZM86.3322 33.4004H86.0123V33.0483H86.3322V33.4004Z" fill="#232B34"/>
<path d="M87.5913 36.7163C87.3954 36.645 87.2258 36.5522 87.0813 36.4354L87.2346 36.2311C87.3807 36.3443 87.5346 36.4296 87.6971 36.4903C87.8562 36.5522 88.024 36.5832 88.1959 36.5832C88.3766 36.5832 88.5304 36.5359 88.6544 36.4465C88.7789 36.3566 88.8409 36.2311 88.8409 36.074V36.0646C88.8409 35.9864 88.8211 35.921 88.7842 35.8644C88.7439 35.8095 88.693 35.7604 88.6251 35.7184C88.5596 35.6763 88.4848 35.6396 88.4006 35.6121C88.3164 35.5853 88.2269 35.5561 88.1322 35.5286L87.8029 35.4282C87.693 35.3955 87.5948 35.3494 87.5071 35.2968C87.4193 35.2419 87.3498 35.1742 87.2948 35.0942C87.2404 35.0136 87.2129 34.9138 87.2129 34.7947V34.7841C87.2129 34.6761 87.2363 34.5757 87.2802 34.4881C87.3223 34.3988 87.3825 34.3205 87.4597 34.2545C87.5363 34.1891 87.6293 34.136 87.7375 34.0998C87.8468 34.063 87.9655 34.0449 88.0953 34.0449C88.2561 34.0449 88.4222 34.0724 88.5924 34.1232C88.7608 34.1763 88.9123 34.2475 89.0456 34.3386L88.9087 34.5541C88.7877 34.4735 88.6544 34.4099 88.5123 34.3608C88.3714 34.3112 88.2287 34.2861 88.0842 34.2861C87.9 34.2861 87.7521 34.3316 87.6422 34.421C87.5305 34.5085 87.4761 34.6195 87.4761 34.7532V34.7637C87.4761 34.8367 87.4977 34.9009 87.5398 34.9535C87.5802 35.0084 87.6351 35.0557 87.7041 35.0942C87.7719 35.1327 87.8521 35.1654 87.9421 35.1964C88.0351 35.2256 88.1263 35.2548 88.2216 35.2822C88.3292 35.3132 88.4368 35.3476 88.5415 35.3844C88.6474 35.4206 88.7421 35.4685 88.8245 35.5269C88.9088 35.5829 88.976 35.6524 89.0275 35.733C89.0783 35.813 89.1041 35.9134 89.1041 36.0319V36.043C89.1041 36.1616 89.0801 36.269 89.0327 36.3642C88.9854 36.4611 88.9193 36.5429 88.8356 36.6123C88.7514 36.6801 88.6544 36.7309 88.5409 36.7677C88.4298 36.8056 88.3094 36.8237 88.1796 36.8237C87.9837 36.8237 87.7866 36.7875 87.5913 36.7163Z" fill="#232B34"/>
<path d="M90.5203 36.7758C90.4291 36.7483 90.3484 36.7045 90.2812 36.6421C90.2133 36.5819 90.1607 36.5037 90.1221 36.4108C90.0817 36.3192 90.0636 36.21 90.0636 36.0839V34.3321H89.6742V34.0968H90.0636V33.2432H90.3215V34.0968H91.2607V34.3321H90.3215V36.0564C90.3215 36.2503 90.3706 36.3852 90.4712 36.4616C90.5701 36.5381 90.6975 36.5767 90.8548 36.5767C90.9226 36.5767 90.9864 36.5691 91.0449 36.5568C91.1051 36.5422 91.1729 36.5165 91.2496 36.4838V36.7226C91.18 36.7553 91.1109 36.7775 91.0431 36.7939C90.9735 36.8085 90.8987 36.8172 90.8127 36.8172C90.7086 36.8172 90.6116 36.8026 90.5203 36.7758Z" fill="#232B34"/>
<path d="M93.9763 34.917C93.9325 34.7933 93.8722 34.6835 93.7939 34.5871C93.7149 34.4902 93.6185 34.4137 93.5015 34.3571C93.3863 34.2987 93.2512 34.2695 93.0974 34.2695C92.9641 34.2695 92.8395 34.2969 92.7249 34.3495C92.6097 34.4009 92.5091 34.4739 92.4232 34.5667C92.3372 34.6578 92.2659 34.7693 92.2092 34.8972C92.1548 35.0227 92.1214 35.1599 92.1109 35.3094H94.057C94.0477 35.1728 94.0202 35.0414 93.9763 34.917ZM92.6477 36.7347C92.4887 36.667 92.3501 36.5724 92.2296 36.4498C92.1086 36.3278 92.0121 36.1818 91.9425 36.0101C91.8729 35.8402 91.8367 35.6504 91.8367 35.4391V35.428C91.8367 35.2364 91.8694 35.056 91.9355 34.8861C91.9992 34.7162 92.0887 34.5685 92.2021 34.4429C92.3173 34.3168 92.4507 34.2181 92.6039 34.1434C92.7577 34.0721 92.9255 34.0342 93.1085 34.0342C93.2986 34.0342 93.4664 34.0704 93.6185 34.1434C93.7682 34.2129 93.8962 34.3133 94.0021 34.4371C94.1097 34.5632 94.1921 34.7109 94.2488 34.8808C94.3073 35.0502 94.3366 35.2347 94.3366 35.4338V35.4881C94.3366 35.5009 94.3348 35.519 94.3307 35.5377H92.1109C92.1214 35.7071 92.1583 35.8548 92.2203 35.9844C92.284 36.114 92.363 36.2256 92.4559 36.3149C92.5513 36.406 92.6588 36.4737 92.7793 36.521C92.9004 36.5683 93.0261 36.5923 93.1612 36.5923C93.3699 36.5923 93.5489 36.552 93.6933 36.472C93.8377 36.3931 93.9676 36.2927 94.0787 36.1724L94.2576 36.3295C94.1208 36.4772 93.9652 36.5975 93.7939 36.6909C93.6202 36.7873 93.4044 36.8328 93.1489 36.8328C92.9752 36.8328 92.8068 36.8001 92.6477 36.7347Z" fill="#232B34"/>
<path d="M95.3424 34.0971V34.5729C95.3863 34.504 95.4336 34.4363 95.4868 34.3727C95.5418 34.3067 95.6038 34.25 95.6734 34.1992C95.743 34.1478 95.8266 34.1081 95.9184 34.0789C96.0114 34.0498 96.1172 34.0352 96.2359 34.0352C96.3511 34.0352 96.457 34.0498 96.5541 34.0825C96.6511 34.1116 96.7348 34.1554 96.8079 34.2062C96.881 34.2594 96.947 34.3195 97.0002 34.3908C97.0546 34.4602 97.1026 34.535 97.1388 34.6097C97.1809 34.5385 97.2318 34.4655 97.2903 34.396C97.3511 34.3271 97.4201 34.2629 97.499 34.2103C97.5774 34.1554 97.6669 34.1116 97.7657 34.0825C97.8663 34.0498 97.9797 34.0352 98.1055 34.0352C98.2628 34.0352 98.4054 34.0603 98.5329 34.1152C98.661 34.17 98.7692 34.2448 98.8586 34.3417C98.9481 34.4363 99.0154 34.5548 99.0633 34.6938C99.1107 34.8304 99.1346 34.984 99.1346 35.1516V36.7719H98.8768V35.1825C98.8768 34.8923 98.8054 34.6681 98.6668 34.5093C98.5277 34.3487 98.3323 34.2705 98.0838 34.2705C97.9721 34.2705 97.8645 34.2903 97.7622 34.3324C97.6581 34.3744 97.568 34.4363 97.4914 34.5169C97.4131 34.5969 97.3528 34.6956 97.3072 34.8141C97.261 34.9291 97.2377 35.064 97.2377 35.2135V36.7719H96.9815V35.1662C96.9815 34.8871 96.9102 34.6681 96.7716 34.5093C96.6324 34.3487 96.4406 34.2705 96.1997 34.2705C96.081 34.2705 95.9675 34.2938 95.8634 34.3435C95.7576 34.3925 95.6675 34.4602 95.5892 34.5478C95.5126 34.6354 95.4523 34.7376 95.4102 34.8526C95.3646 34.9694 95.3424 35.0932 95.3424 35.2298V36.7719H95.0851V34.0971H95.3424Z" fill="#232B34"/>
<path d="M101.295 36.5328C101.418 36.4925 101.526 36.4358 101.617 36.3646C101.712 36.2934 101.785 36.2058 101.839 36.1036C101.895 36.0032 101.92 35.8905 101.92 35.7679V35.4648C101.809 35.438 101.678 35.4105 101.527 35.3831C101.376 35.3574 101.204 35.3445 101.012 35.3445C100.729 35.3445 100.51 35.4012 100.36 35.5162C100.205 35.6295 100.13 35.779 100.13 35.9687V35.9798C100.13 36.0779 100.152 36.1638 100.194 36.2385C100.236 36.3138 100.291 36.3775 100.364 36.4306C100.435 36.4831 100.519 36.5217 100.614 36.5509C100.707 36.5783 100.806 36.5912 100.908 36.5912C101.043 36.5912 101.173 36.5707 101.295 36.5328ZM100.519 36.7809C100.397 36.7459 100.287 36.6934 100.188 36.6239C100.09 36.5544 100.011 36.4668 99.9486 36.3629C99.8866 36.2572 99.8574 36.1346 99.8574 35.9944V35.9833C99.8574 35.8444 99.8849 35.7206 99.9434 35.6131C100 35.5034 100.082 35.4123 100.183 35.3393C100.283 35.2663 100.408 35.2097 100.55 35.1711C100.692 35.1332 100.853 35.1145 101.029 35.1145C101.217 35.1145 101.38 35.1238 101.515 35.146C101.654 35.1659 101.785 35.1933 101.915 35.2295V35.1145C101.915 34.8412 101.836 34.6368 101.681 34.5014C101.526 34.3647 101.308 34.2953 101.032 34.2953C100.87 34.2953 100.718 34.3157 100.581 34.3554C100.446 34.3974 100.316 34.4488 100.194 34.5107L100.099 34.2865C100.247 34.2153 100.395 34.1586 100.544 34.1183C100.694 34.0745 100.863 34.0547 101.049 34.0547C101.416 34.0547 101.698 34.1534 101.895 34.3484C102.076 34.5306 102.167 34.7811 102.167 35.104V36.7716H101.915V36.3243C101.87 36.3886 101.815 36.4504 101.749 36.5106C101.687 36.5707 101.61 36.6256 101.527 36.6729C101.444 36.7202 101.347 36.7588 101.239 36.7897C101.133 36.8189 101.018 36.8335 100.892 36.8335C100.766 36.8335 100.642 36.8154 100.519 36.7809Z" fill="#232B34"/>
<path d="M106.823 32.2468L106.262 32.7852H106.041L106.503 32.0903L106.823 32.2468ZM105.565 36.7265C105.381 36.657 105.222 36.5572 105.088 36.4217C104.953 36.2886 104.849 36.1228 104.776 35.9254C104.701 35.7304 104.664 35.5038 104.664 35.2452V33.1011H104.937V35.2195C104.937 35.6574 105.047 35.9931 105.266 36.2285C105.483 36.4655 105.79 36.5823 106.183 36.5823C106.368 36.5823 106.536 36.5549 106.688 36.4988C106.836 36.4439 106.965 36.3581 107.073 36.2466C107.179 36.1339 107.261 35.9949 107.32 35.8273C107.378 35.6592 107.406 35.4659 107.406 35.2452V33.1011H107.678V35.2142C107.678 35.4746 107.641 35.7082 107.568 35.9091C107.495 36.1082 107.391 36.2775 107.259 36.4147C107.126 36.5514 106.967 36.6535 106.782 36.723C106.6 36.7943 106.395 36.827 106.172 36.827C105.951 36.827 105.75 36.7943 105.565 36.7265Z" fill="#232B34"/>
<path d="M108.911 34.0971V34.5951C109.002 34.4363 109.125 34.3049 109.28 34.1957C109.434 34.0877 109.632 34.0352 109.878 34.0352C110.046 34.0352 110.196 34.0603 110.329 34.1152C110.462 34.17 110.574 34.2448 110.667 34.3435C110.76 34.4416 110.83 34.5566 110.877 34.6938C110.925 34.8269 110.948 34.9747 110.948 35.1352V36.7719H110.691V35.1825C110.691 34.9052 110.618 34.6845 110.47 34.5204C110.324 34.3522 110.113 34.2705 109.841 34.2705C109.707 34.2705 109.585 34.2938 109.472 34.3417C109.361 34.3873 109.263 34.4526 109.178 34.5385C109.093 34.6226 109.03 34.7212 108.982 34.8398C108.935 34.9566 108.911 35.0838 108.911 35.2246V36.7719H108.653V34.0971H108.911Z" fill="#232B34"/>
<path d="M112.165 36.7707H111.907V34.0959H112.165V36.7707ZM112.196 33.4004H111.876V33.0483H112.196V33.4004Z" fill="#232B34"/>
<path d="M113.821 36.7209C113.655 36.6444 113.511 36.5457 113.388 36.4202C113.266 36.2923 113.17 36.1464 113.099 35.9788C113.03 35.8124 112.993 35.6337 112.993 35.4439V35.4328C112.993 35.2448 113.03 35.0679 113.099 34.9003C113.17 34.7304 113.266 34.5827 113.388 34.453C113.511 34.3252 113.655 34.2212 113.821 34.1465C113.987 34.0717 114.166 34.0332 114.359 34.0332C114.486 34.0332 114.6 34.0478 114.704 34.0735C114.808 34.0992 114.903 34.1354 114.989 34.1809C115.077 34.2271 115.157 34.2796 115.228 34.338C115.3 34.3981 115.367 34.4606 115.431 34.526L115.246 34.7158C115.131 34.5955 115.004 34.4933 114.864 34.4057C114.724 34.3181 114.554 34.2761 114.355 34.2761C114.2 34.2761 114.057 34.3053 113.925 34.3637C113.796 34.4238 113.682 34.5062 113.586 34.6083C113.489 34.7105 113.414 34.8326 113.357 34.9733C113.3 35.1117 113.273 35.2612 113.273 35.4241V35.4328C113.273 35.5934 113.302 35.7452 113.359 35.8871C113.417 36.0296 113.496 36.1516 113.596 36.2579C113.695 36.3618 113.812 36.4436 113.943 36.5043C114.077 36.5627 114.221 36.5919 114.375 36.5919C114.565 36.5919 114.733 36.5498 114.883 36.464C115.031 36.3782 115.16 36.2725 115.272 36.1463L115.451 36.3034C115.314 36.4582 115.159 36.5843 114.987 36.6847C114.815 36.7834 114.605 36.8342 114.359 36.8342C114.166 36.8342 113.987 36.7962 113.821 36.7209Z" fill="#232B34"/>
<path d="M117.811 36.4994C117.947 36.4393 118.061 36.357 118.157 36.2548C118.254 36.1508 118.329 36.0305 118.381 35.8898C118.438 35.7491 118.464 35.6014 118.464 35.4443V35.4338C118.464 35.2732 118.436 35.1214 118.38 34.9813C118.325 34.8388 118.246 34.7144 118.146 34.6105C118.047 34.5048 117.93 34.4225 117.795 34.3641C117.66 34.3039 117.517 34.2747 117.362 34.2747C117.205 34.2747 117.059 34.3057 116.923 34.3664C116.79 34.4283 116.673 34.5101 116.576 34.6122C116.481 34.7168 116.404 34.8388 116.351 34.9772C116.297 35.1179 116.269 35.2656 116.269 35.4227V35.4338C116.269 35.5944 116.297 35.7438 116.353 35.8863C116.409 36.0282 116.487 36.1526 116.587 36.2583C116.687 36.3622 116.804 36.4445 116.94 36.5029C117.073 36.5631 117.218 36.5923 117.373 36.5923C117.53 36.5923 117.676 36.5631 117.811 36.4994ZM116.814 36.7201C116.647 36.6454 116.501 36.545 116.38 36.4188C116.258 36.2933 116.161 36.1473 116.094 35.9792C116.026 35.8116 115.991 35.6323 115.991 35.4443V35.4338C115.991 35.244 116.026 35.0671 116.094 34.8989C116.161 34.7314 116.258 34.583 116.383 34.4517C116.507 34.3244 116.653 34.2222 116.821 34.1475C116.989 34.0704 117.174 34.0342 117.373 34.0342C117.572 34.0342 117.754 34.0704 117.921 34.1475C118.087 34.2222 118.232 34.3226 118.354 34.4482C118.477 34.5725 118.571 34.7203 118.641 34.8878C118.709 35.056 118.742 35.2329 118.742 35.4227V35.4338C118.742 35.6218 118.709 35.8005 118.641 35.9681C118.571 36.138 118.475 36.2857 118.352 36.4136C118.228 36.5432 118.082 36.6454 117.913 36.7201C117.746 36.7966 117.561 36.8334 117.362 36.8334C117.163 36.8334 116.98 36.7966 116.814 36.7201Z" fill="#232B34"/>
<path d="M122.671 36.5034C122.803 36.4491 122.917 36.3685 123.02 36.2681C123.122 36.1659 123.203 36.0456 123.265 35.9067C123.325 35.7665 123.356 35.6095 123.356 35.4378V35.429C123.356 35.2574 123.325 35.1021 123.265 34.9602C123.203 34.8177 123.122 34.6974 123.02 34.5987C122.917 34.4983 122.803 34.4201 122.671 34.3652C122.54 34.3085 122.404 34.2793 122.264 34.2793C122.117 34.2793 121.98 34.3068 121.853 34.3593C121.724 34.4125 121.613 34.4855 121.52 34.5841C121.424 34.6828 121.35 34.8031 121.295 34.9456C121.242 35.0857 121.215 35.2445 121.215 35.4232V35.4343C121.215 35.6077 121.242 35.7683 121.299 35.9125C121.353 36.055 121.43 36.1753 121.527 36.2757C121.624 36.3761 121.736 36.4509 121.863 36.5052C121.989 36.5601 122.124 36.5875 122.264 36.5875C122.404 36.5875 122.54 36.5601 122.671 36.5034ZM121.762 36.7387C121.607 36.6768 121.468 36.5875 121.346 36.4672C121.224 36.3487 121.125 36.2027 121.048 36.0293C120.973 35.8559 120.937 35.6626 120.937 35.4454V35.4343C120.937 35.2171 120.973 35.0221 121.048 34.8486C121.125 34.677 121.224 34.5292 121.346 34.409C121.468 34.2887 121.607 34.1953 121.762 34.1316C121.918 34.0674 122.075 34.0347 122.238 34.0347C122.371 34.0347 122.493 34.051 122.605 34.0878C122.717 34.1223 122.817 34.1678 122.907 34.228C122.996 34.2887 123.076 34.3558 123.148 34.4347C123.221 34.5094 123.283 34.5894 123.34 34.6735V32.9434H123.597V36.772H123.34V36.1735C123.279 36.2611 123.216 36.3446 123.143 36.4252C123.071 36.5052 122.99 36.5747 122.901 36.6348C122.813 36.6932 122.713 36.7411 122.603 36.779C122.492 36.8158 122.371 36.8339 122.238 36.8339C122.075 36.8339 121.918 36.803 121.762 36.7387Z" fill="#232B34"/>
<path d="M126.528 34.917C126.485 34.7933 126.424 34.6835 126.346 34.5871C126.268 34.4902 126.169 34.4137 126.054 34.3571C125.938 34.2987 125.803 34.2695 125.649 34.2695C125.516 34.2695 125.392 34.2969 125.277 34.3495C125.162 34.4009 125.061 34.4739 124.975 34.5667C124.889 34.6578 124.818 34.7693 124.762 34.8972C124.707 35.0227 124.672 35.1599 124.663 35.3094H126.611C126.6 35.1728 126.572 35.0414 126.528 34.917ZM125.202 36.7347C125.041 36.667 124.9 36.5724 124.78 36.4498C124.659 36.3278 124.564 36.1818 124.495 36.0101C124.426 35.8402 124.389 35.6504 124.389 35.4391V35.428C124.389 35.2364 124.421 35.056 124.486 34.8861C124.551 34.7162 124.641 34.5685 124.754 34.4429C124.868 34.3168 125.001 34.2181 125.156 34.1434C125.31 34.0721 125.478 34.0342 125.659 34.0342C125.849 34.0342 126.019 34.0704 126.169 34.1434C126.32 34.2129 126.448 34.3133 126.556 34.4371C126.662 34.5632 126.744 34.7109 126.801 34.8808C126.859 35.0502 126.889 35.2347 126.889 35.4338V35.4881C126.889 35.5009 126.887 35.519 126.883 35.5377H124.663C124.672 35.7071 124.71 35.8548 124.772 35.9844C124.837 36.114 124.915 36.2256 125.008 36.3149C125.103 36.406 125.211 36.4737 125.332 36.521C125.452 36.5683 125.58 36.5923 125.714 36.5923C125.924 36.5923 126.099 36.552 126.245 36.472C126.39 36.3931 126.52 36.2927 126.631 36.1724L126.81 36.3295C126.673 36.4772 126.518 36.5975 126.346 36.6909C126.172 36.7873 125.958 36.8328 125.701 36.8328C125.527 36.8328 125.359 36.8001 125.202 36.7347Z" fill="#232B34"/>
<path d="M129.72 36.6771C129.483 36.5802 129.254 36.4325 129.033 36.2368L129.214 36.0325C129.314 36.1259 129.415 36.2077 129.515 36.2771C129.616 36.3449 129.717 36.3998 129.822 36.4436C129.927 36.4873 130.036 36.52 130.151 36.5434C130.268 36.5656 130.394 36.5784 130.531 36.5784C130.669 36.5784 130.793 36.558 130.91 36.5218C131.025 36.485 131.122 36.4342 131.202 36.3706C131.284 36.3046 131.346 36.2281 131.392 36.1388C131.438 36.0512 131.46 35.9542 131.46 35.8486V35.8375C131.46 35.7405 131.445 35.6529 131.416 35.5747C131.385 35.4982 131.332 35.4287 131.253 35.3651C131.174 35.3026 131.069 35.2465 130.935 35.1952C130.802 35.1444 130.63 35.0982 130.42 35.0568C130.201 35.0107 130.011 34.9581 129.853 34.898C129.696 34.8355 129.569 34.7648 129.468 34.6825C129.369 34.6002 129.296 34.5038 129.25 34.3976C129.205 34.2884 129.181 34.164 129.181 34.0239V34.0128C129.181 33.8779 129.212 33.75 129.272 33.6332C129.329 33.5164 129.413 33.4143 129.517 33.3267C129.621 33.2391 129.748 33.1714 129.89 33.1223C130.032 33.0733 130.191 33.0493 130.363 33.0493C130.628 33.0493 130.859 33.0861 131.054 33.1591C131.248 33.2321 131.438 33.3448 131.624 33.4948L131.449 33.7097C131.275 33.5585 131.098 33.4528 130.922 33.3903C130.745 33.3267 130.555 33.2957 130.352 33.2957C130.215 33.2957 130.093 33.3138 129.981 33.3506C129.872 33.3868 129.777 33.4382 129.7 33.5001C129.62 33.562 129.559 33.6367 129.517 33.7208C129.475 33.8031 129.455 33.8925 129.455 33.9871V33.9982C129.455 34.0951 129.47 34.1844 129.499 34.2627C129.53 34.3415 129.583 34.4121 129.663 34.4764C129.74 34.5418 129.85 34.6002 129.99 34.6533C130.129 34.7064 130.308 34.7537 130.526 34.7993C130.953 34.8869 131.26 35.0107 131.449 35.1695C131.639 35.3283 131.734 35.542 131.734 35.8118V35.8229C131.734 35.9688 131.703 36.1037 131.64 36.2281C131.58 36.3519 131.494 36.4581 131.39 36.5457C131.283 36.6333 131.155 36.7005 131.007 36.7501C130.857 36.7992 130.694 36.8231 130.515 36.8231C130.221 36.8231 129.956 36.7752 129.72 36.6771Z" fill="#232B34"/>
<path d="M133.789 36.5328C133.912 36.4925 134.02 36.4358 134.113 36.3646C134.206 36.2934 134.28 36.2058 134.335 36.1036C134.389 36.0032 134.416 35.8905 134.416 35.7679V35.4648C134.303 35.438 134.171 35.4105 134.022 35.3831C133.872 35.3574 133.7 35.3445 133.506 35.3445C133.223 35.3445 133.006 35.4012 132.854 35.5162C132.701 35.6295 132.626 35.779 132.626 35.9687V35.9798C132.626 36.0779 132.647 36.1638 132.688 36.2385C132.73 36.3138 132.787 36.3775 132.858 36.4306C132.931 36.4831 133.013 36.5217 133.108 36.5509C133.201 36.5783 133.3 36.5912 133.402 36.5912C133.539 36.5912 133.667 36.5707 133.789 36.5328ZM133.013 36.7809C132.891 36.7459 132.781 36.6934 132.684 36.6239C132.584 36.5544 132.505 36.4668 132.443 36.3629C132.383 36.2572 132.352 36.1346 132.352 35.9944V35.9833C132.352 35.8444 132.381 35.7206 132.439 35.6131C132.496 35.5034 132.576 35.4123 132.677 35.3393C132.779 35.2663 132.902 35.2097 133.044 35.1711C133.188 35.1332 133.347 35.1145 133.523 35.1145C133.711 35.1145 133.874 35.1238 134.011 35.146C134.148 35.1659 134.281 35.1933 134.409 35.2295V35.1145C134.409 34.8412 134.332 34.6368 134.175 34.5014C134.02 34.3647 133.802 34.2953 133.528 34.2953C133.364 34.2953 133.212 34.3157 133.077 34.3554C132.94 34.3974 132.81 34.4488 132.688 34.5107L132.592 34.2865C132.741 34.2153 132.889 34.1586 133.04 34.1183C133.19 34.0745 133.359 34.0547 133.545 34.0547C133.911 34.0547 134.192 34.1534 134.389 34.3484C134.572 34.5306 134.661 34.7811 134.661 35.104V36.7716H134.409V36.3243C134.364 36.3886 134.309 36.4504 134.244 36.5106C134.181 36.5707 134.106 36.6256 134.022 36.6729C133.937 36.7202 133.843 36.7588 133.735 36.7897C133.629 36.8189 133.512 36.8335 133.386 36.8335C133.26 36.8335 133.136 36.8154 133.013 36.7809Z" fill="#232B34"/>
<path d="M137.333 33.1375L136.772 33.6777H136.551L137.013 32.9805L137.333 33.1375ZM136.153 36.7525C136.019 36.6976 135.906 36.6211 135.813 36.5242C135.72 36.4273 135.65 36.3105 135.605 36.1756C135.557 36.0407 135.533 35.8947 135.533 35.7324V34.0975H135.789V35.6869C135.789 35.9619 135.864 36.1832 136.01 36.349C136.158 36.5148 136.368 36.5989 136.641 36.5989C136.771 36.5989 136.891 36.575 137.006 36.5277C137.119 36.4804 137.218 36.4127 137.3 36.3292C137.385 36.2468 137.452 36.1446 137.499 36.0296C137.545 35.9128 137.569 35.7832 137.569 35.6431V34.0975H137.827V36.7706H137.569V36.2725C137.479 36.4313 137.357 36.5627 137.202 36.6719C137.048 36.7793 136.849 36.8342 136.604 36.8342C136.436 36.8342 136.284 36.8068 136.153 36.7525Z" fill="#232B34"/>
<path d="M140.365 36.5034C140.496 36.4491 140.611 36.3685 140.714 36.2681C140.816 36.1659 140.896 36.0456 140.956 35.9067C141.019 35.7665 141.05 35.6095 141.05 35.4378V35.429C141.05 35.2574 141.019 35.1021 140.956 34.9602C140.896 34.8177 140.816 34.6974 140.714 34.5987C140.611 34.4983 140.496 34.4201 140.365 34.3652C140.233 34.3085 140.098 34.2793 139.957 34.2793C139.811 34.2793 139.672 34.3068 139.546 34.3593C139.418 34.4125 139.306 34.4855 139.211 34.5841C139.116 34.6828 139.043 34.8031 138.989 34.9456C138.934 35.0857 138.908 35.2445 138.908 35.4232V35.4343C138.908 35.6077 138.935 35.7683 138.992 35.9125C139.047 36.055 139.124 36.1753 139.221 36.2757C139.316 36.3761 139.429 36.4509 139.555 36.5052C139.685 36.5601 139.818 36.5875 139.957 36.5875C140.098 36.5875 140.233 36.5601 140.365 36.5034ZM139.456 36.7387C139.299 36.6768 139.16 36.5875 139.038 36.4672C138.916 36.3487 138.818 36.2027 138.742 36.0293C138.667 35.8559 138.628 35.6626 138.628 35.4454V35.4343C138.628 35.2171 138.667 35.0221 138.742 34.8486C138.818 34.677 138.916 34.5292 139.038 34.409C139.16 34.2887 139.299 34.1953 139.456 34.1316C139.611 34.0674 139.771 34.0347 139.931 34.0347C140.065 34.0347 140.187 34.051 140.299 34.0878C140.412 34.1223 140.513 34.1678 140.6 34.228C140.69 34.2887 140.77 34.3558 140.844 34.4347C140.913 34.5094 140.979 34.5894 141.033 34.6735V32.9434H141.291V36.772H141.033V36.1735C140.975 36.2611 140.909 36.3446 140.836 36.4252C140.765 36.5052 140.685 36.5747 140.597 36.6348C140.505 36.6932 140.407 36.7411 140.295 36.779C140.185 36.8158 140.065 36.8339 139.931 36.8339C139.771 36.8339 139.611 36.803 139.456 36.7387Z" fill="#232B34"/>
<path d="M144.222 34.917C144.178 34.7933 144.118 34.6835 144.039 34.5871C143.96 34.4902 143.864 34.4137 143.747 34.3571C143.632 34.2987 143.497 34.2695 143.343 34.2695C143.21 34.2695 143.086 34.2969 142.97 34.3495C142.853 34.4009 142.755 34.4739 142.669 34.5667C142.583 34.6578 142.511 34.7693 142.455 34.8972C142.4 35.0227 142.367 35.1599 142.356 35.3094H144.303C144.293 35.1728 144.266 35.0414 144.222 34.917ZM142.893 36.7347C142.735 36.667 142.594 36.5724 142.473 36.4498C142.352 36.3278 142.258 36.1818 142.188 36.0101C142.117 35.8402 142.082 35.6504 142.082 35.4391V35.428C142.082 35.2364 142.115 35.056 142.179 34.8861C142.245 34.7162 142.334 34.5685 142.448 34.4429C142.561 34.3168 142.696 34.2181 142.849 34.1434C143.003 34.0721 143.171 34.0342 143.354 34.0342C143.542 34.0342 143.712 34.0704 143.864 34.1434C144.014 34.2129 144.142 34.3133 144.248 34.4371C144.355 34.5632 144.438 34.7109 144.496 34.8808C144.553 35.0502 144.582 35.2347 144.582 35.4338V35.4881C144.582 35.5009 144.58 35.519 144.577 35.5377H142.356C142.367 35.7071 142.402 35.8548 142.466 35.9844C142.528 36.114 142.608 36.2256 142.701 36.3149C142.797 36.406 142.904 36.4737 143.025 36.521C143.146 36.5683 143.272 36.5923 143.405 36.5923C143.615 36.5923 143.794 36.552 143.939 36.472C144.085 36.3931 144.211 36.2927 144.324 36.1724L144.504 36.3295C144.366 36.4772 144.211 36.5975 144.039 36.6909C143.866 36.7873 143.65 36.8328 143.394 36.8328C143.221 36.8328 143.052 36.8001 142.893 36.7347Z" fill="#232B34"/>
<path d="M46.0752 18.2367C47.0459 18.2367 47.6927 17.8005 47.6927 16.9941V16.9614C47.6927 16.1381 47.0933 15.7183 46.0916 15.7183H45.0577V18.2367H46.0752ZM41.2748 12.7007H46.3659C49.3739 12.7007 51.4259 14.0396 51.4259 16.7203V16.7512C51.4259 19.4792 49.3412 20.932 46.2857 20.932H45.0577V23.9992H41.2748V12.7007Z" fill="#47525D"/>
<path d="M57.652 18.0752C58.5566 18.0752 59.1063 17.6717 59.1063 16.9763V16.9454C59.1063 16.2196 58.5396 15.8634 57.6683 15.8634H56.0199V18.0752H57.652ZM52.2369 12.6992H57.7648C59.77 12.6992 61.0454 13.2014 61.8383 13.9914C62.5184 14.6699 62.8728 15.5096 62.8728 16.6698V16.7031C62.8728 18.3485 62.0155 19.4947 60.6413 20.1568L63.2763 23.9978H58.9601L56.8274 20.7699H56.0199V23.9978H52.2369V12.6992Z" fill="#47525D"/>
<path d="M72.0737 18.3821V18.3494C72.0737 17.0099 71.1527 15.8001 69.6978 15.8001C68.258 15.8001 67.3534 16.9936 67.3534 18.3185V18.3494C67.3534 19.6906 68.2744 20.9005 69.7288 20.9005C71.1691 20.9005 72.0737 19.7052 72.0737 18.3821ZM63.5378 18.3821V18.3494C63.5378 15.0737 66.2383 12.459 69.7288 12.459C73.221 12.459 75.8893 15.041 75.8893 18.3185V18.3494C75.8893 21.6263 73.1883 24.241 69.6978 24.241C66.2055 24.241 63.5378 21.6596 63.5378 18.3821Z" fill="#47525D"/>
<path d="M83.0194 19.8021L81.9855 17.0578L80.9511 19.8021H83.0194ZM80.1412 12.6201H83.8931L88.6607 23.9987H84.5544L83.9568 22.4805H79.9973L79.4143 23.9987H75.3735L80.1412 12.6201Z" fill="#47525D"/>
<path d="M93.546 20.7059C95.2746 20.7059 96.3909 19.9965 96.3909 18.365V18.3341C96.3909 16.7027 95.2746 15.9926 93.546 15.9926H92.9156V20.7059H93.546ZM89.1327 12.7012H93.4653C97.9593 12.7012 100.205 14.9107 100.205 18.2518V18.2845C100.205 21.6256 97.9095 23.9997 93.3354 23.9997H89.1327V12.7012Z" fill="#47525D"/>
<path d="M105.058 12.7012H101.275V23.9997H105.058V12.7012Z" fill="#47525D"/>
<path d="M111.847 17.4131H106.222V20.4149H111.847V17.4131Z" fill="#47525D"/>
<path d="M112.044 22.3049L114.065 19.8998C115.293 20.8358 116.7 21.2223 118.025 21.2223C118.702 21.2223 118.995 21.0454 118.995 20.7389V20.7062C118.995 20.3833 118.639 20.2063 117.427 19.9634C114.888 19.4473 112.658 18.7209 112.658 16.3321V16.2994C112.658 14.1536 114.339 12.4912 117.458 12.4912C119.64 12.4912 121.257 13.008 122.568 14.0403L120.724 16.5896C119.657 15.816 118.381 15.4767 117.33 15.4767C116.764 15.4767 116.504 15.67 116.504 15.9456V15.9765C116.504 16.2831 116.811 16.4781 118.008 16.7029C120.901 17.2354 122.841 18.0751 122.841 20.3523V20.3833C122.841 22.7574 120.885 24.2096 117.847 24.2096C115.552 24.2096 113.481 23.5638 112.044 22.3049Z" fill="#47525D"/>
<path d="M123.619 18.9308V12.7012H127.466V18.883C127.466 20.2867 128.193 20.8828 129.213 20.8828C130.231 20.8828 130.958 20.3357 130.958 18.9635V12.7012H134.805V18.8503C134.805 22.7075 132.559 24.2239 129.18 24.2239C125.802 24.2239 123.619 22.6748 123.619 18.9308Z" fill="#47525D"/>
<path d="M135.067 22.3049L137.086 19.8998C138.317 20.8358 139.722 21.2223 141.048 21.2223C141.727 21.2223 142.019 21.0454 142.019 20.7389V20.7062C142.019 20.3833 141.662 20.2063 140.449 19.9634C137.913 19.4473 135.681 18.7209 135.681 16.3321V16.2994C135.681 14.1536 137.362 12.4912 140.482 12.4912C142.664 12.4912 144.281 13.008 145.59 14.0403L143.748 16.5896C142.68 15.816 141.403 15.4767 140.352 15.4767C139.788 15.4767 139.528 15.67 139.528 15.9456V15.9765C139.528 16.2831 139.835 16.4781 141.032 16.7029C143.925 17.2354 145.866 18.0751 145.866 20.3523V20.3833C145.866 22.7574 143.908 24.2096 140.871 24.2096C138.576 24.2096 136.506 23.5638 135.067 22.3049Z" fill="#47525D"/>
</svg>
