<svg width="107" height="27" viewBox="0 0 107 27" fill="none" xmlns="http://www.w3.org/2000/svg">
<path fill-rule="evenodd" clip-rule="evenodd" d="M22.8057 13.1613L25.3072 17.7326L22.7083 22.1306L22.6438 22.2405L22.5139 22.2415L18.0143 22.2504H17.9862L17.9327 22.3293L15.1021 26.5234L15.0304 26.6274L9.89608 26.6365L9.83245 26.5234L7.48394 22.2415L2.47466 22.2504L0.0634069 17.8435L0.00108033 17.7296L0.0664318 17.6202L2.53159 13.4362L2.59802 13.3268L0.0664318 9.02716L0 8.91516L0.0664318 8.80295L2.66445 4.39887H7.85077L10.4596 0.00996564L15.4704 0H15.5996L15.6626 0.114813L17.9483 4.28514L17.9888 4.35642L18.0119 4.39887H22.8334L25.2347 8.78584L25.3072 8.91863L25.242 9.02716L22.8057 13.1613ZM12.8486 13.214H17.6025L15.315 9.02802H15.2806L15.2804 9.02716H10.525L11.9533 11.6395L12.814 13.212H12.8486V13.214ZM17.7683 22.2238H17.7341L12.749 22.2324L14.9815 26.301L15.0004 26.2732L15.0157 26.301L17.7683 22.2238ZM18.1716 22.0271L22.425 22.018L20.2072 17.9716L20.1908 18.0038L20.173 17.9703L18.1409 21.9991L18.1271 22.0271H18.1716ZM0.326309 9.02716L2.72763 13.105H2.76268L5.1694 9.02802H5.13476V9.02716H0.326309ZM2.72437 13.5515L0.326309 17.6202H4.98544L2.75879 13.5515H2.72437ZM22.5836 21.9032L25.0496 17.7296L22.5485 13.1576L24.983 9.02716L25.05 8.91278L24.9899 8.80295L22.7632 4.73661L20.3647 8.80295L20.2624 8.97646L17.9411 4.73661L17.8444 4.90231L15.8636 8.2592L15.6987 8.53974L15.4753 8.91863L17.8232 13.212L17.8853 13.3268L17.821 13.4362L16.5877 15.5295L15.3548 17.6202L15.2899 17.7296L15.3624 17.8435L17.9418 21.8962L19.9873 17.8435L20.0996 17.6202L20.1645 17.4911L20.2349 17.6202L22.5836 21.9032ZM15.5294 0.339115L13.1307 4.39896H17.791L15.5647 0.339115L15.5468 0.369444L15.5294 0.339115ZM10.3449 17.6203H15.1295L16.3622 15.5296L17.5957 13.4363H12.812L10.3449 17.6203ZM10.1871 17.5048L12.6538 13.3241L11.8375 11.8326L10.3674 9.14247L10.349 9.17215L10.3332 9.14247L7.93297 13.2121L7.86609 13.3269L10.1533 17.5048L10.1704 17.4756L10.1871 17.5048ZM10.0274 26.413L14.7824 26.4044L12.5562 22.346L12.4313 22.119L12.3711 22.0085L12.4954 22.0079H12.4958L17.0417 22.0009L17.7241 21.9992L15.756 18.8852L15.0973 17.8436H10.083L10.0205 17.7297L7.73409 13.5515L7.67155 13.4363H2.91677L5.14255 17.5048L5.26721 17.7327L5.32802 17.8436H0.318746L2.60643 22.0271L7.61657 22.018L9.96463 26.2997L10.0274 26.413ZM2.79255 4.62387L0.326309 8.80309H5.52755L5.39553 9.02729L2.92413 13.2121H7.67393L10.2072 8.91291L10.2722 8.80309H15.2823L15.5572 8.33949L15.6887 8.11702L17.7191 4.67435L17.6905 4.62387H12.739L15.3377 0.225866L10.5873 0.233868L7.97863 4.62387H2.79255ZM22.6046 4.62387H18.1337L20.2693 8.5245L20.287 8.49482L20.3041 8.5245L22.6046 4.62387ZM30.3557 19.6245C30.505 19.6245 30.6402 19.6429 30.7623 19.6806C30.8841 19.7178 30.9893 19.7711 31.078 19.8424C31.167 19.913 31.2354 19.999 31.2845 20.1006C31.3336 20.2022 31.3581 20.3186 31.3581 20.4496V20.4578C31.3581 20.5993 31.3293 20.7241 31.2733 20.832C31.2165 20.9401 31.1397 21.0302 31.0436 21.1023C30.9471 21.174 30.8355 21.2282 30.7082 21.2641C30.5812 21.2999 30.447 21.3183 30.3055 21.3183H29.5777V22.325H29.3766V19.6245H30.3557ZM30.6604 21.0871C30.7627 21.0555 30.851 21.0113 30.924 20.9533C30.9978 20.8954 31.0549 20.8257 31.0958 20.7434C31.1365 20.6606 31.1575 20.5692 31.1575 20.4693V20.4615C31.1575 20.353 31.1373 20.2588 31.0975 20.1784C31.0581 20.0969 31.0021 20.0294 30.9302 19.9752C30.8577 19.9215 30.7718 19.8801 30.6716 19.8519C30.5716 19.8236 30.4608 19.8093 30.3401 19.8093H29.5777V21.1331H30.3169C30.4427 21.1331 30.5571 21.117 30.6604 21.0871ZM32.0968 20.3577V20.917C32.1357 20.8293 32.1842 20.7483 32.244 20.674C32.3026 20.5994 32.3699 20.536 32.4441 20.4831C32.5184 20.4302 32.6002 20.3904 32.6889 20.3631C32.7776 20.336 32.8709 20.3237 32.9676 20.3269V20.5347H32.9486C32.8361 20.5347 32.7281 20.5563 32.6253 20.599C32.5221 20.6412 32.4322 20.7043 32.3535 20.7879C32.2747 20.8711 32.2126 20.9735 32.1665 21.0964C32.12 21.2186 32.0968 21.3594 32.0968 21.5184V22.3251H31.9081V20.3577H32.0968ZM33.9179 22.2887C33.7956 22.233 33.69 22.1591 33.6 22.0662C33.5099 21.9739 33.4396 21.8663 33.3896 21.7426C33.3394 21.6195 33.3143 21.4876 33.3143 21.3492V21.3409C33.3143 21.2021 33.3394 21.071 33.3896 20.948C33.4396 20.8243 33.5104 20.7149 33.6019 20.6196C33.6924 20.5245 33.8006 20.4491 33.9233 20.3945C34.0466 20.3388 34.1819 20.3113 34.3286 20.3113C34.4745 20.3113 34.6091 20.3388 34.7312 20.3945C34.8532 20.4491 34.959 20.5232 35.0491 20.6159C35.1389 20.7084 35.2088 20.8165 35.2592 20.94C35.3094 21.0632 35.3341 21.1947 35.3341 21.334V21.3409C35.3341 21.4802 35.3094 21.6117 35.2592 21.7343C35.2088 21.8585 35.1384 21.9674 35.0469 22.0625C34.9558 22.1576 34.8489 22.233 34.7249 22.2887C34.6015 22.3435 34.4669 22.371 34.3202 22.371C34.1739 22.371 34.0397 22.3435 33.9179 22.2887ZM34.65 22.126C34.7493 22.0814 34.8337 22.0212 34.9041 21.9449C34.9753 21.8691 35.03 21.7798 35.0698 21.6765C35.1099 21.5738 35.1302 21.4651 35.1302 21.3492V21.3409C35.1302 21.2231 35.1094 21.1115 35.0685 21.0075C35.0274 20.9038 34.9696 20.8124 34.8965 20.7355C34.8238 20.6583 34.7374 20.5977 34.6388 20.5544C34.5394 20.5108 34.4336 20.4887 34.3202 20.4887C34.2053 20.4887 34.0975 20.5113 33.9988 20.5563C33.9001 20.6009 33.8151 20.662 33.7439 20.7374C33.6736 20.8132 33.6182 20.9023 33.5783 21.0054C33.5383 21.1083 33.5188 21.2181 33.5188 21.334V21.3409C33.5188 21.4599 33.5389 21.5708 33.5805 21.675C33.622 21.7794 33.6785 21.8699 33.7523 21.9473C33.8253 22.0244 33.9114 22.0846 34.0101 22.1284C34.109 22.1724 34.2154 22.194 34.3286 22.194C34.4435 22.194 34.5507 22.1715 34.65 22.126ZM35.8771 22.6491L35.9883 22.4946C36.2274 22.68 36.4923 22.7723 36.7823 22.7723C36.8957 22.7723 36.9989 22.7567 37.0926 22.7244C37.187 22.6924 37.2675 22.6441 37.3361 22.5797C37.4041 22.5154 37.4569 22.4363 37.4954 22.3412C37.5343 22.245 37.5538 22.1352 37.5538 22.0083V21.7234C37.5097 21.7849 37.4614 21.8428 37.4071 21.8971C37.3532 21.9504 37.2928 21.9992 37.2259 22.0418C37.1593 22.0841 37.0851 22.1172 37.0022 22.1421C36.9202 22.1664 36.8304 22.1783 36.7328 22.1783C36.6146 22.1783 36.4986 22.1564 36.3854 22.1131C36.2729 22.0689 36.172 22.0065 36.0835 21.9262C35.9946 21.8447 35.9229 21.7477 35.8695 21.6341C35.8152 21.5215 35.7883 21.3937 35.7883 21.2527V21.2453C35.7883 21.1032 35.8152 20.9741 35.8695 20.8593C35.9229 20.7434 35.9946 20.645 36.0835 20.5636C36.172 20.4832 36.2729 20.4206 36.3854 20.3766C36.4986 20.3333 36.6146 20.3112 36.7328 20.3112C36.8304 20.3112 36.9208 20.3231 37.0046 20.3476C37.0875 20.3723 37.163 20.4041 37.2298 20.4442C37.2965 20.4841 37.3569 20.5309 37.411 20.5852C37.4653 20.6394 37.5123 20.6946 37.5538 20.7512V20.3578H37.7425V22.0204C37.7425 22.1642 37.7205 22.292 37.6772 22.4023C37.633 22.513 37.5716 22.6081 37.4921 22.6883C37.4071 22.7723 37.3041 22.8371 37.1814 22.8826C37.06 22.9281 36.9251 22.9502 36.7786 22.9502C36.4471 22.9502 36.1471 22.8501 35.8771 22.6491ZM37.0524 21.9431C37.15 21.9073 37.2374 21.8562 37.3127 21.7905C37.3883 21.7251 37.4493 21.6469 37.4954 21.5555C37.5419 21.4641 37.5651 21.3616 37.5651 21.249V21.2407C37.5651 21.1281 37.5419 21.0248 37.4954 20.9323C37.4493 20.8393 37.3883 20.7607 37.3127 20.6946C37.2374 20.6294 37.15 20.5792 37.0524 20.5443C36.9548 20.5103 36.8548 20.4923 36.7516 20.4923C36.649 20.4923 36.5516 20.5103 36.459 20.5443C36.3666 20.5792 36.2852 20.6283 36.2162 20.6933C36.1471 20.7577 36.0922 20.8352 36.0519 20.9262C36.0123 21.0178 35.9928 21.1212 35.9928 21.2371V21.2453C35.9928 21.3551 36.013 21.4567 36.0539 21.5492C36.0954 21.6424 36.1506 21.721 36.2199 21.7869C36.2891 21.8529 36.3703 21.9041 36.4627 21.9413C36.5553 21.979 36.6514 21.9974 36.7516 21.9974C36.8548 21.9974 36.9548 21.9794 37.0524 21.9431ZM38.6474 20.3577V20.917C38.6858 20.8293 38.7349 20.7483 38.794 20.674C38.8533 20.5994 38.9197 20.536 38.9941 20.4831C39.069 20.4302 39.15 20.3904 39.2389 20.3631C39.3276 20.336 39.4205 20.3237 39.5187 20.3269V20.5347H39.4992C39.3861 20.5347 39.2785 20.5563 39.1753 20.599C39.0727 20.6412 38.982 20.7043 38.9035 20.7879C38.8254 20.8711 38.7632 20.9735 38.7165 21.0964C38.6706 21.2186 38.6474 21.3594 38.6474 21.5184V22.3251H38.4587V20.3577H38.6474ZM40.323 22.333C40.2336 22.3072 40.1525 22.2686 40.0806 22.2171C40.0083 22.1651 39.9506 22.1011 39.9053 22.0245C39.8605 21.9471 39.8378 21.857 39.8378 21.7541V21.7463C39.8378 21.6438 39.8592 21.552 39.9014 21.4723C39.9436 21.3923 40.0025 21.3256 40.0769 21.2715C40.1512 21.2182 40.2412 21.1764 40.3468 21.1484C40.452 21.1198 40.5691 21.106 40.6974 21.106C40.8363 21.106 40.9551 21.1133 41.056 21.1294C41.156 21.1441 41.2536 21.1653 41.3486 21.1911V21.106C41.3486 20.9051 41.2919 20.7544 41.1774 20.6541C41.0629 20.5544 40.9043 20.5037 40.7011 20.5037C40.5803 20.5037 40.4699 20.5189 40.3702 20.5484C40.2693 20.5783 40.1743 20.6159 40.0845 20.6623L40.0153 20.4959C40.1228 20.4446 40.2325 20.4036 40.3431 20.3729C40.4531 20.3421 40.5764 20.3267 40.7123 20.3267C40.9824 20.3267 41.1895 20.3987 41.3334 20.5429C41.4667 20.6762 41.534 20.8614 41.534 21.0982V22.3251H41.3486V21.9974C41.3152 22.0433 41.2748 22.0892 41.2272 22.1339C41.1798 22.1794 41.125 22.2188 41.0636 22.2534C41.0019 22.2887 40.9313 22.3163 40.8532 22.3384C40.7749 22.3605 40.6892 22.3711 40.5972 22.3711C40.5048 22.3711 40.4128 22.3585 40.323 22.333ZM40.8937 22.1495C40.9837 22.12 41.0629 22.0791 41.1309 22.0262C41.1988 21.974 41.2527 21.9094 41.2932 21.8351C41.3328 21.7602 41.3522 21.6783 41.3522 21.5877V21.3648C41.2704 21.344 41.1735 21.3239 41.0636 21.3042C40.9528 21.2853 40.8268 21.276 40.6859 21.276C40.4777 21.276 40.3178 21.3174 40.2057 21.4012C40.094 21.4844 40.0386 21.596 40.0386 21.7344V21.7426C40.0386 21.8143 40.0536 21.8782 40.0845 21.9335C40.1155 21.9889 40.1568 22.0355 40.2096 22.0745C40.2624 22.1131 40.323 22.1425 40.3927 22.1633C40.4621 22.1835 40.5344 22.1941 40.6084 22.1941C40.7093 22.1941 40.8036 22.1794 40.8937 22.1495ZM42.4004 20.3577V20.7084C42.4307 20.6568 42.4666 20.6077 42.5064 20.56C42.546 20.5121 42.5919 20.4699 42.6432 20.4326C42.6942 20.3954 42.754 20.3659 42.8228 20.3438C42.8899 20.3217 42.968 20.3113 43.0556 20.3113C43.1405 20.3113 43.2177 20.3224 43.2889 20.3458C43.3597 20.3692 43.4216 20.3999 43.4759 20.438C43.53 20.4768 43.5763 20.5223 43.6164 20.5737C43.6562 20.6248 43.6904 20.6789 43.7187 20.7355C43.749 20.6813 43.7867 20.6285 43.83 20.5773C43.8739 20.526 43.9245 20.4799 43.9823 20.4404C44.0401 20.4004 44.1059 20.3692 44.1784 20.3458C44.2524 20.3224 44.3355 20.3113 44.4277 20.3113C44.5435 20.3113 44.6482 20.3315 44.7419 20.3709C44.8356 20.4105 44.9155 20.4662 44.9806 20.5364C45.0464 20.6077 45.0969 20.6941 45.1313 20.7953C45.1657 20.8969 45.1828 21.0095 45.1828 21.1332V22.3251H44.994V21.1562C44.994 20.9424 44.943 20.7773 44.8402 20.6601C44.7374 20.5429 44.5945 20.485 44.4121 20.485C44.3303 20.485 44.2511 20.5002 44.1756 20.531C44.0994 20.5617 44.0334 20.6064 43.9769 20.6662C43.92 20.7253 43.8754 20.7981 43.8419 20.8845C43.8088 20.9703 43.7917 21.0682 43.7917 21.1791V22.3251H43.603V21.1443C43.603 20.9391 43.5512 20.7773 43.4487 20.6601C43.3454 20.5429 43.2058 20.485 43.0286 20.485C42.9407 20.485 42.8591 20.5024 42.7819 20.5383C42.7053 20.5741 42.6378 20.6248 42.5817 20.6891C42.5244 20.7535 42.4811 20.8284 42.4486 20.9133C42.4164 20.9985 42.4004 21.0903 42.4004 21.191V22.3251H42.2112V20.3577H42.4004ZM46.1993 22.333C46.1099 22.3072 46.0286 22.2686 45.9569 22.2171C45.8849 22.1651 45.826 22.1011 45.781 22.0245C45.7366 21.9471 45.7141 21.857 45.7141 21.7541V21.7463C45.7141 21.6438 45.7351 21.552 45.7773 21.4723C45.8202 21.3923 45.8779 21.3256 45.9524 21.2715C46.0273 21.2182 46.1173 21.1764 46.2229 21.1484C46.3281 21.1198 46.4451 21.106 46.5733 21.106C46.712 21.106 46.8317 21.1133 46.9319 21.1294C47.0318 21.1441 47.1297 21.1653 47.2253 21.1911V21.106C47.2253 20.9051 47.1673 20.7544 47.0526 20.6541C46.9388 20.5544 46.7804 20.5037 46.5774 20.5037C46.4562 20.5037 46.3454 20.5189 46.2454 20.5484C46.1456 20.5783 46.0506 20.6159 45.9606 20.6623L45.8913 20.4959C45.9996 20.4446 46.1084 20.4036 46.2186 20.3729C46.3294 20.3421 46.4525 20.3267 46.5893 20.3267C46.8589 20.3267 47.0654 20.3987 47.2097 20.5429C47.3428 20.6762 47.4095 20.8614 47.4095 21.0982V22.3251H47.2253V21.9974C47.1913 22.0433 47.1509 22.0892 47.103 22.1339C47.0559 22.1794 47.0011 22.2188 46.9397 22.2534C46.8782 22.2887 46.8078 22.3163 46.7293 22.3384C46.6512 22.3605 46.5659 22.3711 46.4731 22.3711C46.3809 22.3711 46.2893 22.3585 46.1993 22.333ZM46.7702 22.1495C46.8598 22.12 46.9388 22.0791 47.0067 22.0262C47.0747 21.974 47.1288 21.9094 47.1688 21.8351C47.2087 21.7602 47.229 21.6783 47.229 21.5877V21.3648C47.1468 21.344 47.0502 21.3239 46.9397 21.3042C46.8291 21.2853 46.7031 21.276 46.5622 21.276C46.3536 21.276 46.1935 21.3174 46.0818 21.4012C45.9699 21.4844 45.9139 21.596 45.9139 21.7344V21.7426C45.9139 21.8143 45.9299 21.8782 45.9606 21.9335C45.9913 21.9889 46.0327 22.0355 46.0855 22.0745C46.1387 22.1131 46.1993 22.1425 46.2688 22.1633C46.3385 22.1835 46.4101 22.1941 46.4845 22.1941C46.5847 22.1941 46.6802 22.1794 46.7702 22.1495ZM49.723 22.3021C49.6091 22.2561 49.5066 22.1894 49.4176 22.1012C49.3276 22.0144 49.2544 21.9063 49.199 21.7793C49.1434 21.6522 49.1168 21.5081 49.1168 21.3491V21.3409C49.1168 21.1823 49.1434 21.0385 49.199 20.9106C49.2544 20.7833 49.3276 20.6758 49.4176 20.587C49.5066 20.4984 49.6091 20.4304 49.723 20.3821C49.8377 20.3351 49.9539 20.3112 50.0725 20.3112C50.1699 20.3112 50.2597 20.3236 50.3415 20.3494C50.4241 20.3751 50.4977 20.41 50.5637 20.4542C50.6291 20.4973 50.6882 20.548 50.741 20.6046C50.7933 20.6607 50.8407 20.7198 50.8816 20.7815V19.5086H51.0703V22.325H50.8816V21.8853C50.8375 21.949 50.7897 22.0116 50.7369 22.0705C50.6845 22.1292 50.6252 22.1812 50.5592 22.2254C50.4938 22.2685 50.4209 22.3038 50.3406 22.3311C50.2592 22.3582 50.1699 22.371 50.0725 22.371C49.9539 22.371 49.8377 22.348 49.723 22.3021ZM50.3902 22.1283C50.486 22.0874 50.5719 22.0291 50.6468 21.955C50.7208 21.8801 50.781 21.7915 50.8256 21.6883C50.871 21.5859 50.8935 21.4715 50.8935 21.345V21.3372C50.8935 21.2113 50.871 21.0963 50.8256 20.9921C50.781 20.8881 50.7208 20.7993 50.6468 20.7263C50.5719 20.6522 50.486 20.5952 50.3902 20.5543C50.2939 20.5125 50.1937 20.4923 50.0913 20.4923C49.9837 20.4923 49.8827 20.5112 49.7885 20.5502C49.6955 20.5889 49.6137 20.644 49.5442 20.7161C49.4745 20.7885 49.4198 20.8766 49.3804 20.9804C49.3404 21.0844 49.3202 21.202 49.3202 21.3339V21.3409C49.3202 21.47 49.3414 21.5874 49.3821 21.692C49.423 21.7973 49.4795 21.887 49.5494 21.9604C49.6206 22.0336 49.7033 22.0902 49.7968 22.1307C49.8896 22.1697 49.9887 22.1898 50.0913 22.1898C50.1937 22.1898 50.2939 22.1697 50.3902 22.1283ZM52.2468 22.2985C52.1306 22.2493 52.0273 22.1797 51.9386 22.0896C51.8501 21.9995 51.7798 21.8912 51.7283 21.7651C51.6774 21.6392 51.6517 21.4995 51.6517 21.3451V21.3373C51.6517 21.196 51.6755 21.0624 51.7228 20.9378C51.7707 20.8133 51.8358 20.7047 51.9198 20.6122C52.0033 20.5195 52.1018 20.4463 52.2141 20.3917C52.3277 20.3384 52.4506 20.3111 52.5848 20.3111C52.7229 20.3111 52.848 20.3375 52.9577 20.3904C53.0687 20.4426 53.1628 20.5158 53.2414 20.6081C53.3204 20.701 53.3801 20.8091 53.4228 20.9341C53.465 21.0587 53.4862 21.1947 53.4862 21.341V21.3817C53.4862 21.3906 53.4853 21.4034 53.4825 21.4181H51.8523C51.8596 21.5418 51.8867 21.6512 51.9328 21.7463C51.9795 21.8414 52.0369 21.9228 52.1068 21.9895C52.1756 22.0563 52.255 22.1067 52.3437 22.1421C52.4323 22.1765 52.5251 22.194 52.6229 22.194C52.7772 22.194 52.9077 22.1642 53.0146 22.1054C53.1207 22.0461 53.2152 21.9724 53.2975 21.8851L53.4284 22.001C53.3282 22.1093 53.2144 22.1982 53.0875 22.2671C52.9605 22.3366 52.8023 22.371 52.6151 22.371C52.4864 22.371 52.3639 22.3472 52.2468 22.2985ZM53.2222 20.9612C53.1899 20.8698 53.1455 20.7892 53.0875 20.7182C53.0298 20.6473 52.9577 20.5908 52.8735 20.5483C52.7887 20.5056 52.69 20.485 52.5766 20.485C52.4792 20.485 52.3877 20.5039 52.3028 20.5429C52.2189 20.581 52.1444 20.6348 52.0814 20.703C52.0185 20.771 51.9667 20.8522 51.9254 20.946C51.8841 21.0398 51.8596 21.1406 51.8523 21.2489H53.2823C53.2745 21.1484 53.2544 21.0522 53.2222 20.9612ZM56.4532 19.6052L57.7095 22.325H57.4901L57.147 21.569H55.5545L55.2123 22.325H55.0039L56.2602 19.6052H56.4532ZM56.353 19.8249L55.6395 21.3874H57.062L56.353 19.8249ZM58.4255 20.3576V20.7971C58.4664 20.7332 58.514 20.6713 58.5683 20.6123C58.622 20.553 58.6817 20.501 58.7469 20.4579C58.8131 20.4137 58.886 20.3784 58.9674 20.3513C59.0477 20.324 59.1373 20.3112 59.2355 20.3112C59.353 20.3112 59.4693 20.3342 59.584 20.3801C59.698 20.4271 59.8004 20.4936 59.8904 20.5811C59.9804 20.6689 60.0525 20.7759 60.1081 20.9037C60.1626 21.0302 60.1906 21.1741 60.1906 21.3339V21.3409C60.1906 21.501 60.1626 21.6444 60.1081 21.7711C60.0525 21.8989 59.9804 22.0066 59.8904 22.0952C59.8004 22.1844 59.698 22.2524 59.584 22.3003C59.4693 22.3471 59.353 22.371 59.2355 22.371C59.1373 22.371 59.0473 22.3586 58.9655 22.3328C58.8828 22.3072 58.8094 22.2722 58.7432 22.2291C58.6781 22.1849 58.6188 22.1353 58.566 22.0783C58.5136 22.0217 58.4664 21.9624 58.4255 21.9009V22.9424H58.2368V20.3576H58.4255ZM59.5179 22.132C59.6121 22.0934 59.6932 22.0382 59.7631 21.9661C59.8324 21.8944 59.8872 21.8062 59.9265 21.7018C59.9666 21.5978 59.9867 21.4802 59.9867 21.3491V21.3409C59.9867 21.2131 59.9657 21.0954 59.9248 20.9902C59.8839 20.8844 59.8279 20.7952 59.7575 20.7217C59.6865 20.6485 59.6043 20.592 59.511 20.5521C59.4165 20.5121 59.3182 20.4923 59.2158 20.4923C59.1133 20.4923 59.0133 20.5125 58.9168 20.5543C58.8209 20.5952 58.735 20.6533 58.661 20.7272C58.5861 20.8021 58.527 20.8914 58.4811 20.9938C58.4365 21.0974 58.4145 21.2113 58.4145 21.3372V21.345C58.4145 21.4715 58.4365 21.5863 58.4811 21.6903C58.527 21.7951 58.5861 21.8833 58.661 21.9568C58.735 22.03 58.8209 22.0874 58.9168 22.1283C59.0133 22.1697 59.1133 22.1898 59.2158 22.1898C59.3241 22.1898 59.4247 22.171 59.5179 22.132ZM61.2483 22.2887C61.126 22.233 61.0195 22.1591 60.9295 22.0662C60.8406 21.9739 60.7698 21.8663 60.7202 21.7426C60.67 21.6195 60.6449 21.4876 60.6449 21.3492V21.3409C60.6449 21.2021 60.67 21.071 60.7202 20.948C60.7698 20.8243 60.8406 20.7149 60.9319 20.6196C61.0236 20.5245 61.1308 20.4491 61.2537 20.3945C61.3773 20.3388 61.5119 20.3113 61.6592 20.3113C61.8049 20.3113 61.9388 20.3388 62.0616 20.3945C62.1832 20.4491 62.2892 20.5232 62.3792 20.6159C62.4693 20.7084 62.5392 20.8165 62.5896 20.94C62.6391 21.0632 62.6645 21.1947 62.6645 21.334V21.3409C62.6645 21.4802 62.6391 21.6117 62.5896 21.7343C62.5392 21.8585 62.4688 21.9674 62.3775 22.0625C62.2866 22.1576 62.1786 22.233 62.0555 22.2887C61.9321 22.3435 61.7975 22.371 61.651 22.371C61.5041 22.371 61.3703 22.3435 61.2483 22.2887ZM61.9797 22.126C62.0793 22.0814 62.1643 22.0212 62.2347 21.9449C62.3054 21.8691 62.3604 21.7798 62.4004 21.6765C62.4403 21.5738 62.4602 21.4651 62.4602 21.3492V21.3409C62.4602 21.2231 62.4398 21.1115 62.3981 21.0075C62.3572 20.9038 62.3003 20.8124 62.2273 20.7355C62.1533 20.6583 62.0674 20.5977 61.9687 20.5544C61.87 20.5108 61.7635 20.4887 61.651 20.4887C61.5352 20.4887 61.4283 20.5113 61.3294 20.5563C61.2299 20.6009 61.1448 20.662 61.0747 20.7374C61.0039 20.8132 60.9487 20.9023 60.9089 21.0054C60.8689 21.1083 60.8492 21.2181 60.8492 21.334V21.3409C60.8492 21.4599 60.8693 21.5708 60.9107 21.675C60.9516 21.7794 61.0089 21.8699 61.0821 21.9473C61.1554 22.0244 61.2418 22.0846 61.3407 22.1284C61.4394 22.1724 61.5458 22.194 61.6592 22.194C61.7739 22.194 61.8811 22.1715 61.9797 22.126ZM63.4617 22.3251H63.273V20.3576H63.4617V22.3251ZM63.4851 19.8442H63.2494V19.5853H63.4851V19.8442ZM64.6734 22.2887C64.5513 22.233 64.4453 22.1591 64.3553 22.0662C64.2657 21.9739 64.1953 21.8663 64.1449 21.7426C64.0954 21.6195 64.07 21.4876 64.07 21.3492V21.3409C64.07 21.2021 64.0954 21.071 64.1449 20.948C64.1953 20.8243 64.2657 20.7149 64.3576 20.6196C64.4479 20.5245 64.5559 20.4491 64.679 20.3945C64.8026 20.3388 64.937 20.3113 65.0835 20.3113C65.2304 20.3113 65.365 20.3388 65.4862 20.3945C65.6085 20.4491 65.715 20.5232 65.805 20.6159C65.895 20.7084 65.9647 20.8165 66.0145 20.94C66.0645 21.0632 66.0898 21.1947 66.0898 21.334V21.3409C66.0898 21.4802 66.0645 21.6117 66.0145 21.7343C65.9647 21.8585 65.894 21.9674 65.8026 22.0625C65.7109 22.1576 65.604 22.233 65.4808 22.2887C65.3573 22.3435 65.2226 22.371 65.0761 22.371C64.9298 22.371 64.7957 22.3435 64.6734 22.2887ZM65.4059 22.126C65.5046 22.0814 65.5897 22.0212 65.6598 21.9449C65.731 21.8691 65.7858 21.7798 65.8256 21.6765C65.8656 21.5738 65.8853 21.4651 65.8853 21.3492V21.3409C65.8853 21.2231 65.8652 21.1115 65.8243 21.0075C65.7829 20.9038 65.7256 20.8124 65.6527 20.7355C65.5795 20.6583 65.4932 20.5977 65.394 20.5544C65.2954 20.5108 65.1895 20.4887 65.0761 20.4887C64.961 20.4887 64.8526 20.5113 64.7539 20.5563C64.6552 20.6009 64.5702 20.662 64.4998 20.7374C64.4293 20.8132 64.3741 20.9023 64.3341 21.0054C64.2942 21.1083 64.2743 21.2181 64.2743 21.334V21.3409C64.2743 21.4599 64.2947 21.5708 64.3364 21.675C64.3773 21.7794 64.4343 21.8699 64.5072 21.9473C64.5812 22.0244 64.6671 22.0846 64.7658 22.1284C64.8649 22.1724 64.9712 22.194 65.0835 22.194C65.1993 22.194 65.3062 22.1715 65.4059 22.126ZM68.151 22.333C68.0612 22.3072 67.9798 22.2686 67.9082 22.2171C67.8357 22.1651 67.7772 22.1011 67.7327 22.0245C67.6872 21.9471 67.6651 21.857 67.6651 21.7541V21.7463C67.6651 21.6438 67.6859 21.552 67.7292 21.4723C67.771 21.3923 67.8296 21.3256 67.9036 21.2715C67.9789 21.2182 68.0685 21.1764 68.1746 21.1484C68.2787 21.1198 68.396 21.106 68.5249 21.106C68.663 21.106 68.7833 21.1133 68.8835 21.1294C68.9837 21.1441 69.0809 21.1653 69.1766 21.1911V21.106C69.1766 20.9051 69.1188 20.7544 69.0043 20.6541C68.8905 20.5544 68.732 20.5037 68.5286 20.5037C68.4079 20.5037 68.2971 20.5189 68.1971 20.5484C68.0969 20.5783 68.0014 20.6159 67.9118 20.6623L67.843 20.4959C67.9504 20.4446 68.0597 20.4036 68.17 20.3729C68.2802 20.3421 68.4042 20.3267 68.5401 20.3267C68.8095 20.3267 69.0166 20.3987 69.161 20.5429C69.2941 20.6762 69.3612 20.8614 69.3612 21.0982V22.3251H69.1766V21.9974C69.1426 22.0433 69.1017 22.0892 69.0543 22.1339C69.0075 22.1794 68.9524 22.2188 68.8909 22.2534C68.8294 22.2887 68.7587 22.3163 68.681 22.3384C68.602 22.3605 68.5172 22.3711 68.4247 22.3711C68.3315 22.3711 68.2401 22.3585 68.151 22.333ZM68.721 22.1495C68.811 22.12 68.8905 22.0791 68.9584 22.0262C69.0264 21.974 69.0805 21.9094 69.1201 21.8351C69.1606 21.7602 69.1798 21.6783 69.1798 21.5877V21.3648C69.098 21.344 69.001 21.3239 68.8909 21.3042C68.7803 21.2853 68.6544 21.276 68.5135 21.276C68.3044 21.276 68.1447 21.3174 68.0335 21.4012C67.9216 21.4844 67.8655 21.596 67.8655 21.7344V21.7426C67.8655 21.8143 67.8811 21.8782 67.9118 21.9335C67.9426 21.9889 67.9843 22.0355 68.0371 22.0745C68.0895 22.1131 68.151 22.1425 68.2204 22.1633C68.2901 22.1835 68.362 22.1941 68.4362 22.1941C68.536 22.1941 68.6319 22.1794 68.721 22.1495ZM70.5069 22.2887C70.3851 22.233 70.2791 22.1591 70.189 22.0662C70.099 21.9739 70.0293 21.8663 69.9787 21.7426C69.9291 21.6195 69.9038 21.4876 69.9038 21.3492V21.3409C69.9038 21.2021 69.9291 21.071 69.9787 20.948C70.0293 20.8243 70.0994 20.7149 70.191 20.6196C70.2823 20.5245 70.3892 20.4491 70.5124 20.3945C70.6364 20.3388 70.771 20.3113 70.9168 20.3113C71.0644 20.3113 71.1975 20.3388 71.3202 20.3945C71.4423 20.4491 71.5488 20.5232 71.6379 20.6159C71.7279 20.7084 71.7987 20.8165 71.8483 20.94C71.8987 21.0632 71.9236 21.1947 71.9236 21.334V21.3409C71.9236 21.4802 71.8987 21.6117 71.8483 21.7343C71.7987 21.8585 71.7275 21.9674 71.637 22.0625C71.5451 22.1576 71.4373 22.233 71.3146 22.2887C71.1915 22.3435 71.056 22.371 70.9097 22.371C70.7636 22.371 70.629 22.3435 70.5069 22.2887ZM71.2393 22.126C71.338 22.0814 71.423 22.0212 71.4942 21.9449C71.5639 21.8691 71.6199 21.7798 71.6596 21.6765C71.6998 21.5738 71.7191 21.4651 71.7191 21.3492V21.3409C71.7191 21.2231 71.6985 21.1115 71.6576 21.0075C71.6158 20.9038 71.5593 20.8124 71.4864 20.7355C71.412 20.6583 71.3265 20.5977 71.2278 20.5544C71.1291 20.5108 71.0226 20.4887 70.9097 20.4887C70.7939 20.4887 70.6868 20.5113 70.5881 20.5563C70.4886 20.6009 70.4044 20.662 70.3338 20.7374C70.2626 20.8132 70.2079 20.9023 70.1674 21.0054C70.128 21.1083 70.1079 21.2181 70.1079 21.334V21.3409C70.1079 21.4599 70.1284 21.5708 70.1702 21.675C70.2102 21.7794 70.2685 21.8699 70.3412 21.9473C70.4141 22.0244 70.5005 22.0846 70.6 22.1284C70.6989 22.1724 70.8041 22.194 70.9168 22.194C71.0326 22.194 71.1406 22.1715 71.2393 22.126ZM74.6017 19.6245C74.812 19.6245 75.0057 19.6585 75.1817 19.7265C75.3572 19.7946 75.5091 19.8892 75.6357 20.0101C75.7638 20.131 75.8618 20.2731 75.9307 20.4362C76.0004 20.6004 76.035 20.7763 76.035 20.9672V20.9741C76.035 21.1654 76.0004 21.3428 75.9307 21.5072C75.8618 21.6714 75.7638 21.8144 75.6357 21.9353C75.5091 22.0562 75.3572 22.1513 75.1817 22.2208C75.0057 22.2901 74.812 22.325 74.6017 22.325H73.7029V19.6245H74.6017ZM75.11 22.0493C75.2615 21.989 75.3901 21.9063 75.4957 21.8025C75.6013 21.6981 75.6826 21.5759 75.7404 21.4351C75.7984 21.2954 75.8272 21.1442 75.8272 20.9823V20.9741C75.8272 20.8151 75.7984 20.6643 75.7404 20.5231C75.6826 20.3816 75.6013 20.2584 75.4957 20.1531C75.3901 20.0478 75.2615 19.9642 75.11 19.902C74.9585 19.8401 74.7891 19.8093 74.6017 19.8093H73.9035V22.1402H74.6017C74.7891 22.1402 74.9585 22.1099 75.11 22.0493ZM77.1347 22.2985C77.0176 22.2493 76.9148 22.1797 76.8256 22.0896C76.7369 21.9995 76.6681 21.8912 76.6161 21.7651C76.5648 21.6392 76.5391 21.4995 76.5391 21.3451V21.3373C76.5391 21.196 76.5629 21.0624 76.6099 20.9378C76.6583 20.8133 76.7237 20.7047 76.8068 20.6122C76.8908 20.5195 76.9894 20.4463 77.102 20.3917C77.2154 20.3384 77.3385 20.3111 77.4721 20.3111C77.6103 20.3111 77.7358 20.3375 77.8456 20.3904C77.9566 20.4426 78.0507 20.5158 78.1289 20.6081C78.2074 20.701 78.2671 20.8091 78.3102 20.9341C78.3531 21.0587 78.3736 21.1947 78.3736 21.341V21.3817C78.3736 21.3906 78.3723 21.4034 78.3699 21.4181H76.7397C76.7479 21.5418 76.7741 21.6512 76.8206 21.7463C76.8665 21.8414 76.9247 21.9228 76.9936 21.9895C77.0635 22.0563 77.1424 22.1067 77.231 22.1421C77.3197 22.1765 77.413 22.194 77.5103 22.194C77.6646 22.194 77.7954 22.1642 77.9016 22.1054C78.0085 22.0461 78.1027 21.9724 78.1849 21.8851L78.3163 22.001C78.2165 22.1093 78.1027 22.1982 77.9754 22.2671C77.8482 22.3366 77.6904 22.371 77.503 22.371C77.3744 22.371 77.2517 22.3472 77.1347 22.2985ZM78.11 20.9612C78.0773 20.8698 78.0323 20.7892 77.9754 20.7182C77.9168 20.6473 77.8456 20.5908 77.761 20.5483C77.6761 20.5056 77.5768 20.485 77.4642 20.485C77.3671 20.485 77.2755 20.5039 77.1907 20.5429C77.1057 20.581 77.0314 20.6348 76.9684 20.703C76.9055 20.771 76.8542 20.8522 76.8126 20.946C76.7719 21.0398 76.7479 21.1406 76.7397 21.2489H78.1698C78.1624 21.1484 78.1412 21.0522 78.11 20.9612ZM79.1286 22.2841C78.9853 22.2321 78.86 22.1632 78.7548 22.0781L78.8663 21.928C78.9738 22.0101 79.0877 22.074 79.2052 22.1186C79.3242 22.1632 79.4458 22.1862 79.5718 22.1862C79.7057 22.1862 79.8183 22.1526 79.9096 22.0859C80.0001 22.0194 80.0462 21.928 80.0462 21.8121V21.8043C80.0462 21.7477 80.0323 21.6986 80.0033 21.6576C79.975 21.6167 79.9366 21.5809 79.8882 21.5491C79.839 21.5183 79.7839 21.4926 79.722 21.4724C79.6603 21.4516 79.5952 21.431 79.5257 21.4107L79.2846 21.3372C79.2034 21.3119 79.1314 21.2783 79.0671 21.2393C79.0028 21.1992 78.9505 21.1501 78.9104 21.0903C78.8715 21.0311 78.8511 20.9579 78.8511 20.8702V20.8628C78.8511 20.7833 78.8678 20.7103 78.899 20.6449C78.9316 20.5792 78.9756 20.5223 79.0327 20.4735C79.0885 20.4244 79.1569 20.3862 79.237 20.3589C79.3164 20.3323 79.4036 20.3186 79.4986 20.3186C79.6172 20.3186 79.7384 20.3384 79.8628 20.3765C79.9877 20.4155 80.099 20.4679 80.1961 20.5346L80.0966 20.6932C80.0065 20.6334 79.9096 20.5862 79.8051 20.5502C79.7012 20.5145 79.596 20.4961 79.4908 20.4961C79.3545 20.4961 79.2461 20.529 79.1654 20.5944C79.0844 20.6601 79.0435 20.7419 79.0435 20.8394V20.8472C79.0435 20.9014 79.0598 20.9484 79.0896 20.9882C79.1212 21.0279 79.1617 21.0619 79.2117 21.0903C79.2623 21.1193 79.3201 21.1438 79.3872 21.1657C79.4543 21.1878 79.522 21.2085 79.591 21.2291C79.6705 21.2525 79.749 21.2774 79.8265 21.3041C79.9033 21.3312 79.973 21.366 80.0347 21.4089C80.0966 21.4512 80.1453 21.5023 80.1833 21.561C80.2206 21.6204 80.2394 21.6934 80.2394 21.7813V21.7887C80.2394 21.8764 80.2214 21.9551 80.187 22.0263C80.1517 22.0965 80.1039 22.1578 80.0425 22.2074C79.9804 22.2579 79.9087 22.296 79.8265 22.3231C79.7449 22.3504 79.6557 22.3636 79.5603 22.3636C79.417 22.3636 79.2727 22.3374 79.1286 22.2841ZM81.3001 22.2985C81.183 22.2493 81.0807 22.1797 80.9915 22.0896C80.903 21.9995 80.8327 21.8912 80.7807 21.7651C80.7307 21.6392 80.705 21.4995 80.705 21.3451V21.3373C80.705 21.196 80.7279 21.0624 80.7757 20.9378C80.8231 20.8133 80.8887 20.7047 80.9722 20.6122C81.0558 20.5195 81.1543 20.4463 81.267 20.3917C81.3802 20.3384 81.5031 20.3111 81.6373 20.3111C81.7764 20.3111 81.9004 20.3375 82.011 20.3904C82.1216 20.4426 82.2164 20.5158 82.2943 20.6081C82.3729 20.701 82.433 20.8091 82.4763 20.9341C82.5174 21.0587 82.5395 21.1947 82.5395 21.341V21.3817C82.5395 21.3906 82.5382 21.4034 82.535 21.4181H80.9047C80.9125 21.5418 80.9396 21.6512 80.9856 21.7463C81.032 21.8414 81.09 21.9228 81.1596 21.9895C81.228 22.0563 81.3075 22.1067 81.3962 22.1421C81.4851 22.1765 81.578 22.194 81.6758 22.194C81.8305 22.194 81.9602 22.1642 82.0671 22.1054C82.1731 22.0461 82.2681 21.9724 82.3503 21.8851L82.4808 22.001C82.3811 22.1093 82.2673 22.1982 82.14 22.2671C82.013 22.3366 81.8559 22.371 81.6676 22.371C81.5399 22.371 81.4163 22.3472 81.3001 22.2985ZM82.2746 20.9612C82.2434 20.8698 82.1984 20.7892 82.14 20.7182C82.0827 20.6473 82.011 20.5908 81.9262 20.5483C81.8416 20.5056 81.7429 20.485 81.629 20.485C81.5317 20.485 81.4401 20.5039 81.3562 20.5429C81.2713 20.581 81.1973 20.6348 81.1343 20.703C81.0716 20.771 81.0196 20.8522 80.9779 20.946C80.937 21.0398 80.9125 21.1406 80.9047 21.2489H82.3352C82.327 21.1484 82.3073 21.0522 82.2746 20.9612ZM83.2785 20.3577V20.724C83.3456 20.6081 83.4356 20.5108 83.549 20.4307C83.6615 20.3507 83.8078 20.3113 83.9879 20.3113C84.1106 20.3113 84.2212 20.3315 84.3194 20.3709C84.4172 20.4105 84.4995 20.4666 84.5678 20.5383C84.6358 20.6109 84.6878 20.6961 84.7222 20.7953C84.7566 20.8941 84.7745 21.003 84.7745 21.1211V22.3251H84.585V21.1562C84.585 20.953 84.5311 20.7896 84.4229 20.6683C84.3153 20.5461 84.161 20.485 83.9608 20.485C83.8634 20.485 83.7734 20.502 83.6907 20.5364C83.6087 20.5719 83.5371 20.6196 83.4745 20.6813C83.4131 20.7433 83.3653 20.8169 83.3304 20.9038C83.296 20.9894 83.2785 21.084 83.2785 21.1874V22.3251H83.0893V20.3577H83.2785ZM85.4703 20.3577L86.2152 22.1132L86.9663 20.3577H87.178L86.2959 22.3411H86.1334L85.2513 20.3577H85.4703ZM88.1621 22.2887C88.0404 22.233 87.9344 22.1591 87.8448 22.0662C87.7548 21.9739 87.6847 21.8663 87.634 21.7426C87.5844 21.6195 87.5591 21.4876 87.5591 21.3492V21.3409C87.5591 21.2021 87.5844 21.071 87.634 20.948C87.6847 20.8243 87.7559 20.7149 87.8461 20.6196C87.9376 20.5245 88.045 20.4491 88.1681 20.3945C88.2917 20.3388 88.4272 20.3113 88.5726 20.3113C88.7187 20.3113 88.8537 20.3388 88.9753 20.3945C89.0976 20.4491 89.2041 20.5232 89.2941 20.6159C89.3841 20.7084 89.453 20.8165 89.5036 20.94C89.554 21.0632 89.5782 21.1947 89.5782 21.334V21.3409C89.5782 21.4802 89.554 21.6117 89.5036 21.7343C89.453 21.8585 89.3833 21.9674 89.2913 22.0625C89.2004 22.1576 89.0935 22.233 88.9699 22.2887C88.8464 22.3435 88.7118 22.371 88.5652 22.371C88.4189 22.371 88.2848 22.3435 88.1621 22.2887ZM88.895 22.126C88.9937 22.0814 89.0788 22.0212 89.1485 21.9449C89.2197 21.8691 89.2744 21.7798 89.3149 21.6765C89.3543 21.5738 89.3748 21.4651 89.3748 21.3492V21.3409C89.3748 21.2231 89.3539 21.1115 89.3129 21.0075C89.272 20.9038 89.2147 20.8124 89.1418 20.7355C89.0682 20.6583 88.9823 20.5977 88.8831 20.5544C88.7845 20.5108 88.6786 20.4887 88.5652 20.4887C88.4497 20.4887 88.3421 20.5113 88.2434 20.5563C88.1443 20.6009 88.0601 20.662 87.9889 20.7374C87.9188 20.8132 87.8632 20.9023 87.8227 21.0054C87.7833 21.1083 87.7637 21.2181 87.7637 21.334V21.3409C87.7637 21.4599 87.7838 21.5708 87.8247 21.675C87.8664 21.7794 87.9229 21.8699 87.9974 21.9473C88.0703 22.0244 88.1558 22.0846 88.2553 22.1284C88.354 22.1724 88.4596 22.194 88.5726 22.194C88.6888 22.194 88.7959 22.1715 88.895 22.126ZM90.1868 19.5087H90.3759V22.3251H90.1868V19.5087ZM91.1388 20.3577L91.8832 22.1132L92.6344 20.3577H92.8465L91.9635 22.3411H91.8018L90.9193 20.3577H91.1388ZM93.5775 22.3251H93.3888V20.3576H93.5775V22.3251ZM93.6015 19.8442H93.3659V19.5853H93.6015V19.8442ZM94.5108 20.3577V20.7084C94.5415 20.6568 94.577 20.6077 94.6164 20.56C94.656 20.5121 94.7019 20.4699 94.7536 20.4326C94.8047 20.3954 94.8644 20.3659 94.9328 20.3438C95.0003 20.3217 95.0784 20.3113 95.1656 20.3113C95.25 20.3113 95.3282 20.3224 95.3989 20.3458C95.4697 20.3692 95.532 20.3999 95.5857 20.438C95.64 20.4768 95.6868 20.5223 95.7264 20.5737C95.7666 20.6248 95.8008 20.6789 95.8287 20.7355C95.859 20.6813 95.8962 20.6285 95.9402 20.5773C95.9835 20.526 96.0345 20.4799 96.0923 20.4404C96.1501 20.4004 96.2159 20.3692 96.2888 20.3458C96.3633 20.3224 96.4455 20.3113 96.5377 20.3113C96.6539 20.3113 96.7582 20.3315 96.8519 20.3709C96.9454 20.4105 97.0255 20.4662 97.091 20.5364C97.1562 20.6077 97.2068 20.6941 97.2412 20.7953C97.2761 20.8969 97.2932 21.0095 97.2932 21.1332V22.3251H97.1045V21.1562C97.1045 20.9424 97.0534 20.7773 96.9502 20.6601C96.8476 20.5429 96.7054 20.485 96.5221 20.485C96.4399 20.485 96.3609 20.5002 96.2856 20.531C96.2094 20.5617 96.1432 20.6064 96.0869 20.6662C96.0302 20.7253 95.985 20.7981 95.9523 20.8845C95.9188 20.9703 95.9017 21.0682 95.9017 21.1791V22.3251H95.713V21.1443C95.713 20.9391 95.6617 20.7773 95.5586 20.6601C95.4559 20.5429 95.3163 20.485 95.1386 20.485C95.0512 20.485 94.9696 20.5024 94.8919 20.5383C94.8153 20.5741 94.7477 20.6248 94.6917 20.6891C94.6348 20.7535 94.5911 20.8284 94.5586 20.9133C94.5264 20.9985 94.5108 21.0903 94.5108 21.191V22.3251H94.3212V20.3577H94.5108ZM98.4462 22.2985C98.3291 22.2493 98.2267 22.1797 98.138 22.0896C98.0495 21.9995 97.9796 21.8912 97.9277 21.7651C97.8768 21.6392 97.8511 21.4995 97.8511 21.3451V21.3373C97.8511 21.196 97.8744 21.0624 97.9223 20.9378C97.9699 20.8133 98.0352 20.7047 98.1192 20.6122C98.2023 20.5195 98.3012 20.4463 98.4142 20.3917C98.5269 20.3384 98.65 20.3111 98.7838 20.3111C98.9223 20.3111 99.0478 20.3375 99.158 20.3904C99.2681 20.4426 99.3631 20.5158 99.4404 20.6081C99.5189 20.701 99.5795 20.8091 99.6222 20.9341C99.665 21.0587 99.6856 21.1947 99.6856 21.341V21.3817C99.6856 21.3906 99.6847 21.4034 99.6815 21.4181H98.0512C98.0595 21.5418 98.0856 21.6512 98.1322 21.7463C98.1785 21.8414 98.2367 21.9228 98.3062 21.9895C98.375 22.0563 98.454 22.1067 98.5427 22.1421C98.6312 22.1765 98.7245 22.194 98.8219 22.194C98.9766 22.194 99.1071 22.1642 99.2131 22.1054C99.32 22.0461 99.4146 21.9724 99.4969 21.8851L99.6278 22.001C99.5276 22.1093 99.4146 22.1982 99.2869 22.2671C99.1599 22.3366 99.0019 22.371 98.8145 22.371C98.686 22.371 98.5633 22.3472 98.4462 22.2985ZM99.4215 20.9612C99.3895 20.8698 99.3449 20.7892 99.2869 20.7182C99.2292 20.6473 99.158 20.5908 99.072 20.5483C98.9881 20.5056 98.8894 20.485 98.776 20.485C98.6786 20.485 98.5871 20.5039 98.5027 20.5429C98.4172 20.581 98.3438 20.6348 98.2808 20.703C98.2179 20.771 98.1657 20.8522 98.1244 20.946C98.0839 21.0398 98.0595 21.1406 98.0512 21.2489H99.4813C99.4739 21.1484 99.4538 21.0522 99.4215 20.9612ZM100.424 20.3577V20.724C100.492 20.6081 100.582 20.5108 100.695 20.4307C100.808 20.3507 100.955 20.3113 101.134 20.3113C101.258 20.3113 101.368 20.3315 101.466 20.3709C101.564 20.4105 101.646 20.4666 101.715 20.5383C101.782 20.6109 101.834 20.6961 101.869 20.7953C101.904 20.8941 101.921 21.003 101.921 21.1211V22.3251H101.731V21.1562C101.731 20.953 101.677 20.7896 101.57 20.6683C101.462 20.5461 101.308 20.485 101.108 20.485C101.009 20.485 100.919 20.502 100.838 20.5364C100.755 20.5719 100.683 20.6196 100.621 20.6813C100.56 20.7433 100.512 20.8169 100.477 20.9038C100.442 20.9894 100.424 21.084 100.424 21.1874V22.3251H100.236V20.3577H100.424ZM103.037 22.3292C102.971 22.3079 102.913 22.2755 102.863 22.2308C102.812 22.1853 102.773 22.1288 102.745 22.0608C102.717 21.9928 102.702 21.9122 102.702 21.8194V20.5309H102.417V20.3576H102.702V19.7283H102.891V20.3576H103.581V20.5309H102.891V21.8006C102.891 21.9416 102.928 22.0415 103.001 22.0972C103.074 22.1541 103.168 22.1821 103.284 22.1821C103.333 22.1821 103.38 22.1771 103.423 22.1674C103.467 22.1563 103.517 22.1385 103.573 22.1132V22.2902C103.522 22.3132 103.471 22.3309 103.421 22.3422C103.371 22.3536 103.315 22.3599 103.254 22.3599C103.177 22.3599 103.104 22.35 103.037 22.3292ZM104.608 22.2887C104.486 22.233 104.38 22.1591 104.29 22.0662C104.2 21.9739 104.13 21.8663 104.08 21.7426C104.03 21.6195 104.006 21.4876 104.006 21.3492V21.3409C104.006 21.2021 104.03 21.071 104.08 20.948C104.13 20.8243 104.2 20.7149 104.292 20.6196C104.383 20.5245 104.49 20.4491 104.613 20.3945C104.737 20.3388 104.871 20.3113 105.018 20.3113C105.165 20.3113 105.299 20.3388 105.422 20.3945C105.543 20.4491 105.649 20.5232 105.739 20.6159C105.828 20.7084 105.899 20.8165 105.949 20.94C105.999 21.0632 106.024 21.1947 106.024 21.334V21.3409C106.024 21.4802 105.999 21.6117 105.949 21.7343C105.899 21.8585 105.828 21.9674 105.737 22.0625C105.646 22.1576 105.539 22.233 105.415 22.2887C105.292 22.3435 105.157 22.371 105.011 22.371C104.865 22.371 104.73 22.3435 104.608 22.2887ZM105.34 22.126C105.439 22.0814 105.524 22.0212 105.595 21.9449C105.665 21.8691 105.721 21.7798 105.761 21.6765C105.8 21.5738 105.82 21.4651 105.82 21.3492V21.3409C105.82 21.2231 105.8 21.1115 105.758 21.0075C105.717 20.9038 105.66 20.8124 105.587 20.7355C105.513 20.6583 105.427 20.5977 105.328 20.5544C105.23 20.5108 105.124 20.4887 105.011 20.4887C104.895 20.4887 104.788 20.5113 104.689 20.5563C104.59 20.6009 104.505 20.662 104.435 20.7374C104.364 20.8132 104.309 20.9023 104.269 21.0054C104.229 21.1083 104.208 21.2181 104.208 21.334V21.3409C104.208 21.4599 104.23 21.5708 104.271 21.675C104.312 21.7794 104.369 21.8699 104.442 21.9473C104.516 22.0244 104.601 22.0846 104.701 22.1284C104.799 22.1724 104.905 22.194 105.018 22.194C105.134 22.194 105.242 22.1715 105.34 22.126ZM29.9217 24.2526H30.1224V26.954H29.9217V24.2526ZM31.0971 24.9856V25.352C31.1637 25.2361 31.2537 25.1388 31.3669 25.0586C31.4801 24.9791 31.6268 24.9397 31.8067 24.9397C31.9294 24.9397 32.04 24.9594 32.1376 24.9995C32.2358 25.0394 32.3183 25.095 32.3867 25.1672C32.4546 25.2389 32.5057 25.3244 32.541 25.4241C32.5756 25.5231 32.5925 25.631 32.5925 25.7497V26.9539H32.4038V25.7841C32.4038 25.5809 32.3499 25.4182 32.2414 25.2967C32.1339 25.1741 31.9796 25.113 31.7796 25.113C31.6814 25.113 31.5922 25.1304 31.5098 25.1654C31.4273 25.1999 31.355 25.2475 31.2933 25.3102C31.2323 25.3717 31.1838 25.4453 31.1492 25.5318C31.1141 25.6182 31.0971 25.7124 31.0971 25.8158V26.9539H30.9081V24.9856H31.0971ZM33.4746 26.913C33.3307 26.8602 33.2061 26.7922 33.1005 26.7062L33.2124 26.5558C33.3206 26.639 33.4337 26.7025 33.5515 26.7471C33.6698 26.7922 33.7917 26.8147 33.9179 26.8147C34.0516 26.8147 34.1637 26.7807 34.2548 26.7144C34.3461 26.6479 34.3922 26.5558 34.3922 26.4399V26.4332C34.3922 26.3756 34.3777 26.3275 34.3492 26.2857C34.321 26.2452 34.2825 26.2092 34.2336 26.178C34.1842 26.1472 34.1297 26.121 34.0678 26.1013C34.0064 26.0801 33.941 26.0595 33.8711 26.0392L33.6307 25.9657C33.5495 25.9404 33.4768 25.9072 33.4132 25.8682C33.3489 25.8277 33.2968 25.7786 33.2569 25.7188C33.2167 25.6594 33.1972 25.5864 33.1972 25.4991V25.4909C33.1972 25.4122 33.2128 25.3381 33.2457 25.2729C33.2773 25.2082 33.3216 25.1501 33.3777 25.1016C33.435 25.0533 33.5023 25.0145 33.5824 24.9874C33.6623 24.9603 33.7497 24.9471 33.844 24.9471C33.9631 24.9471 34.0838 24.9668 34.2089 25.0054C34.3336 25.044 34.445 25.0959 34.5418 25.1631L34.4418 25.3221C34.3518 25.2623 34.2548 25.2151 34.1511 25.1791C34.0466 25.1434 33.9421 25.125 33.8371 25.125C33.7006 25.125 33.5917 25.1575 33.5112 25.2233C33.4301 25.2885 33.3896 25.3704 33.3896 25.4683V25.4757C33.3896 25.5299 33.4047 25.5764 33.4357 25.6163C33.4666 25.6564 33.5075 25.6904 33.5571 25.7188C33.6075 25.7474 33.6659 25.772 33.7326 25.7937C33.7993 25.8162 33.8679 25.8375 33.9371 25.8572C34.017 25.8806 34.0951 25.9059 34.1719 25.933C34.2494 25.9601 34.3184 25.9947 34.3801 26.037C34.4418 26.0797 34.4916 26.1306 34.5286 26.1891C34.5658 26.2484 34.5846 26.3223 34.5846 26.4098V26.417C34.5846 26.5049 34.5671 26.5835 34.5325 26.6542C34.4978 26.725 34.45 26.7856 34.3877 26.8363C34.326 26.886 34.2544 26.9241 34.1719 26.9512C34.0899 26.9793 34.0014 26.9921 33.9064 26.9921C33.7623 26.9921 33.6181 26.9659 33.4746 26.913ZM35.6247 26.9572C35.558 26.9371 35.4989 26.9043 35.4492 26.8589C35.3987 26.8142 35.3598 26.7572 35.3314 26.6892C35.3033 26.6212 35.2892 26.5406 35.2892 26.4483V25.159H35.0042V24.9857H35.2892V24.3572H35.4781V24.9857H36.1683V25.159H35.4781V26.4286C35.4781 26.5701 35.5145 26.6695 35.5874 26.7261C35.6612 26.7826 35.7556 26.811 35.8712 26.811C35.9196 26.811 35.9664 26.8051 36.0097 26.7954C36.0538 26.7852 36.1034 26.767 36.1601 26.7417V26.9186C36.1083 26.942 36.0581 26.9589 36.0079 26.9711C35.9579 26.9821 35.9023 26.9884 35.8398 26.9884C35.7632 26.9884 35.6915 26.9778 35.6247 26.9572ZM36.9421 26.954H36.7528V24.9857H36.9421V26.954ZM36.9655 24.4732H36.73V24.2143H36.9655V24.4732ZM38.125 26.9572C38.0584 26.9371 38 26.9043 37.9498 26.8589C37.8998 26.8142 37.8602 26.7572 37.8318 26.6892C37.8037 26.6212 37.7898 26.5406 37.7898 26.4483V25.159H37.5039V24.9857H37.7898V24.3572H37.9785V24.9857H38.668V25.159H37.9785V26.4286C37.9785 26.5701 38.0155 26.6695 38.0885 26.7261C38.1616 26.7826 38.256 26.811 38.3715 26.811C38.4209 26.811 38.4668 26.8051 38.5107 26.7954C38.5542 26.7852 38.604 26.767 38.6611 26.7417V26.9186C38.6096 26.942 38.5585 26.9589 38.509 26.9711C38.4588 26.9821 38.4027 26.9884 38.3408 26.9884C38.2635 26.9884 38.1919 26.9778 38.125 26.9572ZM39.6428 26.9402C39.5458 26.9003 39.4627 26.8438 39.3947 26.7718C39.3262 26.7003 39.2747 26.6152 39.24 26.5153C39.206 26.4166 39.1883 26.3082 39.1883 26.1891V24.9857H39.377V26.1551C39.377 26.3583 39.4313 26.5205 39.5389 26.6427C39.6471 26.7655 39.8012 26.8266 40.002 26.8266C40.097 26.8266 40.1857 26.8091 40.2693 26.7742C40.3532 26.7398 40.4255 26.6906 40.487 26.6291C40.5495 26.5678 40.5971 26.4935 40.632 26.4079C40.6664 26.3215 40.6839 26.2272 40.6839 26.1239V24.9857H40.8729V26.954H40.6839V26.587C40.6168 26.7034 40.5274 26.8009 40.4143 26.8808C40.3009 26.9594 40.1548 27 39.9743 27C39.8516 27 39.7408 26.9802 39.6428 26.9402ZM42.0614 26.9172C41.9385 26.8611 41.8329 26.7876 41.7431 26.6951C41.653 26.6018 41.5825 26.4943 41.531 26.3711C41.4801 26.2478 41.4542 26.1165 41.4542 25.9777V25.9694C41.4542 25.8301 41.4801 25.7 41.531 25.5763C41.5825 25.4521 41.653 25.3434 41.7431 25.2476C41.8329 25.1534 41.9385 25.0776 42.0614 25.0223C42.1828 24.9673 42.3148 24.9396 42.4559 24.9396C42.5481 24.9396 42.6332 24.9493 42.7089 24.9686C42.7842 24.9875 42.8541 25.0141 42.9184 25.0473C42.9831 25.0813 43.0409 25.1198 43.0937 25.1631C43.1465 25.2071 43.1956 25.2533 43.2426 25.302L43.1076 25.4413C43.0225 25.3533 42.9288 25.278 42.826 25.2132C42.7232 25.1489 42.5988 25.1172 42.4523 25.1172C42.3393 25.1172 42.2345 25.1387 42.138 25.1829C42.0413 25.226 41.9582 25.2862 41.8876 25.3616C41.8167 25.437 41.7613 25.5266 41.7197 25.6302C41.679 25.7327 41.6587 25.8434 41.6587 25.9621V25.9694C41.6587 26.0879 41.6792 26.1986 41.7223 26.3031C41.7639 26.4079 41.8221 26.4984 41.8952 26.5762C41.9682 26.6529 42.0539 26.7131 42.1519 26.7567C42.2497 26.8009 42.3544 26.8221 42.4678 26.8221C42.607 26.8221 42.7301 26.7913 42.8398 26.7283C42.9491 26.6652 43.0446 26.587 43.1268 26.4943L43.2577 26.6102C43.1575 26.7233 43.0437 26.8165 42.9165 26.8901C42.7892 26.9631 42.636 27 42.4559 27C42.3148 27 42.1828 26.9724 42.0614 26.9172ZM44.0047 26.954H43.816V24.9857H44.0047V26.954ZM44.0279 24.4732H43.7933V24.2143H44.0279V24.4732ZM45.2168 26.9171C45.0945 26.8612 44.9889 26.7876 44.8989 26.6951C44.8088 26.6019 44.7391 26.4942 44.6889 26.3712C44.6385 26.2479 44.6132 26.1164 44.6132 25.9776V25.9693C44.6132 25.8301 44.6385 25.7001 44.6889 25.5764C44.7391 25.4523 44.8099 25.3433 44.9008 25.2475C44.9921 25.1533 45.099 25.0775 45.2226 25.0225C45.3462 24.9672 45.4812 24.9397 45.6277 24.9397C45.7742 24.9397 45.9078 24.9672 46.0305 25.0225C46.1525 25.0775 46.2581 25.152 46.3482 25.2445C46.4382 25.3364 46.5085 25.4449 46.5581 25.5679C46.6085 25.6916 46.6338 25.8227 46.6338 25.962V25.9693C46.6338 26.1082 46.6085 26.2397 46.5581 26.3634C46.5085 26.4873 46.4373 26.5963 46.3469 26.6905C46.2549 26.7863 46.1476 26.8612 46.0248 26.9171C45.9013 26.9723 45.7658 26.9998 45.6193 26.9998C45.4734 26.9998 45.3388 26.9723 45.2168 26.9171ZM45.9491 26.754C46.0478 26.7093 46.1328 26.6496 46.204 26.5733C46.2737 26.4979 46.3298 26.4082 46.3694 26.3053C46.4096 26.2024 46.4295 26.0935 46.4295 25.9776V25.9693C46.4295 25.8517 46.4083 25.7404 46.3674 25.636C46.3261 25.5318 46.2696 25.4412 46.1958 25.3634C46.1222 25.2868 46.0367 25.2261 45.9376 25.1828C45.8389 25.1388 45.7327 25.1171 45.6193 25.1171C45.5037 25.1171 45.3966 25.1392 45.2979 25.1843C45.1988 25.2293 45.1142 25.29 45.043 25.3654C44.9729 25.4417 44.9172 25.5313 44.8779 25.6338C44.8378 25.7371 44.8181 25.8461 44.8181 25.962V25.9693C44.8181 26.0879 44.8387 26.1988 44.8796 26.303C44.9205 26.4078 44.9783 26.4984 45.0514 26.5761C45.1244 26.6528 45.2107 26.713 45.3094 26.7568C45.4087 26.8008 45.5143 26.822 45.6277 26.822C45.7429 26.822 45.8504 26.8003 45.9491 26.754ZM47.4039 24.9856V25.352C47.4706 25.2361 47.5599 25.1388 47.6729 25.0586C47.7863 24.9791 47.9328 24.9397 48.1129 24.9397C48.2364 24.9397 48.3462 24.9594 48.444 24.9995C48.5422 25.0394 48.6245 25.095 48.6929 25.1672C48.7608 25.2389 48.8119 25.3244 48.8472 25.4241C48.882 25.5231 48.8987 25.631 48.8987 25.7497V26.9539H48.71V25.7841C48.71 25.5809 48.6567 25.4182 48.5479 25.2967C48.4403 25.1741 48.286 25.113 48.0858 25.113C47.9876 25.113 47.8984 25.1304 47.8157 25.1654C47.7342 25.1999 47.661 25.2475 47.6 25.3102C47.5385 25.3717 47.4903 25.4453 47.4554 25.5318C47.4204 25.6182 47.4039 25.7124 47.4039 25.8158V26.9539H47.2152V24.9856H47.4039ZM49.9007 26.9614C49.8107 26.9356 49.7293 26.8964 49.6572 26.8455C49.5852 26.794 49.5267 26.7296 49.4824 26.6529C49.4374 26.576 49.4148 26.4851 49.4148 26.3826V26.3744C49.4148 26.2723 49.4363 26.1803 49.4783 26.1012C49.5205 26.0213 49.5791 25.9541 49.654 25.9004C49.728 25.8462 49.818 25.8044 49.9232 25.7767C50.0288 25.7483 50.1459 25.7344 50.2744 25.7344C50.4127 25.7344 50.532 25.7414 50.6322 25.7574C50.7332 25.773 50.8306 25.7934 50.9256 25.8191V25.7344C50.9256 25.5336 50.8683 25.3833 50.7538 25.283C50.64 25.1829 50.4807 25.1322 50.2781 25.1322C50.1574 25.1322 50.0468 25.1469 49.9466 25.1764C49.8464 25.2067 49.7514 25.2444 49.6613 25.2904L49.5921 25.1248C49.6999 25.0735 49.8087 25.0317 49.9195 25.0014C50.0301 24.97 50.1537 24.9552 50.2896 24.9552C50.5592 24.9552 50.7661 25.0269 50.91 25.1714C51.0436 25.3051 51.1106 25.4894 51.1106 25.7271V26.9538H50.9256V26.6259C50.8921 26.6718 50.852 26.7173 50.8049 26.7623C50.7562 26.8074 50.7019 26.8473 50.6404 26.8824C50.5789 26.9172 50.509 26.9452 50.43 26.9673C50.3515 26.9894 50.2666 27 50.1742 27C50.0816 27 49.9907 26.9866 49.9007 26.9614ZM50.4705 26.7784C50.5605 26.7485 50.64 26.7071 50.7079 26.6542C50.7759 26.6018 50.83 26.5384 50.8696 26.463C50.9092 26.3891 50.9297 26.3063 50.9297 26.2162V25.9929C50.8471 25.9721 50.7512 25.9524 50.6404 25.9331C50.5298 25.9142 50.4038 25.9045 50.263 25.9045C50.0546 25.9045 49.8942 25.9454 49.7821 26.0299C49.6711 26.1133 49.615 26.224 49.615 26.3633V26.3711C49.615 26.4433 49.6306 26.5067 49.6613 26.5624C49.6921 26.617 49.7338 26.6644 49.7866 26.7034C49.8395 26.7415 49.9007 26.7706 49.9695 26.7922C50.0388 26.8124 50.1115 26.8221 50.1853 26.8221C50.2855 26.8221 50.3805 26.8074 50.4705 26.7784ZM51.815 24.1367H52.0037V26.954H51.815V24.1367ZM54.3835 26.9305C54.269 26.8842 54.1671 26.8179 54.0771 26.7297C53.9873 26.6424 53.9145 26.5352 53.8596 26.4078C53.804 26.2806 53.7765 26.1372 53.7765 25.9776V25.9693C53.7765 25.8103 53.804 25.6665 53.8596 25.5391C53.9145 25.4122 53.9873 25.3043 54.0771 25.2155C54.1671 25.1269 54.269 25.0582 54.3835 25.011C54.4982 24.9635 54.614 24.9397 54.733 24.9397C54.8297 24.9397 54.9202 24.952 55.002 24.9783C55.0847 25.004 55.158 25.0385 55.2234 25.0827C55.2894 25.1262 55.3483 25.176 55.4011 25.2334C55.4539 25.2891 55.5002 25.3478 55.542 25.4104V24.1367H55.7309V26.9539H55.542V26.5137C55.498 26.5781 55.4502 26.64 55.3974 26.6989C55.3442 26.7581 55.2853 26.8096 55.2197 26.8538C55.1544 26.8965 55.0814 26.932 55.0007 26.9591C54.9189 26.9862 54.8297 26.9998 54.733 26.9998C54.614 26.9998 54.4982 26.9764 54.3835 26.9305ZM55.0507 26.7568C55.1466 26.7158 55.2325 26.658 55.3065 26.583C55.3814 26.5085 55.4415 26.4199 55.4861 26.3172C55.5311 26.2139 55.553 26.0995 55.553 25.973V25.9657C55.553 25.8398 55.5311 25.7252 55.4861 25.6205C55.4415 25.5161 55.3814 25.4273 55.3065 25.3543C55.2325 25.2813 55.1466 25.2237 55.0507 25.1827C54.9542 25.1409 54.8542 25.1204 54.7518 25.1204C54.6443 25.1204 54.5428 25.1401 54.4491 25.1791C54.3554 25.2174 54.2734 25.272 54.2048 25.3446C54.1351 25.4163 54.0803 25.5047 54.0409 25.6095C54.0009 25.7133 53.9808 25.83 53.9808 25.962V25.9693C53.9808 26.098 54.0018 26.2152 54.0427 26.3209C54.0836 26.4262 54.1396 26.5154 54.21 26.5895C54.2811 26.6621 54.3627 26.7182 54.4573 26.7585C54.5501 26.7982 54.6488 26.8183 54.7518 26.8183C54.8542 26.8183 54.9542 26.7977 55.0507 26.7568ZM56.9145 26.9171C56.7929 26.8612 56.6869 26.7876 56.5968 26.6951C56.5072 26.6019 56.4371 26.4942 56.3873 26.3712C56.3365 26.2479 56.312 26.1164 56.312 25.9776V25.9693C56.312 25.8301 56.3365 25.7001 56.3873 25.5764C56.4371 25.4523 56.5077 25.3433 56.5992 25.2475C56.6901 25.1533 56.797 25.0775 56.921 25.0225C57.0446 24.9672 57.1792 24.9397 57.3257 24.9397C57.4722 24.9397 57.6062 24.9672 57.7282 25.0225C57.8505 25.0775 57.9561 25.152 58.0461 25.2445C58.1362 25.3364 58.2063 25.4449 58.2565 25.5679C58.3065 25.6916 58.3318 25.8227 58.3318 25.962V25.9693C58.3318 26.1082 58.3065 26.2397 58.2565 26.3634C58.2063 26.4873 58.1357 26.5963 58.0448 26.6905C57.9529 26.7863 57.8455 26.8612 57.7228 26.9171C57.5993 26.9723 57.4642 26.9998 57.3173 26.9998C57.1714 26.9998 57.0368 26.9723 56.9145 26.9171ZM57.6471 26.754C57.7458 26.7093 57.8308 26.6496 57.902 26.5733C57.9726 26.4979 58.0277 26.4082 58.0678 26.3053C58.1076 26.2024 58.1273 26.0935 58.1273 25.9776V25.9693C58.1273 25.8517 58.1072 25.7404 58.0654 25.636C58.0241 25.5318 57.9676 25.4412 57.8936 25.3634C57.8206 25.2868 57.7347 25.2261 57.6361 25.1828C57.5374 25.1388 57.4307 25.1171 57.3173 25.1171C57.2026 25.1171 57.0955 25.1392 56.9959 25.1843C56.8968 25.2293 56.8122 25.29 56.7421 25.3654C56.6709 25.4417 56.6152 25.5313 56.5763 25.6338C56.5362 25.7371 56.5161 25.8461 56.5161 25.962V25.9693C56.5161 26.0879 56.5367 26.1988 56.5776 26.303C56.6185 26.4078 56.6763 26.4984 56.7494 26.5761C56.8223 26.6528 56.9087 26.713 57.0074 26.7568C57.1065 26.8008 57.2127 26.822 57.3257 26.822C57.4408 26.822 57.5484 26.8003 57.6471 26.754ZM60.4405 26.8841C60.2673 26.8124 60.0992 26.7039 59.9377 26.56L60.0689 26.4097C60.1433 26.479 60.2169 26.5384 60.2903 26.5895C60.3632 26.6395 60.4392 26.68 60.5158 26.7125C60.5924 26.7444 60.6737 26.7686 60.7586 26.7857C60.8436 26.8026 60.936 26.8111 61.036 26.8111C61.1362 26.8111 61.2293 26.7972 61.3135 26.7701C61.3983 26.7431 61.471 26.7058 61.5292 26.6584C61.5885 26.6105 61.6348 26.5539 61.6684 26.4883C61.7019 26.4235 61.7179 26.3518 61.7179 26.2741V26.2667C61.7179 26.195 61.7073 26.1307 61.6859 26.0732C61.6638 26.0171 61.6242 25.9656 61.566 25.9192C61.5087 25.8733 61.4305 25.8311 61.3332 25.7938C61.2353 25.7565 61.1096 25.7225 60.9547 25.6918C60.7932 25.6582 60.6541 25.619 60.5391 25.5746C60.4238 25.5295 60.3288 25.4762 60.2559 25.416C60.1827 25.3553 60.1295 25.2849 60.0955 25.2063C60.062 25.1264 60.0455 25.0343 60.0455 24.9314V24.924C60.0455 24.8237 60.0676 24.7306 60.1113 24.6441C60.1552 24.5581 60.215 24.4832 60.2927 24.4188C60.3693 24.3545 60.461 24.3045 60.5653 24.2681C60.6709 24.2323 60.7867 24.2143 60.9124 24.2143C61.1085 24.2143 61.2771 24.2414 61.4199 24.2952C61.5619 24.3491 61.7019 24.4312 61.8383 24.5417L61.7106 24.7002C61.582 24.5893 61.453 24.5114 61.3234 24.4648C61.194 24.4188 61.0544 24.3955 60.9051 24.3955C60.8051 24.3955 60.7146 24.4093 60.6333 24.4364C60.5521 24.463 60.4831 24.5003 60.4253 24.5462C60.3673 24.5922 60.3234 24.6463 60.2927 24.7081C60.2613 24.7696 60.2461 24.8354 60.2461 24.9052V24.9125C60.2461 24.9842 60.2572 25.049 60.2784 25.1079C60.3004 25.1654 60.3403 25.2182 60.3983 25.265C60.456 25.3133 60.5363 25.3562 60.6389 25.3952C60.7421 25.4333 60.8731 25.4693 61.0324 25.5029C61.3464 25.5672 61.5719 25.6577 61.7106 25.7749C61.8497 25.8921 61.9186 26.0494 61.9186 26.2479V26.2552C61.9186 26.3633 61.896 26.4625 61.8517 26.5539C61.8062 26.6451 61.7446 26.7231 61.666 26.7875C61.5881 26.8518 61.4944 26.9021 61.3847 26.9382C61.2758 26.9742 61.1555 26.9922 61.0246 26.9922C60.8088 26.9922 60.614 26.9562 60.4405 26.8841ZM62.7507 26.954H62.5612V24.9857H62.7507V26.954ZM62.7737 24.4732H62.5387V24.2143H62.7737V24.4732ZM63.6981 26.913C63.554 26.8602 63.4295 26.7922 63.3243 26.7062L63.4364 26.5558C63.5442 26.639 63.6572 26.7025 63.7758 26.7471C63.8933 26.7922 64.016 26.8147 64.1417 26.8147C64.2753 26.8147 64.3873 26.7807 64.4793 26.7144C64.5702 26.6479 64.6157 26.5558 64.6157 26.4399V26.4332C64.6157 26.3756 64.601 26.3275 64.5735 26.2857C64.5449 26.2452 64.5068 26.2092 64.4577 26.178C64.4086 26.1472 64.3538 26.121 64.2923 26.1013C64.2302 26.0801 64.1651 26.0595 64.0952 26.0392L63.8543 25.9657C63.7738 25.9404 63.7009 25.9072 63.6371 25.8682C63.5723 25.8277 63.5208 25.7786 63.4804 25.7188C63.441 25.6594 63.4209 25.5864 63.4209 25.4991V25.4909C63.4209 25.4122 63.4373 25.3381 63.4693 25.2729C63.5007 25.2082 63.5451 25.1501 63.6022 25.1016C63.6587 25.0533 63.7267 25.0145 63.8061 24.9874C63.8859 24.9603 63.9732 24.9471 64.0682 24.9471C64.1863 24.9471 64.3079 24.9668 64.4332 25.0054C64.5568 25.044 64.6685 25.0959 64.7656 25.1631L64.6661 25.3221C64.5761 25.2623 64.4793 25.2151 64.3746 25.1791C64.2707 25.1434 64.1664 25.125 64.0604 25.125C63.9249 25.125 63.8156 25.1575 63.7353 25.2233C63.6535 25.2885 63.6133 25.3704 63.6133 25.4683V25.4757C63.6133 25.5299 63.6293 25.5764 63.66 25.6163C63.6907 25.6564 63.7308 25.6904 63.7812 25.7188C63.8307 25.7474 63.89 25.772 63.9563 25.7937C64.0238 25.8162 64.0915 25.8375 64.1606 25.8572C64.2404 25.8806 64.3194 25.9059 64.396 25.933C64.4733 25.9601 64.5425 25.9947 64.6042 26.037C64.6661 26.0797 64.7156 26.1306 64.7529 26.1891C64.7897 26.2484 64.8089 26.3223 64.8089 26.4098V26.417C64.8089 26.5049 64.791 26.5835 64.7566 26.6542C64.7222 26.725 64.6734 26.7856 64.612 26.8363C64.5499 26.886 64.4782 26.9241 64.396 26.9512C64.3136 26.9793 64.2248 26.9921 64.1307 26.9921C63.9866 26.9921 63.8424 26.9659 63.6981 26.913ZM65.8486 26.9572C65.7815 26.9371 65.7228 26.9043 65.6731 26.8589C65.6231 26.8142 65.5841 26.7572 65.5556 26.6892C65.5272 26.6212 65.5129 26.5406 65.5129 26.4483V25.159H65.2277V24.9857H65.5129V24.3572H65.7016V24.9857H66.3918V25.159H65.7016V26.4286C65.7016 26.5701 65.738 26.6695 65.8118 26.7261C65.8854 26.7826 65.9791 26.811 66.0946 26.811C66.1438 26.811 66.1903 26.8051 66.2338 26.7954C66.278 26.7852 66.3275 26.767 66.384 26.7417V26.9186C66.3327 26.942 66.2825 26.9589 66.2321 26.9711C66.1814 26.9821 66.1265 26.9884 66.0639 26.9884C65.9873 26.9884 65.9157 26.9778 65.8486 26.9572ZM67.4104 26.9269C67.2942 26.8777 67.1914 26.8077 67.1026 26.7176C67.0141 26.6277 66.9438 26.5201 66.8919 26.3942C66.841 26.2681 66.8153 26.1284 66.8153 25.9731V25.9657C66.8153 25.8245 66.8391 25.6912 66.8869 25.5662C66.9343 25.4417 66.9999 25.3331 67.0834 25.2402C67.1669 25.1475 67.2654 25.0745 67.3781 25.0201C67.4911 24.9668 67.6143 24.9397 67.7484 24.9397C67.8876 24.9397 68.0116 24.9664 68.1222 25.0192C68.2323 25.0712 68.3273 25.1442 68.405 25.2361C68.4831 25.329 68.5442 25.4371 68.5864 25.5625C68.6286 25.6871 68.6498 25.8227 68.6498 25.9694V26.0099C68.6498 26.0194 68.6489 26.032 68.6461 26.0461H67.0159C67.0237 26.1702 67.0503 26.2791 67.0964 26.3743C67.1431 26.4704 67.2009 26.5512 67.2704 26.6175C67.3392 26.6851 67.4186 26.7352 67.5073 26.77C67.5959 26.8047 67.6887 26.822 67.7869 26.822C67.9408 26.822 68.0711 26.7926 68.1782 26.7334C68.2843 26.6749 68.3793 26.6015 68.4611 26.5135L68.592 26.629C68.4922 26.738 68.3784 26.8266 68.2511 26.895C68.1239 26.9654 67.9659 26.9999 67.7787 26.9999C67.6502 26.9999 67.5275 26.9752 67.4104 26.9269ZM68.3857 25.5892C68.3542 25.4982 68.3091 25.4172 68.2511 25.3466C68.1934 25.2753 68.1222 25.2192 68.0371 25.1765C67.9523 25.134 67.8536 25.113 67.74 25.113C67.6428 25.113 67.5513 25.1323 67.4673 25.1713C67.3825 25.209 67.308 25.263 67.245 25.3314C67.1821 25.399 67.1299 25.4802 67.089 25.5745C67.0481 25.6678 67.0237 25.7686 67.0159 25.8773H68.4455C68.4381 25.7768 68.4184 25.681 68.3857 25.5892ZM69.3886 24.9856V25.3364C69.4202 25.2848 69.4553 25.2356 69.4951 25.1884C69.5352 25.1405 69.5806 25.0983 69.6321 25.0606C69.683 25.0233 69.7436 24.9939 69.8115 24.9724C69.8795 24.9503 69.9576 24.9397 70.0448 24.9397C70.1294 24.9397 70.2073 24.9512 70.2777 24.9742C70.3489 24.9971 70.4112 25.0283 70.4646 25.0669C70.5187 25.1052 70.5662 25.1503 70.6051 25.2016C70.6451 25.2532 70.68 25.3073 70.7075 25.3634C70.7382 25.3102 70.7754 25.2573 70.8187 25.2062C70.8628 25.1544 70.9137 25.1082 70.971 25.0688C71.0295 25.0294 71.095 24.9971 71.1682 24.9742C71.2411 24.9512 71.3247 24.9397 71.4164 24.9397C71.5322 24.9397 71.6374 24.9594 71.7307 24.9995C71.8248 25.0394 71.9042 25.0946 71.9702 25.1654C72.0351 25.2356 72.0856 25.3225 72.1204 25.4241C72.1544 25.5253 72.1723 25.6383 72.1723 25.7616V26.9539H71.9828V25.7841C71.9828 25.5708 71.9313 25.4057 71.8293 25.2885C71.727 25.1713 71.5842 25.113 71.4008 25.113C71.3193 25.113 71.2396 25.1286 71.1645 25.1589C71.0881 25.1901 71.0221 25.2352 70.9661 25.295C70.9087 25.3533 70.8641 25.426 70.8315 25.5129C70.7975 25.5985 70.7804 25.6968 70.7804 25.8075V26.9539H70.5917V25.7731C70.5917 25.5671 70.54 25.4057 70.438 25.2885C70.335 25.1713 70.1946 25.113 70.0178 25.113C69.9305 25.113 69.8479 25.1314 69.7706 25.1672C69.6931 25.2031 69.6269 25.2532 69.5704 25.3175C69.5139 25.3819 69.4689 25.4568 69.4378 25.5415C69.4051 25.6269 69.3886 25.7187 69.3886 25.819V26.9539H69.1999V24.9856H69.3886ZM73.1883 26.9614C73.0987 26.9356 73.0177 26.8964 72.9461 26.8455C72.8736 26.794 72.8154 26.7296 72.7697 26.6529C72.7254 26.576 72.7033 26.4851 72.7033 26.3826V26.3744C72.7033 26.2723 72.7238 26.1803 72.7667 26.1012C72.8085 26.0213 72.8675 25.9541 72.9416 25.9004C73.0164 25.8462 73.1065 25.8044 73.2112 25.7767C73.3168 25.7483 73.4339 25.7344 73.5629 25.7344C73.7012 25.7344 73.8211 25.7414 73.9206 25.7574C74.0217 25.773 74.1191 25.7934 74.2141 25.8191V25.7344C74.2141 25.5336 74.1567 25.3833 74.0422 25.283C73.9284 25.1829 73.7691 25.1322 73.5661 25.1322C73.4458 25.1322 73.3352 25.1469 73.235 25.1764C73.1348 25.2067 73.0394 25.2444 72.9493 25.2904L72.8801 25.1248C72.9885 25.0735 73.0978 25.0317 73.208 25.0014C73.3181 24.97 73.4413 24.9552 73.578 24.9552C73.8477 24.9552 74.0548 25.0269 74.1985 25.1714C74.332 25.3051 74.3991 25.4894 74.3991 25.7271V26.9538H74.2141V26.6259C74.1805 26.6718 74.1396 26.7173 74.0924 26.7623C74.0455 26.8074 73.9903 26.8473 73.9288 26.8824C73.8674 26.9172 73.7966 26.9452 73.718 26.9673C73.6402 26.9894 73.5546 27 73.4627 27C73.3696 27 73.2781 26.9866 73.1883 26.9614ZM73.7589 26.7784C73.849 26.7485 73.9284 26.7071 73.9955 26.6542C74.0643 26.6018 74.1186 26.5384 74.158 26.463C74.1985 26.3891 74.2177 26.3063 74.2177 26.2162V25.9929C74.1355 25.9721 74.039 25.9524 73.9288 25.9331C73.8183 25.9142 73.6923 25.9045 73.551 25.9045C73.3426 25.9045 73.1827 25.9454 73.0714 26.0299C72.9587 26.1133 72.9035 26.224 72.9035 26.3633V26.3711C72.9035 26.4433 72.9191 26.5067 72.9493 26.5624C72.9805 26.617 73.0214 26.6644 73.0742 26.7034C73.1277 26.7415 73.1883 26.7706 73.2584 26.7922C73.3268 26.8124 73.3999 26.8221 73.4744 26.8221C73.5739 26.8221 73.6689 26.8074 73.7589 26.7784ZM77.8165 23.6241L77.4043 24.0207H77.2422L77.5815 23.5082L77.8165 23.6241ZM76.8935 26.9203C76.7585 26.8703 76.6419 26.7957 76.5427 26.697C76.4441 26.5982 76.3672 26.476 76.3136 26.332C76.2595 26.1881 76.2322 26.0213 76.2322 25.83V24.2525H76.4326V25.8112C76.4326 26.1335 76.5129 26.3807 76.6737 26.554C76.8338 26.7282 77.0585 26.8146 77.3467 26.8146C77.4828 26.8146 77.6058 26.794 77.717 26.7531C77.8267 26.7121 77.9213 26.6502 77.9998 26.5679C78.078 26.4851 78.1386 26.3826 78.1812 26.2594C78.2238 26.1353 78.2446 25.9927 78.2446 25.83V24.2525H78.4448V25.8075C78.4448 26.0001 78.4177 26.1712 78.3634 26.3192C78.3102 26.4662 78.2344 26.5904 78.1366 26.6907C78.0388 26.7921 77.9226 26.8675 77.7875 26.9186C77.6531 26.9701 77.503 26.9953 77.3385 26.9953C77.1768 26.9953 77.0286 26.971 76.8935 26.9203ZM79.3494 24.9856V25.352C79.4169 25.2361 79.507 25.1388 79.6199 25.0586C79.7329 24.9791 79.8794 24.9397 80.0594 24.9397C80.1819 24.9397 80.2928 24.9594 80.3908 24.9995C80.4882 25.0394 80.5708 25.095 80.6394 25.1672C80.7074 25.2389 80.7587 25.3244 80.7935 25.4241C80.8281 25.5231 80.8455 25.631 80.8455 25.7497V26.9539H80.6563V25.7841C80.6563 25.5809 80.6022 25.4182 80.4942 25.2967C80.3862 25.1741 80.2324 25.113 80.0322 25.113C79.9344 25.113 79.845 25.1304 79.7619 25.1654C79.6801 25.1999 79.608 25.2475 79.5459 25.3102C79.484 25.3717 79.4362 25.4453 79.4018 25.5318C79.3674 25.6182 79.3494 25.7124 79.3494 25.8158V26.9539H79.1607V24.9856H79.3494ZM81.7387 26.954H81.55V24.9857H81.7387V26.954ZM81.7616 24.4732H81.527V24.2143H81.7616V24.4732ZM82.9542 26.9172C82.8326 26.8611 82.7265 26.7876 82.6365 26.6951C82.5465 26.6018 82.4761 26.4943 82.4244 26.3711C82.3729 26.2478 82.3472 26.1165 82.3472 25.9777V25.9694C82.3472 25.8301 82.3729 25.7 82.4244 25.5763C82.4761 25.4521 82.5465 25.3434 82.6365 25.2476C82.7265 25.1534 82.8326 25.0776 82.9542 25.0223C83.0765 24.9673 83.2083 24.9396 83.3491 24.9396C83.4424 24.9396 83.5259 24.9493 83.6021 24.9686C83.6779 24.9875 83.7478 25.0141 83.8116 25.0473C83.8759 25.0813 83.9352 25.1198 83.9876 25.1631C84.0393 25.2071 84.0895 25.2533 84.1358 25.302L84.0003 25.4413C83.9164 25.3533 83.8216 25.278 83.7196 25.2132C83.6168 25.1489 83.492 25.1172 83.3455 25.1172C83.2321 25.1172 83.1278 25.1387 83.0315 25.1829C82.9354 25.226 82.8518 25.2862 82.7811 25.3616C82.7099 25.437 82.6549 25.5266 82.6129 25.6302C82.5716 25.7327 82.5514 25.8434 82.5514 25.9621V25.9694C82.5514 26.0879 82.5731 26.1986 82.6149 26.3031C82.6579 26.4079 82.7159 26.4984 82.7889 26.5762C82.8616 26.6529 82.9473 26.7131 83.0447 26.7567C83.1425 26.8009 83.2481 26.8221 83.361 26.8221C83.4998 26.8221 83.6238 26.7913 83.7331 26.7283C83.8419 26.6652 83.9374 26.587 84.02 26.4943L84.1509 26.6102C84.0508 26.7233 83.9369 26.8165 83.8097 26.8901C83.6835 26.9631 83.5301 27 83.3491 27C83.2083 27 83.0765 26.9724 82.9542 26.9172ZM85.1505 26.9171C85.0285 26.8612 84.9224 26.7876 84.8328 26.6951C84.7428 26.6019 84.6725 26.4942 84.6229 26.3712C84.5725 26.2479 84.5472 26.1164 84.5472 25.9776V25.9693C84.5472 25.8301 84.5725 25.7001 84.6229 25.5764C84.6725 25.4523 84.7437 25.3433 84.8341 25.2475C84.9257 25.1533 85.0335 25.0775 85.1562 25.0225C85.2797 24.9672 85.4152 24.9397 85.5615 24.9397C85.7076 24.9397 85.8422 24.9672 85.9645 25.0225C86.0856 25.0775 86.1921 25.152 86.2821 25.2445C86.3722 25.3364 86.4419 25.4449 86.4921 25.5679C86.5421 25.6916 86.5667 25.8227 86.5667 25.962V25.9693C86.5667 26.1082 86.5421 26.2397 86.4921 26.3634C86.4419 26.4873 86.3713 26.5963 86.2802 26.6905C86.1889 26.7863 86.082 26.8612 85.9584 26.9171C85.8348 26.9723 85.6998 26.9998 85.5537 26.9998C85.4068 26.9998 85.2728 26.9723 85.1505 26.9171ZM85.8835 26.754C85.9826 26.7093 86.0668 26.6496 86.1374 26.5733C86.2081 26.4979 86.2633 26.4082 86.3027 26.3053C86.3432 26.2024 86.3629 26.0935 86.3629 25.9776V25.9693C86.3629 25.8517 86.3423 25.7404 86.301 25.636C86.2605 25.5318 86.2027 25.4412 86.1296 25.3634C86.0566 25.2868 85.9703 25.2261 85.8712 25.1828C85.7725 25.1388 85.6669 25.1171 85.5537 25.1171C85.4381 25.1171 85.3306 25.1392 85.2319 25.1843C85.1332 25.2293 85.0482 25.29 84.977 25.3654C84.9069 25.4417 84.8512 25.5313 84.8116 25.6338C84.7714 25.7371 84.7517 25.8461 84.7517 25.962V25.9693C84.7517 26.0879 84.7718 26.1988 84.8136 26.303C84.8549 26.4078 84.9114 26.4984 84.9854 26.5761C85.0583 26.6528 85.1443 26.713 85.2434 26.7568C85.3421 26.8008 85.4481 26.822 85.5615 26.822C85.6768 26.822 85.784 26.8003 85.8835 26.754ZM88.7844 26.9305C88.6705 26.8842 88.5686 26.8179 88.4781 26.7297C88.3881 26.6424 88.3154 26.5352 88.2604 26.4078C88.2048 26.2806 88.1773 26.1372 88.1773 25.9776V25.9693C88.1773 25.8103 88.2048 25.6665 88.2604 25.5391C88.3154 25.4122 88.3881 25.3043 88.4781 25.2155C88.5686 25.1269 88.6705 25.0582 88.7844 25.011C88.8982 24.9635 89.0144 24.9397 89.1332 24.9397C89.2313 24.9397 89.3213 24.952 89.4033 24.9783C89.4851 25.004 89.5591 25.0385 89.6247 25.0827C89.6903 25.1262 89.7487 25.176 89.8015 25.2334C89.8547 25.2891 89.9013 25.3478 89.9424 25.4104V24.1367H90.1313V26.9539H89.9424V26.5137C89.8985 26.5781 89.8506 26.64 89.7978 26.6989C89.7454 26.7581 89.6857 26.8096 89.6206 26.8538C89.5559 26.8965 89.4819 26.932 89.4016 26.9591C89.3202 26.9862 89.2313 26.9998 89.1332 26.9998C89.0144 26.9998 88.8982 26.9764 88.7844 26.9305ZM89.4511 26.7568C89.5476 26.7158 89.6329 26.658 89.7078 26.583C89.7822 26.5085 89.842 26.4199 89.8866 26.3172C89.932 26.2139 89.9541 26.0995 89.9541 25.973V25.9657C89.9541 25.8398 89.932 25.7252 89.8866 25.6205C89.842 25.5161 89.7822 25.4273 89.7078 25.3543C89.6329 25.2813 89.5476 25.2237 89.4511 25.1827C89.3542 25.1409 89.2551 25.1204 89.1523 25.1204C89.0447 25.1204 88.9436 25.1401 88.8495 25.1791C88.7569 25.2174 88.6742 25.272 88.6058 25.3446C88.5359 25.4163 88.4807 25.5047 88.4414 25.6095C88.4017 25.7133 88.3816 25.83 88.3816 25.962V25.9693C88.3816 26.098 88.4024 26.2152 88.4431 26.3209C88.484 26.4262 88.54 26.5154 88.6108 26.5895C88.682 26.6621 88.7636 26.7182 88.8577 26.7585C88.951 26.7982 89.0497 26.8183 89.1523 26.8183C89.2551 26.8183 89.3542 26.7977 89.4511 26.7568ZM91.3086 26.9269C91.1915 26.8777 91.0883 26.8077 90.9996 26.7176C90.9111 26.6277 90.8407 26.5201 90.7896 26.3942C90.7388 26.2681 90.7126 26.1284 90.7126 25.9731V25.9657C90.7126 25.8245 90.7364 25.6912 90.7838 25.5662C90.831 25.4417 90.8972 25.3331 90.9803 25.2402C91.0639 25.1475 91.1621 25.0745 91.2751 25.0201C91.3885 24.9668 91.5112 24.9397 91.6451 24.9397C91.7843 24.9397 91.9089 24.9664 92.0191 25.0192C92.1301 25.0712 92.2242 25.1442 92.3028 25.2361C92.3814 25.329 92.4411 25.4371 92.4837 25.5625C92.5259 25.6871 92.5476 25.8227 92.5476 25.9694V26.0099C92.5476 26.0194 92.5463 26.032 92.5439 26.0461H90.9137C90.9206 26.1702 90.9476 26.2791 90.9942 26.3743C91.0405 26.4704 91.0978 26.5512 91.1677 26.6175C91.237 26.6851 91.316 26.7352 91.404 26.77C91.4928 26.8047 91.5869 26.822 91.6843 26.822C91.8386 26.822 91.968 26.7926 92.0751 26.7334C92.1812 26.6749 92.2762 26.6015 92.358 26.5135L92.4898 26.629C92.3896 26.738 92.2757 26.8266 92.1485 26.895C92.0208 26.9654 91.8644 26.9999 91.6761 26.9999C91.5484 26.9999 91.4248 26.9752 91.3086 26.9269ZM92.2831 25.5892C92.2509 25.4982 92.2065 25.4172 92.1485 25.3466C92.0907 25.2753 92.0191 25.2192 91.9345 25.1765C91.8496 25.134 91.751 25.113 91.638 25.113C91.5402 25.113 91.4482 25.1323 91.3642 25.1713C91.2792 25.209 91.2054 25.263 91.1424 25.3314C91.0794 25.399 91.0277 25.4802 90.9864 25.5745C90.945 25.6678 90.9206 25.7686 90.9137 25.8773H92.3433C92.3351 25.7768 92.3151 25.681 92.2831 25.5892ZM94.626 26.8841C94.452 26.8124 94.2843 26.7039 94.1222 26.56L94.254 26.4097C94.328 26.479 94.4018 26.5384 94.4754 26.5895C94.5487 26.6395 94.6236 26.68 94.7013 26.7125C94.7775 26.7444 94.8584 26.7686 94.9432 26.7857C95.0283 26.8026 95.1209 26.8111 95.2211 26.8111C95.3218 26.8111 95.4139 26.7972 95.499 26.7701C95.5834 26.7431 95.6555 26.7058 95.7143 26.6584C95.774 26.6105 95.8199 26.5539 95.8535 26.4883C95.8866 26.4235 95.9035 26.3518 95.9035 26.2741V26.2667C95.9035 26.195 95.8924 26.1307 95.871 26.0732C95.8489 26.0171 95.8093 25.9656 95.7515 25.9192C95.6935 25.8733 95.6156 25.8311 95.5178 25.7938C95.4204 25.7565 95.2947 25.7225 95.1404 25.6918C94.9787 25.6582 94.8396 25.619 94.7238 25.5746C94.6091 25.5295 94.5139 25.4762 94.441 25.416C94.3678 25.3553 94.3141 25.2849 94.281 25.2063C94.247 25.1264 94.2306 25.0343 94.2306 24.9314V24.924C94.2306 24.8237 94.2527 24.7306 94.2968 24.6441C94.3395 24.5581 94.4001 24.4832 94.4773 24.4188C94.5539 24.3545 94.6457 24.3045 94.7509 24.2681C94.856 24.2323 94.9718 24.2143 95.0975 24.2143C95.2932 24.2143 95.4618 24.2414 95.605 24.2952C95.7479 24.3491 95.8866 24.4312 96.0234 24.5417L95.8957 24.7002C95.7671 24.5893 95.6381 24.5114 95.5085 24.4648C95.3791 24.4188 95.2391 24.3955 95.0902 24.3955C94.9902 24.3955 94.8997 24.4093 94.8184 24.4364C94.7376 24.463 94.6678 24.5003 94.6108 24.5462C94.552 24.5922 94.508 24.6463 94.4773 24.7081C94.4464 24.7696 94.4312 24.8354 94.4312 24.9052V24.9125C94.4312 24.9842 94.4418 25.049 94.4635 25.1079C94.486 25.1654 94.5249 25.2182 94.5838 25.265C94.6407 25.3133 94.7214 25.3562 94.8244 25.3952C94.9272 25.4333 95.0582 25.4693 95.2179 25.5029C95.531 25.5672 95.7569 25.6577 95.8957 25.7749C96.0344 25.8921 96.1043 26.0494 96.1043 26.2479V26.2552C96.1043 26.3633 96.0811 26.4625 96.0361 26.5539C95.9918 26.6451 95.9292 26.7231 95.8517 26.7875C95.7736 26.8518 95.679 26.9021 95.5702 26.9382C95.4609 26.9742 95.3406 26.9922 95.2096 26.9922C94.9939 26.9922 94.7995 26.9562 94.626 26.8841ZM97.0438 26.9614C96.9538 26.9356 96.8733 26.8964 96.8019 26.8455C96.7287 26.794 96.6709 26.7296 96.6255 26.6529C96.5809 26.576 96.558 26.4851 96.558 26.3826V26.3744C96.558 26.2723 96.5794 26.1803 96.6222 26.1012C96.664 26.0213 96.7226 25.9541 96.7971 25.9004C96.8715 25.8462 96.9616 25.8044 97.0663 25.7767C97.1724 25.7483 97.289 25.7344 97.4175 25.7344C97.5567 25.7344 97.6755 25.7414 97.7757 25.7574C97.8768 25.773 97.9746 25.7934 98.0687 25.8191V25.7344C98.0687 25.5336 98.0122 25.3833 97.8973 25.283C97.7831 25.1829 97.6238 25.1322 97.4212 25.1322C97.3005 25.1322 97.1901 25.1469 97.0901 25.1764C96.9903 25.2067 96.8945 25.2444 96.8045 25.2904L96.7356 25.1248C96.843 25.0735 96.9523 25.0317 97.0635 25.0014C97.1732 24.97 97.2968 24.9552 97.4331 24.9552C97.7028 24.9552 97.9092 25.0269 98.0531 25.1714C98.1871 25.3051 98.2542 25.4894 98.2542 25.7271V26.9538H98.0687V26.6259C98.0352 26.6718 97.9951 26.7173 97.948 26.7623C97.9001 26.8074 97.8456 26.8473 97.7835 26.8824C97.722 26.9172 97.6521 26.9452 97.5736 26.9673C97.4957 26.9894 97.4098 27 97.3174 27C97.2252 27 97.1338 26.9866 97.0438 26.9614ZM97.6136 26.7784C97.7036 26.7485 97.7831 26.7071 97.851 26.6542C97.919 26.6018 97.9735 26.5384 98.0131 26.463C98.0531 26.3891 98.0733 26.3063 98.0733 26.2162V25.9929C97.9902 25.9721 97.8947 25.9524 97.7835 25.9331C97.6738 25.9142 97.548 25.9045 97.4061 25.9045C97.1981 25.9045 97.0382 25.9454 96.9267 26.0299C96.8142 26.1133 96.7586 26.224 96.7586 26.3633V26.3711C96.7586 26.4433 96.7746 26.5067 96.8045 26.5624C96.8356 26.617 96.877 26.6644 96.9298 26.7034C96.9826 26.7415 97.0438 26.7706 97.1131 26.7922C97.1819 26.8124 97.2546 26.8221 97.3293 26.8221C97.4294 26.8221 97.524 26.8074 97.6136 26.7784ZM100.215 24.2796L99.8028 24.6777H99.6411L99.9804 24.1637L100.215 24.2796ZM99.3481 26.9402C99.2503 26.9001 99.1672 26.8436 99.0992 26.7719C99.0313 26.7002 98.9798 26.6153 98.9453 26.5154C98.9105 26.4166 98.893 26.3081 98.893 26.1889V24.9856H99.0817V26.1551C99.0817 26.3581 99.136 26.5204 99.2433 26.6428C99.3522 26.7654 99.5065 26.8267 99.7067 26.8267C99.8017 26.8267 99.8908 26.8092 99.9744 26.7743C100.057 26.7398 100.131 26.6907 100.192 26.6289C100.253 26.5678 100.302 26.4933 100.337 26.408C100.371 26.3215 100.389 26.2273 100.389 26.1237V24.9856H100.578V26.9539H100.389V26.5871C100.322 26.7034 100.232 26.8009 100.119 26.8809C100.006 26.9595 99.8597 27 99.6796 27C99.5561 27 99.4455 26.9801 99.3481 26.9402ZM101.774 26.9305C101.659 26.8842 101.557 26.8179 101.467 26.7297C101.377 26.6424 101.305 26.5352 101.249 26.4078C101.194 26.2806 101.166 26.1372 101.166 25.9776V25.9693C101.166 25.8103 101.194 25.6665 101.249 25.5391C101.305 25.4122 101.377 25.3043 101.467 25.2155C101.557 25.1269 101.659 25.0582 101.774 25.011C101.888 24.9635 102.005 24.9397 102.122 24.9397C102.22 24.9397 102.31 24.952 102.392 24.9783C102.475 25.004 102.549 25.0385 102.614 25.0827C102.679 25.1262 102.738 25.176 102.792 25.2334C102.844 25.2891 102.891 25.3478 102.932 25.4104V24.1367H103.121V26.9539H102.932V26.5137C102.889 26.5781 102.84 26.64 102.787 26.6989C102.735 26.7581 102.675 26.8096 102.61 26.8538C102.544 26.8965 102.471 26.932 102.39 26.9591C102.309 26.9862 102.22 26.9998 102.122 26.9998C102.005 26.9998 101.888 26.9764 101.774 26.9305ZM102.44 26.7568C102.537 26.7158 102.622 26.658 102.697 26.583C102.772 26.5085 102.831 26.4199 102.876 26.3172C102.92 26.2139 102.944 26.0995 102.944 25.973V25.9657C102.944 25.8398 102.92 25.7252 102.876 25.6205C102.831 25.5161 102.772 25.4273 102.697 25.3543C102.622 25.2813 102.537 25.2237 102.44 25.1827C102.344 25.1409 102.245 25.1204 102.142 25.1204C102.034 25.1204 101.932 25.1401 101.839 25.1791C101.745 25.2174 101.664 25.272 101.594 25.3446C101.525 25.4163 101.47 25.5047 101.431 25.6095C101.39 25.7133 101.371 25.83 101.371 25.962V25.9693C101.371 26.098 101.391 26.2152 101.432 26.3209C101.474 26.4262 101.529 26.5154 101.601 26.5895C101.671 26.6621 101.753 26.7182 101.847 26.7585C101.941 26.7982 102.039 26.8183 102.142 26.8183C102.245 26.8183 102.344 26.7977 102.44 26.7568ZM104.297 26.9269C104.18 26.8777 104.078 26.8077 103.989 26.7176C103.9 26.6277 103.83 26.5201 103.779 26.3942C103.727 26.2681 103.702 26.1284 103.702 25.9731V25.9657C103.702 25.8245 103.725 25.6912 103.773 25.5662C103.821 25.4417 103.886 25.3331 103.97 25.2402C104.053 25.1475 104.152 25.0745 104.265 25.0201C104.378 24.9668 104.501 24.9397 104.635 24.9397C104.773 24.9397 104.898 24.9664 105.009 25.0192C105.119 25.0712 105.214 25.1442 105.291 25.2361C105.37 25.329 105.43 25.4371 105.473 25.5625C105.515 25.6871 105.537 25.8227 105.537 25.9694V26.0099C105.537 26.0194 105.536 26.032 105.532 26.0461H103.902C103.91 26.1702 103.936 26.2791 103.983 26.3743C104.029 26.4704 104.088 26.5512 104.156 26.6175C104.226 26.6851 104.305 26.7352 104.393 26.77C104.482 26.8047 104.575 26.822 104.673 26.822C104.827 26.822 104.958 26.7926 105.064 26.7334C105.171 26.6749 105.265 26.6015 105.348 26.5135L105.479 26.629C105.379 26.738 105.265 26.8266 105.138 26.895C105.011 26.9654 104.853 26.9999 104.665 26.9999C104.537 26.9999 104.414 26.9752 104.297 26.9269ZM105.272 25.5892C105.24 25.4982 105.196 25.4172 105.138 25.3466C105.08 25.2753 105.009 25.2192 104.923 25.1765C104.839 25.134 104.74 25.113 104.627 25.113C104.529 25.113 104.438 25.1323 104.353 25.1713C104.268 25.209 104.195 25.263 104.132 25.3314C104.069 25.399 104.016 25.4802 103.975 25.5745C103.935 25.6678 103.91 25.7686 103.902 25.8773H105.332C105.325 25.7768 105.305 25.681 105.272 25.5892ZM30.1876 9.1892H33.927C36.1353 9.1892 37.643 10.1755 37.643 12.1481V12.1718C37.643 14.1803 36.1115 15.2496 33.8679 15.2496H32.9655V17.5076H30.1876V9.1892ZM33.7134 13.2651C34.4256 13.2651 34.9006 12.9443 34.9006 12.35V12.3264C34.9006 11.7203 34.4613 11.4114 33.7253 11.4114H32.9655V13.2651H33.7134ZM38.2383 9.18914H42.2984C43.7704 9.18914 44.7081 9.5574 45.2901 10.1397C45.7885 10.639 46.0497 11.2569 46.0497 12.1125V12.1362C46.0497 13.3482 45.4206 14.192 44.4112 14.6794L46.3466 17.5075H43.1768L41.6098 15.1308H41.0162V17.5075H38.2383V9.18914ZM42.2153 13.1463C42.8801 13.1463 43.2835 12.8493 43.2835 12.3383V12.3145C43.2835 11.7798 42.8682 11.5183 42.227 11.5183H41.0162V13.1463H42.2153ZM46.5383 13.3722V13.3483C46.5383 10.9362 48.5209 9.01099 51.0854 9.01099C53.6496 9.01099 55.6082 10.9123 55.6082 13.3245V13.3483C55.6082 15.7607 53.6256 17.6859 51.0616 17.6859C48.4973 17.6859 46.5383 15.7845 46.5383 13.3722ZM52.8067 13.3722V13.3483C52.8067 12.362 52.13 11.4708 51.0616 11.4708C50.0048 11.4708 49.3402 12.3501 49.3402 13.3245V13.3483C49.3402 14.3347 50.017 15.2259 51.0854 15.2259C52.1419 15.2259 52.8067 14.3466 52.8067 13.3722ZM58.7326 9.12971H61.4866L64.9888 17.5076H61.9733L61.5342 16.3905H58.6256L58.1982 17.5076H55.2304L58.7326 9.12971ZM60.8456 14.4179L60.0858 12.3978L59.326 14.4179H60.8456ZM65.3351 9.18922H68.5165C71.8168 9.18922 73.4672 10.8172 73.4672 13.277V13.3009C73.4672 15.7607 71.7813 17.5076 68.4217 17.5076H65.3351V9.18922ZM68.576 15.0833C69.8464 15.0833 70.6653 14.5606 70.6653 13.3602V13.3366C70.6653 12.1363 69.8464 11.6135 68.576 11.6135H68.1131V15.0833H68.576ZM77.0304 9.18909V17.5074H74.2525V9.18909H77.0304ZM82.0174 12.6593V14.8696H77.8861V12.6593H82.0174ZM82.1608 16.2599L83.6447 14.489C84.5472 15.1783 85.5799 15.4636 86.5533 15.4636C87.0519 15.4636 87.2655 15.3327 87.2655 15.1072V15.0832C87.2655 14.8458 87.0043 14.7149 86.114 14.5366C84.2503 14.1565 82.6118 13.6216 82.6118 11.863V11.8392C82.6118 10.2589 83.8467 9.03468 86.1378 9.03468C87.7406 9.03468 88.9276 9.41509 89.8891 10.1757L88.5359 12.053C87.7525 11.4828 86.8145 11.233 86.0428 11.233C85.6273 11.233 85.4373 11.3756 85.4373 11.5777V11.6015C85.4373 11.8273 85.6628 11.9698 86.5414 12.1362C88.6664 12.5285 90.091 13.1463 90.091 14.8219V14.8458C90.091 16.5927 88.6545 17.6619 86.4226 17.6619C84.737 17.6619 83.2173 17.1869 82.1608 16.2599ZM90.6623 13.7761V9.18919H93.488V13.7406C93.488 14.7745 94.0221 15.2141 94.77 15.2141C95.5177 15.2141 96.052 14.8101 96.052 13.7999V9.18919H98.8775V13.7167C98.8775 16.5567 97.2273 17.6739 94.7462 17.6739C92.265 17.6739 90.6623 16.5331 90.6623 13.7761ZM99.0698 16.2599L100.553 14.489C101.456 15.1783 102.489 15.4636 103.462 15.4636C103.961 15.4636 104.174 15.3327 104.174 15.1072V15.0832C104.174 14.8458 103.913 14.7149 103.023 14.5366C101.159 14.1565 99.5206 13.6216 99.5206 11.863V11.8392C99.5206 10.2589 100.756 9.03468 103.047 9.03468C104.649 9.03468 105.836 9.41509 106.798 10.1757L105.445 12.053C104.661 11.4828 103.723 11.233 102.952 11.233C102.536 11.233 102.346 11.3756 102.346 11.5777V11.6015C102.346 11.8273 102.572 11.9698 103.45 12.1362C105.575 12.5285 107 13.1463 107 14.8219V14.8458C107 16.5927 105.563 17.6619 103.332 17.6619C101.646 17.6619 100.126 17.1869 99.0698 16.2599Z" fill="white"/>
</svg>
