<svg width="35" height="35" viewBox="0 0 35 35" fill="none" xmlns="http://www.w3.org/2000/svg">
<path d="M32.5 25H31.25V21.25C31.25 20.587 30.9866 19.9511 30.5178 19.4822C30.0489 19.0134 29.413 18.75 28.75 18.75H18.75V15H22.5C23.163 15 23.7989 14.7366 24.2678 14.2678C24.7366 13.7989 25 13.163 25 12.5V2.5C25 1.83696 24.7366 1.20107 24.2678 0.732233C23.7989 0.263392 23.163 0 22.5 0H12.5C11.837 0 11.2011 0.263392 10.7322 0.732233C10.2634 1.20107 10 1.83696 10 2.5V12.5C10 13.163 10.2634 13.7989 10.7322 14.2678C11.2011 14.7366 11.837 15 12.5 15H16.25V18.75H6.25C5.58696 18.75 4.95107 19.0134 4.48223 19.4822C4.01339 19.9511 3.75 20.587 3.75 21.25V25H2.5C1.83696 25 1.20107 25.2634 0.732233 25.7322C0.263392 26.2011 0 26.837 0 27.5V32.5C0 33.163 0.263392 33.7989 0.732233 34.2678C1.20107 34.7366 1.83696 35 2.5 35H7.5C8.16304 35 8.79893 34.7366 9.26777 34.2678C9.73661 33.7989 10 33.163 10 32.5V27.5C10 26.837 9.73661 26.2011 9.26777 25.7322C8.79893 25.2634 8.16304 25 7.5 25H6.25V21.25H16.25V25H15C14.337 25 13.7011 25.2634 13.2322 25.7322C12.7634 26.2011 12.5 26.837 12.5 27.5V32.5C12.5 33.163 12.7634 33.7989 13.2322 34.2678C13.7011 34.7366 14.337 35 15 35H20C20.663 35 21.2989 34.7366 21.7678 34.2678C22.2366 33.7989 22.5 33.163 22.5 32.5V27.5C22.5 26.837 22.2366 26.2011 21.7678 25.7322C21.2989 25.2634 20.663 25 20 25H18.75V21.25H28.75V25H27.5C26.837 25 26.2011 25.2634 25.7322 25.7322C25.2634 26.2011 25 26.837 25 27.5V32.5C25 33.163 25.2634 33.7989 25.7322 34.2678C26.2011 34.7366 26.837 35 27.5 35H32.5C33.163 35 33.7989 34.7366 34.2678 34.2678C34.7366 33.7989 35 33.163 35 32.5V27.5C35 26.837 34.7366 26.2011 34.2678 25.7322C33.7989 25.2634 33.163 25 32.5 25ZM12.5 2.5H22.5V12.5H12.5V2.5ZM7.5 32.5H2.5V27.5H7.5V32.5ZM20 32.5H15V27.5H20V32.5ZM32.5 32.5H27.5V27.5H32.5V32.5Z" fill="#41A935"/>
</svg>
