<svg width="36" height="37" viewBox="0 0 36 37" fill="none" xmlns="http://www.w3.org/2000/svg">
<path d="M30 22C32.2091 22 34 20.2091 34 18C34 15.7909 32.2091 14 30 14C27.7909 14 26 15.7909 26 18C26 20.2091 27.7909 22 30 22Z" stroke="#41A935" stroke-width="3" stroke-linejoin="bevel"/>
<path d="M16.6667 2H20.6667V8.66667C20.6667 11.142 19.6833 13.516 17.933 15.2663C16.1827 17.0167 13.8087 18 11.3333 18C10.8872 18.0026 10.4415 17.9714 10 17.9067C7.77827 17.586 5.74653 16.4753 4.27721 14.7783C2.80789 13.0812 1.99942 10.9114 2 8.66667V2H6" stroke="#41A935" stroke-width="3" stroke-linejoin="bevel"/>
<path d="M30 22.0001V26.0001C30 28.4754 29.0167 30.8494 27.2663 32.5997C25.516 34.3501 23.142 35.3334 20.6667 35.3334C18.1913 35.3334 15.8174 34.3501 14.067 32.5997C12.3167 30.8494 11.3333 28.4754 11.3333 26.0001V17.9067" stroke="#41A935" stroke-width="3" stroke-linejoin="bevel"/>
<path d="M14 18H8.66666V20.6667H14V18Z" stroke="#41A935" stroke-width="3" stroke-linejoin="bevel"/>
</svg>
