<svg width="36" height="36" viewBox="0 0 36 36" fill="none" xmlns="http://www.w3.org/2000/svg">
<path d="M34 22.15V12.85C34 5.1 30.9 2 23.15 2H13.85C6.1 2 3 5.1 3 12.85V22.15C3 29.9 6.1 33 13.85 33H23.15C30.9 33 34 29.9 34 22.15Z" stroke="white" stroke-width="3" stroke-linecap="round" stroke-linejoin="round"/>
<path d="M4 10H33" stroke="white" stroke-width="3" stroke-linecap="round" stroke-linejoin="round"/>
<path d="M13 2V10" stroke="white" stroke-width="3" stroke-linecap="round" stroke-linejoin="round"/>
<path d="M24 2V9" stroke="white" stroke-width="3" stroke-linecap="round" stroke-linejoin="round"/>
<path d="M15 21.5V19.6561C15 17.2898 16.7844 16.3218 18.9618 17.505L20.6644 18.4269L22.367 19.3488C24.5443 20.532 24.5443 22.468 22.367 23.6512L20.6644 24.5731L18.9618 25.495C16.7844 26.6782 15 25.7102 15 23.3439V21.5Z" fill="white"/>
</svg>
