<svg width="60" height="32" viewBox="0 0 60 32" fill="none" xmlns="http://www.w3.org/2000/svg">
<path fill-rule="evenodd" clip-rule="evenodd" d="M21.727 17.3223L19.8008 16.7582C18.5546 16.3623 17.716 15.1799 17.716 13.8825C17.716 12.1857 19.0628 10.8462 20.7657 10.8462H24.5486V12.1857H21.8931C21.3814 12.1857 20.9323 12.5798 20.9323 13.1474C20.9323 13.4849 21.1552 13.8825 21.5569 13.9923L23.4194 14.6124C24.7187 15.0106 25.4018 16.3022 25.4018 17.7731C25.4018 19.634 23.8708 21.1597 22.0031 21.1597H17.9939V19.634H21.4399C21.9463 19.634 22.5165 19.1306 22.5165 18.4556C22.5165 17.943 22.2311 17.4939 21.727 17.3223ZM4.08323 17.3223L2.16287 16.7582C0.980456 16.3623 0.132507 15.1799 0.132507 13.8825C0.132507 12.1857 1.48859 10.8462 3.18444 10.8462H6.9744V12.1857H4.31544C3.80727 12.1857 3.35754 12.5798 3.35754 13.1474C3.35754 13.4849 3.57918 13.8825 3.97565 13.9923L5.83933 14.6124C7.08548 15.0106 7.76033 16.3022 7.76033 17.7731C7.76033 19.634 6.29426 21.1597 4.42708 21.1597H0.417327V19.634H3.86394C4.3686 19.634 4.93647 19.1306 4.93647 18.4556C4.93647 17.943 4.5949 17.4939 4.08323 17.3223ZM12.8455 21.4989C10.5304 21.4989 8.72287 19.8605 8.72287 17.8297V10.9046H11.8298V18.1123C11.8298 19.0191 12.6209 19.7472 13.6373 19.7472C14.5963 19.7472 15.4518 19.0191 15.4518 18.1123V10.9046H16.9156V17.8297C16.9156 19.8605 15.108 21.4989 12.8455 21.4989Z" fill="#16539C"/>
<path fill-rule="evenodd" clip-rule="evenodd" d="M47.995 22.0882C47.995 22.0882 42.6373 22.4508 38.0796 22.0403C38.1708 27.5728 38.8398 30.4176 38.9474 31.0219H48.9108C48.4336 28.1129 48.057 23.4166 47.995 22.0882ZM31.0986 10.5958C31.764 10.6507 37.6358 11.1634 38.0282 11.1634L47.3243 20.601H59.2683V10.5958H31.0986ZM38.8802 10.0119H48.9125V0.308594H38.8802V10.0119ZM38.8141 12.8041L37.5112 11.4775C35.7733 11.4991 30.1776 10.9082 28.3835 10.5958V20.601C37.3615 21.4856 42.0759 21.7104 47.3354 21.5423H47.4231L38.8141 12.8041ZM47.9494 21.1119H49.1681V28.8924C49.0184 28.0837 48.5617 23.3489 48.6201 21.8325C48.4664 21.6754 47.9494 21.1119 47.9494 21.1119Z" fill="#16539C"/>
</svg>
