<svg width="18" height="18" viewBox="0 0 18 18" fill="none" xmlns="http://www.w3.org/2000/svg">
<path fill-rule="evenodd" clip-rule="evenodd" d="M15.3774 2.61579C17.0695 4.30168 18.0008 6.54265 18 8.92602C17.9979 13.8438 13.977 17.8453 9.03766 17.8453H9.03394C7.53402 17.8449 6.06007 17.4703 4.75108 16.7597L0 18L1.2715 13.378C0.487204 12.0254 0.0745067 10.491 0.0752052 8.91884C0.0770679 4.00102 4.09763 0 9.03754 0C11.435 0.000926886 13.6852 0.929898 15.3774 2.61579ZM9.03754 16.3389C13.1433 16.3389 16.485 13.0131 16.4867 8.92533C16.4875 6.94446 15.7133 5.08188 14.307 3.68055C12.9006 2.27921 11.0302 1.507 9.04057 1.50642C4.93176 1.50642 1.59002 4.83185 1.58839 8.9193C1.58781 10.3202 1.98164 11.6844 2.72729 12.8647L2.90436 13.1452L2.15185 15.8809L4.97123 15.145L5.24318 15.3055C6.38685 15.981 7.69794 16.3384 9.03452 16.3389H9.03754ZM13.1235 10.7866C13.3475 10.8982 13.4968 10.9539 13.5528 11.047C13.6088 11.1398 13.6088 11.5861 13.4221 12.1067C13.2355 12.6273 12.3409 13.1025 11.9106 13.1664C11.5248 13.2238 11.0365 13.2477 10.5001 13.0781C10.1749 12.9755 9.75781 12.8383 9.22346 12.6087C6.97709 11.6433 5.51 9.39225 5.39801 9.24348C5.28602 9.09472 4.48356 8.03494 4.48356 6.93797C4.48356 5.84112 5.06215 5.3019 5.26739 5.07875C5.47263 4.85561 5.71524 4.79988 5.86461 4.79988C6.01385 4.79988 6.16333 4.80115 6.29372 4.80764C6.43121 4.81459 6.61584 4.75573 6.79769 5.19021C6.98419 5.63651 7.43204 6.73348 7.48804 6.84505C7.54403 6.95662 7.5814 7.08673 7.50678 7.2355C7.43204 7.38415 7.39479 7.47718 7.2828 7.6073C7.1708 7.73741 7.04763 7.89788 6.94682 7.99775C6.83471 8.10886 6.71806 8.22947 6.84868 8.45262C6.9793 8.67576 7.42878 9.40557 8.09445 9.99658C8.94977 10.7558 9.67143 10.9911 9.8953 11.1027C10.1192 11.2144 10.2499 11.1956 10.3805 11.047C10.5111 10.8982 10.9403 10.3962 11.0895 10.173C11.2389 9.95 11.3881 9.98719 11.5934 10.0616C11.7986 10.136 12.8997 10.6751 13.1235 10.7866Z" fill="white"/>
</svg>
