<svg width="36" height="36" viewBox="0 0 36 36" fill="none" xmlns="http://www.w3.org/2000/svg">
<path d="M0 36L2.54258 26.7555C0.973624 24.0495 0.149209 20.982 0.150716 17.8365C0.155237 8.0025 8.19593 0 18.0754 0C22.8696 0.0015 27.37 1.86 30.7551 5.232C34.1387 8.604 36.0015 13.086 36 17.853C35.9955 27.6885 27.9548 35.691 18.0754 35.691C15.0761 35.6895 12.1206 34.941 9.50264 33.519L0 36ZM9.94273 30.2895C12.4687 31.782 14.8802 32.676 18.0693 32.6775C26.2803 32.6775 32.9691 26.0265 32.9736 17.85C32.9766 9.657 26.3195 3.015 18.0814 3.012C9.86435 3.012 3.18011 9.663 3.17709 17.838C3.17558 21.1755 4.15825 23.6745 5.80859 26.289L4.30294 31.761L9.94273 30.2895ZM27.1047 22.0935C26.9932 21.9075 26.6948 21.7965 26.2457 21.573C25.798 21.3495 23.5961 20.271 23.1846 20.1225C22.7747 19.974 22.4763 19.899 22.1763 20.346C21.8779 20.7915 21.0188 21.7965 20.7581 22.0935C20.4974 22.3905 20.2351 22.428 19.7875 22.2045C19.3399 21.981 17.896 21.5115 16.1854 19.992C14.8546 18.81 13.9548 17.3505 13.694 16.9035C13.4333 16.458 13.6669 16.2165 13.89 15.9945C14.0919 15.795 14.3376 15.474 14.5622 15.213C14.7897 14.955 14.8636 14.769 15.0143 14.4705C15.1635 14.1735 15.0897 13.9125 14.9766 13.689C14.8636 13.467 13.9683 11.2725 13.5961 10.38C13.2313 9.5115 12.8621 9.6285 12.5878 9.615L11.7287 9.6C11.4303 9.6 10.945 9.711 10.535 10.158C10.1251 10.605 8.9676 11.682 8.9676 13.8765C8.9676 16.071 10.5727 18.1905 10.7958 18.4875C11.0203 18.7845 13.9533 23.2875 18.4461 25.218C19.5147 25.677 20.3497 25.9515 20.9992 26.157C22.0723 26.496 23.049 26.448 23.8206 26.334C24.6812 26.2065 26.4702 25.2555 26.844 24.2145C27.2178 23.172 27.2178 22.2795 27.1047 22.0935Z" fill="white"/>
</svg>
