<svg width="170" height="49" viewBox="0 0 170 49" fill="none" xmlns="http://www.w3.org/2000/svg">
<g clip-path="url(#clip0_1296_351)">
<path d="M73.0529 23.7324C73.3597 23.7324 73.6118 23.6389 73.8091 23.4524C74.0071 23.2653 74.1054 22.9517 74.1054 22.511C74.1054 22.0749 74.0084 21.7633 73.813 21.5762C73.6184 21.3898 73.3782 21.2962 73.0925 21.2962C72.9414 21.2962 72.8239 21.3068 72.7414 21.3279L72.585 21.3509V23.7324H73.0529ZM71.5721 21.9965C71.5721 21.7324 71.5358 21.5367 71.4626 21.4089C71.39 21.2824 71.2442 21.2192 71.0257 21.2192H70.9479V20.9853H73.0925C73.6276 20.9853 74.112 21.09 74.5462 21.3002C74.9797 21.511 75.1968 21.9274 75.1968 22.5492C75.1968 22.9544 75.084 23.2686 74.8576 23.4919C74.6319 23.7146 74.3786 23.8622 74.0981 23.9346C73.817 24.0078 73.5597 24.044 73.3261 24.044H72.585V26.1218H71.5721V21.9965Z" fill="#005CA9"/>
<path d="M77.5596 23.4607C77.8506 23.4607 78.0988 23.3731 78.3046 23.1992C78.5099 23.0259 78.6121 22.7525 78.6121 22.3783C78.6121 22.0101 78.5112 21.7374 78.3079 21.5608C78.1053 21.3849 77.8691 21.2966 77.5986 21.2966C77.4474 21.2966 77.3307 21.3065 77.2475 21.3276L77.0918 21.3506V23.4607H77.5596ZM78.9163 25.9469C78.6821 25.7789 78.4379 25.4871 78.1832 25.0714L77.4039 23.7717H77.0918V26.1221H76.0703V21.9969C76.0703 21.7321 76.034 21.5371 75.9614 21.4093C75.8888 21.2821 75.743 21.2189 75.5246 21.2189H75.4467V20.9857H77.5986C78.139 20.9857 78.6247 21.0839 79.0569 21.2802C79.4884 21.4785 79.7036 21.8566 79.7036 22.4172C79.7036 23.0661 79.2826 23.4969 78.4406 23.7091L79.2595 25.0714C79.5656 25.5846 79.8883 25.8705 80.2262 25.9278V26.1221C80.1846 26.1432 80.1087 26.161 79.9999 26.1762C79.891 26.1926 79.7893 26.2005 79.6956 26.2005C79.4099 26.2005 79.1499 26.1162 78.9163 25.9469Z" fill="#005CA9"/>
<path d="M84.0934 25.309C84.3527 24.8966 84.4827 24.311 84.4827 23.5534C84.4827 22.7958 84.3527 22.2108 84.0934 21.7984C83.8334 21.386 83.4671 21.1798 82.994 21.1798C82.5209 21.1798 82.156 21.386 81.898 21.7984C81.6413 22.2108 81.5126 22.7958 81.5126 23.5534C81.5126 24.311 81.6413 24.8966 81.898 25.309C82.156 25.7214 82.5209 25.9276 82.994 25.9276C83.4671 25.9276 83.8334 25.7214 84.0934 25.309ZM81.6485 25.9197C81.2566 25.6812 80.9537 25.3545 80.7405 24.9388C80.5274 24.5244 80.4205 24.0626 80.4205 23.5534C80.4205 23.0448 80.5274 22.583 80.7405 22.168C80.9537 21.753 81.2566 21.4262 81.6485 21.1877C82.0411 20.9493 82.4899 20.8294 82.994 20.8294C83.4981 20.8294 83.9449 20.9493 84.3349 21.1877C84.7249 21.4262 85.0264 21.753 85.2395 22.168C85.4527 22.583 85.5589 23.0448 85.5589 23.5534C85.5589 24.0626 85.4527 24.5244 85.2395 24.9388C85.0264 25.3545 84.7249 25.6812 84.3349 25.9197C83.9449 26.1582 83.4981 26.2781 82.994 26.2781C82.4899 26.2781 82.0411 26.1582 81.6485 25.9197Z" fill="#005CA9"/>
<path d="M85.6993 26.9551C85.9488 26.9241 86.1322 26.8002 86.249 26.5855C86.3658 26.3694 86.4245 26.0005 86.4245 25.4761V20.9853H87.4381V25.4761C87.4381 25.9379 87.3899 26.2897 87.2936 26.5302C87.1973 26.7719 87.027 26.9419 86.7835 27.0407C86.5387 27.1395 86.1777 27.1883 85.6993 27.1883V26.9551Z" fill="#005CA9"/>
<path d="M88.7557 21.9968C88.7557 21.7319 88.7195 21.5369 88.6462 21.4091C88.5736 21.2826 88.4285 21.2187 88.21 21.2187H88.1322V20.9855H91.5701C92.0122 20.9855 92.2326 21.193 92.2326 21.6074V22.2695H91.999C91.999 21.9473 91.9172 21.7122 91.7536 21.5613C91.5899 21.4104 91.3471 21.336 91.0244 21.336H89.7693V23.2814H91.7964V23.6318H89.7693V25.7722H91.1023C91.3985 25.7722 91.646 25.7056 91.8433 25.5739C92.0406 25.4408 92.2042 25.2116 92.3342 24.8841L92.5447 24.9632L92.3184 25.5778C92.2511 25.7636 92.1706 25.902 92.0769 25.9902C91.9832 26.0778 91.838 26.122 91.64 26.122H88.7557V21.9968Z" fill="#005CA9"/>
<path d="M94.5016 21.3357H93.948C93.657 21.3357 93.4346 21.4081 93.2815 21.553C93.1284 21.6986 93.0519 21.9371 93.0519 22.2691H92.8183V21.6071C92.8183 21.1927 93.0387 20.9852 93.4808 20.9852H97.1444V21.3357H95.5152V26.1223H94.5016V21.3357Z" fill="#005CA9"/>
<path d="M100.825 25.309C101.084 24.8966 101.214 24.311 101.214 23.5534C101.214 22.7958 101.084 22.2108 100.825 21.7984C100.565 21.386 100.199 21.1798 99.7254 21.1798C99.2523 21.1798 98.8874 21.386 98.6294 21.7984C98.3727 22.2108 98.244 22.7958 98.244 23.5534C98.244 24.311 98.3727 24.8966 98.6294 25.309C98.8874 25.7214 99.2523 25.9276 99.7254 25.9276C100.199 25.9276 100.565 25.7214 100.825 25.309ZM98.3799 25.9197C97.988 25.6812 97.6851 25.3545 97.4719 24.9388C97.2588 24.5244 97.1519 24.0626 97.1519 23.5534C97.1519 23.0448 97.2588 22.583 97.4719 22.168C97.6851 21.753 97.988 21.4262 98.3799 21.1877C98.7726 20.9493 99.2213 20.8294 99.7254 20.8294C100.23 20.8294 100.676 20.9493 101.066 21.1877C101.456 21.4262 101.758 21.753 101.971 22.168C102.184 22.583 102.29 23.0448 102.29 23.5534C102.29 24.0626 102.184 24.5244 101.971 24.9388C101.758 25.3545 101.456 25.6812 101.066 25.9197C100.676 26.1582 100.23 26.2781 99.7254 26.2781C99.2213 26.2781 98.7726 26.1582 98.3799 25.9197Z" fill="#005CA9"/>
<path d="M73.4428 35.3546H72.2049C71.5536 35.3546 71.0567 35.5173 70.7142 35.8428C70.3711 36.1675 70.1996 36.7018 70.1996 37.4443H69.6763V35.9647C69.6763 35.0358 70.1705 34.572 71.1583 34.572H79.3546V35.3546H75.7101V46.0616H73.4428V35.3546Z" fill="#F18318"/>
<path d="M84.1326 41.5005C84.1326 40.4096 84.0039 39.6349 83.7486 39.1764C83.4932 38.7185 83.127 38.4892 82.6499 38.4892C82.2084 38.4892 81.8508 38.7238 81.5776 39.1941C81.3044 39.6645 81.1678 40.4326 81.1678 41.5005H84.1326ZM80.7145 45.6791C80.11 45.3076 79.6422 44.7996 79.3109 44.156C78.9797 43.5111 78.8134 42.7831 78.8134 41.9702C78.8134 41.0657 78.9797 40.2943 79.3109 39.6553C79.6422 39.0169 80.0982 38.5321 80.6795 38.2014C81.2609 37.8713 81.9181 37.7053 82.6499 37.7053C83.3705 37.7053 84.0218 37.8509 84.6031 38.1408C85.1845 38.4306 85.6431 38.8404 85.9809 39.3687C86.3175 39.8964 86.4864 40.5025 86.4864 41.1876C86.4864 41.4076 86.4752 41.6573 86.4514 41.9359L86.4171 42.2844H81.1678C81.1678 43.3872 81.3361 44.1903 81.6733 44.6949C82.0105 45.2002 82.4816 45.4525 83.0861 45.4525C83.6443 45.4525 84.1122 45.328 84.4896 45.0783C84.8671 44.8286 85.2313 44.4716 85.5797 44.0078L86.1202 44.4083C85.783 44.9307 85.362 45.3655 84.8565 45.7133C84.3504 46.0612 83.6733 46.2357 82.8241 46.2357C82.0224 46.2357 81.3189 46.0507 80.7145 45.6791Z" fill="#005CA9"/>
<path d="M88.1605 36.8347C88.1605 36.2432 88.0787 35.8057 87.9164 35.5205C87.7534 35.2359 87.4281 35.0943 86.9398 35.0943H86.7649V34.5719H88.858C89.2764 34.5719 89.5964 34.641 89.8168 34.7814C90.0379 34.9197 90.1943 35.1496 90.2873 35.4684C90.381 35.7873 90.4272 36.2432 90.4272 36.8347V46.0615H88.1605V36.8347Z" fill="#005CA9"/>
<path d="M97.5073 41.5005C97.5073 40.4096 97.3787 39.6349 97.1233 39.1764C96.8679 38.7185 96.5017 38.4892 96.0246 38.4892C95.5832 38.4892 95.2255 38.7238 94.9523 39.1941C94.6791 39.6645 94.5425 40.4326 94.5425 41.5005H97.5073ZM94.0892 45.6791C93.4848 45.3076 93.0169 44.7996 92.6857 44.156C92.3544 43.5111 92.1881 42.7831 92.1881 41.9702C92.1881 41.0657 92.3544 40.2943 92.6857 39.6553C93.0169 39.0169 93.4729 38.5321 94.0542 38.2014C94.6356 37.8713 95.2928 37.7053 96.0246 37.7053C96.7452 37.7053 97.3965 37.8509 97.9778 38.1408C98.5592 38.4306 99.0178 38.8404 99.3557 39.3687C99.6922 39.8964 99.8611 40.5025 99.8611 41.1876C99.8611 41.4076 99.8499 41.6573 99.8262 41.9359L99.7918 42.2844H94.5425C94.5425 43.3872 94.7108 44.1903 95.048 44.6949C95.3852 45.2002 95.8564 45.4525 96.4608 45.4525C97.019 45.4525 97.4869 45.328 97.8643 45.0783C98.2418 44.8286 98.606 44.4716 98.9545 44.0078L99.4949 44.4083C99.1577 44.9307 98.7367 45.3655 98.2312 45.7133C97.7251 46.0612 97.0481 46.2357 96.1995 46.2357C95.3971 46.2357 94.6936 46.0507 94.0892 45.6791Z" fill="#005CA9"/>
<path d="M102.756 37.4444V46.0612H101.884V36.6605C101.884 36.1737 101.765 35.7902 101.527 35.5116C101.288 35.2329 100.884 35.0939 100.315 35.0939H100.228V34.5715H101.448C102.099 34.5715 102.631 34.6565 103.044 34.8245C103.456 34.9925 103.802 35.2573 104.081 35.6163L110.08 42.5802V34.5715H110.951V46.1138H110.15L102.756 37.4444Z" fill="#40A935"/>
<path d="M118.328 44.4949C118.642 43.8572 118.799 43.0146 118.799 41.9705C118.799 40.9257 118.642 40.0851 118.328 39.4461C118.014 38.8077 117.561 38.4889 116.968 38.4889C116.375 38.4889 115.922 38.8077 115.608 39.4461C115.294 40.0851 115.137 40.9257 115.137 41.9705C115.137 43.0146 115.294 43.8572 115.608 44.4949C115.922 45.1339 116.375 45.4527 116.968 45.4527C117.561 45.4527 118.014 45.1339 118.328 44.4949ZM114.745 45.6701C114.111 45.2927 113.625 44.7828 113.288 44.1378C112.952 43.4936 112.783 42.7716 112.783 41.9705C112.783 41.1694 112.952 40.4467 113.288 39.8031C113.625 39.1588 114.111 38.649 114.745 38.2715C115.378 37.8947 116.119 37.7049 116.968 37.7049C117.816 37.7049 118.557 37.8947 119.191 38.2715C119.825 38.649 120.311 39.1588 120.647 39.8031C120.984 40.4467 121.153 41.1694 121.153 41.9705C121.153 42.7716 120.984 43.4936 120.647 44.1378C120.311 44.7828 119.825 45.2927 119.191 45.6701C118.557 46.0476 117.816 46.2354 116.968 46.2354C116.119 46.2354 115.378 46.0476 114.745 45.6701Z" fill="#005CA9"/>
<path d="M128.878 38.5494C128.971 38.7292 129.018 38.826 129.018 38.8373L128.128 39.5165C128.047 39.4117 127.942 39.301 127.814 39.1851C127.558 38.9525 127.262 38.8373 126.925 38.8373C126.25 38.8373 125.733 39.0171 125.373 39.3761L125.408 39.6383C125.431 39.8465 125.443 40.0382 125.443 40.2128V46.0614H123.175V40.143C123.175 39.5507 123.097 39.1126 122.94 38.828C122.783 38.5441 122.461 38.4011 121.972 38.4011H121.798V37.8794H123.524C123.919 37.8794 124.23 37.9288 124.457 38.027C124.684 38.1258 124.861 38.2918 124.989 38.523C125.617 37.9776 126.349 37.7055 127.186 37.7055C127.686 37.7055 128.099 37.8221 128.425 38.0533C128.634 38.2042 128.785 38.3702 128.878 38.5494Z" fill="#005CA9"/>
<path d="M134.737 44.8953C134.864 44.7675 134.998 44.5765 135.138 44.3209V39.0112C135.022 38.919 134.882 38.8314 134.719 38.7497C134.348 38.5758 133.993 38.4888 133.656 38.4888C132.493 38.4888 131.912 39.6489 131.912 41.9704C131.912 43.0501 132.043 43.8999 132.305 44.5212C132.566 45.1417 132.987 45.4527 133.568 45.4527C133.999 45.4527 134.389 45.2669 134.737 44.8953ZM130.508 45.0436C129.875 44.2484 129.558 43.224 129.558 41.9704C129.558 40.7174 129.88 39.6937 130.526 38.8972C131.171 38.1034 132.098 37.7055 133.307 37.7055C133.726 37.7055 134.173 37.7925 134.65 37.967C134.824 38.0481 134.987 38.135 135.138 38.2272V36.8346C135.138 36.243 135.056 35.8056 134.894 35.521C134.731 35.2358 134.406 35.0941 133.918 35.0941H133.743V34.5717H135.836C136.254 34.5717 136.574 34.6416 136.795 34.7812C137.016 34.9202 137.172 35.1495 137.265 35.4683C137.359 35.7872 137.405 36.243 137.405 36.8346V46.0614H135.923L135.313 45.2787H135.225C135.12 45.4408 134.958 45.6035 134.737 45.7656C134.342 46.0798 133.836 46.2353 133.22 46.2353C132.045 46.2353 131.141 45.838 130.508 45.0436Z" fill="#005CA9"/>
<path d="M144.415 41.5005C144.415 40.4096 144.286 39.6349 144.031 39.1764C143.776 38.7185 143.409 38.4892 142.932 38.4892C142.491 38.4892 142.133 38.7238 141.86 39.1941C141.587 39.6645 141.45 40.4326 141.45 41.5005H144.415ZM140.997 45.6791C140.393 45.3076 139.925 44.7996 139.593 44.156C139.262 43.5111 139.096 42.7831 139.096 41.9702C139.096 41.0657 139.262 40.2943 139.593 39.6553C139.925 39.0169 140.381 38.5321 140.962 38.2014C141.543 37.8713 142.201 37.7053 142.932 37.7053C143.653 37.7053 144.304 37.8509 144.886 38.1408C145.467 38.4306 145.926 38.8404 146.263 39.3687C146.6 39.8964 146.769 40.5025 146.769 41.1876C146.769 41.4076 146.758 41.6573 146.734 41.9359L146.7 42.2844H141.45C141.45 43.3872 141.619 44.1903 141.956 44.6949C142.293 45.2002 142.764 45.4525 143.369 45.4525C143.927 45.4525 144.395 45.328 144.772 45.0783C145.15 44.8286 145.514 44.4716 145.862 44.0078L146.403 44.4083C146.065 44.9307 145.644 45.3655 145.139 45.7133C144.633 46.0612 143.956 46.2357 143.107 46.2357C142.305 46.2357 141.601 46.0507 140.997 45.6791Z" fill="#005CA9"/>
<path d="M148.512 45.5222C148.326 45.3483 148.21 45.1019 148.164 44.7824C148.117 44.4629 148.094 44.0189 148.094 43.4504H148.704C148.809 44.0545 149.047 44.538 149.419 44.9043C149.791 45.2699 150.309 45.453 150.971 45.453C152.134 45.453 152.715 45.0584 152.715 44.2686C152.715 43.9669 152.59 43.7172 152.34 43.5202C152.09 43.3226 151.692 43.1025 151.145 42.8588L150.239 42.4754C149.494 42.1506 148.937 41.7962 148.565 41.4141C148.192 41.0307 148.007 40.5669 148.007 40.0201C148.007 39.2902 148.312 38.7217 148.922 38.3152C149.533 37.9088 150.332 37.7052 151.32 37.7052C152.68 37.7052 153.616 37.9437 154.128 38.4193C154.313 38.5939 154.43 38.837 154.476 39.1499C154.523 39.4641 154.546 39.9108 154.546 40.4912H153.936C153.831 39.8877 153.593 39.4029 153.221 39.0373C152.848 38.6723 152.331 38.4891 151.669 38.4891C151.168 38.4891 150.797 38.5965 150.553 38.8113C150.309 39.0261 150.187 39.3133 150.187 39.6723C150.187 39.9628 150.288 40.2033 150.492 40.395C150.695 40.5867 151.006 40.7751 151.424 40.9615L152.471 41.3957C153.331 41.756 153.95 42.1183 154.329 42.4846C154.706 42.8496 154.895 43.3285 154.895 43.9201C154.895 44.6632 154.566 45.2343 153.91 45.6349C153.252 46.0354 152.39 46.2357 151.32 46.2357C149.96 46.2357 149.024 45.9978 148.512 45.5222Z" fill="#005CA9"/>
<path d="M157.563 45.5824C157.121 45.1476 156.901 44.5178 156.901 43.6937V38.6626H155.854V37.8794H156.901V36.3128L157.772 35.268H159.167V37.8794H161.085V38.6626H159.167V43.7984C159.167 44.4256 159.242 44.8577 159.394 45.0956C159.545 45.334 159.772 45.4526 160.074 45.4526C160.399 45.4526 160.725 45.3769 161.05 45.226C161.179 45.1568 161.312 45.0751 161.452 44.9829L161.696 45.4697C161.545 45.5975 161.365 45.7253 161.155 45.8531C160.666 46.1074 160.091 46.2352 159.429 46.2352C158.627 46.2352 158.005 46.0178 157.563 45.5824Z" fill="#005CA9"/>
<path d="M167.624 41.5005C167.624 40.4096 167.496 39.6349 167.24 39.1764C166.985 38.7185 166.619 38.4892 166.142 38.4892C165.7 38.4892 165.343 38.7238 165.069 39.1941C164.796 39.6645 164.66 40.4326 164.66 41.5005H167.624ZM164.206 45.6791C163.602 45.3076 163.134 44.7996 162.803 44.156C162.472 43.5111 162.305 42.7831 162.305 41.9702C162.305 41.0657 162.472 40.2943 162.803 39.6553C163.134 39.0169 163.59 38.5321 164.171 38.2014C164.753 37.8713 165.41 37.7053 166.142 37.7053C166.862 37.7053 167.514 37.8509 168.095 38.1408C168.676 38.4306 169.135 38.8404 169.473 39.3687C169.809 39.8964 169.978 40.5025 169.978 41.1876C169.978 41.4076 169.967 41.6573 169.943 41.9359L169.909 42.2844H164.66C164.66 43.3872 164.828 44.1903 165.165 44.6949C165.502 45.2002 165.973 45.4525 166.578 45.4525C167.136 45.4525 167.604 45.328 167.981 45.0783C168.359 44.8286 168.723 44.4716 169.072 44.0078L169.612 44.4083C169.275 44.9307 168.854 45.3655 168.348 45.7133C167.842 46.0612 167.165 46.2357 166.316 46.2357C165.514 46.2357 164.811 46.0507 164.206 45.6791Z" fill="#005CA9"/>
<path d="M33.0414 48.9815C33.0189 48.9815 32.9958 48.9809 32.9728 48.9783C32.7669 48.9578 32.5828 48.8472 32.468 48.6752L30.6804 45.9993C30.5345 45.7799 30.5266 45.492 30.6619 45.2661L31.917 43.1626C31.9486 43.1093 31.9559 43.048 31.9374 42.9893C31.9189 42.9307 31.878 42.8839 31.8219 42.8576L23.2238 38.9267C23.1849 38.9083 23.142 38.9023 23.0997 38.9096L21.9707 39.0894C21.7628 39.1237 21.5517 39.0604 21.3953 38.9168L20.3151 37.9247C20.2465 37.8621 20.1475 37.8496 20.0657 37.8944L16.4007 39.9116C16.1849 40.0308 15.9296 40.0262 15.7177 39.9017C15.5059 39.7765 15.3792 39.5552 15.3792 39.3094V38.4781C15.3792 38.4234 15.3588 38.3707 15.3212 38.3312L14.6224 37.5901C14.4983 37.4583 14.4317 37.2864 14.435 37.1065L14.5471 30.5557C14.5478 30.5003 14.5267 30.445 14.4884 30.4048L13.8041 29.6835C13.5784 29.4463 13.5527 29.08 13.7414 28.8132L15.2354 26.7058C15.2888 26.6314 15.2882 26.5306 15.2341 26.4561L12.5028 22.7117C12.3108 22.4488 12.3313 22.0839 12.551 21.8434L13.4366 20.875C13.4702 20.8381 13.49 20.7907 13.4927 20.7413L13.523 20.1267C13.529 20.0166 13.4504 19.9211 13.3415 19.904L12.3623 19.7538C12.2066 19.7301 12.0634 19.653 11.9578 19.5371L10.5325 17.9777C10.2778 17.6978 10.2969 17.263 10.576 17.0074L10.8024 16.8005C10.8479 16.7584 10.8736 16.6978 10.8716 16.6352L10.7681 13.4381C10.7654 13.3611 10.7219 13.2919 10.6539 13.2557L8.40306 12.0626C8.23481 11.9743 8.11404 11.8242 8.06258 11.641C8.01177 11.4605 8.03815 11.2642 8.13449 11.1028L14.5722 0.335821C14.6699 0.172454 14.8329 0.0558609 15.0189 0.0163219C15.2044 -0.0258479 15.401 0.0150065 15.5574 0.123707L19.5509 2.89515C19.8096 3.07436 19.9132 3.40504 19.8043 3.69886L19.5259 4.44853C19.4803 4.57173 19.5556 4.65607 19.58 4.67911C19.6037 4.7015 19.6928 4.77135 19.8136 4.71931L22.5844 3.50321C22.7441 3.43403 22.9236 3.42679 23.0879 3.48343L27.1065 4.87607C27.1309 4.88531 27.156 4.8886 27.1817 4.88794L30.9958 4.77463C31.0697 4.77398 31.1416 4.78189 31.2109 4.80165L34.2615 5.70482C34.3407 5.72787 34.4152 5.76544 34.4825 5.81616L40.9559 10.7207C40.9849 10.7431 41.0206 10.7576 41.0575 10.7629L45.0616 11.3031C45.3064 11.3353 45.5156 11.4981 45.608 11.7267L47.7163 16.9336C47.7605 17.0416 47.7763 17.1602 47.7618 17.2762L47.2603 21.3382C47.2432 21.4758 47.1857 21.6036 47.0933 21.7084L42.3885 27.0438L37.3622 33.3436C37.2448 33.4905 37.0699 33.5841 36.8825 33.6005C36.6938 33.6177 36.5064 33.5544 36.3658 33.4299C36.2715 33.3469 36.1685 33.3805 36.1395 33.3924C36.1104 33.4049 36.0141 33.4549 36.0088 33.5808L35.6373 41.9926C35.636 42.0348 35.6294 42.0789 35.6195 42.1217L34.8125 45.5164C34.8085 45.5316 34.8065 45.5487 34.8065 45.5658V47.218C34.8065 47.4018 34.7353 47.5751 34.6046 47.7048L33.5277 48.78C33.3977 48.9097 33.2235 48.9815 33.0414 48.9815Z" fill="#82D0F5"/>
<path d="M27.1384 25.7403C27.5601 25.3193 28.2437 25.3193 28.6653 25.7403C29.087 26.1613 29.087 26.8437 28.6653 27.2647C28.2437 27.6857 27.5601 27.6857 27.1384 27.2647C26.7167 26.8437 26.7167 26.1613 27.1384 25.7403Z" fill="#005CA9"/>
<path d="M32.601 27.0757C32.4796 26.9545 32.4327 26.7635 32.4934 26.554C32.5152 26.4756 33.0293 24.5335 31.4515 22.9584C29.8737 21.3833 27.9291 21.8971 27.8466 21.9195C27.5068 22.0131 27.2151 21.8273 27.198 21.5005C27.1801 21.1738 27.4382 20.8312 27.7786 20.7331C27.8862 20.7028 30.432 19.9972 32.4248 21.9867C34.4176 23.9762 33.7122 26.5178 33.6812 26.6251C33.5822 26.967 33.2365 27.2273 32.9085 27.2075C32.7825 27.1996 32.6769 27.1515 32.601 27.0757Z" fill="#005CA9"/>
<path d="M30.2154 27.2058C30.094 27.0846 30.0471 26.8935 30.1078 26.684C30.1171 26.6491 30.3685 25.659 29.5568 24.8493C28.7459 24.0391 27.7554 24.2907 27.7131 24.3019C27.374 24.3922 27.0836 24.2037 27.0691 23.8777C27.0526 23.5522 27.3093 23.2123 27.6485 23.1141C27.7151 23.095 29.3054 22.6543 30.5301 23.8777C31.7555 25.1003 31.3147 26.688 31.2956 26.7552C31.1966 27.0964 30.8508 27.3573 30.5229 27.3375C30.3968 27.3296 30.2913 27.2815 30.2154 27.2058Z" fill="#005CA9"/>
<path d="M9.75659 26.2141C9.75659 28.4823 11.6049 30.3275 13.8768 30.3275C16.1494 30.3275 17.9971 28.4823 17.9971 26.2141C17.9971 23.946 16.1488 22.1008 13.8768 22.1008C11.6049 22.1008 9.75659 23.946 9.75659 26.2141Z" fill="#005CA9"/>
<path d="M17.3567 33.3858C17.2913 33.7369 17.5236 34.0742 17.8746 34.1394C18.2263 34.2046 18.5642 33.9727 18.6295 33.6223C18.6955 33.2712 18.4632 32.9339 18.1115 32.8686C17.7598 32.8028 17.422 33.0347 17.3567 33.3858Z" fill="#005CA9"/>
<path d="M18.6353 31.128C18.696 31.5378 18.6472 31.9805 18.6472 31.9805C18.6472 31.9805 19.8673 32.5042 19.6252 33.8066C19.383 35.1084 18.1259 35.2151 17.6904 35.1341C17.2542 35.053 16.1186 34.5016 16.3607 33.2012C16.6029 31.9001 17.891 31.8501 17.891 31.8501C17.9484 31.3876 17.8098 30.9298 17.7056 30.6643C17.666 30.6307 17.6185 30.5905 17.5789 30.5569C17.3407 30.5003 17.3954 30.5101 16.8669 30.4146C16.7415 30.3929 16.6141 30.3724 16.4848 30.3533C16.3726 30.3369 16.2565 30.3731 16.1734 30.4508L15.6006 30.9864C14.6312 31.8929 13.1234 31.8929 12.1541 30.9864L11.5833 30.4522C11.4988 30.3738 11.3827 30.3369 11.2679 30.3533C11.0956 30.3784 10.926 30.406 10.7604 30.4364C10.7604 30.4364 10.5598 30.4772 10.3817 30.5141C10.2635 30.5385 10.1646 30.6281 10.1428 30.7466C10.0432 31.2829 10.117 31.8758 10.117 31.8758C10.3038 31.9014 10.5354 32.1676 10.5354 32.1676C10.5354 32.1676 10.9703 32.0971 11.7285 32.8217C12.486 33.5471 12.3705 33.773 12.3705 33.773L12.9096 34.7862L12.0775 34.9799C12.0247 34.8126 11.6691 34.2447 11.6691 34.2447C11.4896 34.2572 11.3292 33.9812 11.3292 33.9812C10.4919 33.1366 10.053 33.2335 10.053 33.2335C10.053 33.2335 9.37734 33.4937 9.34433 34.1242C9.31134 34.7546 9.00912 34.9535 9.00912 34.9535C8.91344 35.0616 8.97942 35.7019 8.97942 35.7019C8.97942 35.7019 8.40731 35.8356 8.14865 35.8956C8.07144 35.779 8.17901 34.7816 8.17901 34.7816C7.97181 33.7229 9.11207 32.522 9.11207 32.522C9.09755 32.3389 9.36941 32.0477 9.36941 32.0477C9.27505 31.8408 9.29747 31.3494 9.32454 31.0253C9.3351 30.9054 9.21565 30.8145 9.1015 30.8527C7.58116 31.3599 6.62103 32.105 6.62103 32.9357C6.62103 33.1472 8.66268 37.3264 10.0049 40.0498C10.7043 41.4694 12.1508 42.3667 13.7358 42.3667H13.9172C15.5029 42.3667 16.9494 41.4688 17.6488 40.0478C18.9897 37.3245 21.133 33.1472 21.133 32.9357C21.133 32.1459 20.2632 31.4344 18.8709 30.9304C18.7436 30.8843 18.6155 30.9943 18.6353 31.128Z" fill="#005CA9"/>
<path d="M39.417 10.9113C39.417 13.1795 41.2653 15.0247 43.5372 15.0247C45.8098 15.0247 47.6575 13.1795 47.6575 10.9113C47.6575 8.64317 45.8092 6.79794 43.5372 6.79794C41.2653 6.79794 39.417 8.64317 39.417 10.9113Z" fill="#005CA9"/>
<path d="M47.0172 18.0828C46.9518 18.434 47.1841 18.7712 47.5352 18.8365C47.8869 18.9017 48.2247 18.6698 48.2901 18.3193C48.356 17.9682 48.1238 17.6309 47.772 17.5657C47.4203 17.4998 47.0825 17.7317 47.0172 18.0828Z" fill="#005CA9"/>
<path d="M50.5439 17.5679C50.6739 17.0672 49.397 16.4328 48.3201 16.0817C48.3372 16.4005 48.3075 16.6772 48.3075 16.6772C48.3075 16.6772 49.5276 17.2016 49.2855 18.5033C49.0433 19.8057 47.7862 19.9118 47.3507 19.8314C46.9145 19.7504 45.7789 19.199 46.0211 17.8979C46.2633 16.5975 47.5513 16.5474 47.5513 16.5474C47.6087 16.0843 47.4702 15.6265 47.3659 15.361C47.3263 15.3274 47.2788 15.2872 47.2392 15.2543C47.001 15.1976 47.0558 15.2075 46.5272 15.112C46.4012 15.0902 46.2745 15.0698 46.1451 15.0507C46.033 15.0336 45.9168 15.0705 45.8337 15.1475L45.2609 15.6838C44.2916 16.5902 42.7838 16.5902 41.8144 15.6838L41.2436 15.1495C41.1591 15.0711 41.0424 15.0336 40.9282 15.0507C40.756 15.0757 40.5864 15.1034 40.4207 15.1337C40.4207 15.1337 40.2202 15.1746 40.042 15.2114C39.9239 15.2358 39.8249 15.3254 39.8031 15.444C39.7035 15.9796 39.7774 16.5725 39.7774 16.5725C39.9641 16.5988 40.1957 16.8643 40.1957 16.8643C40.1957 16.8643 40.6306 16.7945 41.3888 17.5191C42.1463 18.2438 42.0308 18.4697 42.0308 18.4697L42.57 19.4829L41.7378 19.6772C41.6851 19.5099 41.3294 18.9421 41.3294 18.9421C41.1499 18.9539 40.9896 18.6785 40.9896 18.6785C40.1522 17.834 39.7134 17.9308 39.7134 17.9308C39.7134 17.9308 39.0377 18.1904 39.0047 18.8208C38.9717 19.4519 38.6695 19.6509 38.6695 19.6509C38.5738 19.7589 38.6398 20.3993 38.6398 20.3993C38.6398 20.3993 38.0677 20.5324 37.8083 20.5929C37.7318 20.4763 37.8393 19.479 37.8393 19.479C37.6321 18.4203 38.7724 17.2194 38.7724 17.2194C38.7579 17.0362 39.0304 16.7451 39.0304 16.7451C38.9354 16.5382 38.9578 16.0468 38.9849 15.7226C38.9954 15.6028 38.876 15.5112 38.7618 15.55C37.2415 16.0566 36.2814 16.8024 36.2814 17.6331C36.2814 17.8446 38.323 22.0231 39.6652 24.7465C40.3647 26.1668 41.8111 27.0634 43.3961 27.0634H43.5776C45.1633 27.0634 46.6097 26.1662 47.3091 24.7452C47.7572 23.8354 48.2937 22.7649 48.811 21.7326C49.529 20.1311 50.3908 18.1542 50.5439 17.5679Z" fill="#005CA9"/>
<path d="M53.5379 14.3649C55.3024 14.3649 56.737 12.9321 56.737 11.1705C56.737 9.40965 55.3024 7.97681 53.5379 7.97681C51.7734 7.97681 50.3389 9.40965 50.3389 11.1705C50.3389 12.9321 51.7741 14.3649 53.5379 14.3649Z" fill="#005CA9"/>
<path d="M61.4698 9.20368C61.1511 8.76562 60.5949 8.55019 60.0933 8.84336C59.6598 9.09633 59.411 9.77618 59.7324 10.2182C59.8367 10.3618 59.9363 10.5087 60.0247 10.6642C60.0683 10.7406 60.1098 10.8197 60.1488 10.8994C60.1554 10.9119 60.1903 10.9942 60.2049 11.0259C60.2643 11.1833 60.3144 11.3447 60.3527 11.5081C60.3659 11.5634 60.3764 11.6194 60.387 11.6754C60.3811 11.6556 60.4081 11.8487 60.4088 11.8592C60.4174 11.9969 60.418 12.1352 60.4114 12.2729C60.4081 12.3335 60.4028 12.3941 60.3969 12.4541C60.3942 12.4785 60.389 12.516 60.3824 12.5509C60.3534 12.7011 60.3164 12.8493 60.2715 12.9956C60.2491 13.0687 60.2227 13.1398 60.1983 13.213C60.1917 13.2321 60.1877 13.2453 60.1838 13.2558C60.1818 13.2604 60.1805 13.2624 60.1771 13.2703C60.0538 13.5371 59.9046 13.7835 59.739 14.0266C59.7304 14.0391 59.7265 14.045 59.7199 14.0549C59.7152 14.0602 59.71 14.0654 59.6994 14.078C59.6493 14.1372 59.5998 14.1952 59.5476 14.2519C59.4434 14.3645 59.3338 14.4726 59.219 14.574C59.2091 14.5826 59.1444 14.6359 59.1088 14.6669C59.0712 14.6926 58.9841 14.7565 58.9867 14.7545C58.8607 14.8402 58.7294 14.9192 58.5941 14.9903C58.54 15.0187 58.4846 15.045 58.4298 15.0714C58.4166 15.078 58.412 15.0806 58.4021 15.0852C58.3955 15.0872 58.3889 15.0885 58.3737 15.0944C58.3322 15.1089 58.2899 15.1181 58.2484 15.1313C57.7416 14.8191 57.1107 14.632 56.5743 14.5213C56.0266 14.408 55.463 14.5595 55.0453 14.9311C54.7721 15.1741 54.3096 15.4041 53.5382 15.4041C52.7661 15.4041 52.3036 15.1741 52.0304 14.9311C51.6127 14.5595 51.0491 14.408 50.5021 14.5213C49.959 14.6333 49.3209 14.823 48.8115 15.1419C49.9696 15.5562 51.7394 16.3837 51.4497 17.4983C51.286 18.1255 50.512 19.939 49.7564 21.6446C50.6585 23.1058 51.8918 24.2507 53.5382 24.2507C56.8527 24.2507 58.4951 19.613 59.122 17.0892C59.1352 17.0345 59.1405 16.9845 59.1497 16.9324C60.3824 16.4219 61.4171 15.4172 61.9522 14.1998C62.6781 12.5489 62.5448 10.682 61.4698 9.20368Z" fill="#005CA9"/>
<path d="M35.29 39.5701C35.29 42.3679 33.0101 44.644 30.2077 44.644H6.63109C3.82861 44.644 1.54809 42.3679 1.54809 39.5701V24.1568C1.54809 21.359 3.82861 19.0823 6.63109 19.0823H23.0025V24.8248C23.0025 28.4751 25.9766 31.4448 29.6329 31.4448H35.29V39.5701ZM30.2077 19.0823C33.0101 19.0823 35.29 21.359 35.29 24.1568V29.8993H29.6329C26.8304 29.8993 24.5506 27.6226 24.5506 24.8248V19.0823H30.2077ZM59.0658 22.249C58.6382 22.249 58.2918 22.5949 58.2918 23.0218V24.8248C58.2918 27.6226 56.012 29.8993 53.2095 29.8993H36.838V24.1568C36.838 20.5066 33.8633 17.5368 30.2076 17.5368H24.5505V9.41153C24.5505 6.61372 26.8304 4.33766 29.6329 4.33766H53.2095C54.9007 4.33766 56.4765 5.1743 57.4241 6.57486C57.6636 6.92861 58.144 7.02216 58.499 6.78303C58.8534 6.5439 58.9464 6.06364 58.7075 5.70989C57.4709 3.88244 55.4154 2.79218 53.2095 2.79218H29.6329C25.9765 2.79218 23.0025 5.76192 23.0025 9.41153V17.5368H6.63106C2.97471 17.5368 0 20.5066 0 24.1568V39.5701C0 43.2197 2.97471 46.1895 6.63106 46.1895H30.2076C33.8633 46.1895 36.838 43.2197 36.838 39.5701V31.4448H53.2095C56.8658 31.4448 59.8399 28.4751 59.8399 24.8248V23.0218C59.8399 22.5949 59.4934 22.249 59.0658 22.249Z" fill="#005CA9"/>
</g>
<defs>
<clipPath id="clip0_1296_351">
<rect width="170" height="49" fill="white"/>
</clipPath>
</defs>
</svg>
