<svg version="1.2" xmlns="http://www.w3.org/2000/svg" viewBox="0 0 67 49" width="67" height="49">
	<title>logo-telenordeste-sm-svg</title>
	<defs>
		<clipPath clipPathUnits="userSpaceOnUse" id="cp1">
			<path d="m0 0h170v49h-170z"/>
		</clipPath>
	</defs>
	<style>
		.s0 { fill: #005ca9 } 
		.s1 { fill: #f18318 } 
		.s2 { fill: #40a935 } 
		.s3 { fill: #82d0f5 } 
	</style>
	<g id="Clip-Path" clip-path="url(#cp1)">
		<g id="Layer">
			<path id="Layer" fill-rule="evenodd" class="s0" d="m71.6 22q0-0.4-0.1-0.6-0.1-0.2-0.5-0.2h-0.1v-0.2h2.2q0.8 0 1.4 0.3 0.7 0.3 0.7 1.2 0 0.7-0.3 1-0.4 0.3-0.8 0.4-0.4 0.1-0.8 0.1h-0.7v2.1h-1zm1.5 1.8q0.4 0 0.7-0.3 0.3-0.3 0.3-1 0-0.6-0.3-0.9-0.3-0.3-0.7-0.3-0.2 0-0.4 0.1h-0.1v2.4z"/>
			<path id="Layer" fill-rule="evenodd" class="s0" d="m78.9 25.9q-0.3-0.2-0.7-0.8l-0.8-1.3h-0.3v2.3h-1v-4.1q0-0.4-0.1-0.6-0.1-0.2-0.5-0.2h-0.1v-0.2h2.2q0.8 0 1.5 0.3 0.6 0.3 0.6 1.1 0 1-1.3 1.3l0.9 1.4q0.4 0.7 0.9 0.8v0.2q0 0.1-0.2 0.1-0.2 0-0.3 0-0.4 0-0.8-0.3zm-1.3-2.4q0.4 0 0.7-0.3 0.3-0.3 0.3-0.8 0-0.6-0.3-0.8-0.3-0.3-0.7-0.3-0.2 0-0.4 0l-0.1 0.1v2.1z"/>
			<path id="Layer" fill-rule="evenodd" class="s0" d="m81.6 25.9q-0.5-0.3-0.9-1-0.3-0.6-0.3-1.3 0-0.8 0.3-1.4 0.4-0.7 0.9-1 0.6-0.4 1.4-0.4 0.8 0 1.3 0.4 0.6 0.3 0.9 1 0.4 0.6 0.4 1.4 0 0.7-0.4 1.3-0.3 0.7-0.9 1-0.5 0.4-1.3 0.4-0.8 0-1.4-0.4zm2.5-0.6q0.4-0.6 0.4-1.7 0-1.2-0.4-1.8-0.4-0.6-1.1-0.6-0.7 0-1.1 0.6-0.4 0.6-0.4 1.8 0 1.1 0.4 1.7 0.4 0.6 1.1 0.6 0.7 0 1.1-0.6z"/>
			<path id="Layer" class="s0" d="m85.7 27q0.4-0.1 0.5-0.4 0.2-0.3 0.2-1.1v-4.5h1v4.5q0 0.7-0.1 1-0.2 0.4-0.5 0.5-0.4 0.2-1.1 0.2z"/>
			<path id="Layer" class="s0" d="m88.8 22q0-0.4-0.2-0.6-0.1-0.2-0.4-0.2h-0.1v-0.2h3.5q0.6 0 0.6 0.6v0.7h-0.2q0-0.5-0.2-0.7-0.3-0.3-0.8-0.3h-1.2v2h2v0.3h-2v2.2h1.3q0.4 0 0.7-0.2 0.3-0.2 0.5-0.7l0.2 0.1-0.2 0.6q-0.1 0.3-0.2 0.4-0.2 0.1-0.5 0.1h-2.8z"/>
			<path id="Layer" class="s0" d="m94.5 21.3h-0.6q-0.4 0-0.6 0.3-0.2 0.2-0.2 0.7h-0.3v-0.7q0-0.6 0.7-0.6h3.6v0.3h-1.6v4.8h-1z"/>
			<path id="Layer" fill-rule="evenodd" class="s0" d="m98.4 25.9q-0.6-0.3-0.9-1-0.3-0.6-0.3-1.3 0-0.8 0.3-1.4 0.3-0.7 0.9-1 0.6-0.4 1.3-0.4 0.8 0 1.4 0.4 0.6 0.3 0.9 1 0.3 0.6 0.3 1.4 0 0.7-0.3 1.3-0.3 0.7-0.9 1-0.6 0.4-1.4 0.4-0.7 0-1.3-0.4zm2.4-0.6q0.4-0.6 0.4-1.7 0-1.2-0.4-1.8-0.4-0.6-1.1-0.6-0.7 0-1.1 0.6-0.4 0.6-0.4 1.8 0 1.1 0.4 1.7 0.4 0.6 1.1 0.6 0.7 0 1.1-0.6z"/>
			<path id="Layer" class="s1" d="m73.4 35.4h-1.2q-1 0-1.5 0.4-0.5 0.5-0.5 1.6h-0.5v-1.4q0-1.4 1.5-1.4h8.2v0.8h-3.7v10.7h-2.3z"/>
			<path id="Layer" fill-rule="evenodd" class="s0" d="m80.7 45.7q-0.9-0.6-1.4-1.5-0.5-1-0.5-2.2 0-1.4 0.5-2.3 0.5-1 1.4-1.5 0.9-0.5 1.9-0.5 1.1 0 2 0.4 0.9 0.5 1.4 1.3 0.5 0.8 0.5 1.8 0 0.3 0 0.7l-0.1 0.4h-5.2q0 1.6 0.5 2.4 0.5 0.8 1.4 0.8 0.8 0 1.4-0.4 0.6-0.4 1.1-1.1l0.5 0.4q-0.5 0.8-1.2 1.3-0.8 0.5-2.1 0.5-1.2 0-2.1-0.5zm3.4-4.2q0-1.6-0.4-2.3-0.3-0.7-1.1-0.7-0.6 0-1 0.7-0.4 0.7-0.4 2.3z"/>
			<path id="Layer" class="s0" d="m88.2 36.8q0-0.9-0.3-1.3-0.2-0.4-1-0.4h-0.1v-0.5h2.1q0.6 0 0.9 0.2 0.3 0.2 0.5 0.7 0.1 0.4 0.1 1.3v9.3h-2.2z"/>
			<path id="Layer" fill-rule="evenodd" class="s0" d="m94.1 45.7q-0.9-0.6-1.4-1.5-0.5-1-0.5-2.2 0-1.4 0.5-2.3 0.5-1 1.4-1.5 0.8-0.5 1.9-0.5 1.1 0 2 0.4 0.8 0.5 1.4 1.3 0.5 0.8 0.5 1.8 0 0.3-0.1 0.7v0.4h-5.3q0 1.6 0.5 2.4 0.6 0.8 1.5 0.8 0.8 0 1.4-0.4 0.5-0.4 1.1-1.1l0.5 0.4q-0.5 0.8-1.3 1.3-0.7 0.5-2 0.5-1.2 0-2.1-0.5zm3.4-4.2q0-1.6-0.4-2.3-0.4-0.7-1.1-0.7-0.6 0-1 0.7-0.5 0.7-0.5 2.3z"/>
			<path id="Layer" class="s2" d="m102.8 37.4v8.7h-0.9v-9.4q0-0.8-0.4-1.2-0.3-0.4-1.2-0.4h-0.1v-0.5h1.2q1 0 1.6 0.2 0.7 0.3 1.1 0.8l6 7v-8h0.9v11.5h-0.8z"/>
			<path id="Layer" fill-rule="evenodd" class="s0" d="m114.7 45.7q-0.9-0.6-1.4-1.6-0.5-0.9-0.5-2.1 0-1.2 0.5-2.2 0.5-1 1.4-1.5 1-0.6 2.3-0.6 1.2 0 2.2 0.6 0.9 0.5 1.4 1.5 0.6 1 0.6 2.2 0 1.2-0.6 2.1-0.5 1-1.4 1.6-1 0.5-2.2 0.5-1.3 0-2.3-0.5zm3.6-1.2q0.5-1 0.5-2.5 0-1.6-0.5-2.6-0.4-0.9-1.3-0.9-0.9 0-1.4 0.9-0.5 1-0.5 2.6 0 1.5 0.5 2.5 0.5 1 1.4 1 0.9 0 1.3-1z"/>
			<path id="Layer" class="s0" d="m128.9 38.5q0.1 0.3 0.1 0.3l-0.9 0.7q-0.1-0.1-0.3-0.3-0.4-0.4-0.9-0.4-1 0-1.5 0.6v0.2q0 0.4 0 0.6v5.9h-2.2v-6q0-0.8-0.3-1.3-0.2-0.4-0.9-0.4h-0.2v-0.5h1.7q0.6 0 1 0.1 0.3 0.2 0.5 0.5 0.9-0.8 2.2-0.8 0.7 0 1.2 0.4 0.3 0.2 0.5 0.4z"/>
			<path id="Layer" fill-rule="evenodd" class="s0" d="m130.5 45q-0.9-1.1-0.9-3 0-1.9 0.9-3.1 1-1.2 2.8-1.2 0.6 0 1.4 0.3 0.2 0.1 0.4 0.2v-1.4q0-0.9-0.2-1.3-0.3-0.4-1-0.4h-0.2v-0.5h2.1q0.7 0 1 0.2 0.3 0.2 0.5 0.7 0.1 0.4 0.1 1.3v9.3h-1.5l-0.6-0.8h-0.1q-0.1 0.2-0.5 0.5-0.6 0.4-1.5 0.4-1.7 0-2.7-1.2zm4.2-0.1q0.2-0.2 0.4-0.6v-5.3q-0.1-0.1-0.4-0.3-0.5-0.2-1-0.2-1.8 0-1.8 3.5 0 1.6 0.4 2.5 0.4 1 1.3 1 0.6 0 1.1-0.6z"/>
			<path id="Layer" fill-rule="evenodd" class="s0" d="m141 45.7q-0.9-0.6-1.4-1.5-0.5-1-0.5-2.2 0-1.4 0.5-2.3 0.5-1 1.4-1.5 0.8-0.5 1.9-0.5 1.1 0 2 0.4 0.9 0.5 1.4 1.3 0.5 0.8 0.5 1.8 0 0.3-0.1 0.7v0.4h-5.3q0.1 1.6 0.6 2.4 0.5 0.8 1.4 0.8 0.8 0 1.4-0.4 0.5-0.4 1.1-1.1l0.5 0.4q-0.5 0.8-1.3 1.3-0.7 0.5-2 0.5-1.2 0-2.1-0.5zm3.4-4.2q0-1.6-0.4-2.3-0.4-0.7-1.1-0.7-0.6 0-1 0.7-0.4 0.7-0.5 2.3z"/>
			<path id="Layer" class="s0" d="m148.5 45.5q-0.3-0.2-0.3-0.7-0.1-0.5-0.1-1.3h0.6q0.2 0.9 0.7 1.4 0.6 0.6 1.6 0.6 1.7 0 1.7-1.2 0-0.5-0.4-0.8-0.3-0.3-1.2-0.6l-0.9-0.4q-1.1-0.5-1.6-1.1-0.6-0.6-0.6-1.4 0-1.1 0.9-1.7 0.9-0.6 2.4-0.6 2.1 0 2.8 0.7 0.3 0.3 0.4 0.7 0 0.5 0 1.4h-0.6q-0.1-0.9-0.7-1.5-0.5-0.5-1.5-0.5-0.8 0-1.1 0.3-0.4 0.3-0.4 0.9 0 0.4 0.3 0.7 0.3 0.3 0.9 0.6l1.1 0.4q1.3 0.5 1.8 1.1 0.6 0.5 0.6 1.4 0 1.1-1 1.7-1 0.6-2.6 0.6-2 0-2.8-0.7z"/>
			<path id="Layer" class="s0" d="m157.6 45.6q-0.7-0.7-0.7-1.9v-5h-1v-0.8h1v-1.6l0.9-1h1.4v2.6h1.9v0.8h-1.9v5.1q0 0.9 0.2 1.3 0.2 0.4 0.7 0.4 0.5 0 1-0.3 0.1-0.1 0.4-0.2l0.2 0.5q-0.2 0.2-0.5 0.4-0.8 0.3-1.8 0.3-1.2 0-1.8-0.6z"/>
			<path id="Layer" fill-rule="evenodd" class="s0" d="m164.2 45.7q-0.9-0.6-1.4-1.5-0.5-1-0.5-2.2 0-1.4 0.5-2.3 0.5-1 1.4-1.5 0.8-0.5 1.9-0.5 1.1 0 2 0.4 0.9 0.5 1.4 1.3 0.5 0.8 0.5 1.8 0 0.3-0.1 0.7v0.4h-5.2q0 1.6 0.5 2.4 0.5 0.8 1.4 0.8 0.8 0 1.4-0.4 0.5-0.4 1.1-1.1l0.5 0.4q-0.5 0.8-1.3 1.3-0.7 0.5-2 0.5-1.2 0-2.1-0.5zm3.4-4.2q0-1.6-0.4-2.3-0.3-0.7-1.1-0.7-0.6 0-1 0.7-0.4 0.7-0.4 2.3z"/>
			<path id="Layer" class="s3" d="m33 49q0 0 0 0-0.3-0.1-0.5-0.3l-1.8-2.7c-0.2-0.2-0.2-0.5 0-0.7l1.2-2.1q0.1-0.1 0-0.2 0-0.1-0.1-0.1l-8.6-4q0 0-0.1 0l-1.1 0.2q-0.4 0-0.6-0.2l-1.1-1q-0.1-0.1-0.2 0l-3.7 2c-0.2 0.1-0.5 0.1-0.7 0-0.2-0.1-0.3-0.3-0.3-0.6v-0.8q0-0.1-0.1-0.2l-0.7-0.7q-0.2-0.2-0.2-0.5l0.1-6.5q0-0.1 0-0.2l-0.7-0.7c-0.2-0.3-0.2-0.6-0.1-0.9l1.5-2.1q0.1-0.1 0-0.2l-2.7-3.8c-0.2-0.3-0.2-0.6 0.1-0.9l0.8-0.9q0.1-0.1 0.1-0.2v-0.6c0-0.1 0-0.2-0.2-0.2l-0.9-0.1q-0.3-0.1-0.4-0.3l-1.5-1.5c-0.2-0.3-0.2-0.7 0.1-1l0.2-0.2q0.1-0.1 0.1-0.2l-0.1-3.2q0-0.1-0.1-0.1l-2.3-1.2q-0.3-0.2-0.3-0.5-0.1-0.2 0-0.5l6.5-10.8q0.1-0.2 0.4-0.3 0.3 0 0.6 0.1l4 2.8c0.2 0.2 0.3 0.5 0.2 0.8l-0.3 0.7c0 0.2 0.1 0.3 0.1 0.3 0 0 0.1 0.1 0.2 0l2.8-1.2q0.2-0.1 0.5 0l4 1.4q0 0 0.1 0l3.8-0.1q0.1 0 0.2 0l3.1 0.9q0.1 0 0.2 0.1l6.5 4.9q0 0.1 0.1 0.1l4 0.5c0.2 0 0.4 0.2 0.5 0.4l2.1 5.2q0.1 0.2 0.1 0.4l-0.5 4q-0.1 0.2-0.2 0.4l-4.7 5.3-5 6.3q-0.2 0.3-0.5 0.3-0.3 0-0.5-0.2c-0.1-0.1-0.2 0-0.3 0 0 0-0.1 0.1-0.1 0.2l-0.4 8.4q0 0.1 0 0.1l-0.8 3.4q0 0 0 0.1v1.6q0 0.3-0.2 0.5l-1.1 1.1q-0.2 0.2-0.5 0.2z"/>
			<path id="Layer" class="s0" d="m27.1 25.7c0.5-0.4 1.1-0.4 1.6 0 0.4 0.5 0.4 1.1 0 1.6-0.5 0.4-1.1 0.4-1.6 0-0.4-0.5-0.4-1.1 0-1.6z"/>
			<path id="Layer" class="s0" d="m32.6 27.1q-0.2-0.2-0.1-0.5c0-0.1 0.5-2.1-1-3.6-1.6-1.6-3.6-1.1-3.7-1.1-0.3 0.1-0.6-0.1-0.6-0.4 0-0.3 0.2-0.7 0.6-0.8 0.1 0 2.6-0.7 4.6 1.3 2 2 1.3 4.5 1.3 4.6-0.1 0.4-0.5 0.6-0.8 0.6q-0.2 0-0.3-0.1z"/>
			<path id="Layer" class="s0" d="m30.2 27.2q-0.2-0.2-0.1-0.5c0-0.1 0.3-1-0.5-1.9-0.9-0.8-1.8-0.5-1.9-0.5-0.3 0.1-0.6-0.1-0.6-0.4 0-0.3 0.2-0.7 0.5-0.8 0.1 0 1.7-0.4 2.9 0.8 1.3 1.2 0.8 2.8 0.8 2.9-0.1 0.3-0.4 0.6-0.8 0.5q-0.2 0-0.3-0.1z"/>
			<path id="Layer" class="s0" d="m9.8 26.2c0 2.3 1.8 4.1 4.1 4.1 2.2 0 4.1-1.8 4.1-4.1 0-2.3-1.9-4.1-4.1-4.1-2.3 0-4.1 1.8-4.1 4.1z"/>
			<path id="Layer" class="s0" d="m17.4 33.4c-0.1 0.3 0.1 0.7 0.5 0.7 0.3 0.1 0.7-0.1 0.7-0.5 0.1-0.3-0.1-0.7-0.5-0.7-0.3-0.1-0.7 0.1-0.7 0.5z"/>
			<path id="Layer" class="s0" d="m18.6 31.1c0.1 0.4 0 0.9 0 0.9 0 0 1.3 0.5 1 1.8-0.2 1.3-1.5 1.4-1.9 1.3-0.4 0-1.6-0.6-1.3-1.9 0.2-1.3 1.5-1.3 1.5-1.3 0-0.5-0.1-1-0.2-1.2q-0.1-0.1-0.1-0.1c-0.3-0.1-0.2-0.1-0.7-0.2q-0.2 0-0.4 0-0.2-0.1-0.3 0.1l-0.6 0.5c-1 0.9-2.5 0.9-3.4 0l-0.6-0.5q-0.2-0.2-0.3-0.1-0.3 0-0.5 0c0 0-0.2 0.1-0.4 0.1-0.1 0-0.2 0.1-0.3 0.2-0.1 0.6 0 1.2 0 1.2 0.2 0 0.4 0.3 0.4 0.3 0 0 0.5-0.1 1.2 0.6 0.8 0.7 0.7 1 0.7 1l0.5 1-0.8 0.2c-0.1-0.2-0.4-0.8-0.4-0.8-0.2 0.1-0.4-0.2-0.4-0.2-0.8-0.9-1.2-0.8-1.2-0.8 0 0-0.7 0.3-0.8 0.9 0 0.7-0.3 0.9-0.3 0.9-0.1 0.1 0 0.7 0 0.7 0 0-0.6 0.1-0.9 0.2 0-0.1 0.1-1.1 0.1-1.1-0.2-1.1 0.9-2.3 0.9-2.3 0-0.2 0.3-0.5 0.3-0.5-0.1-0.2-0.1-0.7-0.1-1 0-0.1-0.1-0.2-0.2-0.1-1.5 0.5-2.5 1.2-2.5 2 0 0.2 2.1 4.4 3.4 7.1 0.7 1.5 2.2 2.4 3.7 2.4h0.2c1.6 0 3-0.9 3.7-2.4 1.4-2.7 3.5-6.9 3.5-7.1 0-0.8-0.8-1.5-2.2-2-0.2 0-0.3 0.1-0.3 0.2z"/>
			<path id="Layer" class="s0" d="m39.4 10.9c0 2.3 1.9 4.1 4.1 4.1 2.3 0 4.2-1.8 4.2-4.1 0-2.3-1.9-4.1-4.2-4.1-2.2 0-4.1 1.8-4.1 4.1z"/>
			<path id="Layer" class="s0" d="m47 18.1c0 0.3 0.2 0.7 0.5 0.7 0.4 0.1 0.7-0.1 0.8-0.5 0.1-0.3-0.2-0.7-0.5-0.7-0.4-0.1-0.7 0.1-0.8 0.5z"/>
			<path id="Layer" class="s0" d="m50.5 17.6c0.2-0.5-1.1-1.2-2.2-1.5 0 0.3 0 0.6 0 0.6 0 0 1.2 0.5 1 1.8-0.3 1.3-1.5 1.4-1.9 1.3-0.5 0-1.6-0.6-1.4-1.9 0.3-1.3 1.6-1.4 1.6-1.4 0-0.4-0.1-0.9-0.2-1.1q-0.1-0.1-0.2-0.1c-0.2-0.1-0.1-0.1-0.7-0.2q-0.2 0-0.4 0-0.1-0.1-0.3 0l-0.5 0.6c-1 0.9-2.5 0.9-3.5 0l-0.6-0.6q-0.1-0.1-0.3 0-0.2 0-0.5 0c0 0-0.2 0.1-0.4 0.1-0.1 0-0.2 0.1-0.2 0.2-0.1 0.6 0 1.2 0 1.2 0.2 0 0.4 0.3 0.4 0.3 0 0 0.4-0.1 1.2 0.6 0.7 0.7 0.6 1 0.6 1l0.6 1-0.9 0.2c0-0.2-0.4-0.8-0.4-0.8-0.2 0.1-0.3-0.2-0.3-0.2-0.8-0.9-1.3-0.8-1.3-0.8 0 0-0.7 0.3-0.7 0.9 0 0.7-0.3 0.9-0.3 0.9-0.1 0.1-0.1 0.7-0.1 0.7 0 0-0.5 0.1-0.8 0.2-0.1-0.1 0-1.1 0-1.1-0.2-1.1 1-2.3 1-2.3 0-0.2 0.2-0.5 0.2-0.5-0.1-0.2 0-0.7 0-1 0-0.1-0.1-0.2-0.2-0.2-1.6 0.6-2.5 1.3-2.5 2.1 0 0.2 2 4.4 3.4 7.1 0.7 1.5 2.1 2.4 3.7 2.4h0.2c1.6 0 3-0.9 3.7-2.4 0.5-0.9 1-1.9 1.5-3 0.7-1.6 1.6-3.5 1.7-4.1z"/>
			<path id="Layer" class="s0" d="m53.5 14.4c1.8 0 3.2-1.5 3.2-3.2 0-1.8-1.4-3.2-3.2-3.2-1.7 0-3.2 1.4-3.2 3.2 0 1.7 1.5 3.2 3.2 3.2z"/>
			<path id="Layer" class="s0" d="m61.5 9.2c-0.3-0.4-0.9-0.6-1.4-0.4-0.4 0.3-0.7 1-0.4 1.4q0.2 0.2 0.3 0.5 0.1 0.1 0.1 0.2c0.1 0 0.1 0.1 0.1 0.1q0.1 0.3 0.2 0.5 0 0.1 0 0.2c0 0 0 0.1 0 0.2q0 0.2 0 0.4 0 0.1 0 0.2 0 0 0 0.1-0.1 0.2-0.1 0.4-0.1 0.1-0.1 0.2 0 0 0 0.1 0 0 0 0-0.2 0.4-0.5 0.7 0 0 0 0.1 0 0 0 0-0.1 0.1-0.2 0.2-0.1 0.1-0.3 0.3c0 0-0.1 0-0.1 0.1 0 0-0.1 0.1-0.1 0.1q-0.2 0.1-0.4 0.2-0.1 0-0.2 0.1 0 0 0 0 0 0 0 0-0.1 0-0.2 0c-0.5-0.3-1.1-0.5-1.6-0.6-0.6-0.1-1.1 0.1-1.6 0.4-0.2 0.3-0.7 0.5-1.5 0.5-0.7 0-1.2-0.2-1.5-0.5-0.4-0.3-1-0.5-1.5-0.4-0.5 0.1-1.2 0.3-1.7 0.6 1.2 0.5 2.9 1.3 2.6 2.4-0.1 0.6-0.9 2.4-1.6 4.1 0.9 1.5 2.1 2.7 3.7 2.7 3.4 0 5-4.7 5.6-7.2q0-0.1 0-0.2c1.3-0.5 2.3-1.5 2.9-2.7 0.7-1.7 0.5-3.5-0.5-5z"/>
			<path id="Layer" fill-rule="evenodd" class="s0" d="m59.8 23v1.8c0 3.7-2.9 6.6-6.6 6.6h-16.4v8.2c0 3.6-2.9 6.6-6.6 6.6h-23.6c-3.6 0-6.6-3-6.6-6.6v-15.4c0-3.7 3-6.7 6.6-6.7h16.4v-8.1c0-3.6 3-6.6 6.6-6.6h23.6c2.2 0 4.3 1.1 5.5 2.9 0.2 0.4 0.2 0.8-0.2 1.1-0.4 0.2-0.8 0.1-1.1-0.2-0.9-1.4-2.5-2.3-4.2-2.3h-23.6c-2.8 0-5 2.3-5 5.1v8.1h5.6c3.7 0 6.6 3 6.6 6.7v5.7h16.4c2.8 0 5.1-2.3 5.1-5.1v-1.8c0-0.4 0.3-0.8 0.8-0.8 0.4 0 0.7 0.4 0.7 0.8zm-24.5 8.4h-5.7c-3.6 0-6.6-2.9-6.6-6.6v-5.7h-16.4c-2.8 0-5.1 2.3-5.1 5.1v15.4c0 2.8 2.3 5 5.1 5h23.6c2.8 0 5.1-2.2 5.1-5zm-10.7-12.4v5.8c0 2.7 2.2 5 5 5h5.7v-5.7c0-2.8-2.3-5.1-5.1-5.1z"/>
		</g>
	</g>
</svg>